<svg xmlns="http://www.w3.org/2000/svg" width="136.208" height="127.82" viewBox="0 0 136.208 127.82"><defs><style>.a{fill:#909090;stroke:#fff;stroke-width:2px;}</style></defs><g transform="translate(1 1)"><path class="a" d="M383.621,352a2.622,2.622,0,1,0,1.853.768A2.642,2.642,0,0,0,383.621,352Zm0,0" transform="translate(-281.13 -259.732)"/><path class="a" d="M126.345,0H7.864A7.872,7.872,0,0,0,0,7.864V89.647a7.872,7.872,0,0,0,7.864,7.864H52.949V108H52.3a15.221,15.221,0,0,0-15.2,15.2,2.621,2.621,0,0,0,2.621,2.621H94.491a2.621,2.621,0,0,0,2.621-2.621,15.22,15.22,0,0,0-15.2-15.2h-.65V97.511h10.66a2.621,2.621,0,0,0,0-5.243H7.864a2.624,2.624,0,0,1-2.621-2.621V7.864A2.624,2.624,0,0,1,7.864,5.243H126.345a2.624,2.624,0,0,1,2.621,2.621V75.492H23.754a2.621,2.621,0,1,0,0,5.243H128.966v8.912a2.624,2.624,0,0,1-2.621,2.621H112.976a2.621,2.621,0,0,0,0,5.243h13.368a7.872,7.872,0,0,0,7.864-7.864V7.864A7.872,7.872,0,0,0,126.345,0ZM91.52,120.578H42.689a9.978,9.978,0,0,1,9.611-7.34h29.61a9.978,9.978,0,0,1,9.611,7.34Zm-15.5-23.067V108H58.192V97.511Zm0,0"/><path class="a" d="M246.768,320.768a2.62,2.62,0,1,0,1.853-.768A2.642,2.642,0,0,0,246.768,320.768Zm0,0" transform="translate(-181.517 -236.12)"/><path class="a" d="M40.768,288.768A2.62,2.62,0,1,0,42.621,288,2.642,2.642,0,0,0,40.768,288.768Zm0,0" transform="translate(-29.515 -212.508)"/><path class="a" d="M277.658,83.933a2.62,2.62,0,0,0-2.441.7l-6.084,6.084a2.622,2.622,0,0,0,.7,4.209l9.175,4.475,4.5,9.2a2.621,2.621,0,0,0,1.923,1.435,2.685,2.685,0,0,0,.432.036,2.622,2.622,0,0,0,1.853-.768l6.084-6.084a2.624,2.624,0,0,0,.7-2.445l-1.1-4.744,2.092-2.092,7.677,14.72a2.621,2.621,0,0,0,4.178.642l7.414-7.414a2.622,2.622,0,0,0,.685-2.5l-5.185-20.212,3.429-3.429a14.964,14.964,0,0,0,4.171-13.019,2.621,2.621,0,0,0-2.154-2.154A14.962,14.962,0,0,0,302.7,64.742l-3.43,3.429-20.211-5.185a2.624,2.624,0,0,0-2.506.686l-7.413,7.414a2.62,2.62,0,0,0,.641,4.178l14.72,7.677-2.086,2.085ZM310,99.24l-3.832,3.832-6.788-13.014,6.577-6.577ZM275.369,72.268l3.832-3.832,15.758,4.042-6.576,6.577Zm9.724,17.492,21.31-21.31a9.709,9.709,0,0,1,6.417-2.828,9.718,9.718,0,0,1-2.828,6.416L294.332,87.7l-.019.019-5.64,5.64a2.62,2.62,0,0,0-.7,2.444l1.1,4.745-2.461,2.46-3.284-6.715a2.623,2.623,0,0,0-1.206-1.2l-6.682-3.258,2.46-2.459,4.755,1.093a2.624,2.624,0,0,0,2.44-.7Zm0,0" transform="translate(-198.02 -44.544)"/><path class="a" d="M56.621,151.372h44.037a2.621,2.621,0,1,0,0-5.243H56.621a2.621,2.621,0,1,0,0,5.243Zm0,0" transform="translate(-39.845 -107.825)"/><path class="a" d="M56.621,193.372h44.037a2.621,2.621,0,0,0,0-5.243H56.621a2.621,2.621,0,0,0,0,5.243Zm0,0" transform="translate(-39.845 -138.816)"/><path class="a" d="M100.658,235.372a2.621,2.621,0,0,0,0-5.243H56.621a2.621,2.621,0,0,0,0,5.243Zm0,0" transform="translate(-39.845 -169.806)"/><path class="a" d="M56.621,65.825h44.037A2.621,2.621,0,0,0,103.28,63.2V50.621A2.621,2.621,0,0,0,100.658,48H56.621A2.621,2.621,0,0,0,54,50.621V63.2A2.621,2.621,0,0,0,56.621,65.825Zm2.621-12.582H98.037v7.34H59.243Zm0,0" transform="translate(-39.845 -35.418)"/></g></svg>