<svg xmlns="http://www.w3.org/2000/svg" width="126.82" height="126.82" viewBox="0 0 126.82 126.82"><defs><style>.a{fill:#909090;stroke:#fff;}</style></defs><g transform="translate(0.5 0.5)"><path class="a" d="M19.481,38.961A13.481,13.481,0,1,0,6,25.481,13.494,13.494,0,0,0,19.481,38.961Zm0-22.468a8.987,8.987,0,1,1-8.987,8.987A9,9,0,0,1,19.481,16.494Z" transform="translate(7.481 14.961)"/><path class="a" d="M51.481,38.961A13.481,13.481,0,1,0,38,25.481,13.494,13.494,0,0,0,51.481,38.961Zm0-22.468a8.987,8.987,0,1,1-8.987,8.987A9,9,0,0,1,51.481,16.494Z" transform="translate(47.378 14.961)"/><path class="a" d="M121.327,26V55.208a6.749,6.749,0,0,1-6.74,6.74V37.234A11.247,11.247,0,0,0,103.352,26H92.118a2.248,2.248,0,0,0-2.247,2.247V41.728H71.9a2.248,2.248,0,0,0-2.247,2.247v6.74H56.17v-6.74a2.248,2.248,0,0,0-2.247-2.247H35.949V28.247A2.248,2.248,0,0,0,33.7,26H22.468A11.247,11.247,0,0,0,11.234,37.234V61.949a6.749,6.749,0,0,1-6.74-6.74V26H0V55.208A11.24,11.24,0,0,0,6.74,65.49V93.4h4.494V66.442H33.7V91.157A2.248,2.248,0,0,0,35.949,93.4H47.183v-38.2H78.638V93.4H89.872a2.248,2.248,0,0,0,2.247-2.247V66.442h22.468V93.4h4.494V65.49a11.24,11.24,0,0,0,6.74-10.281V26ZM44.936,50.715H26.961V37.234H22.468V52.962a2.248,2.248,0,0,0,2.247,2.247H40.442a2.25,2.25,0,0,1,2.247,2.247V88.91H38.2V64.2a2.248,2.248,0,0,0-2.247-2.247H15.728V37.234a6.749,6.749,0,0,1,6.74-6.74h8.987V43.974A2.248,2.248,0,0,0,33.7,46.221H51.676v4.494ZM89.872,61.949A2.248,2.248,0,0,0,87.625,64.2V88.91H83.131V57.455a2.251,2.251,0,0,1,2.247-2.247h15.728a2.248,2.248,0,0,0,2.247-2.247V37.234H98.859V50.715H74.144V46.221H92.118a2.248,2.248,0,0,0,2.247-2.247V30.494h8.987a6.749,6.749,0,0,1,6.74,6.74V61.949Z" transform="translate(0 32.417)"/><path class="a" d="M22.74,22.468v6.74a2.247,2.247,0,0,0,1.537,2.132,2.289,2.289,0,0,0,.71.115,2.251,2.251,0,0,0,1.8-.9l6.066-8.088H49.7a6.749,6.749,0,0,0,6.74-6.74V6.74A6.749,6.749,0,0,0,49.7,0H22.74A6.749,6.749,0,0,0,16,6.74v8.987A6.749,6.749,0,0,0,22.74,22.468ZM20.494,6.74A2.25,2.25,0,0,1,22.74,4.494H49.7A2.25,2.25,0,0,1,51.949,6.74v8.987A2.25,2.25,0,0,1,49.7,17.974H31.728a2.245,2.245,0,0,0-1.8.9l-2.7,3.595V20.221a2.248,2.248,0,0,0-2.247-2.247H22.74a2.25,2.25,0,0,1-2.247-2.247Z" transform="translate(19.949)"/><rect class="a" width="22" height="4" transform="translate(45 9)"/><rect class="a" width="13" height="5" transform="translate(61 56)"/><path class="a" d="M29.74,21A6.749,6.749,0,0,0,23,27.74v8.987a6.749,6.749,0,0,0,6.74,6.74H47.715a6.749,6.749,0,0,0,6.74-6.74V35.162l4.116-6.174A2.247,2.247,0,0,0,56.7,25.494H54.071A6.753,6.753,0,0,0,47.715,21Zm20.221,6.74a2.248,2.248,0,0,0,2.247,2.247H52.5l-2.164,3.247a2.259,2.259,0,0,0-.377,1.247v2.247a2.251,2.251,0,0,1-2.247,2.247H29.74a2.25,2.25,0,0,1-2.247-2.247V27.74a2.25,2.25,0,0,1,2.247-2.247H47.715A2.25,2.25,0,0,1,49.961,27.74Z" transform="translate(28.676 26.183)"/><rect class="a" width="4" height="4" transform="translate(52 36)"/><rect class="a" width="4" height="4" transform="translate(61 36)"/><rect class="a" width="4" height="4" transform="translate(70 36)"/></g></svg>