<svg xmlns="http://www.w3.org/2000/svg" width="126.82" height="126.831" viewBox="0 0 126.82 126.831"><defs><style>.a{fill:#909090;stroke:#fff;}</style></defs><g transform="translate(0.5 0.511)"><g transform="translate(0 54.522)"><path class="a" d="M79.686,233.376V214.291A6.3,6.3,0,0,0,73.4,208H14.679a6.3,6.3,0,0,0-6.291,6.291v19.085A10.5,10.5,0,0,0,0,243.649V277.2a2.1,2.1,0,0,0,2.1,2.1h8.388a2.1,2.1,0,0,0,2.1-2.1V270.91h62.91V277.2a2.1,2.1,0,0,0,2.1,2.1h8.388a2.1,2.1,0,0,0,2.1-2.1V243.649A10.5,10.5,0,0,0,79.686,233.376Zm-67.1-19.085a2.1,2.1,0,0,1,2.1-2.1H73.4a2.1,2.1,0,0,1,2.1,2.1v18.873H71.3v-8.388a6.3,6.3,0,0,0-6.291-6.291H52.425a6.3,6.3,0,0,0-6.291,6.291v8.388H41.94v-8.388a6.3,6.3,0,0,0-6.291-6.291H23.067a6.3,6.3,0,0,0-6.291,6.291v8.388H12.582ZM67.1,224.776v8.388H50.328v-8.388a2.1,2.1,0,0,1,2.1-2.1H65.007A2.1,2.1,0,0,1,67.1,224.776Zm-29.358,0v8.388H20.97v-8.388a2.1,2.1,0,0,1,2.1-2.1H35.649A2.1,2.1,0,0,1,37.746,224.776ZM83.88,275.1H79.686v-6.291a2.1,2.1,0,0,0-2.1-2.1h-67.1a2.1,2.1,0,0,0-2.1,2.1V275.1H4.194V258.328H83.88Zm0-20.97H4.194V243.649a6.3,6.3,0,0,1,6.291-6.291h67.1a6.3,6.3,0,0,1,6.291,6.291Z" transform="translate(0 -208)"/></g><g transform="translate(92.268 79.686)"><path class="a" d="M383.455,304H354.1a2.1,2.1,0,0,0-2.1,2.1v31.455h4.194V324.97h25.164v12.582h4.194V306.1A2.1,2.1,0,0,0,383.455,304Zm-2.1,16.776H356.194V308.194h25.164Z" transform="translate(-352 -304)"/></g><g transform="translate(104.85 88.074)"><rect class="a" width="8" height="4" transform="translate(0.15 -0.074)"/></g><g transform="translate(98.559 48.231)"><path class="a" d="M396.861,198.014l-4.194-12.582a2.1,2.1,0,0,0-1.99-1.432h-8.388a2.1,2.1,0,0,0-1.99,1.434L376.1,198.016a2.1,2.1,0,0,0,1.99,2.76h6.291v6.291h-4.194v4.194h12.582v-4.194H388.58v-6.291h6.291a2.1,2.1,0,0,0,1.99-2.762ZM381,196.582l2.8-8.388h5.366l2.8,8.388Z" transform="translate(-375.997 -184)"/></g><g transform="translate(0 0)"><path class="a" d="M124.581,27.444,63.768.182a2.107,2.107,0,0,0-1.715,0L1.239,27.444A2.1,2.1,0,0,0,0,29.358V54.522H4.194V30.715L62.91,4.4l58.716,26.322V54.522h4.194V29.358A2.1,2.1,0,0,0,124.581,27.444Z" transform="translate(0 0)"/></g><g transform="translate(48.231 16.776)"><path class="a" d="M213.155,76.234l-4.137.7a10.326,10.326,0,0,1,.147,1.749,10.475,10.475,0,1,1-6.987-9.887l1.4-3.955a14.681,14.681,0,1,0,9.785,13.842A14.837,14.837,0,0,0,213.155,76.234Z" transform="translate(-184 -64)"/></g><g transform="translate(57.234 17.39)"><path class="a" d="M237.217,66.344l-13.2,13.2-2.711-2.711-2.965,2.965,4.194,4.194a2.1,2.1,0,0,0,2.965,0l14.679-14.679Z" transform="translate(-218.344 -66.344)"/></g></g></svg>