<svg xmlns="http://www.w3.org/2000/svg" width="126.82" height="126.82" viewBox="0 0 126.82 126.82"><defs><style>.a{fill:#909090;stroke:#fff;}</style></defs><g transform="translate(0.5 0.5)"><g transform="translate(0 0)"><path class="a" d="M123.724,0H2.1A2.1,2.1,0,0,0,0,2.1H0v41.94H4.194V4.194H121.626V50.328h-73.4v4.194h75.492a2.1,2.1,0,0,0,2.1-2.1h0V2.1A2.1,2.1,0,0,0,123.724,0Z" transform="translate(0 0)"/></g><g transform="translate(69.092 10.502)"><g transform="translate(0 0)"><rect class="a" width="42" height="4" transform="translate(-0.092 0.498)"/></g></g><g transform="translate(75.725 23.215)"><g transform="translate(0 0)"><rect class="a" width="41" height="4" transform="translate(0.275 -0.215)"/></g></g><g transform="translate(66.881 35.375)"><g transform="translate(0 0)"><rect class="a" width="42" height="5" transform="translate(0.119 -0.375)"/></g></g><g transform="translate(0 8.388)"><path class="a" d="M66.937,41.692a6.767,6.767,0,0,0-8.848-3.649c-.059.025-.118.05-.176.076l-17,8.821a10.369,10.369,0,0,0,1.03-4.455,10.485,10.485,0,1,0-18.819,6.291h-.087a14.39,14.39,0,0,0-13.367,9.31l-5.6,19.295A6.717,6.717,0,1,0,16.68,82l2.193-6.979v30.35A10.454,10.454,0,0,0,5.265,121.193,9.661,9.661,0,0,0,0,129.763v17.573a2.1,2.1,0,0,0,2.1,2.1H23.067a2.1,2.1,0,0,0,2.1-2.1h0V129.763a9.638,9.638,0,0,0-3.742-7.591H37.294a9.637,9.637,0,0,0-3.742,7.591v17.573a2.1,2.1,0,0,0,2.1,2.1H56.619a2.1,2.1,0,0,0,2.1-2.1h0V129.763a9.661,9.661,0,0,0-5.265-8.569,10.476,10.476,0,0,0-9.414-17.761v-42.9l19.251-10A6.767,6.767,0,0,0,66.937,41.692Zm-35.482-5.5a6.291,6.291,0,1,1-6.291,6.291A6.291,6.291,0,0,1,31.455,36.194Zm-18.873,71.22a6.291,6.291,0,1,1-6.291,6.291A6.291,6.291,0,0,1,12.582,107.414Zm8.388,37.824H4.194V129.763a5.5,5.5,0,0,1,5.5-5.494h5.785a5.5,5.5,0,0,1,5.5,5.494Zm33.552-15.476v15.476H37.746V129.763a5.5,5.5,0,0,1,5.5-5.494h5.785A5.5,5.5,0,0,1,54.522,129.763Zm-8.388-22.348a6.291,6.291,0,1,1-6.291,6.291A6.3,6.3,0,0,1,46.134,107.414ZM63.1,45.19a2.7,2.7,0,0,1-1.583,1.552L40.975,57.4a2.1,2.1,0,0,0-1.132,1.862v46.11a10.344,10.344,0,0,0-3.263,12.606H33.552V82.328H29.358v35.649H22.136a10.388,10.388,0,0,0,.923-4.194h.008V61.358a2.1,2.1,0,0,0-4.1-.629L12.708,80.655a2.521,2.521,0,0,1-3.5,1.395,2.574,2.574,0,0,1-1.171-3.33l5.6-19.295a10.131,10.131,0,0,1,9.4-6.455H37.881a2.089,2.089,0,0,0,.966-.235L59.689,41.916a2.581,2.581,0,0,1,3.3,1.223A2.551,2.551,0,0,1,63.1,45.19Z" transform="translate(0 -32)"/></g><g transform="translate(67.104 79.586)"><path class="a" d="M275.9,321.614a10.485,10.485,0,1,0-14.827-.193q.1.1.193.193A9.661,9.661,0,0,0,256,330.183v17.573a2.1,2.1,0,0,0,2.1,2.1h20.971a2.1,2.1,0,0,0,2.1-2.1h0V330.183A9.661,9.661,0,0,0,275.9,321.614Zm-7.317-13.779a6.291,6.291,0,1,1-6.291,6.291A6.291,6.291,0,0,1,268.582,307.835Zm8.388,37.824H260.194V330.183a5.5,5.5,0,0,1,5.5-5.494h5.785a5.5,5.5,0,0,1,5.5,5.494Z" transform="translate(-256 -303.618)"/></g><g transform="translate(100.656 79.586)"><path class="a" d="M403.9,321.614a10.485,10.485,0,1,0-14.827-.193q.1.1.193.193A9.661,9.661,0,0,0,384,330.183v17.573a2.1,2.1,0,0,0,2.1,2.1h20.971a2.1,2.1,0,0,0,2.1-2.1h0V330.183A9.661,9.661,0,0,0,403.9,321.614Zm-7.317-13.779a6.291,6.291,0,1,1-6.291,6.291A6.291,6.291,0,0,1,396.582,307.835Zm8.388,37.824H388.194V330.183a5.5,5.5,0,0,1,5.5-5.494h5.785a5.5,5.5,0,0,1,5.5,5.494Z" transform="translate(-384 -303.618)"/></g></g></svg>