<svg xmlns="http://www.w3.org/2000/svg" width="131.448" height="126.935" viewBox="0 0 131.448 126.935"><defs><style>.a{fill:#909090;stroke:#fff;}</style></defs><g transform="translate(0.502 -6.333)"><g transform="translate(17.476 111.619)"><path class="a" d="M59.97,326q-.062-.056-.129-.107c-1.33-1.1-2.66-2.287-3.883-3.511a1.989,1.989,0,1,0-2.806,2.819A50.89,50.89,0,0,0,57.3,328.96,1.995,1.995,0,1,0,59.97,326Z" transform="translate(-52.569 -321.801)"/></g><g transform="translate(0.41 56.565)"><path class="a" d="M4.824,156.309a1.995,1.995,0,0,0-2.644,1.7c-.4,1.822-.7,3.67-.931,5.519a2,2,0,0,0,1.689,2.234h.253a1.994,1.994,0,0,0,1.981-1.755c.213-1.729.505-3.471.878-5.16A1.994,1.994,0,0,0,4.824,156.309Z" transform="translate(-1.232 -156.197)"/></g><g transform="translate(8.361 99.904)"><path class="a" d="M31.75,291.9c-1.024-1.41-1.995-2.872-2.886-4.362a2,2,0,0,0-2.734-.695l-.005,0a2,2,0,0,0-.695,2.734l0,.005c.957,1.6,1.995,3.165,3.1,4.668A1.995,1.995,0,0,0,31.75,291.9Z" transform="translate(-25.15 -286.562)"/></g><g transform="translate(2.352 86.275)"><path class="a" d="M12.73,251.952c-.638-1.609-1.223-3.271-1.715-4.947a2,2,0,0,0-2.471-1.36l-.055.017a2,2,0,0,0-1.33,2.473c.532,1.782,1.144,3.564,1.835,5.319a2.014,2.014,0,0,0,3.737-1.5Z" transform="translate(-7.076 -245.566)"/></g><g transform="translate(4.092 42.787)"><path class="a" d="M17.414,114.967a2,2,0,0,0-2.68.884c-.838,1.662-1.609,3.378-2.287,5.12a1.992,1.992,0,0,0,3.706,1.46l0-.01a47.964,47.964,0,0,1,2.141-4.774A2,2,0,0,0,17.414,114.967Z" transform="translate(-12.309 -114.753)"/></g><g transform="translate(0 71.643)"><g transform="translate(0)"><path class="a" d="M4.417,208.694s0,0,0-.005c-.213-1.729-.359-3.484-.426-5.213A2,2,0,1,0,0,203.622a43.716,43.716,0,0,0,.452,5.585,2,2,0,0,0,1.928,1.715h.306A2,2,0,0,0,4.417,208.694Z" transform="translate(0 -201.553)"/></g></g><g transform="translate(47.785 10.432)"><path class="a" d="M153.288,19.239a2,2,0,0,0-2.187-1.8c-1.848.186-3.71.452-5.545.811a2,2,0,1,0,.372,3.989l-.013-.053h.386c1.715-.332,3.457-.585,5.186-.758A2,2,0,0,0,153.288,19.239Z" transform="translate(-143.738 -17.428)"/></g><g transform="translate(11.164 30.429)"><path class="a" d="M40.278,78.084a2.007,2.007,0,0,0-2.832.173c-1.223,1.4-2.394,2.872-3.484,4.388a1.995,1.995,0,0,0,1.609,3.165v.027a1.994,1.994,0,0,0,1.622-.824c1.024-1.41,2.114-2.793,3.258-4.1A2.007,2.007,0,0,0,40.278,78.084Z" transform="translate(-33.582 -77.58)"/></g><g transform="translate(62.79 10.185)"><g transform="translate(0 0)"><path class="a" d="M196.563,17.274c-1.835-.279-3.71-.479-5.572-.585a2,2,0,0,0-.239,3.989c1.755.133,3.5.319,5.213.585h.306a2,2,0,1,0,.293-3.989Z" transform="translate(-188.873 -16.685)"/></g></g><g transform="translate(21.315 20.616)"><path class="a" d="M71.989,48.876a2,2,0,0,0-2.684-.5c-1.529,1.051-3.032,2.194-4.468,3.378A2,2,0,0,0,67.39,54.83c1.33-1.117,2.739-2.181,4.176-3.165A2,2,0,0,0,71.989,48.876Z" transform="translate(-64.116 -48.064)"/></g><g transform="translate(33.874 13.677)"><path class="a" d="M107.844,45.653h0Z" transform="translate(-105.839 -39.514)"/><path class="a" d="M110.931,28.656a1.995,1.995,0,0,0-2.725-1.3,49.836,49.836,0,0,0-5.16,2.168,1.985,1.985,0,1,0,1.662,3.6c1.569-.745,3.191-1.423,4.827-2.021A2,2,0,0,0,110.931,28.656Z" transform="translate(-101.892 -27.189)"/></g><g transform="translate(57.62 128.654)"><g transform="translate(0 0)"><path class="a" d="M182.731,374.916a2,2,0,0,0-2.121-1.868,49.226,49.226,0,0,1-5.239.12,2,2,0,0,0-.106,3.989h1.689c1.33,0,2.66,0,3.91-.12A2,2,0,0,0,182.731,374.916Z" transform="translate(-173.322 -373.044)"/></g></g><g transform="translate(115.175 84.255)"><path class="a" d="M350.509,239.551a2,2,0,0,0-2.427,1.443c-.426,1.689-.944,3.364-1.529,5a1.991,1.991,0,0,0,3.761,1.309l0-.006c.625-1.755,1.17-3.551,1.636-5.319A2,2,0,0,0,350.509,239.551Z" transform="translate(-346.447 -239.489)"/></g><g transform="translate(116.721 54.581)"><path class="a" d="M356.161,157.127c-.306-1.835-.691-3.683-1.157-5.479a1.995,1.995,0,0,0-3.856,1.011c.439,1.676.8,3.4,1.09,5.12a2,2,0,0,0,1.941,1.636h.332A1.994,1.994,0,0,0,356.161,157.127Z" transform="translate(-351.099 -150.23)"/></g><g transform="translate(14.22 6.948)"><g transform="translate(0 0)"><path class="a" d="M158.815,38.584a1.934,1.934,0,0,0-.379-.549l-3.524-3.67a1.928,1.928,0,0,0-1.928-.479l-6.356,1.928-7.447-7.9L155.9,18.606a1.941,1.941,0,0,0,.572-3.125l-4.694-4.694a1.942,1.942,0,0,0-1.928-.452l-21.183,6.41-7.128-7.566a6.449,6.449,0,0,0-7.34-1.742h-.12a7.846,7.846,0,0,0-4.269,4.269,7.186,7.186,0,0,0-.426,1.569l-.811-.279a2,2,0,0,0-1.223,3.8c1.024.332,2.048.7,3.072,1.09a7.657,7.657,0,0,0,1.077,1.33l7.513,7.128-2.154,7.114a46.86,46.86,0,1,0,9.907,9.547l3.4-6.144,7.9,7.447-1.9,6.29a1.928,1.928,0,0,0,.465,1.968s3.9,3.856,3.989,3.989a1.929,1.929,0,0,0,2.635-.7l.024-.044,5.2-9.535,9.388-5.12A1.941,1.941,0,0,0,158.815,38.584ZM59.527,41.212a42.7,42.7,0,0,1,30.226-12.5q1.33,0,2.66.08c7.54,6.955,5.319,13.3.266,19.016a93.341,93.341,0,0,1-9.574,8.83c-4.907,4.176-9.481,8.072-11.21,11.968-2.048,4.628-.545,8.816,7.726,12.473,4.136,1.835,6.383,3.258,7.261,4.335a.214.214,0,0,0,.039.036l-.092.03a16.527,16.527,0,0,1-6.277,1.077c-10.027.426-17.167-5.984-22.713-10.944-3.989-3.551-7.3-6.5-10.745-6.529A42.7,42.7,0,0,1,59.527,41.212ZM132.651,71.5h.013a42.872,42.872,0,0,1-29.534,40.731,13.95,13.95,0,0,1,1.636-9.056,32.968,32.968,0,0,1,7.979-8.777c12.274-10.239,12.965-15.957,13.5-20.359.332-2.779.585-4.854,6.077-7.872A43.325,43.325,0,0,1,132.651,71.5Zm-2.473-14.388a42.422,42.422,0,0,1,1.463,5.12c-8.364,4.255-8.737,7.287-9.242,11.423-.452,3.723-1.037,8.59-12.128,17.846a36.371,36.371,0,0,0-8.91,9.88,17.635,17.635,0,0,0-1.995,11.875A42.845,42.845,0,0,1,47,73.007c2.114,0,4.854,2.513,8.218,5.505,6.09,5.439,13.883,12.38,25.492,11.968a19.946,19.946,0,0,0,7.979-1.516,3.99,3.99,0,0,0,2.207-2.5,3.8,3.8,0,0,0-.957-3.471c-1.25-1.529-3.989-3.338-8.7-5.439-5.625-2.487-6.848-4.907-5.745-7.38,1.33-3.112,5.612-6.649,10.16-10.638a96.8,96.8,0,0,0,9.987-9.308C101.2,43.9,104.061,37,98.409,29.444A42.552,42.552,0,0,1,115.7,37.3L112.638,47.4a1.941,1.941,0,0,0,.465,1.968s4.96,4.92,5.12,5.013a1.929,1.929,0,0,0,2.635-.7l.024-.044,3.87-6.995A42.754,42.754,0,0,1,130.178,57.116ZM148.01,42.263l-1.715.851a1.915,1.915,0,0,0-.878.891l-.851,1.729-3.311,5.984-.971-1.064,1.928-6.37a1.928,1.928,0,0,0-.625-2.048L131.1,32.356a1.928,1.928,0,0,0-2.727.024l-.053.056c-.133.146-9.574,17.154-9.574,17.154l-2.061-2.061,6.436-21.21a1.928,1.928,0,0,0-.625-2.061L114.141,16.4a2.766,2.766,0,0,1-.758-3.191,4.176,4.176,0,0,1,2.168-2.154h.066a2.766,2.766,0,0,1,3.112.8l7.979,8.431a1.928,1.928,0,0,0,1.968.532l21.276-6.423,2.061,2.061-16.888,9.282a1.928,1.928,0,0,0-.769,2.616l.024.044c.08.146,10.253,10.971,10.253,10.971a1.928,1.928,0,0,0,1.968.519l6.4-1.928,1,1Z" transform="translate(-42.775 -6.948)"/></g></g><g transform="translate(108.466 98.059)"><path class="a" d="M332.12,281.289c-.029-.017-.059-.034-.088-.049a1.994,1.994,0,0,0-2.66.785c-.838,1.529-1.755,3.032-2.739,4.468a2,2,0,1,0,3.271,2.3c1.037-1.543,2.021-3.152,2.926-4.774A2,2,0,0,0,332.12,281.289Z" transform="translate(-326.269 -281.013)"/></g><g transform="translate(118.357 69.217)"><path class="a" d="M358.288,194.256a2,2,0,0,0-2.022,1.967c0,.027,0,.054,0,.081v.226c0,1.742-.08,3.5-.239,5.239a2,2,0,0,0,1.806,2.167h.189a2,2,0,0,0,2.008-1.848c.173-1.848.253-3.723.253-5.585v-.266A2,2,0,0,0,358.288,194.256Z" transform="translate(-356.019 -194.255)"/></g><g transform="translate(42.823 126.497)"><path class="a" d="M136.575,367.838a41.2,41.2,0,0,1-5.106-1.17,1.995,1.995,0,1,0-1.323,3.764,2.03,2.03,0,0,0,.233.066c1.782.505,3.617.944,5.452,1.33h.372a2,2,0,0,0,.372-3.99Z" transform="translate(-128.811 -366.555)"/></g><g transform="translate(72.432 125.869)"><path class="a" d="M226.894,365.971a2,2,0,0,0-2.419-1.229v.053a39.63,39.63,0,0,1-5.04,1.33,2,2,0,1,0,.878,3.9c1.809-.412,3.63-.918,5.4-1.489A2,2,0,0,0,226.894,365.971Z" transform="translate(-217.876 -364.665)"/></g><g transform="translate(29.254 120.671)"><path class="a" d="M95.645,351.79c-1.582-.785-3.138-1.636-4.641-2.487a2,2,0,1,0-2.021,3.444c1.609.944,3.271,1.822,4.96,2.66a2,2,0,0,0,1.7-3.617Z" transform="translate(-87.997 -349.029)"/></g><g transform="translate(98.656 110.08)"><path class="a" d="M303.946,317.693a2,2,0,0,0-2.784.092h.013a48.487,48.487,0,0,1-3.75,3.657,2,2,0,1,0,2.66,2.979c1.33-1.237,2.739-2.553,3.989-3.91A2,2,0,0,0,303.946,317.693Z" transform="translate(-296.758 -317.171)"/></g><g transform="translate(86.389 119.58)"><path class="a" d="M268.31,346.717a2,2,0,0,0-2.736-.689q-.048.028-.094.06v-.053c-1.463.931-2.992,1.809-4.535,2.66a2,2,0,0,0,1.822,3.551c1.649-.851,3.285-1.8,4.854-2.793A2,2,0,0,0,268.31,346.717Z" transform="translate(-259.861 -345.746)"/></g></g></svg>