<svg xmlns="http://www.w3.org/2000/svg" xmlns:xlink="http://www.w3.org/1999/xlink" width="400.002" height="232.27" viewBox="0 0 400.002 232.27"><defs><style>.a{fill:#3f3d56;}.b{fill:#b9efcf;}.c{opacity:0.15;}.d{fill:#af882f;}.e{fill:#d3a438;}.f{fill:none;stroke:#3f3d56;stroke-miterlimit:10;stroke-width:4px;}.g{fill:#01b148;}.h{opacity:0.1;}.i{fill:url(#a);}.j{fill:#2f2e41;}.k{fill:#fbbebe;}.l{fill:#e8e8f0;}.m{fill:#f86d70;}</style><linearGradient id="a" x1="0.5" y1="1" x2="0.5" y2="-0.001" gradientUnits="objectBoundingBox"><stop offset="0" stop-color="gray" stop-opacity="0.251"/><stop offset="0.54" stop-color="gray" stop-opacity="0.122"/><stop offset="1" stop-color="gray" stop-opacity="0.102"/></linearGradient></defs><g transform="translate(0 -0.043)"><g transform="translate(256.89 0.043)"><ellipse class="a" cx="7.731" cy="10.117" rx="7.731" ry="10.117" transform="translate(29.474 208.602)"/><path class="b" d="M860.659,589.211a12.189,12.189,0,0,0,1.627-6.184c0-5.6-3.461-10.117-7.731-10.117s-7.727,4.528-7.727,10.117a12.189,12.189,0,0,0,1.613,6.184,12.651,12.651,0,0,0,0,12.364,12.658,12.658,0,0,0,0,12.368,12.189,12.189,0,0,0-1.613,6.184c0,5.6,3.461,10.117,7.727,10.117s7.731-4.528,7.731-10.117a12.188,12.188,0,0,0-1.613-6.184,12.658,12.658,0,0,0,0-12.368,12.651,12.651,0,0,0,0-12.364Z" transform="translate(-817.337 -413.775)"/><ellipse class="b" cx="7.731" cy="10.117" rx="7.731" ry="10.117" transform="translate(29.474 146.771)"/><ellipse class="a" cx="7.731" cy="10.117" rx="7.731" ry="10.117" transform="translate(29.474 134.404)"/><path class="b" d="M828.7,178.078a37.253,37.253,0,0,0,2.877-4.238l-20.3-3.335,21.967.164a37.1,37.1,0,0,0,.7-29.333L804.47,156.615l27.185-19.969A37.026,37.026,0,1,0,770.5,178.078a37.1,37.1,0,0,0-4.22,6.751l26.362,13.7-28.109-9.449a37.025,37.025,0,0,0,5.949,34.765,37.022,37.022,0,1,0,58.2,0,37.022,37.022,0,0,0,0-45.778Z" transform="translate(-762.558 -118.183)"/><path class="b" d="M762.609,353.726a36.854,36.854,0,0,0,7.923,22.887,37.022,37.022,0,1,0,58.2,0C833.692,370.314,762.609,349.568,762.609,353.726Z" transform="translate(-762.591 -270.941)"/></g><g transform="translate(54.838 78.76)"><ellipse class="a" cx="4.703" cy="6.159" rx="4.703" ry="6.159" transform="translate(17.733 126.981)"/><path class="b" d="M244.346,629.835a7.429,7.429,0,0,0,.983-3.766c0-3.4-2.1-6.159-4.707-6.159s-4.7,2.758-4.7,6.159a7.43,7.43,0,0,0,.98,3.766,7.72,7.72,0,0,0,0,7.528,7.72,7.72,0,0,0,0,7.528,7.405,7.405,0,0,0-.98,3.762c0,3.405,2.1,6.163,4.7,6.163s4.707-2.758,4.707-6.163a7.4,7.4,0,0,0-.983-3.762,7.7,7.7,0,0,0,0-7.528A7.7,7.7,0,0,0,244.346,629.835Z" transform="translate(-218.169 -523.043)"/><ellipse class="b" cx="4.703" cy="6.159" rx="4.703" ry="6.159" transform="translate(17.733 89.339)"/><ellipse class="a" cx="4.703" cy="6.159" rx="4.703" ry="6.159" transform="translate(17.733 81.812)"/><path class="b" d="M190.029,379.564a22.423,22.423,0,0,1-1.75-2.579l12.364-2.03-13.372.1a22.6,22.6,0,0,1-.43-17.848l17.928,9.312-16.543-12.179a22.537,22.537,0,1,1,37.225,25.221,22.516,22.516,0,0,1,2.569,4.105l-16.049,8.343,17.113-5.743a22.551,22.551,0,0,1-3.633,21.165,22.537,22.537,0,1,1-35.43,0,22.544,22.544,0,0,1,0-27.871Z" transform="translate(-185.199 -343.114)"/><path class="b" d="M230.274,486.474a22.45,22.45,0,0,1-4.822,13.935,22.537,22.537,0,1,1-35.43,0C187,496.591,230.274,483.943,230.274,486.474Z" transform="translate(-185.199 -436.088)"/></g><g transform="translate(153.288 36.916)"><ellipse class="a" cx="6.296" cy="8.242" rx="6.296" ry="8.242" transform="translate(23.728 170.021)"/><path class="b" d="M545.585,607.5a9.942,9.942,0,0,0,1.312-5.039c0-4.549-2.8-8.242-6.3-8.242s-6.3,3.692-6.3,8.242a9.911,9.911,0,0,0,1.316,5.039,10.3,10.3,0,0,0,0,10.075,10.3,10.3,0,0,0,0,10.072,9.911,9.911,0,0,0-1.316,5.039c0,4.549,2.821,8.242,6.3,8.242s6.3-3.692,6.3-8.242a9.942,9.942,0,0,0-1.312-5.039,10.317,10.317,0,0,0,0-10.072A10.324,10.324,0,0,0,545.585,607.5Z" transform="translate(-510.578 -464.5)"/><ellipse class="b" cx="6.296" cy="8.242" rx="6.296" ry="8.242" transform="translate(23.728 119.648)"/><ellipse class="a" cx="6.296" cy="8.242" rx="6.296" ry="8.242" transform="translate(23.728 109.573)"/><path class="b" d="M472.986,272.42a30.063,30.063,0,0,1-2.345-3.451l16.542-2.716-17.89.133a30.219,30.219,0,0,1-.577-23.9l24.007,12.452-22.142-16.273a30.163,30.163,0,1,1,49.8,33.753,30.215,30.215,0,0,1,3.437,5.5l-21.473,11.157,22.9-7.7a30.173,30.173,0,0,1-4.861,28.322,30.159,30.159,0,1,1-47.412,0,30.17,30.17,0,0,1,0-37.3Z" transform="translate(-466.519 -223.547)"/><path class="b" d="M526.838,415.663a30.029,30.029,0,0,1-6.453,18.646,30.159,30.159,0,1,1-47.412,0C468.93,429.179,526.838,412.276,526.838,415.663Z" transform="translate(-466.519 -348.142)"/></g><path class="a" d="M457.916,736.5c0,2.4-17.575,4.6-46.632,6.3-5.284.3-10.947.595-16.952.868q-7.783.35-16.315.661-8.266.294-17.165.546c-18.737.536-39.451.92-61.456,1.113q-8.011.073-16.235.112-8.567.038-17.33.035c-106.086,0-192.081-4.308-192.081-9.624s86-9.624,192.081-9.624c45.673,0,87.615.8,120.582,2.131l3.6.147h.021C431.565,730.928,457.916,733.578,457.916,736.5Z" transform="translate(-57.914 -513.825)"/><path class="c" d="M457.916,736.5c0,2.4-17.575,4.6-46.632,6.3-5.284.3-10.947.595-16.952.868q-7.783.35-16.315.661-8.266.294-17.165.546c-18.737.536-39.451.92-61.456,1.113q-8.011.073-16.235.112-8.567.038-17.33.035c-106.086,0-192.081-4.308-192.081-9.624s86-9.624,192.081-9.624c45.673,0,87.615.8,120.582,2.131l3.6.147h.021C431.565,730.928,457.916,733.578,457.916,736.5Z" transform="translate(-57.914 -513.825)"/><path class="a" d="M412.666,734.55c0,2.009-17.575,3.849-46.632,5.249-5.281.255-10.947.5-16.948.724q-7.787.294-16.315.553-8.266.245-17.165.458c-18.74.448-39.454.77-61.46.931q-8,.059-16.235.091-8.567.031-17.326.031c-106.086,0-192.085-3.6-192.085-8.049s86-8.049,192.085-8.049c45.67,0,87.612.668,120.578,1.781l3.6.122h.024C386.332,729.888,412.666,732.089,412.666,734.55Z" transform="translate(-28.5 -513.565)"/><path class="a" d="M161.3,510.818l-4.822-14.765,115.486-1.263,4.731,14.618Z" transform="translate(-111.692 -362.95)"/><path class="d" d="M161.3,510.818l-4.822-14.765,115.486-1.263,4.731,14.618Z" transform="translate(-111.692 -362.95)"/><path class="e" d="M139.3,510.818l-4.822-14.765,115.486-1.263,4.731,14.618Z" transform="translate(-97.391 -362.95)"/><path class="a" d="M640,295.5q-17.911,0-28.231-14.219t-10.32-34.45q0-20.368,9.981-34.38t28.158-14q19.276,0,29.047,14.765t9.774,34.177q0,19.272-10.114,33.694T640,295.5Zm.35-10.663q11.783,0,17.613-10.271t5.83-25.9q0-17.393-5.967-28.483t-18.3-11.094q-23.447,0-23.447,37.25,0,38.5,24.266,38.5Zm3.934,102.114h-17.27l113.064-186.6h16.945Zm100.025,1.914q-18.18,0-28.347-14.348T705.755,340.06q0-20.231,9.911-34.243t28.228-14q19.139,0,28.844,14.765t9.708,34.173q0,19.146-10.047,33.631T744.3,388.862Zm.2-10.936q11.727,0,17.519-10.1t5.792-25.792q0-16.8-5.862-28.175T743.7,302.468q-23.584,0-23.584,37.25-.007,38.212,24.392,38.208Z" transform="translate(-400.942 -170.317)"/><path class="a" d="M640,295.5q-17.911,0-28.231-14.219t-10.32-34.45q0-20.368,9.981-34.38t28.158-14q19.276,0,29.047,14.765t9.774,34.177q0,19.272-10.114,33.694T640,295.5Zm.35-10.663q11.783,0,17.613-10.271t5.83-25.9q0-17.393-5.967-28.483t-18.3-11.094q-23.447,0-23.447,37.25,0,38.5,24.266,38.5Zm3.934,102.114h-17.27l113.064-186.6h16.945Zm100.025,1.914q-18.18,0-28.347-14.348T705.755,340.06q0-20.231,9.911-34.243t28.228-14q19.139,0,28.844,14.765t9.708,34.173q0,19.146-10.047,33.631T744.3,388.862Zm.2-10.936q11.727,0,17.519-10.1t5.792-25.792q0-16.8-5.862-28.175T743.7,302.468q-23.584,0-23.584,37.25-.007,38.212,24.392,38.208Z" transform="translate(-400.942 -170.317)"/><path class="d" d="M640,295.5q-17.911,0-28.231-14.219t-10.32-34.45q0-20.368,9.981-34.38t28.158-14q19.276,0,29.047,14.765t9.774,34.177q0,19.272-10.114,33.694T640,295.5Zm.35-10.663q11.783,0,17.613-10.271t5.83-25.9q0-17.393-5.967-28.483t-18.3-11.094q-23.447,0-23.447,37.25,0,38.5,24.266,38.5Zm3.934,102.114h-17.27l113.064-186.6h16.945Zm100.025,1.914q-18.18,0-28.347-14.348T705.755,340.06q0-20.231,9.911-34.243t28.228-14q19.139,0,28.844,14.765t9.708,34.173q0,19.146-10.047,33.631T744.3,388.862Zm.2-10.936q11.727,0,17.519-10.1t5.792-25.792q0-16.8-5.862-28.175T743.7,302.468q-23.584,0-23.584,37.25-.007,38.212,24.392,38.208Z" transform="translate(-400.942 -170.317)"/><path class="e" d="M609,295.5q-17.911,0-28.231-14.219t-10.32-34.45q0-20.368,9.981-34.38t28.158-14q19.276,0,29.047,14.765t9.774,34.177q0,19.272-10.114,33.694T609,295.5Zm.35-10.663q11.783,0,17.613-10.271t5.83-25.9q0-17.393-5.967-28.483t-18.3-11.094q-23.447,0-23.447,37.25,0,38.5,24.266,38.5Zm3.934,102.114h-17.27l113.064-186.6h16.945Zm100.025,1.914q-18.18,0-28.347-14.348T674.755,340.06q0-20.231,9.911-34.243t28.228-14q19.139,0,28.844,14.765t9.708,34.173q0,19.146-10.047,33.631T713.3,388.862Zm.2-10.936q11.727,0,17.519-10.1t5.792-25.792q0-16.8-5.862-28.175T712.69,302.468q-23.584,0-23.584,37.25,0,38.212,24.4,38.208Z" transform="translate(-380.79 -170.317)"/><path class="f" d="M777.037,641.11c1.442-2.674-.2-5.949-2.079-8.336s-4.178-4.864-4.13-7.906c.07-4.364,4.7-6.943,8.4-9.26a40.97,40.97,0,0,0,7.552-6.068,11.087,11.087,0,0,0,2.32-3.108,12.7,12.7,0,0,0,.7-5.519q-.242-9.351-.924-18.674" transform="translate(-511.044 -419.796)"/><path class="g" d="M817.234,569.2a6.8,6.8,0,0,0-3.4-5.578l-1.526,3.017.046-3.654a6.892,6.892,0,0,0-2.243-.269,6.81,6.81,0,1,0,7.122,6.485Z" transform="translate(-532.361 -407.101)"/><path class="g" d="M783.935,694.57a6.807,6.807,0,1,1,.329-5.484l-4.256,3.461,4.689-1.092A6.79,6.79,0,0,1,783.935,694.57Z" transform="translate(-511.206 -486.366)"/><path class="g" d="M784.966,649.883a6.81,6.81,0,0,1-7.122-6.485,6.732,6.732,0,0,1,.588-3.1,6.821,6.821,0,0,1,4.36-3.776l-.038,2.8,1.543-3.052h0a6.811,6.811,0,0,1,.637,13.606Z" transform="translate(-515.6 -454.91)"/><path class="g" d="M832.2,618.463a6.813,6.813,0,1,1,3.01-12.746l-1.2,3.3,2.478-2.376a6.789,6.789,0,0,1,2.208,4.7,6.652,6.652,0,0,1-.175,1.876A6.814,6.814,0,0,1,832.2,618.463Z" transform="translate(-546.304 -434.49)"/><path class="h" d="M816.323,577.947c-1.571.172-3.1.661-4.675.759a5.079,5.079,0,0,1-4.308-1.508,20.806,20.806,0,0,1-1.26-2.215,4.826,4.826,0,0,0-1.715-1.613,6.81,6.81,0,1,0,12.731,4.518C816.838,577.9,816.582,577.919,816.323,577.947Z" transform="translate(-532.367 -414.03)"/><path class="h" d="M832.211,625.715A6.817,6.817,0,0,1,825.733,616a5.1,5.1,0,0,1,1.368,1.372,22.367,22.367,0,0,0,1.351,2.25,5.551,5.551,0,0,0,4.514,1.582c1.641-.073,3.23-.542,4.868-.7.227-.021.458-.035.7-.042a6.814,6.814,0,0,1-6.324,5.253Z" transform="translate(-546.313 -441.742)"/><path class="h" d="M784.966,657.379a6.81,6.81,0,0,1-7.122-6.485,6.732,6.732,0,0,1,.588-3.1,5.481,5.481,0,0,1,1.438,1.4,23.3,23.3,0,0,0,1.48,2.3,6.3,6.3,0,0,0,4.819,1.687c1.739-.042,3.311-.448,4.987-.577A6.814,6.814,0,0,1,784.966,657.379Z" transform="translate(-515.6 -462.407)"/><path class="h" d="M783.893,702.677a6.81,6.81,0,0,1-12.417-5.557,6.858,6.858,0,0,1,1.494,1.333,26.717,26.717,0,0,0,1.823,2.422,8.556,8.556,0,0,0,5.641,1.981A28.993,28.993,0,0,0,783.893,702.677Z" transform="translate(-511.164 -494.473)"/><path class="f" d="M1078.037,640.11c1.442-2.674-.2-5.949-2.079-8.336s-4.178-4.864-4.13-7.906c.07-4.364,4.7-6.943,8.4-9.26a40.967,40.967,0,0,0,7.552-6.068,11.085,11.085,0,0,0,2.32-3.108,12.7,12.7,0,0,0,.7-5.519q-.242-9.351-.924-18.674" transform="translate(-706.707 -419.146)"/><path class="g" d="M1118.234,568.2a6.8,6.8,0,0,0-3.4-5.578l-1.526,3.017.046-3.654a6.892,6.892,0,0,0-2.243-.27,6.81,6.81,0,1,0,7.122,6.485Z" transform="translate(-728.024 -406.451)"/><path class="g" d="M1084.934,693.57a6.807,6.807,0,1,1,.329-5.484l-4.255,3.461,4.689-1.092A6.786,6.786,0,0,1,1084.934,693.57Z" transform="translate(-706.868 -485.716)"/><path class="g" d="M1085.966,648.883a6.81,6.81,0,0,1-7.122-6.485,6.734,6.734,0,0,1,.588-3.1,6.82,6.82,0,0,1,4.36-3.776l-.038,2.8,1.543-3.052h.017a6.811,6.811,0,0,1,.637,13.606Z" transform="translate(-711.263 -454.26)"/><path class="g" d="M1133.2,617.463a6.813,6.813,0,1,1,3.01-12.745l-1.2,3.3,2.478-2.376a6.79,6.79,0,0,1,2.208,4.7,6.657,6.657,0,0,1-.175,1.876A6.814,6.814,0,0,1,1133.2,617.463Z" transform="translate(-741.966 -433.84)"/><path class="h" d="M1117.323,576.947c-1.571.171-3.1.661-4.675.759a5.08,5.08,0,0,1-4.308-1.508,20.811,20.811,0,0,1-1.26-2.215,4.826,4.826,0,0,0-1.715-1.613,6.81,6.81,0,1,0,12.731,4.518C1117.838,576.9,1117.582,576.919,1117.323,576.947Z" transform="translate(-728.03 -413.38)"/><path class="h" d="M1133.211,624.715a6.817,6.817,0,0,1-6.478-9.715,5.105,5.105,0,0,1,1.368,1.372,22.42,22.42,0,0,0,1.351,2.25,5.551,5.551,0,0,0,4.515,1.582c1.641-.073,3.23-.542,4.868-.7.228-.021.458-.035.7-.042A6.814,6.814,0,0,1,1133.211,624.715Z" transform="translate(-741.975 -441.092)"/><path class="h" d="M1085.966,656.379a6.81,6.81,0,0,1-7.122-6.485,6.734,6.734,0,0,1,.588-3.1,5.479,5.479,0,0,1,1.438,1.4,23.324,23.324,0,0,0,1.48,2.3,6.3,6.3,0,0,0,4.819,1.687c1.687-.035,3.311-.448,4.987-.577A6.814,6.814,0,0,1,1085.966,656.379Z" transform="translate(-711.263 -461.757)"/><path class="h" d="M1084.893,701.677a19.331,19.331,0,1,0-10.922-4.224,26.717,26.717,0,0,0,1.823,2.422,8.556,8.556,0,0,0,5.641,1.981A28.994,28.994,0,0,0,1084.893,701.677Z" transform="translate(-706.826 -493.823)"/><path class="f" d="M114.691,627.11c-1.442-2.674.2-5.949,2.079-8.336s4.178-4.864,4.13-7.906c-.07-4.364-4.7-6.943-8.4-9.26a40.969,40.969,0,0,1-7.552-6.068,11.086,11.086,0,0,1-2.32-3.108,12.7,12.7,0,0,1-.7-5.519q.241-9.351.924-18.674" transform="translate(-76.221 -410.696)"/><path class="g" d="M84.466,555.2a6.8,6.8,0,0,1,3.4-5.578l1.526,3.017-.045-3.654a6.893,6.893,0,0,1,2.243-.269,6.81,6.81,0,1,1-7.122,6.485Z" transform="translate(-64.875 -398)"/><path class="g" d="M117.763,680.57a6.807,6.807,0,1,0-.329-5.484l4.255,3.461L117,677.456A6.789,6.789,0,0,0,117.763,680.57Z" transform="translate(-86.029 -477.265)"/><path class="g" d="M116.789,635.883a6.81,6.81,0,0,0,7.122-6.485,6.733,6.733,0,0,0-.588-3.1,6.821,6.821,0,0,0-4.36-3.776l.038,2.8-1.543-3.052h0a6.811,6.811,0,0,0-.637,13.606Z" transform="translate(-81.692 -445.81)"/><path class="g" d="M69.477,604.464a6.813,6.813,0,1,0-2.992-12.745l1.2,3.3-2.5-2.366a6.789,6.789,0,0,0-2.208,4.689,6.649,6.649,0,0,0,.175,1.876A6.814,6.814,0,0,0,69.477,604.464Z" transform="translate(-50.912 -425.39)"/><path class="h" d="M85.663,563.947c1.571.172,3.1.661,4.675.759a5.079,5.079,0,0,0,4.308-1.508,20.809,20.809,0,0,0,1.26-2.215,4.827,4.827,0,0,1,1.715-1.613,6.81,6.81,0,1,1-12.731,4.518C85.149,563.9,85.4,563.919,85.663,563.947Z" transform="translate(-65.156 -404.93)"/><path class="h" d="M69.8,611.715A6.817,6.817,0,0,0,76.281,602a5.1,5.1,0,0,0-1.368,1.372,22.387,22.387,0,0,1-1.351,2.25,5.551,5.551,0,0,1-4.514,1.582c-1.641-.073-3.23-.542-4.868-.7-.227-.021-.458-.035-.7-.042A6.814,6.814,0,0,0,69.8,611.715Z" transform="translate(-51.238 -432.641)"/><path class="h" d="M117.291,643.379a6.81,6.81,0,0,0,7.122-6.485,6.733,6.733,0,0,0-.588-3.1,5.481,5.481,0,0,0-1.438,1.4,23.319,23.319,0,0,1-1.48,2.3,6.3,6.3,0,0,1-4.819,1.687c-1.687-.035-3.311-.448-4.987-.577A6.814,6.814,0,0,0,117.291,643.379Z" transform="translate(-82.193 -453.306)"/><path class="h" d="M119.18,688.677A6.81,6.81,0,0,0,131.6,683.12a6.858,6.858,0,0,0-1.494,1.333,26.72,26.72,0,0,1-1.823,2.422,8.556,8.556,0,0,1-5.641,1.981A28.992,28.992,0,0,1,119.18,688.677Z" transform="translate(-87.446 -485.372)"/><path class="i" d="M564.169,613.862a5.435,5.435,0,0,0-2.163-4.381,311.67,311.67,0,0,0-9.543-10.968h0a5.375,5.375,0,0,0-.787-.186H551.6l-.136-.018h-.721a6.226,6.226,0,0,0-6.016,5.323c-1.942-.448-3.724.133-4.042,1.361a1.663,1.663,0,0,0,.052.983,4.258,4.258,0,0,0,2.852,2.313l.189.056c.095.028.189.049.283.07h.063a4.9,4.9,0,0,0,2.138,6.408,1.1,1.1,0,0,0-.126.08,1.75,1.75,0,0,0-.42.588,8.523,8.523,0,0,0-.812,1.956c-.14.584-.164,1.2-.35,1.774-.318,1.05-1.137,1.97-1.232,3.087-.042.5.038,1.081-.315,1.421a2.314,2.314,0,0,1-.28.206,2.164,2.164,0,0,0-.616.644,2.056,2.056,0,0,1-.409.567c-.318.242-.843.217-1,.588s.248.808.154,1.214c-.077.329-.437.479-.7.7a2.481,2.481,0,0,0-.595,1.13,3.619,3.619,0,0,1-2.985-.759,5.6,5.6,0,0,1,.308,1.116,4.7,4.7,0,0,0-1.61-.8,5.141,5.141,0,0,1-1.715-1.274l.917-.126-4.06-6.159-1.2-.245,1.074,2.061a.644.644,0,0,0-.35.441,1.875,1.875,0,0,0-.042.7,12.93,12.93,0,0,0,.276,1.641l.311,1.449a3.743,3.743,0,0,0,.1.4,4.084,4.084,0,0,0-1.2.136,10.581,10.581,0,0,0-2.5-.591,1.274,1.274,0,0,0-.563.028,1.364,1.364,0,0,0-.525.427,16.793,16.793,0,0,0-1.855,2.611c-2.18,3.794-5.092,7.1-7.818,10.534-1.883.766-3.779,1.494-5.68,2.215l-4.084,1.557a6.135,6.135,0,0,1-2.53.574c-.392-.025-.868-.084-1.088.248a2.1,2.1,0,0,0-.248.532c-.143,0-.287.035-.42.042h-.024a4.847,4.847,0,0,0-.98-1.8.609.609,0,0,0-.462.35c-.1.182-.157.381-.269.549-.221.322-.6.479-.875.752s-.444.7-.738.966a2.932,2.932,0,0,1-1.4.542,8.838,8.838,0,0,0-2.173.826,3.72,3.72,0,0,1-.8.371,3.03,3.03,0,0,1-.941.031l-2.163-.158a1.685,1.685,0,0,0-.577.024,1.074,1.074,0,0,0-.7,1.109,1.725,1.725,0,0,0,.682,1.19,4.551,4.551,0,0,0,1.232.64,35.772,35.772,0,0,0,5.792,1.7v.437a9.821,9.821,0,0,0,4.413,1.05.656.656,0,0,0,.329-.06.731.731,0,0,0,.276-.434,17.851,17.851,0,0,0,.864-4.238h0a2.18,2.18,0,0,0,.78-.2c.745-.2,1.484.308,2.25.392a6.162,6.162,0,0,0,2.716-.787c.129-.049.259-.091.388-.133a4.352,4.352,0,0,1-.892.864c-.371.266-.787.462-1.151.738a7.664,7.664,0,0,1-.969.752,5.843,5.843,0,0,1-.745.287,5.052,5.052,0,0,0-1.05.528,2.183,2.183,0,0,0-.728.7.955.955,0,0,0,.651,1.491,3,3,0,0,0,.885.024c1.169-.087,2.334-.2,3.5-.3a9.8,9.8,0,0,0,1.466-.21c.255-.063.507-.147.763-.214a6.173,6.173,0,0,1,1.333-.2,1.107,1.107,0,0,1,.388.039c.273.087.465.35.742.42a1.146,1.146,0,0,0,.528-.074,12.138,12.138,0,0,1,2.6-.276c.381-.021.829-.095,1.008-.448.217-.437-.147-.927-.29-1.4a4.219,4.219,0,0,1-.119-.917,5.719,5.719,0,0,0-.644-2.18,5.9,5.9,0,0,1-.479-.994,25.29,25.29,0,0,0,4.773-2.422,8.65,8.65,0,0,1,2.723-1.309,7.312,7.312,0,0,1,3.419.4,76.883,76.883,0,0,1,7.836,2.733,38.941,38.941,0,0,0,3.7,1.4,5.764,5.764,0,0,0,1.312,1.281,6.064,6.064,0,0,0,2.852.777,37.433,37.433,0,0,0,4.011.15,6.777,6.777,0,0,0,2.989-.553,3.455,3.455,0,0,0,.626-.413,2.48,2.48,0,0,0,1.967-.728,4.758,4.758,0,0,0,1.5-2.362c.322-1.263.074-2.737.85-3.769.206-.276.476-.5.679-.78a2.1,2.1,0,0,0,.35-1.27l.035-.052a4.718,4.718,0,0,0,.35-1.274,7.289,7.289,0,0,1,.35-1,30.336,30.336,0,0,0,1.029-2.985,16.4,16.4,0,0,0,.476-2.047c.084-.553.133-1.109.179-1.666a10.044,10.044,0,0,1,.5-2.558,20.9,20.9,0,0,0,1.158-6.131v-.122a4.105,4.105,0,0,0,3.657-4.144,4.388,4.388,0,0,0-.378-1.788,5.549,5.549,0,0,0,.728-2.782Zm-19.79,24.046c.06.213.129.427.2.64-.322-.318-.64-.647-.966-.962.13.038.259.081.385.126a2.31,2.31,0,0,1,.385.2Zm-1.568-1.05c-1.911-1.659-4.122-2.947-6.079-4.549,1.05.528,2.1,1.141,3.15,1.729q1.834,1.05,3.71,2.009a3.017,3.017,0,0,1-.77.8Zm.815-4.178.091-.094v.654c-.171-.056-.35-.112-.514-.175a4.34,4.34,0,0,0,.427-.4ZM526.8,637.173a15.863,15.863,0,0,0,2.04-2.908,19.06,19.06,0,0,0,3.038,3.391c-1.687-.238-3.377-.423-5.074-.5Z" transform="translate(-328.473 -430.242)"/><path class="j" d="M574.53,545.12l1.207.245,4.112,6.075-1.816.245Z" transform="translate(-373.469 -354.323)"/><path class="k" d="M519.48,733.553a23.93,23.93,0,0,0,1.2,3.15,29.09,29.09,0,0,0,4.011-1.144,10.935,10.935,0,0,0-.833-1.13,3.93,3.93,0,0,0-1.134-.871,3.087,3.087,0,0,0-1.375-.021Q520.414,733.571,519.48,733.553Z" transform="translate(-347.658 -518.098)"/><path class="j" d="M503.552,731.99a2.518,2.518,0,0,1-1.372-1.561,5.07,5.07,0,0,0-1.025-1.869.612.612,0,0,0-.462.35c-.1.175-.161.374-.276.542-.217.315-.6.469-.878.738s-.448.679-.745.948a2.963,2.963,0,0,1-1.4.539,8.873,8.873,0,0,0-2.191.812,3.749,3.749,0,0,1-.812.35,3.075,3.075,0,0,1-.948.031l-2.18-.157a1.7,1.7,0,0,0-.581.028,1.05,1.05,0,0,0-.7,1.092,1.694,1.694,0,0,0,.7,1.172,4.648,4.648,0,0,0,1.239.63,37.346,37.346,0,0,0,5.844,1.669v.43a10.117,10.117,0,0,0,4.448,1.05.7.7,0,0,0,.35-.06.728.728,0,0,0,.28-.427,17.21,17.21,0,0,0,.906-4.738,3.557,3.557,0,0,0-.091-1.218c-.119-.392.287-.227-.091-.381" transform="translate(-328.479 -514.91)"/><path class="j" d="M568.53,711.675c-6.464.392-12.847-1.5-19.321-1.708a9.659,9.659,0,0,0-2.4.154,11.79,11.79,0,0,0-2.38.924c-3.468,1.613-7.059,2.95-10.646,4.287l-4.116,1.533a6.4,6.4,0,0,1-2.555.563c-.392-.024-.871-.084-1.1.245-.668.99-.35,2.45.091,3.563.143.35.385.752.77.794a2.272,2.272,0,0,0,.787-.2c.749-.2,1.5.3,2.268.385a6.32,6.32,0,0,0,2.74-.773,25.552,25.552,0,0,1,4.69-.794,20.952,20.952,0,0,0,7.349-3.052,8.626,8.626,0,0,1,2.744-1.288,7.509,7.509,0,0,1,3.447.388,79.5,79.5,0,0,1,7.9,2.691,36.375,36.375,0,0,0,4.129,1.5,14.929,14.929,0,0,0,9.253-.539c1.05-.409,2.156-1.13,2.215-2.247.035-.637-.458-1.2-.787-1.75-.213-.35-.423-.7-.654-1.032C571.844,713.7,570.493,711.556,568.53,711.675Z" transform="translate(-351.657 -502.813)"/><path class="h" d="M568.53,711.675c-6.464.392-12.847-1.5-19.321-1.708a9.659,9.659,0,0,0-2.4.154,11.79,11.79,0,0,0-2.38.924c-3.468,1.613-7.059,2.95-10.646,4.287l-4.116,1.533a6.4,6.4,0,0,1-2.555.563c-.392-.024-.871-.084-1.1.245-.668.99-.35,2.45.091,3.563.143.35.385.752.77.794a2.272,2.272,0,0,0,.787-.2c.749-.2,1.5.3,2.268.385a6.32,6.32,0,0,0,2.74-.773,25.552,25.552,0,0,1,4.69-.794,20.952,20.952,0,0,0,7.349-3.052,8.626,8.626,0,0,1,2.744-1.288,7.509,7.509,0,0,1,3.447.388,79.5,79.5,0,0,1,7.9,2.691,36.375,36.375,0,0,0,4.129,1.5,14.929,14.929,0,0,0,9.253-.539c1.05-.409,2.156-1.13,2.215-2.247.035-.637-.458-1.2-.787-1.75-.213-.35-.423-.7-.654-1.032C571.844,713.7,570.493,711.556,568.53,711.675Z" transform="translate(-351.657 -502.813)"/><path class="k" d="M554.93,729.631q1.519.514,3.059.952c.578-.948,1.655-1.606,1.9-2.688a.252.252,0,0,0,0-.143.26.26,0,0,0-.115-.1,5.723,5.723,0,0,0-2.4-.7c-.665-.042-.966.651-1.267,1.137C556,728.28,555.2,729.722,554.93,729.631Z" transform="translate(-370.702 -513.86)"/><path class="j" d="M540.445,729.772a2.2,2.2,0,0,1-1.487-.976c-.143-.248-.294-.584-.581-.567s-.385.332-.444.595a17,17,0,0,1-.837,2.873,5.384,5.384,0,0,1-1.788,2.348c-.375.259-.791.455-1.158.728a7.658,7.658,0,0,1-.98.742,5.524,5.524,0,0,1-.752.28,5.161,5.161,0,0,0-1.074.521,2.186,2.186,0,0,0-.731.7.941.941,0,0,0,.637,1.473,3.172,3.172,0,0,0,.892.021c1.179-.088,2.355-.193,3.531-.3a10.032,10.032,0,0,0,1.48-.2c.259-.063.511-.147.766-.214a6.5,6.5,0,0,1,1.347-.2,1.139,1.139,0,0,1,.392.039c.273.087.465.35.745.413a1.156,1.156,0,0,0,.532-.07,12.593,12.593,0,0,1,2.618-.273c.385-.021.84-.094,1.015-.441.22-.43-.144-.913-.291-1.375a4.324,4.324,0,0,1-.122-.9,5.5,5.5,0,0,0-.647-2.145c-.3-.553-.7-1.162-.5-1.75a1.533,1.533,0,0,0,.2-.6C543.158,729.548,540.977,729.9,540.445,729.772Z" transform="translate(-354.793 -514.695)"/><path class="k" d="M610.371,674.7a5.067,5.067,0,0,1-2.576-2.558c-.1-.245-.2-.5-.3-.749a5.731,5.731,0,0,0-1.54-2.135.738.738,0,0,0-.57-.242.609.609,0,0,0-.42.448,1.836,1.836,0,0,0-.046.7,13.18,13.18,0,0,0,.28,1.613l.315,1.428a2.8,2.8,0,0,0,.2.637,2.218,2.218,0,0,0,.525.626c.287.266.577.521.871.77a3.08,3.08,0,0,0,.528.385,3.242,3.242,0,0,0,.983.287,8.479,8.479,0,0,1,3.671,1.4s0-.955-.025-1.05A1.4,1.4,0,0,0,612,675.5,4.623,4.623,0,0,0,610.371,674.7Z" transform="translate(-403.189 -476.206)"/><path class="h" d="M610.371,674.7a5.067,5.067,0,0,1-2.576-2.558c-.1-.245-.2-.5-.3-.749a5.731,5.731,0,0,0-1.54-2.135.738.738,0,0,0-.57-.242.609.609,0,0,0-.42.448,1.836,1.836,0,0,0-.046.7,13.18,13.18,0,0,0,.28,1.613l.315,1.428a2.8,2.8,0,0,0,.2.637,2.218,2.218,0,0,0,.525.626c.287.266.577.521.871.77a3.08,3.08,0,0,0,.528.385,3.242,3.242,0,0,0,.983.287,8.479,8.479,0,0,1,3.671,1.4s0-.955-.025-1.05A1.4,1.4,0,0,0,612,675.5,4.623,4.623,0,0,0,610.371,674.7Z" transform="translate(-403.189 -476.206)"/><ellipse class="j" cx="1.571" cy="1.582" rx="1.571" ry="1.582" transform="translate(218.769 184.414)"/><path class="j" d="M635.1,646.729a1.749,1.749,0,0,0-1.242.178,1.673,1.673,0,0,0-.423.581,8.256,8.256,0,0,0-.819,1.925c-.14.577-.164,1.179-.35,1.75-.322,1.05-1.148,1.942-1.242,3.038-.042.49.038,1.067-.318,1.4a2.066,2.066,0,0,1-.283.2,2.147,2.147,0,0,0-.62.637,2.019,2.019,0,0,1-.437.605c-.322.238-.85.214-1.008.581s.249.794.154,1.193c-.077.325-.441.476-.7.7a2.421,2.421,0,0,0-.6,1.116,3.706,3.706,0,0,1-3.006-.752,9.478,9.478,0,0,1,.465,3.44,1.421,1.421,0,0,1-.276,1.05,17.781,17.781,0,0,1,3.692.64,2.535,2.535,0,0,0,1.61,0,2.66,2.66,0,0,0,.738-.588,4.687,4.687,0,0,0,1.522-2.341,12.742,12.742,0,0,0,.028-1.592,9.134,9.134,0,0,1,.4-1.928,22.558,22.558,0,0,0,.7-3.972c.073-.829.787-1.494,1.165-2.236a11.05,11.05,0,0,0,1.491-4.42C635.8,647.422,635.622,646.8,635.1,646.729Z" transform="translate(-415.737 -461.688)"/><path class="h" d="M635.1,646.729a1.749,1.749,0,0,0-1.242.178,1.673,1.673,0,0,0-.423.581,8.256,8.256,0,0,0-.819,1.925c-.14.577-.164,1.179-.35,1.75-.322,1.05-1.148,1.942-1.242,3.038-.042.49.038,1.067-.318,1.4a2.066,2.066,0,0,1-.283.2,2.147,2.147,0,0,0-.62.637,2.019,2.019,0,0,1-.437.605c-.322.238-.85.214-1.008.581s.249.794.154,1.193c-.077.325-.441.476-.7.7a2.421,2.421,0,0,0-.6,1.116,3.706,3.706,0,0,1-3.006-.752,9.478,9.478,0,0,1,.465,3.44,1.421,1.421,0,0,1-.276,1.05,17.781,17.781,0,0,1,3.692.64,2.535,2.535,0,0,0,1.61,0,2.66,2.66,0,0,0,.738-.588,4.687,4.687,0,0,0,1.522-2.341,12.742,12.742,0,0,0,.028-1.592,9.134,9.134,0,0,1,.4-1.928,22.558,22.558,0,0,0,.7-3.972c.073-.829.787-1.494,1.165-2.236a11.05,11.05,0,0,0,1.491-4.42C635.8,647.422,635.622,646.8,635.1,646.729Z" transform="translate(-415.737 -461.688)"/><path class="j" d="M591.155,694.065a14.506,14.506,0,0,1-3.419-2.856c-2.079-1.953-4.62-3.332-6.8-5.162a43.65,43.65,0,0,0-4.333-3.636,10.759,10.759,0,0,0-4.64-1.627,1.288,1.288,0,0,0-.567.028,1.362,1.362,0,0,0-.529.42,16.49,16.49,0,0,0-1.872,2.572c-2.768,4.7-6.7,8.647-9.956,13.018a.584.584,0,0,0-.038.791l.661,1.3c.371.724.966,1.571,1.75,1.428a1.942,1.942,0,0,0,.927-.591l2.975-2.845,3.118-2.982a24.059,24.059,0,0,0,4.878-5.767c.931,1.613,2.583,2.67,3.717,4.15.43.56.78,1.179,1.165,1.774.619.955,1.319,1.851,2.019,2.744l3.58,4.567a6.927,6.927,0,0,0,1.655,1.68,6.353,6.353,0,0,0,2.877.766,37.044,37.044,0,0,0,4.042.147,6.935,6.935,0,0,0,3.01-.542,2.772,2.772,0,0,0,1.634-2.425,3.6,3.6,0,0,0-.514-1.515A11.945,11.945,0,0,0,591.155,694.065Z" transform="translate(-373.258 -483.842)"/><ellipse class="l" cx="1.207" cy="1.214" rx="1.207" ry="1.214" transform="translate(220.099 185.877)"/><path class="k" d="M657.045,643.014a2.31,2.31,0,0,1,.133,1.75,6.764,6.764,0,0,1-.777,1.61,8.019,8.019,0,0,1-1.011,1.442,10.371,10.371,0,0,0,5.319-1.529,7.636,7.636,0,0,0,3.356-2.926,1.553,1.553,0,0,1-1.235-.227,4.624,4.624,0,0,1-.948-.882l-.934-1.05a4.2,4.2,0,0,1-.577-.759,2.1,2.1,0,0,1-.248-1.221,7,7,0,0,1-1.239,1.029c-.668.437-1.4.752-2.075,1.183-.238.154-.766.4-.63.7S656.856,642.678,657.045,643.014Z" transform="translate(-436.005 -456.836)"/><path class="h" d="M657.045,643.014a2.31,2.31,0,0,1,.133,1.75,6.764,6.764,0,0,1-.777,1.61,8.019,8.019,0,0,1-1.011,1.442,10.371,10.371,0,0,0,5.319-1.529,7.636,7.636,0,0,0,3.356-2.926,1.553,1.553,0,0,1-1.235-.227,4.624,4.624,0,0,1-.948-.882l-.934-1.05a4.2,4.2,0,0,1-.577-.759,2.1,2.1,0,0,1-.248-1.221,7,7,0,0,1-1.239,1.029c-.668.437-1.4.752-2.075,1.183-.238.154-.766.4-.63.7S656.856,642.678,657.045,643.014Z" transform="translate(-436.005 -456.836)"/><path class="l" d="M646.474,650.2a1.578,1.578,0,0,0,0,1.823c.053.067.252.483.35.486a.319.319,0,0,0,.214-.108,14.836,14.836,0,0,0,1.183-1.4,2.611,2.611,0,0,1,1.5-.987,3.293,3.293,0,0,1,2.075.644,1.981,1.981,0,0,1,.7.581,1.909,1.909,0,0,1,.234.791,37.042,37.042,0,0,1,.21,5.025,19.338,19.338,0,0,1-.238,3.615c-.119.616-.3,1.218-.381,1.841a12.381,12.381,0,0,0-.073,1.652v2.31a5.867,5.867,0,0,0,.091,1.263,15.442,15.442,0,0,0,.507,1.466,9.656,9.656,0,0,1,.35,1.75l.315,2.39a2.919,2.919,0,0,1-.284,2.184c-.2.276-.476.493-.7.766-.787,1-.525,2.453-.875,3.7a4.679,4.679,0,0,1-1.519,2.327,2.458,2.458,0,0,1-2,.7,2.741,2.741,0,0,1-1.82-2.149,8.342,8.342,0,0,0-.934-2.8,7.383,7.383,0,0,0-1.848-1.547,3.2,3.2,0,0,1-1.442-1.876c-.063-.35-.024-.7-.06-1.05a2.5,2.5,0,0,0-1.547-2.03c-.5-.193-1.113-.263-1.4-.7a3.371,3.371,0,0,0,1.456-1.956,10.049,10.049,0,0,0,.35-2.45l.168-2.779a9.2,9.2,0,0,1,.654-3.591c.245-.5.549-.966.8-1.459a16.2,16.2,0,0,0,.861-2.142c.4-1.137.794-2.278,1.148-3.43a6.8,6.8,0,0,1,.63-1.6C645.484,650.932,645.914,650.3,646.474,650.2Z" transform="translate(-425.409 -463.837)"/><path class="j" d="M642.415,667.368l.735.025.157-1.109a2.4,2.4,0,0,1,.154-.647,4.123,4.123,0,0,1,.423-.619c.724-1.022.672-2.38.85-3.622a18,18,0,0,1,1.617-4.735l1.428-3.181a4.584,4.584,0,0,0,.3-.815,4.464,4.464,0,0,0,.087-.941c0-.49.161-2.278.172-2.772,0-.182-.4-.081-.483-.242-.178-.35-.423.6-.759.812a1.862,1.862,0,0,0-.658.962c-.308.8-.5,1.645-.784,2.45a5.034,5.034,0,0,1-1.333,2.166c-.291.259-.63.462-.906.735a4.96,4.96,0,0,0-1,3.5C642.394,660.1,642.251,667.368,642.415,667.368Z" transform="translate(-427.52 -462.953)"/><path class="j" d="M660.35,646.639a2.546,2.546,0,0,0-1.305,1.8,8.8,8.8,0,0,1-.668,2.2c-.9,1.561-3.181,2.016-3.815,3.7a6.773,6.773,0,0,0-.255,1.75c-.112,1.207-.511,2.376-.63,3.584a15.8,15.8,0,0,0,.066,2.817l.8,9.529a12.6,12.6,0,0,1-.242,4.2,4.035,4.035,0,0,0,2.4-.4c.752-.35,1.438-.812,2.159-1.211a21.936,21.936,0,0,0,3.7-2.1,2.195,2.195,0,0,0,.5-.549,4.726,4.726,0,0,0,.35-1.256,7.071,7.071,0,0,1,.35-.987,29.316,29.316,0,0,0,1.05-2.94,15.836,15.836,0,0,0,.479-2.019c.087-.542.133-1.092.182-1.638a9.649,9.649,0,0,1,.507-2.52,20.2,20.2,0,0,0,1.165-6.037,3.02,3.02,0,0,0-.06-.889,4.763,4.763,0,0,0-.483-1.008c-.332-.626-.532-1.316-.847-1.949a9.487,9.487,0,0,0-3.269-3.437C661.817,646.846,661.078,646.363,660.35,646.639Z" transform="translate(-434.869 -461.606)"/><path class="k" d="M608.921,685.281a5.739,5.739,0,0,1-1.522-1.155c-.2-.234-.35-.5-.567-.728a3.741,3.741,0,0,0-1.914-1.092,9.233,9.233,0,0,0-2.219-.214,3.94,3.94,0,0,0-1.473.179,1.487,1.487,0,0,0-.98,1.05,1.727,1.727,0,0,0,.745,1.55,3.6,3.6,0,0,0,1.487.724,12.347,12.347,0,0,0,1.344.157c2.646.276,5.008,1.715,7.325,3.027q3.055,1.725,6.229,3.23a12.483,12.483,0,0,0,.105-1.911c0-.476-.035-1.2-.486-1.484a9.97,9.97,0,0,0-1.981-.6,31.417,31.417,0,0,1-3.986-1.61C610.3,686.054,609.6,685.68,608.921,685.281Z" transform="translate(-400.147 -484.699)"/><ellipse class="k" cx="4.714" cy="4.742" rx="4.714" ry="4.742" transform="translate(215.627 176.152)"/><path class="j" d="M655.1,661.03a7.664,7.664,0,0,0-.913,1.7,36.415,36.415,0,0,0-1.953,3.5c-.483,1.319-.465,2.891-1.4,3.93a1.355,1.355,0,0,0-.409.595,2.945,2.945,0,0,1-.049.43c-.133.378-.752.4-.868.781-.031.112,0,.234-.056.35-.095.249-.42.284-.641.434-.458.312-.35,1.032-.7,1.48a1.242,1.242,0,0,1-1.176.413,4.363,4.363,0,0,1-1.225-.458,1.1,1.1,0,0,0-.437-.137.893.893,0,0,0-.507.171,3.134,3.134,0,0,0-1.274,2.688,8.75,8.75,0,0,0,.724,3,1.263,1.263,0,0,0,.242.448,1.051,1.051,0,0,0,1.176.084,5.474,5.474,0,0,1,1.144-.511c.728-.133,1.442.371,2.18.329a3.073,3.073,0,0,0,1.473-.651,8.156,8.156,0,0,0,1.988-1.7c.322-.423.56-.906.843-1.358a15.408,15.408,0,0,1,1.19-1.589l2.719-3.328a7.149,7.149,0,0,0,.731-1.011,7.412,7.412,0,0,0,.57-1.519,12.005,12.005,0,0,0,.563-2.705,10.8,10.8,0,0,0-.2-2.271,7.888,7.888,0,0,0-.584-2.159C657.646,660.75,656.207,659.736,655.1,661.03Z" transform="translate(-428.269 -470.622)"/><path class="m" d="M659.632,615.951a5.309,5.309,0,0,0-2.184-4.315,6.3,6.3,0,0,0-5.358-6.142,6.124,6.124,0,0,0-12.063.325c-1.96-.441-3.752.133-4.077,1.34-.35,1.263,1.05,2.74,3.122,3.3a5.735,5.735,0,0,0,2,.2,6.142,6.142,0,0,0,4.221,2.625,6.275,6.275,0,0,0,4.6,4.749A5.249,5.249,0,0,0,651.314,620c0,.147-.025.3-.025.451a3.993,3.993,0,1,0,7.979,0,4.2,4.2,0,0,0-.382-1.751A5.365,5.365,0,0,0,659.632,615.951Z" transform="translate(-423.333 -431.719)"/><path class="h" d="M637.254,607.349c.326-1.207,2.1-1.781,4.077-1.34a6.226,6.226,0,0,1,6.065-5.249h.406a5.948,5.948,0,0,0-1.75-.259,6.226,6.226,0,0,0-6.065,5.249c-1.96-.441-3.752.133-4.077,1.34-.35,1.263,1.05,2.74,3.122,3.3a5.994,5.994,0,0,0,1.179.2C638.245,610.019,636.922,608.584,637.254,607.349Z" transform="translate(-423.307 -431.666)"/><path class="h" d="M662.515,639.807a2.807,2.807,0,0,1,.025-.455,5.23,5.23,0,0,1-1.421-1.963,6.3,6.3,0,0,1-4.6-4.752,6.132,6.132,0,0,1-4.221-2.625,5.566,5.566,0,0,1-1.176-.031,6.121,6.121,0,0,0,4.067,2.415,6.275,6.275,0,0,0,4.6,4.749,5.25,5.25,0,0,0,1.421,1.967c0,.147-.024.3-.024.451a4.063,4.063,0,0,0,3.969,4.129A4.122,4.122,0,0,1,662.515,639.807Z" transform="translate(-433.229 -450.829)"/><ellipse class="k" cx="0.728" cy="0.969" rx="0.728" ry="0.969" transform="translate(220.746 181.527) rotate(-37.22)"/><path class="g" d="M312.2,691.962l4.661-2.74a11.2,11.2,0,0,0-2.383-2.852L305.69,689.1l6.887-4.049A11.2,11.2,0,0,0,296,694.877c0,6.184,5.015,6.4,11.2,6.4s11.2-.213,11.2-6.4a11.111,11.111,0,0,0-.962-4.549Z" transform="translate(-202.386 -485.735)"/><path class="h" d="M313.389,711.282a8.748,8.748,0,0,0-1.652-1.3,7.625,7.625,0,0,0-2.719-1.326,20.527,20.527,0,0,0-2.67-.077,6.239,6.239,0,0,1-4.091-1.876,12.537,12.537,0,0,0-1.9-1.97,4.164,4.164,0,0,0-2.849-.521,6.925,6.925,0,0,0-.843.172,11.2,11.2,0,0,0-.661,3.8c0,6.184,5.015,6.4,11.2,6.4,3,0,5.725-.049,7.738-.808l-.35-.626a8.708,8.708,0,0,0-1.2-1.865Z" transform="translate(-202.386 -499.043)"/></g></svg>