<svg xmlns="http://www.w3.org/2000/svg" width="303.162" height="232.366" viewBox="0 0 303.162 232.366"><defs><style>.a{fill:#3f3d56;}.b{fill:#01b148;}.c{fill:#2f2e41;}.d{fill:#ffb8b8;}.e{opacity:0.1;}.f{fill:#4dff95;opacity:0.3;}.g{fill:#6c63ff;}.h{fill:#d3a438;}.i{fill:#f0f0f0;}</style></defs><ellipse class="a" cx="45.853" cy="7.568" rx="45.853" ry="7.568" transform="translate(211.457 217.23)"/><path class="b" d="M984.623,634.279c-.09,16.259-9.787,21.882-21.709,21.816q-.415,0-.827-.014-.828-.023-1.64-.085c-10.756-.822-19.084-6.836-19-21.956.087-15.648,20.2-35.285,21.7-36.737h0l.087-.083S984.712,618.021,984.623,634.279Z" transform="translate(-688.53 -437.344)"/><path class="a" d="M990.982,653.6l7.957-10.988-7.983,12.2-.028,1.266q-.829-.023-1.64-.085l.941-16.261-.006-.126.015-.024.089-1.536-7.869-12.317,7.9,11.166.018.326.711-12.286-6.723-12.721,6.819,10.561.81-25.476,0-.085v.083l-.222,20.093,6.807-7.928-6.847,9.659-.24,11,6.375-10.525-6.409,12.143-.133,6.118,9.248-14.649L991.275,640Z" transform="translate(-717.37 -437.342)"/><circle class="c" cx="14.452" cy="14.452" r="14.452" transform="translate(238.541 44.406)"/><circle class="d" cx="9.814" cy="9.814" r="9.814" transform="translate(241.028 54.093)"/><path class="d" d="M912.28,289.963s4.244,9.814,2.122,10.875-3.183,5.835-3.183,5.835l5.57,11.671,7.692,4.774h4.509s4.509-20.158,2.917-22.545-7.427-3.713-7.427-3.713a12.523,12.523,0,0,1-.8-6.1C924.216,287.842,912.28,289.963,912.28,289.963Z" transform="translate(-667.274 -220.752)"/><path class="d" d="M850.9,361.219l-6.9-5.57s-12.466-8.753-10.875-2.387,8.753,6.9,8.753,6.9l11.936,9.549Z" transform="translate(-612.263 -264.157)"/><path class="c" d="M888.205,480.738s-3.183,13.262,0,31.3l1.326,7.161s0,5.57,1.326,7.692c0,0,3.448,31.563,5.3,31.563s7.692-1.061,8.222-1.857-10.344-77.185-10.344-77.185Z" transform="translate(-650.095 -354.5)"/><path class="e" d="M888.205,480.738s-3.183,13.262,0,31.3l1.326,7.161s0,5.57,1.326,7.692c0,0,3.448,31.563,5.3,31.563s7.692-1.061,8.222-1.857-10.344-77.185-10.344-77.185Z" transform="translate(-650.095 -354.5)"/><path class="c" d="M899.806,738.6,895.7,753.829s-8.218,4.834-3.142,5.8a21.165,21.165,0,0,0,10.151-.967l2.417-7.009,2.417-1.45V757.7h.725l1.692-9.909s-.242-5.076-1.692-5.559-2.175-3.142-2.175-3.142Z" transform="translate(-652.985 -536.767)"/><path class="e" d="M899.806,738.6,895.7,753.829s-8.218,4.834-3.142,5.8a21.165,21.165,0,0,0,10.151-.967l2.417-7.009,2.417-1.45V757.7h.725l1.692-9.909s-.242-5.076-1.692-5.559-2.175-3.142-2.175-3.142Z" transform="translate(-652.985 -536.767)"/><path class="c" d="M887.983,464.262s2.122,7.957,2.918,9.283c0,0,1.061,22.546,4.509,30.237l3.713,9.814s6.1,28.911,4.509,32.094c0,0,8.222,1.857,8.753,0,0,0-.265-15.384.53-17.506s2.122-13.792-4.244-22.28V480.176s10.079-8.488,4.244-19.362S887.983,464.262,887.983,464.262Z" transform="translate(-650.934 -338.554)"/><path class="c" d="M920.235,751.1l-4.509,16.71s-9.018,5.3-3.448,6.366a23.226,23.226,0,0,0,11.14-1.061l2.652-7.692,2.652-1.592v8.223h.8l1.857-10.875s-.265-5.57-1.857-6.1-2.387-3.448-2.387-3.448Z" transform="translate(-666.741 -545.557)"/><path class="a" d="M878.878,321.7s-6.677,3.837-6.677,4.1.8,4.509.8,4.509-8.223,8.223-2.652,15.384c0,0,1.857,1.326,1.857,5.57v4.244s-15.649,9.814-11.671,13,8.223,2.652,9.549,4.509,9.018-1.591,10.609-2.122,1.857-1.061,3.183.8,8.753-1.326,8.753-1.326a49.952,49.952,0,0,1,5.835-1.326,3.669,3.669,0,0,0,1.857-.53L888.91,356.833l5.7-14.456S877.77,331.9,877.77,328.983A37.834,37.834,0,0,1,878.878,321.7Z" transform="translate(-631.173 -243.592)"/><path class="d" d="M915.621,323.9a12.346,12.346,0,0,0-.8,11.405,153.583,153.583,0,0,0,6.9,14.323l-6.631,2.122h-6.1s-12.732-2.122-11.405,2.652,10.344,2.652,10.344,2.652h5.3s11.936,1.326,13.527-.8c0,0,4.244-.265,2.387-8.753s-7.278-23.017-7.278-23.017Z" transform="translate(-657.618 -245.143)"/><ellipse class="c" cx="9.256" cy="4.709" rx="9.256" ry="4.709" transform="translate(239.677 50.089)"/><ellipse class="d" cx="1.326" cy="2.918" rx="1.326" ry="2.918" transform="translate(259.197 60.326)"/><circle class="c" cx="7.957" cy="7.957" r="7.957" transform="translate(251.505 38.046)"/><circle class="f" cx="32.646" cy="32.646" r="32.646" transform="translate(57.279 16.903)"/><circle class="f" cx="19.291" cy="19.291" r="19.291" transform="translate(7.42 121.073)"/><circle class="f" cx="39.472" cy="39.472" r="39.472" transform="translate(110.996 100.892)"/><path class="g" d="M154,312.135l-.581-.124q.186-.875.389-1.744l.578.135Q154.19,311.266,154,312.135Z" transform="translate(-134.378 -235.555)"/><path class="g" d="M343.891,130.2c-.3-1.131-.635-2.273-.981-3.394l.567-.175c.349,1.128.681,2.277.988,3.415Zm-185.648-.259-.573-.156c.311-1.141.647-2.294,1-3.425l.567.177c-.352,1.124-.686,2.27-.995,3.4ZM341.8,123.455c-.389-1.108-.8-2.221-1.228-3.308l.552-.217c.429,1.093.845,2.213,1.236,3.329Zm-181.447-.283-.56-.2c.4-1.117.817-2.24,1.252-3.34l.552.219c-.433,1.093-.851,2.209-1.244,3.319Zm178.868-6.287c-.467-1.073-.962-2.153-1.469-3.21l.535-.257c.511,1.064,1.009,2.151,1.479,3.23Zm-176.257-.3-.543-.239c.476-1.083.979-2.172,1.5-3.236l.534.259c-.512,1.058-1.012,2.14-1.486,3.216Zm173.2-6.063c-.547-1.039-1.12-2.08-1.7-3.095l.515-.3c.586,1.021,1.163,2.068,1.713,3.114Zm-170.11-.311-.524-.279c.555-1.045,1.137-2.094,1.73-3.116l.514.3C167.19,108.129,166.611,109.171,166.059,110.21ZM332.65,104.4c-.62-.994-1.269-1.991-1.926-2.963l.492-.333c.662.978,1.314,1.981,1.938,2.981Zm-163.04-.313-.5-.316c.63-1,1.287-2,1.953-2.979l.49.334c-.663.971-1.316,1.967-1.942,2.96Zm159.079-5.54c-.689-.943-1.409-1.89-2.139-2.814l.466-.368c.735.931,1.459,1.884,2.152,2.832ZM173.6,98.236l-.478-.352c.7-.952,1.431-1.9,2.166-2.826l.464.37c-.731.918-1.455,1.863-2.153,2.809Zm150.708-5.242c-.76-.894-1.547-1.786-2.34-2.651l.438-.4c.8.871,1.59,1.769,2.354,2.668Zm-146.3-.3-.451-.386c.768-.9,1.564-1.791,2.366-2.66l.436.4c-.8.864-1.588,1.753-2.352,2.643Zm141.526-4.921c-.825-.837-1.676-1.67-2.528-2.474l.408-.432c.858.809,1.713,1.647,2.544,2.489ZM182.806,87.5l-.421-.418c.834-.839,1.693-1.673,2.554-2.479l.405.433c-.856.8-1.71,1.629-2.538,2.464Zm131.581-4.577c-.883-.774-1.793-1.543-2.7-2.284l.374-.46c.916.745,1.831,1.518,2.72,2.3ZM187.97,82.668l-.39-.448c.892-.775,1.809-1.544,2.727-2.285l.373.462c-.912.736-1.824,1.5-2.711,2.271ZM308.9,78.457c-.936-.706-1.9-1.406-2.864-2.08l.34-.487c.971.678,1.94,1.382,2.882,2.093Zm-115.426-.23-.356-.475c.947-.708,1.918-1.408,2.886-2.079l.338.488C195.377,76.828,194.412,77.523,193.471,78.227ZM303.095,74.4c-.987-.637-2-1.264-3.01-1.865l.3-.51c1.016.6,2.035,1.235,3.029,1.876Zm-103.813-.2-.32-.5c.995-.636,2.014-1.262,3.03-1.861l.3.512c-1.01.595-2.023,1.217-3.011,1.849Zm97.726-3.416c-1.029-.562-2.086-1.113-3.14-1.638l.265-.531c1.061.529,2.124,1.083,3.16,1.649Zm-91.638-.17-.282-.522c1.038-.561,2.1-1.11,3.157-1.632l.263.532c-1.051.519-2.106,1.065-3.137,1.622Zm85.3-2.99c-1.069-.484-2.163-.956-3.254-1.4l.225-.549c1.1.449,2.2.924,3.274,1.411ZM211.7,67.489l-.243-.541c1.074-.482,2.173-.951,3.267-1.394l.223.55c-1.087.441-2.18.907-3.247,1.386Zm72.408-2.546c-1.106-.405-2.233-.794-3.351-1.157l.183-.565c1.125.365,2.259.757,3.372,1.165Zm-65.866-.1-.2-.558c1.108-.4,2.238-.788,3.359-1.149l.182.565c-1.114.358-2.237.742-3.338,1.141Zm59.123-2.085c-1.13-.321-2.281-.625-3.42-.9l.141-.576c1.146.28,2.3.586,3.441.909Zm-52.4-.076-.161-.572c1.136-.319,2.294-.621,3.444-.9l.139.577C227.248,62.06,226.1,62.36,224.967,62.677Zm45.527-1.6c-1.149-.236-2.319-.454-3.477-.648l.1-.585c1.165.195,2.342.414,3.5.652Zm-38.651-.056-.118-.582c1.159-.235,2.336-.451,3.5-.642l.1.586c-1.157.19-2.328.4-3.479.638Zm31.675-1.112c-1.166-.151-2.349-.282-3.515-.39l.055-.591c1.174.109,2.364.241,3.537.393Zm-24.7-.035-.075-.589c1.17-.148,2.36-.277,3.538-.383l.053.591c-1.171.1-2.354.233-3.517.38Zm17.653-.616c-1.17-.065-2.359-.11-3.535-.133l.012-.594c1.183.023,2.379.068,3.556.134Zm-10.608-.015-.031-.593c1.179-.062,2.375-.1,3.557-.123l.01.594C248.228,59.136,247.039,59.177,245.867,59.239Z" transform="translate(-137.364 -58.523)"/><path class="g" d="M788.453,313.245q-.183-.87-.38-1.734l.578-.133q.2.869.383,1.745Z" transform="translate(-580.675 -236.336)"/><path class="g" d="M790.672,443.663l-.583-.115q.171-.87.328-1.745l.584.1Q790.844,442.788,790.672,443.663Z" transform="translate(-582.093 -328.053)"/><path class="g" d="M248.976,533.134q-.968,0-1.931-.019l.012-.594c1.173.023,2.355.024,3.53.005l.01.594Q249.788,533.134,248.976,533.134Zm5.169-.135-.031-.593c1.174-.062,2.358-.146,3.52-.25l.053.591C256.517,532.852,255.326,532.936,254.145,533Zm-10.647-.017c-1.178-.066-2.369-.154-3.54-.262l.054-.591c1.164.108,2.348.2,3.519.261Zm17.718-.614-.074-.589c1.168-.148,2.343-.318,3.492-.507l.1.586c-1.156.189-2.338.36-3.514.509Zm-24.788-.039c-1.173-.152-2.354-.327-3.512-.521l.1-.585c1.15.192,2.325.366,3.49.517Zm31.794-1.108-.117-.582c1.152-.232,2.311-.489,3.445-.762l.139.577c-1.141.275-2.308.533-3.467.767Zm-38.8-.062c-1.158-.238-2.324-.5-3.464-.778l.141-.577c1.134.277,2.292.537,3.443.773Zm45.7-1.6-.16-.571c1.126-.315,2.263-.657,3.38-1.015l.181.565c-1.123.36-2.267.7-3.4,1.021Zm-52.6-.084c-1.135-.322-2.281-.67-3.406-1.035l.183-.565c1.119.362,2.258.708,3.386,1.028Zm59.35-2.079-.2-.558c1.1-.4,2.2-.82,3.288-1.258l.222.55c-1.091.441-2.2.867-3.308,1.266Zm-66.121-.116c-1.109-.406-2.226-.837-3.319-1.284l.224-.549c1.086.443,2.2.873,3.3,1.276Zm72.689-2.537-.242-.542c1.068-.478,2.141-.982,3.188-1.5l.262.533c-1.053.519-2.133,1.026-3.208,1.507Zm-79.276-.151c-1.076-.486-2.157-1-3.213-1.524l.264-.532c1.05.522,2.124,1.032,3.193,1.515Zm85.635-2.98-.282-.522c1.032-.556,2.065-1.137,3.071-1.728l.3.512c-1.012.594-2.052,1.18-3.09,1.739Zm-92-.186c-1.037-.564-2.077-1.155-3.091-1.756l.3-.511c1.008.6,2.041,1.185,3.072,1.745Zm98.118-3.4-.319-.5c.983-.626,1.971-1.282,2.937-1.95l.337.489c-.972.671-1.966,1.331-2.955,1.961Zm-104.233-.22c-.991-.638-1.985-1.3-2.953-1.978l.339-.487c.962.67,1.949,1.331,2.934,1.965Zm110.07-3.81-.355-.476c.936-.7,1.875-1.425,2.788-2.16l.372.463c-.919.739-1.863,1.47-2.8,2.173Zm-115.9-.251c-.94-.707-1.882-1.443-2.8-2.187l.374-.461c.912.74,1.848,1.471,2.782,2.174Zm121.43-4.2-.388-.449c.885-.766,1.767-1.559,2.624-2.358l.4.434c-.861.8-1.749,1.6-2.64,2.373Zm-126.946-.279c-.889-.776-1.774-1.579-2.631-2.385l.407-.432c.852.8,1.732,1.6,2.615,2.37Zm132.14-4.561-.42-.419c.829-.832,1.652-1.688,2.446-2.544l.435.4C319.145,503.006,318.316,503.867,317.482,504.7Zm-137.312-.3c-.827-.836-1.651-1.7-2.45-2.57l.437-.4c.794.863,1.613,1.722,2.435,2.554Zm142.14-4.9-.45-.387c.766-.889,1.524-1.8,2.255-2.717l.464.371C323.843,497.683,323.079,498.6,322.309,499.5Zm-146.943-.323c-.764-.9-1.523-1.817-2.255-2.741l.465-.369c.728.918,1.482,1.834,2.241,2.724Zm151.38-5.225-.477-.354c.7-.945,1.391-1.912,2.051-2.874l.489.336C328.145,492.025,327.451,493,326.746,493.949Zm-155.788-.337c-.7-.949-1.387-1.924-2.048-2.9l.491-.334c.657.967,1.342,1.936,2.035,2.879Zm159.807-5.523-.5-.318c.626-.988,1.244-2,1.835-3.018l.513.3c-.6,1.021-1.217,2.042-1.847,3.037Zm-163.8-.343c-.625-1-1.241-2.018-1.83-3.037l.514-.3c.585,1.013,1.2,2.028,1.819,3.019Zm167.376-5.8-.523-.28c.555-1.038,1.1-2.1,1.609-3.146l.533.26C335.45,479.84,334.905,480.906,334.346,481.95Zm-170.923-.343c-.551-1.04-1.09-2.1-1.6-3.162l.534-.259c.508,1.052,1.044,2.109,1.591,3.143Zm174.043-6.046-.543-.241c.475-1.071.937-2.167,1.373-3.258l.551.22C338.409,473.38,337.944,474.483,337.467,475.561Zm-177.128-.334c-.473-1.078-.932-2.178-1.364-3.27l.552-.219c.429,1.085.885,2.178,1.355,3.25Zm179.769-6.272-.559-.2c.4-1.107.775-2.235,1.129-3.352l.566.179c-.355,1.124-.737,2.259-1.136,3.373Zm-182.375-.315c-.393-1.111-.77-2.244-1.121-3.369l.567-.177c.349,1.118.724,2.244,1.114,3.348Zm184.52-6.472-.572-.158c.311-1.125.605-2.275.875-3.418l.578.137C342.862,459.878,342.566,461.035,342.253,462.167Zm-186.638-.3c-.309-1.135-.6-2.292-.868-3.438l.578-.134c.266,1.139.556,2.289.863,3.417Z" transform="translate(-135.309 -339.646)"/><path class="g" d="M151.441,442.426q-.17-.876-.323-1.757l.585-.1q.153.876.321,1.746Z" transform="translate(-132.756 -327.183)"/><path class="g" d="M634.207,444.539l-.552-.218c.215-.545.425-1.1.622-1.657l.559.2C634.637,443.424,634.425,443.988,634.207,444.539Z" transform="translate(-472.086 -328.658)"/><path class="g" d="M360.126,487.613c-.711,0-1.429-.015-2.133-.043l.024-.593c1.168.047,2.362.055,3.534.023l.016.594Q360.849,487.613,360.126,487.613Zm5.009-.238-.056-.591c1.169-.111,2.348-.265,3.5-.456l.1.585c-1.17.194-2.362.349-3.545.461Zm-10.706-.07c-1.181-.128-2.371-.3-3.538-.508l.1-.584c1.154.206,2.33.376,3.5.5Zm17.755-1.095-.137-.577c1.143-.271,2.289-.585,3.408-.934l.177.567c-1.132.352-2.291.67-3.447.944Zm-24.788-.164c-1.153-.29-2.309-.623-3.436-.99l.184-.565c1.114.363,2.257.693,3.4.979Zm31.61-1.96-.215-.553c1.092-.425,2.185-.894,3.247-1.394l.253.537C381.216,483.181,380.111,483.656,379.006,484.086Zm-38.4-.256c-1.1-.445-2.2-.935-3.266-1.455l.26-.533c1.054.514,2.14,1,3.229,1.438Zm44.869-2.788-.289-.518c1.025-.573,2.043-1.187,3.025-1.827l.324.5C387.537,479.841,386.507,480.463,385.47,481.042Zm-51.293-.343c-1.029-.592-2.05-1.228-3.035-1.889l.331-.493c.974.654,1.984,1.282,3,1.868Zm57.279-3.559-.358-.474c.938-.708,1.863-1.456,2.748-2.224l.389.449C393.34,475.668,392.405,476.424,391.456,477.14Zm-63.214-.423c-.94-.728-1.865-1.5-2.749-2.286l.395-.443c.874.779,1.789,1.539,2.718,2.26Zm68.611-4.258-.419-.421c.832-.828,1.646-1.695,2.419-2.577l.446.391c-.782.892-1.605,1.768-2.447,2.606Zm-73.947-.494c-.83-.848-1.642-1.735-2.412-2.638l.452-.385c.762.893,1.564,1.77,2.385,2.608Zm78.658-4.878-.472-.36c.711-.932,1.4-1.9,2.046-2.882l.5.327C402.981,465.163,402.285,466.143,401.565,467.086Zm-83.3-.556c-.708-.954-1.391-1.944-2.03-2.942l.5-.32c.632.987,1.307,1.966,2.007,2.909Zm87.232-5.409-.517-.292c.577-1.021,1.126-2.076,1.632-3.135l.536.256c-.512,1.071-1.067,2.138-1.651,3.171Zm-91.085-.607c-.571-1.042-1.112-2.116-1.608-3.192l.539-.249c.491,1.064,1.026,2.125,1.59,3.156Z" transform="translate(-246.459 -338.791)"/><path class="g" d="M306.678,442.293c-.21-.553-.414-1.12-.606-1.685l.562-.191c.19.558.392,1.119.6,1.666Z" transform="translate(-241.723 -327.077)"/><path class="g" d="M309.9,315.368l-.551-.221c.222-.553.457-1.108.7-1.65l.543.24C310.352,314.273,310.12,314.821,309.9,315.368Z" transform="translate(-244.028 -237.825)"/><path class="g" d="M317.538,237.059l-.525-.277c.561-1.06,1.166-2.115,1.8-3.134l.5.313C318.691,234.969,318.092,236.011,317.538,237.059Zm90.625-.865c-.574-1.037-1.192-2.067-1.838-3.064l.5-.323c.653,1.008,1.279,2.051,1.859,3.1Zm-86.856-5.2-.481-.348c.7-.973,1.448-1.934,2.216-2.856l.456.38C322.739,229.082,322,230.031,321.307,230.993Zm82.971-.792c-.712-.948-1.467-1.883-2.243-2.781l.449-.388c.786.908,1.549,1.854,2.269,2.813Zm-78.4-4.7-.429-.41c.829-.867,1.7-1.716,2.587-2.523l.4.439C327.558,223.809,326.7,224.648,325.878,225.505Zm73.728-.7c-.836-.841-1.713-1.664-2.605-2.446l.391-.446c.9.79,1.789,1.623,2.635,2.474Zm-68.446-4.1-.368-.465c.942-.745,1.921-1.466,2.91-2.143l.335.49C333.058,219.248,332.09,219.961,331.159,220.7Zm63.074-.6c-.944-.718-1.925-1.412-2.917-2.064l.326-.5c1,.659,2,1.361,2.95,2.088Zm-57.181-3.431-.3-.512c1.035-.607,2.1-1.186,3.178-1.72l.264.532C339.132,215.492,338.075,216.064,337.053,216.664Zm51.211-.49c-1.036-.582-2.1-1.133-3.174-1.64l.254-.536c1.083.513,2.163,1.071,3.211,1.659Zm-44.817-2.689-.227-.549c1.109-.458,2.248-.882,3.386-1.262l.188.563c-1.125.375-2.251.795-3.347,1.247Zm38.362-.367c-1.106-.432-2.24-.83-3.371-1.183l.177-.567c1.144.357,2.292.759,3.41,1.2Zm-31.588-1.89-.148-.575c1.161-.3,2.349-.56,3.529-.777l.107.584c-1.167.215-2.34.473-3.489.769Zm24.771-.236c-1.154-.273-2.333-.509-3.5-.7l.1-.586c1.184.194,2.376.433,3.544.709Zm-17.748-1.056-.067-.59c1.188-.134,2.4-.229,3.6-.281l.026.593c-1.189.052-2.387.146-3.562.278Zm10.7-.1c-1.178-.11-2.378-.181-3.566-.211l.014-.593c1.2.03,2.416.1,3.607.213Z" transform="translate(-249.417 -164.363)"/><path class="g" d="M630.351,312.373c-.23-.542-.472-1.087-.719-1.618l.538-.25c.25.537.5,1.088.728,1.636Z" transform="translate(-469.257 -235.721)"/><path class="h" d="M649.86,384.24a3.367,3.367,0,1,0,2.368.987A3.318,3.318,0,0,0,649.86,384.24Z" transform="translate(-481.104 -287.573)"/><path class="h" d="M604.618,384.24a3.367,3.367,0,1,0,2.368.986A3.367,3.367,0,0,0,604.618,384.24Z" transform="translate(-449.289 -287.573)"/><path class="h" d="M595.167,321.477a16.917,16.917,0,1,0,16.917,16.916A16.917,16.917,0,0,0,595.167,321.477Zm3.287,7.054a1.618,1.618,0,0,1,1.633,1.633,1.644,1.644,0,1,1-1.633-1.633Zm-10,19.724a4.795,4.795,0,1,1,4.792-4.793,4.795,4.795,0,0,1-4.792,4.793Zm7.535-9.554v4.623a.822.822,0,0,1-1.644,0V339.94c0-.673-.822-.822-3.159-2.168a1.53,1.53,0,0,1-.95-1.392,1.672,1.672,0,0,1,.478-1.151l3.683-3.549a1.607,1.607,0,0,1,2.543.339l1.515,3.087h2.466a.822.822,0,0,1,0,1.644h-2.948c-.55,0-.991-1.181-1.952-2.645l-2.512,2.645c.92.719,2.481,1.274,2.481,1.952Zm5.892,9.549a4.793,4.793,0,1,1,4.792-4.792,4.792,4.792,0,0,1-4.792,4.792Z" transform="translate(-433.124 -243.437)"/><path class="h" d="M757.167,321.477a16.917,16.917,0,1,0,16.917,16.916A16.916,16.916,0,0,0,757.167,321.477Zm-4.484,12.093a2.631,2.631,0,1,1-2.692,2.63,2.658,2.658,0,0,1,2.692-2.63Zm14.347,11.4h-1.793v-2.63H749.1v2.63H747.3v-13.15H749.1v7.89h7.171V333.57h7.176a3.546,3.546,0,0,1,3.585,3.508Z" transform="translate(-547.045 -243.437)"/><path class="h" d="M153.912,363.246h-5.034a.206.206,0,0,0-.205.206v7.191a.206.206,0,0,0,.205.205h5.034a.824.824,0,0,0,.822-.822v-5.958A.824.824,0,0,0,153.912,363.246Z" transform="translate(-131.037 -272.81)"/><path class="h" d="M159.832,394.045a1.237,1.237,0,1,0,.972.358A1.234,1.234,0,0,0,159.832,394.045Z" transform="translate(-138.087 -294.465)"/><path class="h" d="M126.619,394.045a1.237,1.237,0,1,0,.972.358A1.234,1.234,0,0,0,126.619,394.045Z" transform="translate(-114.731 -294.465)"/><path class="h" d="M129.26,363.246h-5.024a.835.835,0,0,0-.832.832v5.938a.835.835,0,0,0,.832.832h5.024a.206.206,0,0,0,.205-.205v-7.191A.206.206,0,0,0,129.26,363.246Z" transform="translate(-113.268 -272.81)"/><path class="h" d="M106.167,321.477a16.917,16.917,0,1,0,16.917,16.916A16.916,16.916,0,0,0,106.167,321.477Zm8.219,23.8a2.061,2.061,0,0,1-2.055,2.055H100a2.061,2.061,0,0,1-2.055-2.055V331.1a1.648,1.648,0,0,1,1.644-1.644h13.15a1.649,1.649,0,0,1,1.644,1.644Z" transform="translate(-89.25 -243.437)"/><path class="h" d="M136.194,353.2h-12.02a.721.721,0,1,0,0,1.438h12.02a.721.721,0,1,0,0-1.438Z" transform="translate(-113.267 -265.747)"/><path class="h" d="M315.4,380.035c-.339,0-.616.5-.616,1.13s.277,1.13.616,1.13.616-.5.616-1.13S315.744,380.035,315.4,380.035Z" transform="translate(-247.853 -284.616)"/><path class="h" d="M300.174,380.035c-.339,0-.616.5-.616,1.13s.277,1.13.616,1.13.616-.5.616-1.13S300.513,380.035,300.174,380.035Z" transform="translate(-237.143 -284.616)"/><path class="h" d="M269.167,321.477a16.917,16.917,0,1,0,16.916,16.916A16.916,16.916,0,0,0,269.167,321.477Zm-7.91,16.341.935-4.972c.241-1.351.868-2.414,2.044-2.414H266l.1-.406a1.643,1.643,0,0,1,1.592-1.238h2.928a1.644,1.644,0,0,1,1.592,1.233l.1.411H274.1c1.151,0,1.762,1.043,2.05,2.409v.005l.94,4.977a.2.2,0,0,1-.288.226l-1.3-.6a.2.2,0,0,1-.118-.149l-.832-4.4c-.154-.565-.37-.822-.827-.822h-9.1c-.452,0-.7.272-.827.822l-.832,4.4a.207.207,0,0,1-.118.149l-1.3.6a.206.206,0,0,1-.288-.226Zm18.117,3.2L276.563,348a5.846,5.846,0,0,1-2.912-1.13,12.3,12.3,0,0,1-4.073.955c-.144.005-.283.01-.411.01s-.267,0-.411-.01a12.429,12.429,0,0,1-4.073-.955A5.847,5.847,0,0,1,261.77,348l-2.81-6.981a.956.956,0,0,1-.067-.344.928.928,0,0,1,.539-.842l9.559-4.392a.4.4,0,0,1,.344,0l9.564,4.392a.928.928,0,0,1,.539.842.958.958,0,0,1-.067.344Z" transform="translate(-203.875 -243.437)"/><path class="h" d="M432.167,321.477a16.917,16.917,0,1,0,16.917,16.916A16.916,16.916,0,0,0,432.167,321.477Zm7.793,18.565c-.175,0-.755-.005-.925-.015l-3.334-.087a.1.1,0,0,0-.087.046l-5,7.479a.819.819,0,0,1-.693.38H428.7c-.288,0-.385-.288-.282-.555l2.573-7.34a.1.1,0,0,0-.092-.139l-6.251-.139a.421.421,0,0,0-.339.159l-1.937,2.348a.831.831,0,0,1-.647.313h-.858a.2.2,0,0,1-.2-.272l1.022-3.529a.838.838,0,0,0,0-.611l-1.022-3.529a.2.2,0,0,1,.2-.272h.863a.815.815,0,0,1,.647.313l1.9,2.311a.414.414,0,0,0,.339.159l6.287-.092a.1.1,0,0,0,.092-.139l-2.573-7.335c-.1-.267-.005-.555.283-.555h1.217a.825.825,0,0,1,.693.38l5,7.484a.1.1,0,0,0,.087.046l3.334-.087c.164-.01.75-.015.925-.015,2.281,0,3.714.74,3.714,1.649s-1.438,1.644-3.714,1.644Z" transform="translate(-318.499 -243.437)"/><path class="i" d="M146.483,553.736a3.561,3.561,0,1,1,3.561-3.562A3.561,3.561,0,0,1,146.483,553.736Zm0-6.529a2.968,2.968,0,1,0,2.968,2.968,2.968,2.968,0,0,0-2.968-2.968Z" transform="translate(-126.993 -401.757)"/><path class="i" d="M399.483,284.736a3.561,3.561,0,1,1,3.561-3.561A3.561,3.561,0,0,1,399.483,284.736Zm0-6.529a2.968,2.968,0,1,0,2.968,2.968A2.968,2.968,0,0,0,399.483,278.207Z" transform="translate(-304.907 -212.591)"/><path class="i" d="M621.925,611.362l-4-4.284,4.284-4,4,4.284Zm-3.359-4.262,3.381,3.625,3.625-3.381-3.382-3.625Z" transform="translate(-461.027 -441.466)"/></svg>