<svg xmlns="http://www.w3.org/2000/svg" width="328.861" height="248.186" viewBox="0 0 328.861 248.186"><defs><style>.a{fill:#b9efcf;}.b{fill:#ffda84;}.c{fill:#3f3d56;}.d{fill:#f2f2f2;}.e{fill:#01b148;}.f{fill:#2f2e41;}.g{fill:#ffb8b8;}.h{fill:#e9eeeb;}.i{fill:#9a7520;}</style></defs><path class="a" d="M336.815,173.193c0,38.174-22.38,71.945-56.689,92.5-22,13.183-48.9,20.935-77.949,20.935-38.7,0-68.218-14.625-90.423-37.03-20.467-20.645-34.719-47.9-44.214-76.407C25.148,45.921,95.964,11.2,202.177,59.756,269.8,90.675,336.815,110.545,336.815,173.193Z" transform="translate(-55.066 -38.746)"/><path class="b" d="M411.306,263.5V422.935c-22,13.183-48.9,20.935-77.949,20.935-38.7,0-68.218-14.626-90.423-37.03V263.5Z" transform="translate(-186.245 -195.684)"/><path class="c" d="M295.317,507.463a105.334,105.334,0,0,1,27.2-4.85,85.139,85.139,0,0,1,13.871.542,86.781,86.781,0,0,1,13.463,2.882c4.351,1.26,8.642,2.715,12.979,4.023a121.025,121.025,0,0,0,13.414,3.273,113.7,113.7,0,0,0,13.63,1.625,83.022,83.022,0,0,0,13.613-.168,41.65,41.65,0,0,0,12.248-3.1A37.421,37.421,0,0,0,425.7,505.3q1.108-.989,2.132-2.066c.4-.421-.236-1.062-.64-.64a37.417,37.417,0,0,1-21.583,11.022,71.923,71.923,0,0,1-13.57.544,111.662,111.662,0,0,1-13.794-1.394,115.287,115.287,0,0,1-13.36-3.041c-4.311-1.249-8.564-2.689-12.86-3.988a96.816,96.816,0,0,0-13.24-3.154,83.234,83.234,0,0,0-13.584-.943,103.855,103.855,0,0,0-26.847,3.976q-1.646.462-3.277.975c-.554.174-.318,1.048.241.873Z" transform="translate(-222.435 -361.96)"/><path class="c" d="M295.317,583.463a105.334,105.334,0,0,1,27.2-4.85,85.1,85.1,0,0,1,13.871.543,86.759,86.759,0,0,1,13.463,2.882c4.351,1.26,8.642,2.715,12.979,4.023a120.985,120.985,0,0,0,13.414,3.273,113.776,113.776,0,0,0,13.63,1.625,83.043,83.043,0,0,0,13.613-.168,41.657,41.657,0,0,0,12.248-3.1A37.406,37.406,0,0,0,425.7,581.3q1.108-.989,2.132-2.065c.4-.421-.236-1.062-.64-.64a37.416,37.416,0,0,1-21.583,11.022,71.9,71.9,0,0,1-13.57.544,111.662,111.662,0,0,1-13.794-1.394,115.375,115.375,0,0,1-13.36-3.041c-4.311-1.249-8.564-2.689-12.86-3.987a96.825,96.825,0,0,0-13.24-3.154,83.262,83.262,0,0,0-13.584-.943,103.858,103.858,0,0,0-26.847,3.976q-1.646.462-3.277.976C294.523,582.764,294.759,583.638,295.317,583.463Z" transform="translate(-222.435 -415.027)"/><path class="c" d="M295.317,438.463a105.337,105.337,0,0,1,27.2-4.85,85.142,85.142,0,0,1,13.871.543,86.776,86.776,0,0,1,13.463,2.882c4.351,1.26,8.642,2.715,12.979,4.023a121.059,121.059,0,0,0,13.414,3.273,113.707,113.707,0,0,0,13.63,1.624,83,83,0,0,0,13.613-.168,41.644,41.644,0,0,0,12.248-3.1A37.408,37.408,0,0,0,425.7,436.3q1.108-.989,2.132-2.066c.4-.421-.236-1.062-.64-.64a37.415,37.415,0,0,1-21.583,11.022,71.925,71.925,0,0,1-13.57.544,111.639,111.639,0,0,1-13.794-1.394,115.269,115.269,0,0,1-13.36-3.041c-4.311-1.249-8.564-2.689-12.86-3.988a96.789,96.789,0,0,0-13.24-3.154,83.268,83.268,0,0,0-13.584-.943,103.851,103.851,0,0,0-26.847,3.976q-1.646.462-3.277.975c-.554.174-.318,1.048.241.873Z" transform="translate(-222.435 -313.78)"/><path class="c" d="M291.427,317.821a10.857,10.857,0,0,1,6.972-.238c2.451.607,4.759,1.662,7.172,2.391a24.826,24.826,0,0,0,13.27.252,24.465,24.465,0,0,0,6.95-2.979c.492-.309.038-1.093-.457-.782a23.986,23.986,0,0,1-12.77,3.64,23.435,23.435,0,0,1-6.685-.984c-2.395-.718-4.684-1.761-7.111-2.379a11.912,11.912,0,0,0-7.8.3c-.532.235-.072,1.016.457.782Z" transform="translate(-219.623 -232.504)"/><circle class="c" cx="13.88" cy="13.88" r="13.88" transform="translate(125.184 196.362)"/><circle class="d" cx="7.544" cy="7.544" r="7.544" transform="translate(56.688 24.368)"/><circle class="d" cx="5.13" cy="5.13" r="5.13" transform="translate(125.184 48.206)"/><circle class="d" cx="5.13" cy="5.13" r="5.13" transform="translate(41.902 97.39)"/><rect class="c" width="0.566" height="101.158" transform="translate(25.813 64.411)"/><ellipse class="e" cx="11.031" cy="25.173" rx="11.031" ry="25.173" transform="translate(15.175 106.555)"/><ellipse class="e" cx="11.031" cy="25.173" rx="11.031" ry="25.173" transform="translate(15.175 49.138)"/><path class="c" d="M100.3,157.112l-.542-.162c.034-.114,3.36-11.511-2.1-18.847-3.084-4.143-8.377-6.244-15.73-6.244v-.566c7.543,0,12.989,2.178,16.185,6.475C103.737,145.334,100.33,157,100.3,157.112Z" transform="translate(-73.819 -103.368)"/><circle class="e" cx="7.071" cy="7.071" r="7.071" transform="translate(1.033 21.137)"/><path class="f" d="M813.564,655.329,808.274,704h36.5l1.587-3.7,2.116,3.7h34.387s-2.645-50.258-7.406-51.845S813.564,655.329,813.564,655.329Z" transform="translate(-580.998 -466.836)"/><circle class="g" cx="18.516" cy="18.516" r="18.516" transform="translate(245.263 44.596)"/><path class="g" d="M894.027,276.681s1.587,16.929,0,17.987,25.393.529,25.393.529-3.7-15.342,0-22.748Z" transform="translate(-640.829 -201.931)"/><path class="h" d="M840.963,328.921s13.612,2.12,14.742-2.114l6.949,9.52.529,95.226s-56.607,6.878-58.722-4.232,21.69-98.929,21.69-98.929l5.993-.388S839.9,328.921,840.963,328.921Z" transform="translate(-578.242 -239.886)"/><path class="i" d="M783.472,316.375l-9.077,3.146-25.922,6.348,1.058,63.484s-22.219,63.484-12.167,68.245,24.336-6.348,28.568-14.284,19.045-117.974,19.045-120.09S783.472,316.375,783.472,316.375Z" transform="translate(-529.661 -232.602)"/><path class="i" d="M970.045,316.375l3.586,3.146,25.393,11.639-12.7,64.013s16.929,58.194,10.58,61.368-15.871,12.168-17.987,6.878S964.343,322.223,970.045,316.375Z" transform="translate(-692.922 -232.602)"/><path class="g" d="M965.839,585.7s-23.806-10.051-24.336-1.058,26.981,15.342,26.981,12.7S965.839,585.7,965.839,585.7Z" transform="translate(-674.021 -417.307)"/><path class="g" d="M812.174,584.528s27.51,20.632,16.929,25.923-24.336-18.516-24.336-18.516Z" transform="translate(-578.55 -419.842)"/><path class="f" d="M887.127,156.388a1.021,1.021,0,0,1,.983-.583c-8.477-.507-17.406.481-24.5,5.152-1.986,1.308-3.841,2.908-6.1,3.645l1.836,1.439-2.193.668,3.227,2.086a2.8,2.8,0,0,1-2.664.892,4.849,4.849,0,0,1,2.96,3.022,14.341,14.341,0,0,1,.707,4.308c.542-2.1,2.839-3.343,5.008-3.469s4.285.59,6.4,1.1a35.386,35.386,0,0,0,14.045.54c-1.586,3.183-.248,6.98,1.1,10.271l2.688,6.572c1.493.15,2.547-1.334,3.672-2.327,1.025-.9-3.055,7.054-2.423,6.762.821-.379,9.481-9.941,9.887-10.748a24.585,24.585,0,0,0,2.793-11.917,17.377,17.377,0,0,0-4.515-11.233c-1.928-2.03-4.6-2.385-6.562-4.072-.774-.664-.777-1.183-1.84-1.57A31.023,31.023,0,0,0,887.127,156.388Z" transform="translate(-615.128 -120.399)"/><path class="i" d="M711.978,349.426l-3.7-1.587L678.649,396.51s-5.29,12.7,4.232,18.516S714.623,438.3,714.623,438.3l12.7-19.574S701.4,406.562,702.984,401.8s10.052-17.458,10.052-17.458Z" transform="translate(-489.463 -254.572)"/><path class="i" d="M1019.786,361.865l6.877,1.058s28.567,56.078,21.69,66.658-34.917,25.393-34.917,25.393-.529-17.458-5.29-23.806l16.4-6.348-8.994-34.916Z" transform="translate(-720.562 -264.366)"/></svg>