<svg xmlns="http://www.w3.org/2000/svg" width="62.818" height="51.393" viewBox="0 0 62.818 51.393"><defs><style>.a{fill:#01b148;stroke:#fff;stroke-width:0.5px;}</style></defs><g transform="translate(0.25 -5.25)"><path class="a" d="M57.333,15.886H48.48L44.326,5.5H17.992L13.838,15.886H12.464V10.693H6.232v5.193H4.984A4.989,4.989,0,0,0,0,20.871v30.5a5.025,5.025,0,0,0,5.02,5.02H57.3a5.025,5.025,0,0,0,5.02-5.02v-30.5A4.989,4.989,0,0,0,57.333,15.886ZM8.309,12.77h2.077v3.116H8.309Zm51.931,38.6A2.945,2.945,0,0,1,57.3,54.316H5.02a2.946,2.946,0,0,1-2.942-2.942v-30.5a2.911,2.911,0,0,1,2.907-2.907h10.26L19.4,7.577H42.919l4.155,10.386h10.26a2.911,2.911,0,0,1,2.907,2.907v30.5Z"/><path class="a" d="M30.7,14.5a18.7,18.7,0,1,0,18.7,18.7A18.717,18.717,0,0,0,30.7,14.5Zm0,35.313A16.618,16.618,0,1,1,47.313,33.2,16.637,16.637,0,0,1,30.7,49.813Z" transform="translate(0.464 0.348)"/><path class="a" d="M30.464,20.5A12.464,12.464,0,1,0,42.927,32.964,12.477,12.477,0,0,0,30.464,20.5Zm0,22.85A10.386,10.386,0,1,1,40.85,32.964,10.4,10.4,0,0,1,30.464,43.35Z" transform="translate(0.695 0.579)"/><path class="a" d="M52.155,19.5a4.155,4.155,0,1,0,4.155,4.155A4.159,4.159,0,0,0,52.155,19.5Zm0,6.232a2.077,2.077,0,1,1,2.077-2.077A2.079,2.079,0,0,1,52.155,25.732Z" transform="translate(1.854 0.541)"/></g></svg>