<svg xmlns="http://www.w3.org/2000/svg" width="103.157" height="42.197" viewBox="0 0 103.157 42.197"><defs><style>.a{fill:#01b148;stroke:#fff;stroke-width:1.5px;}</style></defs><g transform="translate(0.75 0.258)"><path class="a" d="M240,86.891h6.777V90.28H240Zm0,0" transform="translate(-197.643 -71.15)"/><path class="a" d="M100.2,10.674,88.694,9.031a58.084,58.084,0,0,0-6.522-3.456A57.056,57.056,0,0,0,58.568.492h-2A57.591,57.591,0,0,0,29.069,7.5L23.26,10.673A40.033,40.033,0,0,0,3.887,15.925,7.735,7.735,0,0,0,0,22.623v10.06a1.694,1.694,0,0,0,1.695,1.694H7.383a10.128,10.128,0,0,0,19.116,0H71.766a10.128,10.128,0,0,0,19.116,0h.608a1.7,1.7,0,0,0,.63-.121l5.488-2.2a6.407,6.407,0,0,0,4.048-5.979V12.352A1.7,1.7,0,0,0,100.2,10.674Zm-76.62,21.67a6.778,6.778,0,1,1,.137-1.355A6.777,6.777,0,0,1,23.582,32.345Zm30.634-1.355H27.108a10.166,10.166,0,1,0-20.331,0H3.388V22.623a4.334,4.334,0,0,1,2.181-3.756,36.632,36.632,0,0,1,18.151-4.82h30.5Zm0-20.331H30.365l.327-.179A54.174,54.174,0,0,1,54.217,3.955ZM57.605,3.88h.959A53.623,53.623,0,0,1,78.5,7.7l-2.958,2.958H57.605Zm30.36,28.464a6.778,6.778,0,1,1,.137-1.355A6.777,6.777,0,0,1,87.965,32.345Zm10.3-16.6H93.185v3.389h5.083v6.946a3.032,3.032,0,0,1-1.918,2.831l-4.86,1.952c0-.156-.02-.31-.03-.466s-.014-.339-.03-.508-.051-.339-.078-.508-.047-.339-.081-.493-.083-.325-.127-.487-.078-.323-.129-.481-.112-.308-.169-.463-.11-.313-.17-.466-.139-.291-.21-.435-.141-.3-.22-.447-.17-.269-.246-.4-.169-.29-.265-.429-.187-.249-.28-.374-.2-.273-.307-.4-.209-.232-.315-.339-.222-.25-.339-.369-.232-.212-.349-.317-.243-.229-.372-.339-.259-.194-.387-.291-.258-.2-.393-.29-.288-.169-.434-.264-.265-.17-.4-.242-.308-.15-.464-.224-.278-.141-.422-.2-.339-.125-.508-.186-.28-.109-.424-.154c-.193-.059-.391-.1-.588-.151-.129-.03-.252-.071-.383-.1-.208-.043-.422-.066-.634-.1-.125-.017-.245-.044-.371-.056a10.3,10.3,0,0,0-1.034-.052A10.176,10.176,0,0,0,71.165,30.987H57.606V14.046H76.242a1.692,1.692,0,0,0,1.2-.5l4.394-4.394A54.33,54.33,0,0,1,87.2,12.094a1.7,1.7,0,0,0,.657.241L98.268,13.82Zm0,0"/></g></svg>