<svg xmlns="http://www.w3.org/2000/svg" width="81.59" height="54.76" viewBox="0 0 81.59 54.76"><defs><style>.a{fill:#01b148;stroke:#fff;stroke-width:3px;}</style></defs><g transform="translate(1.546 -85.694)"><g transform="translate(0 87.194)"><path class="a" d="M77.51,134.611,41.651,108.424v-5.367a2.4,2.4,0,0,0-2.4-2.4,4.328,4.328,0,1,1,4.3-4.328,2.4,2.4,0,1,0,4.806,0,9.1,9.1,0,1,0-11.505,8.81v3.286L.986,134.611A2.4,2.4,0,0,0,2.4,138.954h73.69A2.4,2.4,0,0,0,77.51,134.611ZM38.3,124.586H40.2v3.607H38.3ZM9.768,134.148l27.077-19.773v5.405H35.9a2.4,2.4,0,0,0-2.4,2.4V130.6a2.4,2.4,0,0,0,2.4,2.4h6.7a2.4,2.4,0,0,0,2.4-2.4v-8.413a2.4,2.4,0,0,0-2.4-2.4h-.947v-5.405l27.077,19.773Z" transform="translate(0 -87.194)"/></g></g></svg>