<svg xmlns="http://www.w3.org/2000/svg" width="51.767" height="61.975" viewBox="0 0 51.767 61.975"><defs><style>.a{fill:#01b148;}</style></defs><g transform="translate(-7.9 -2.025)"><path class="a" d="M30,56h4.133v2.067H30Z" transform="translate(0.737 1.8)"/><path class="a" d="M30,52h4.133v2.067H30Z" transform="translate(0.737 1.666)"/><path class="a" d="M59.154,46.95l-4.96-11.883H51.817l-.723,1.55-9.4-5.89,1.963-1.447a14.211,14.211,0,0,0,5.993-10.85l.207-2.583a10.253,10.253,0,0,0-6.2-10.127l-5.89-2.687a12.713,12.713,0,0,0-9.92,0L21.85,5.616a10.4,10.4,0,0,0-6.2,10.127l.207,2.583a14.7,14.7,0,0,0,5.993,10.85l1.963,1.447-10.54,6.613A11.362,11.362,0,0,0,7.9,46.846V64H57.5V54.7a7.028,7.028,0,0,0,1.653-7.75ZM44.584,34.963,38.8,39.3a.966.966,0,0,1-1.343-.1L34.56,36.306l1.653-.827a15.808,15.808,0,0,0,4.237-3.2Zm-8.163,6.1L32.8,48.293,29.187,41.06c.1-.1.31-.207.413-.31l3.2-3.2,3.2,3.2A1.426,1.426,0,0,0,36.42,41.06ZM21.437,17.809v4.857a14.32,14.32,0,0,0,.62,4.133,12.558,12.558,0,0,1-4.133-8.473l-.207-2.583a8.375,8.375,0,0,1,4.96-8.163L28.67,5a10.446,10.446,0,0,1,8.267,0L42.93,7.579a8.375,8.375,0,0,1,4.96,8.163l-.207,2.583A12.337,12.337,0,0,1,43.55,26.8a13.809,13.809,0,0,0,.62-4.133V18.533a3.045,3.045,0,0,0-3.1-3.1h-3.1A2.073,2.073,0,0,1,35.9,13.366V9.749L23.3,15.019a2.932,2.932,0,0,0-1.86,2.79ZM23.5,22.666V17.913a.9.9,0,0,1,.62-.93l9.713-4.03v.413A4.146,4.146,0,0,0,37.97,17.5h3.1A.976.976,0,0,1,42.1,18.533v4.133a12.455,12.455,0,0,1-6.82,11.057L33.32,34.756a1.434,1.434,0,0,1-.93,0l-1.963-1.033A12.363,12.363,0,0,1,23.5,22.666Zm1.653,9.713a14.342,14.342,0,0,0,4.237,3.2l1.653.827L28.154,39.3a1.094,1.094,0,0,1-1.343.1l-5.787-4.34ZM26.6,61.933H20.4v-12.4H18.337v12.4H10.07V46.95A9.235,9.235,0,0,1,14.41,39.1L19.06,36.2l6.407,4.857a4.077,4.077,0,0,0,1.55.62l3.927,7.957H26.6Zm10.333,0H28.67V51.6h8.267Zm18.6,0H39v-12.4H34.457l3.927-7.957a2.1,2.1,0,0,0,1.55-.62L46.34,36.1l3.823,2.377L41.07,59.35l1.86.827,4.547-10.54,2.273.723a2.189,2.189,0,0,1,1.343,2.79A2.108,2.108,0,0,1,49.027,54.6H48.3v2.067h4.34a6.934,6.934,0,0,0,2.893-.62ZM52.85,54.7l.31-.62A4.234,4.234,0,0,0,50.784,48.6c-.1,0-.1-.1-.207-.1l-2.067-.723,4.443-10.333,4.237,10.23a4.94,4.94,0,0,1-2.687,6.51A3.123,3.123,0,0,1,52.85,54.7Z" transform="translate(0)"/></g></svg>