<svg xmlns="http://www.w3.org/2000/svg" width="55.226" height="53.362" viewBox="0 0 55.226 53.362"><defs><style>.a{fill:#01b148;stroke:#fff;stroke-width:0.5px;}</style></defs><g transform="translate(-15.716 -15.75)"><path class="a" d="M67.935,61.686q0-.058,0-.115a3.65,3.65,0,0,0-3.646-3.646V41.064L67.572,38.6a.911.911,0,0,0-.009-1.465l-7.829-5.721V21.469a.911.911,0,0,0,.911-.911V16.911A.911.911,0,0,0,59.734,16H50.62a.911.911,0,0,0-.911.911v3.646a.911.911,0,0,0,.911.911v3.288l-6.754-4.935a.911.911,0,0,0-1.075,0l-23.7,17.317a.911.911,0,0,0-.009,1.465l3.281,2.461V57.925a3.65,3.65,0,0,0-3.646,3.646q0,.057,0,.115a3.646,3.646,0,0,0,.909,7.177H67.025a3.646,3.646,0,0,0,.909-7.177Zm-16.4-43.863h7.291v1.823H51.531Zm.911,8.2V21.469h5.469v8.616l-5.555-4.059Zm-9.114-4.34,22.165,16.2-2.122,1.592L43.865,25.289a.911.911,0,0,0-1.072,0L23.286,39.475l-2.122-1.592ZM17.809,65.217a1.825,1.825,0,0,1,1.8-1.823h0c.047.006.093.012.141.015a.911.911,0,0,0,.914-1.221,1.792,1.792,0,0,1-.118-.617,1.825,1.825,0,0,1,1.823-1.823v7.291H19.632A1.825,1.825,0,0,1,17.809,65.217ZM57,67.039H46.063V46.988H57Zm1.823,0V46.077a.911.911,0,0,0-.911-.911H45.151a.911.911,0,0,0-.911.911V67.039H24.189V41.072l19.14-13.92,19.14,13.92V67.039Zm8.2,0H64.291V59.748a1.825,1.825,0,0,1,1.823,1.823,1.792,1.792,0,0,1-.118.618.911.911,0,0,0,.914,1.221c.048,0,.094-.009.141-.015h0a1.823,1.823,0,1,1-.027,3.646Z" transform="translate(0 0)"/><path class="a" d="M131.848,272H120.911a.911.911,0,0,0-.911.911v12.76a.911.911,0,0,0,.911.911h10.937a.911.911,0,0,0,.911-.911v-12.76A.911.911,0,0,0,131.848,272Zm-.911,6.38h-3.646v-4.557h3.646Zm-5.469-4.557v4.557h-3.646v-4.557Zm-3.646,6.38h3.646v4.557h-3.646Zm5.469,4.557V280.2h3.646v4.557Z" transform="translate(-92.166 -226.835)"/><circle class="a" cx="0.911" cy="0.911" r="0.911" transform="translate(47.606 56.596) rotate(-67.5)"/></g></svg>