<svg xmlns="http://www.w3.org/2000/svg" width="84.062" height="53.114" viewBox="0 0 84.062 53.114"><defs><style>.a{fill:#01b148;stroke:#fff;}</style></defs><g transform="translate(0.5 -94.903)"><path class="a" d="M81.223,127.358a1.217,1.217,0,1,0-2.1,1.233,10.954,10.954,0,1,1-19.467,1.1l3.233,3.075a6.925,6.925,0,1,0,5.082-5.343L64.74,124.35a10.944,10.944,0,0,1,12.036,1.443,1.217,1.217,0,0,0,1.579-1.851,13.379,13.379,0,0,0-15.467-1.353l-1.5-1.424a15.144,15.144,0,0,1,7.51-1.983,15.422,15.422,0,0,1,2.42.192,1.216,1.216,0,0,0,.988-.282l3.84-3.325a4.895,4.895,0,0,0,1.363-1.928c1.026-2.636,1.076-7.612-.88-9.845C71.268,97.867,63.308,94.851,54.22,95.5a3.02,3.02,0,0,0-2.369,4.558l.535.9H49.847a1.217,1.217,0,1,0,0,2.433h3.922a8.766,8.766,0,0,1,.783,3.951,13.471,13.471,0,0,0-19.924,2.314H25.874a3.044,3.044,0,0,1-1.9-.669l-8.9-7.153a1.217,1.217,0,0,0-.762-.268H7.03A3.663,3.663,0,0,0,4.894,108.2l2.619,1.881a1.217,1.217,0,1,0,1.42-1.977l-2.619-1.881A1.229,1.229,0,0,1,7.03,104h6.851l8.569,6.885a5.486,5.486,0,0,0,3.424,1.205h9.209l7.879,3.012,4.337,1.658a13.062,13.062,0,0,1-7.9,2.68H36.726a7.513,7.513,0,0,0-6.58,3.906L28.135,121.9h0l-15.9-11.422a1.217,1.217,0,1,0-1.42,1.976L25.23,122.81l-2.623,1.613a13.408,13.408,0,1,0,3.741,6.355l2.88-1.772v9.122a6.314,6.314,0,0,0,6.307,6.307H41.4v.649H33.459a1.217,1.217,0,0,0,0,2.433h9.155a1.217,1.217,0,0,0,1.217-1.217v-1.866H54.995a1.217,1.217,0,0,0,1.028-1.868,15.228,15.228,0,0,1,.02-16.313l1.765,1.679a13.388,13.388,0,1,0,23.415-.574Zm-7.063,6.771a4.486,4.486,0,0,1-8.878.911l1.852,1.761a3.687,3.687,0,1,0,5.081-5.343L70.363,129.7A4.492,4.492,0,0,1,74.159,134.129Zm1.046-27.9a10.243,10.243,0,0,1-.018,6.863,3.48,3.48,0,0,1,.018-6.863Zm-29.579.17a10.957,10.957,0,0,1,8.341,3.81,10.252,10.252,0,0,1-4.3,4.855l-10.15-3.879-2.315-.885a10.98,10.98,0,0,1,8.42-3.9ZM29.318,125.746c-.019.117-.037.246-.052.38L18.451,132.78l-.012.007L14.8,135.028a1.254,1.254,0,1,1-1.285-2.153l3.817-2.348.01-.006,5.694-3.5.006,0,4.333-2.665ZM10.993,135.858a3.694,3.694,0,0,0,5.071,1.248l1.215-.747a4.488,4.488,0,1,1-3.237-6.666l-1.795,1.1a3.687,3.687,0,0,0-1.254,5.061Zm13.35-1.729a10.967,10.967,0,1,1-3.9-8.374l-3.741,2.3a6.919,6.919,0,1,0,3.6,6.445l3.859-2.374A10.915,10.915,0,0,1,24.343,134.129ZM52.936,142h-17.4a3.878,3.878,0,0,1-3.873-3.873V126.936a5.076,5.076,0,0,1,4.238-5c2.17-.362,7.036.938,12.46-2.948,3.836-2.749,7.317-4.5,8.4-9.659a11.206,11.206,0,0,0-.37-5.942h1.441a1.217,1.217,0,0,0,0-2.433H55.218l-1.275-2.143a.586.586,0,0,1,.451-.887c7.583-.542,14.28,1.68,19.079,6.282a5.912,5.912,0,0,0-.183,10.814l-2.155,1.866A17.678,17.678,0,0,0,51.23,134.42,17.64,17.64,0,0,0,52.936,142Zm6.4-19.433,2.565,2.439,0,0,8.634,8.211a1.254,1.254,0,0,1-1.728,1.817l-8.632-8.209-.008-.007-2.65-2.52A15.4,15.4,0,0,1,59.336,122.568Z"/><path class="a" d="M231.67,340.71h-3.495a1.217,1.217,0,0,0,0,2.433h3.495a1.217,1.217,0,0,0,0-2.433Z" transform="translate(-190.139 -205.502)"/></g></svg>