<svg xmlns="http://www.w3.org/2000/svg" width="54" height="62" viewBox="0 0 54 62"><defs><style>.a{fill:#01b148;}</style></defs><g transform="translate(-5 -1)"><circle class="a" cx="1" cy="1" r="1" transform="translate(25 23)"/><circle class="a" cx="1" cy="1" r="1" transform="translate(37 23)"/><path class="a" d="M32,34a2,2,0,0,1-2-2H28a4,4,0,0,0,8,0H34A2,2,0,0,1,32,34Z"/><path class="a" d="M42.652,15.25l1.936-.5A13,13,0,0,0,32,5V7A11,11,0,0,1,42.652,15.25Z"/><path class="a" d="M43,18v1h2V18c0-.364-.015-.726-.044-1.083l-1.994.166C42.987,17.386,43,17.69,43,18Z"/><path class="a" d="M50.778,48.09a23.546,23.546,0,0,0,2.929-2.383l.79-.79-.872-.7A12.263,12.263,0,0,1,49,34.6V18a17,17,0,0,0-34,0V34.6a12.262,12.262,0,0,1-4.625,9.622l-.872.7.79.79a23.578,23.578,0,0,0,2.928,2.383A15.824,15.824,0,0,0,5,62v1H59V62a15.821,15.821,0,0,0-8.222-13.91ZM17,34.6V18a15,15,0,0,1,30,0V34.6a14.245,14.245,0,0,0,4.495,10.42,22.824,22.824,0,0,1-2.852,2.075l-9.778-4A2.987,2.987,0,0,1,37,40.314V39.6A18.514,18.514,0,0,0,45,24.35V21H44a27.888,27.888,0,0,1-14.346-3.974l-3.534-2.12-.437.146A9.769,9.769,0,0,0,19,24.351,18.516,18.516,0,0,0,27,39.6v.718a2.987,2.987,0,0,1-1.864,2.776l-9.778,4A22.846,22.846,0,0,1,12.5,45.017,14.247,14.247,0,0,0,17,34.6Zm4,12.348V55H19V47.763Zm11-7A16.536,16.536,0,0,1,21,24.324,7.765,7.765,0,0,1,25.9,17.1l2.73,1.639A29.9,29.9,0,0,0,43,22.983V24.35A16.526,16.526,0,0,1,32,39.942Zm-.316,2.006.316.106.316-.1A18.69,18.69,0,0,0,35.035,40.8a4.972,4.972,0,0,0,.678,2.076L32,46.586l-3.714-3.714a4.972,4.972,0,0,0,.678-2.076,18.592,18.592,0,0,0,2.72,1.152ZM23,55V46.766l.974,1.7a5.022,5.022,0,0,0,7.911,1.059L32,49.414l.115.115a5.022,5.022,0,0,0,7.911-1.059l.974-1.7V55Zm15.29-7.522a3.023,3.023,0,0,1-4.761.637L33.414,48l3.651-3.651a5.025,5.025,0,0,0,1.041.594l1.323.541ZM26.935,44.349,30.586,48l-.115.115a3.023,3.023,0,0,1-4.761-.637l-1.139-1.994,1.323-.541a5.025,5.025,0,0,0,1.041-.594ZM17.441,57H46.558a1,1,0,0,1,.949.684L48.613,61H15.387l1.1-3.316A1,1,0,0,1,17.441,57ZM45,55H43V46.945l2,.818ZM15.635,49.14,17,48.581v6.454a2.994,2.994,0,0,0-2.4,2.016L13.28,61H7.035A13.839,13.839,0,0,1,15.635,49.14ZM50.72,61,49.4,57.051A3,3,0,0,0,47,55.035V48.581l1.365.559A13.84,13.84,0,0,1,56.965,61Z"/></g></svg>