<svg xmlns="http://www.w3.org/2000/svg" width="40.081" height="40.081" viewBox="0 0 40.081 40.081"><defs><style>.a{fill:#909090;}</style></defs><g transform="translate(-1 -1)"><path class="a" d="M40.773,23.722l-3.571-2.2V19.748a1.934,1.934,0,0,0-3.788-.554l-2.676-1.647V15.869a1.934,1.934,0,0,0-3.762-.637l-2.469-1.519.413-6.894V6.172a6.505,6.505,0,0,0-1.293-3.879,3.232,3.232,0,0,0-5.172,0,6.505,6.505,0,0,0-1.293,3.879v.685l.411,6.855-2.468,1.519a1.934,1.934,0,0,0-3.762.637v1.678L8.667,19.194a1.934,1.934,0,0,0-3.788.554v1.777l-3.571,2.2A.648.648,0,0,0,1,24.273v1.939a.645.645,0,0,0,.646.646.656.656,0,0,0,.145-.016l16.344-3.771.583,9.72-5.893,5.893a.645.645,0,0,0-.189.457v1.293a.648.648,0,0,0,.887.6l5.752-2.3a2,2,0,0,0,3.53,0l5.752,2.3a.639.639,0,0,0,.24.047.646.646,0,0,0,.646-.646V39.142a.645.645,0,0,0-.189-.457l-5.893-5.893.583-9.72L40.29,26.843a.646.646,0,0,0,.791-.63V24.273A.648.648,0,0,0,40.773,23.722Zm-6.157-3.974a.646.646,0,0,1,1.293,0v.981l-1.293-.8Zm-6.465-3.879a.646.646,0,0,1,1.293,0v.882l-1.293-.8Zm-15.515,0a.646.646,0,1,1,1.293,0v.087l-1.293.8ZM6.172,19.748a.646.646,0,0,1,1.293,0v.186l-1.293.8ZM2.293,25.4v-.766l15.369-9.458.395,6.586Zm11.636,14.01,4.893-4.893L19,37.452,13.929,39.48Zm7.836-1.6a.727.727,0,0,1-1.451,0L18.455,6.818V6.172a5.2,5.2,0,0,1,1.034-3.1,1.939,1.939,0,0,1,3.1,0,5.2,5.2,0,0,1,1.034,3.1v.608Zm6.386,1.6v.07l-5.07-2.028.176-2.936ZM39.788,25.4,24.023,21.761l.395-6.586,15.37,9.458Z"/></g></svg>