<svg xmlns="http://www.w3.org/2000/svg" width="44.016" height="34" viewBox="0 0 44.016 34"><defs><style>.a{fill:#e95353;}.b{fill:#168de2;}.c{fill:#fff;}.d{fill:#ffe21f;}.e{fill:#454545;}.f{fill:#ed6262;}.g{fill:#ffbd49;}.h{fill:#ffdb6f;}.i{fill:#6f6f6f;}.j{fill:#777;}.k{fill:#3aa2eb;}</style></defs><g transform="translate(0 -56.49)"><path class="a" d="M49.564,75.386a6.447,6.447,0,0,0-1.348-3.6,11.083,11.083,0,0,1-2.15-4.2,51.379,51.379,0,0,0-3.592-7.733,6.2,6.2,0,0,0-4.545-2.994,129.175,129.175,0,0,0-19.522,0,6.21,6.21,0,0,0-4.543,2.994,51.524,51.524,0,0,0-3.592,7.733,11.083,11.083,0,0,1-2.15,4.2,6.445,6.445,0,0,0-1.347,3.6c-.136,2.835.685,3.458,1.42,9.874a1,1,0,0,0,.993.884H47.153a1,1,0,0,0,.993-.884c.206-1.8.818-5.449.818-5.449A13.362,13.362,0,0,0,49.564,75.386Z" transform="translate(-6.163 0)"/><path class="b" d="M89.464,74.531a55.333,55.333,0,0,0-3.381-7.164,5.594,5.594,0,0,0-4.041-2.717,123.929,123.929,0,0,0-19.347,0,5.594,5.594,0,0,0-4.041,2.717,56.3,56.3,0,0,0-3.395,7.164A218.106,218.106,0,0,0,89.464,74.531Z" transform="translate(-50.36 -7.093)"/><path class="c" d="M374.02,215.185a6.285,6.285,0,0,0-1.177.517,14.471,14.471,0,0,1-1.909.915c-1.095.415-1.281,1.036-1.281,1.036-.033.043-.065.085-.095.129a1.75,1.75,0,0,0,1.733,2.667,21.144,21.144,0,0,0,4.777-1.276,1.712,1.712,0,0,0,1.04-1.166c.012-.051.023-.1.033-.151A2.4,2.4,0,0,0,374.02,215.185Z" transform="translate(-336.532 -144.522)"/><path class="d" d="M420.037,327.857h-2.37a.4.4,0,0,0-.283.684l2.37,2.37a.4.4,0,0,0,.684-.283v-2.37A.4.4,0,0,0,420.037,327.857Z" transform="translate(-380.272 -247.309)"/><path class="e" d="M416.451,332.126a1,1,0,0,1-.994.887H410.9v2.647a1.7,1.7,0,0,0,1.7,1.7h2.864a1.7,1.7,0,0,0,1.7-1.7v-8.285C416.967,328.522,416.6,330.815,416.451,332.126Z" transform="translate(-374.468 -246.87)"/><path class="f" d="M450.605,148.45a1.367,1.367,0,0,0-1.348-1.034h-1.144a1.327,1.327,0,0,0-1.327,1.327v.816h-.607l.348.827h1.334a4.807,4.807,0,0,0,2-.436A1.327,1.327,0,0,0,450.605,148.45Z" transform="translate(-406.622 -82.865)"/><circle class="g" cx="1.669" cy="1.669" r="1.669" transform="translate(36.57 71.131)"/><circle class="h" cx="1.226" cy="1.226" r="1.226" transform="translate(33.657 72.891)"/><path class="i" d="M158.237,255.324l-1.916,3.337H140.755l-1.916-3.337Z" transform="translate(-126.53 -181.206)"/><path class="c" d="M45.57,217.777c-.029-.044-.061-.087-.095-.129,0,0-.186-.62-1.281-1.036a14.555,14.555,0,0,1-1.909-.915,6.322,6.322,0,0,0-1.177-.517,2.406,2.406,0,0,0-3.122,2.67c.01.051.021.1.032.151a1.712,1.712,0,0,0,1.04,1.166,21.139,21.139,0,0,0,4.779,1.276A1.751,1.751,0,0,0,45.57,217.777Z" transform="translate(-34.582 -144.518)"/><path class="d" d="M46.206,327.857h-2.37a.4.4,0,0,0-.4.4v2.37a.4.4,0,0,0,.684.283l2.37-2.37A.4.4,0,0,0,46.206,327.857Z" transform="translate(-39.585 -247.309)"/><path class="j" d="M57.946,331.988c-2.468-4.27-5.305-4.136-5.305-4.136H31.69s-2.836-.133-5.305,4.136H22.119l.052.55a1,1,0,0,0,1,.909H61.163a1,1,0,0,0,1-.909l.052-.55Z" transform="translate(-20.158 -247.304)"/><path class="e" d="M16.681,333.03a1,1,0,0,1-.994-.887c-.15-1.311-.517-3.605-.7-4.751v8.285a1.7,1.7,0,0,0,1.7,1.7h2.864a1.7,1.7,0,0,0,1.7-1.7V333.03h-4.56Z" transform="translate(-13.654 -246.885)"/><path class="f" d="M3.851,149.559v-.816a1.327,1.327,0,0,0-1.326-1.327H1.38A1.367,1.367,0,0,0,.032,148.45a1.326,1.326,0,0,0,.743,1.5,4.81,4.81,0,0,0,2,.436H4.111l.348-.827H3.851Z" transform="translate(0 -82.865)"/><circle class="g" cx="1.669" cy="1.669" r="1.669" transform="translate(4.106 71.131)"/><circle class="h" cx="1.226" cy="1.226" r="1.226" transform="translate(7.908 72.891)"/><g transform="translate(12.635 81.716)"><path class="i" d="M160.76,341.029H143.018a.5.5,0,0,0,0,1h17.74a.5.5,0,0,0,0-1Z" transform="translate(-142.516 -341.029)"/><path class="i" d="M160.76,363.635H143.018a.5.5,0,1,0,0,1h17.74a.5.5,0,0,0,0-1Z" transform="translate(-142.516 -361.631)"/></g><path class="k" d="M87.592,87.726V87.9a1.215,1.215,0,0,1-1.274,1.217,1.271,1.271,0,0,1-1.149-1.287V85.36A1.018,1.018,0,0,0,84.1,84.35h-.041A1.02,1.02,0,0,0,83,85.36v2.232a1.215,1.215,0,0,1-1.287,1.2,1.258,1.258,0,0,1-1.149-1.274V85.581a1.078,1.078,0,0,0-1.08-1.066H79.4a1.016,1.016,0,0,0-1.011,1.011V88.05A1.228,1.228,0,0,1,77.1,89.268a1.259,1.259,0,0,1-1.135-1.287V84.6a.965.965,0,0,0-1.025-.955h-.083a1.018,1.018,0,0,0-1.023,1.011v3.459a1.211,1.211,0,0,1-2.421.041v-2.9a1.272,1.272,0,0,0-1.149-1.287,1.216,1.216,0,0,0-1.274,1.217l-.014,2.682A1.215,1.215,0,0,1,67.7,89.079a1.26,1.26,0,0,1-1.142-1.237V84.7a1.26,1.26,0,0,0-1.144-1.276,1.218,1.218,0,0,0-1.278,1.215v3.3a1.224,1.224,0,0,1-1.281,1.186,1.259,1.259,0,0,1-1.135-1.287V85.36a1.03,1.03,0,0,0-1.08-1.01h-.027a1.024,1.024,0,0,0-1.08,1.01v2.232a1.2,1.2,0,0,1-1.274,1.2,1.231,1.231,0,0,1-1.128-1.11c-.64,1.325-1.274,2.759-1.89,4.292a217.762,217.762,0,0,0,34.205,0Q88.53,89.673,87.592,87.726Z" transform="translate(-50.348 -24.541)"/></g></svg>