<svg xmlns="http://www.w3.org/2000/svg" width="47.377" height="35.747" viewBox="0 0 47.377 35.747"><defs><style>.a{fill:#e39023;}</style></defs><g transform="translate(0 -41.863)"><path class="a" d="M169.591,249.6a1.042,1.042,0,0,0-1.042,1.042v2.962a1.042,1.042,0,0,0,2.084,0v-2.962A1.042,1.042,0,0,0,169.591,249.6Z" transform="translate(-145.137 -178.886)"/><path class="a" d="M169.591,71.195a1.042,1.042,0,0,0,1.042-1.042V67.191a1.042,1.042,0,0,0-2.084,0v2.962A1.042,1.042,0,0,0,169.591,71.195Z" transform="translate(-145.137 -20.913)"/><path class="a" d="M249.6,169.583a1.042,1.042,0,0,0,1.042,1.042h2.962a1.042,1.042,0,1,0,0-2.084h-2.962A1.042,1.042,0,0,0,249.6,169.583Z" transform="translate(-214.934 -109.082)"/><path class="a" d="M71.19,169.583a1.042,1.042,0,0,0-1.042-1.042H67.185a1.042,1.042,0,0,0,0,2.084h2.963A1.042,1.042,0,0,0,71.19,169.583Z" transform="translate(-56.956 -109.082)"/><path class="a" d="M226.9,100.314a1.039,1.039,0,0,0,.737-.305l2.094-2.094a1.042,1.042,0,0,0-1.473-1.473l-2.094,2.094a1.042,1.042,0,0,0,.737,1.778Z" transform="translate(-194.487 -46.735)"/><path class="a" d="M98.537,226.164l-2.094,2.094a1.042,1.042,0,0,0,1.473,1.473l2.094-2.094a1.042,1.042,0,0,0-1.473-1.473Z" transform="translate(-82.785 -158.438)"/><path class="a" d="M133.879,125.773a8.109,8.109,0,1,0-8.108,8.108A8.118,8.118,0,0,0,133.879,125.773Zm-14.134,0a6.025,6.025,0,1,1,6.025,6.025A6.032,6.032,0,0,1,119.746,125.773Z" transform="translate(-101.318 -65.272)"/><path class="a" d="M222.5,211.124a5.416,5.416,0,0,0-4.82-2.958,5.332,5.332,0,0,0-5.35,4.881,3.911,3.911,0,0,0,.725,7.766h9.423a4.845,4.845,0,1,0,.022-9.689Zm-.022,7.605h-9.423a1.833,1.833,0,1,1,0-3.664,2.033,2.033,0,0,1,.228.016,1.042,1.042,0,0,0,1.151-1.186,3.179,3.179,0,0,1,3.246-3.647,3.288,3.288,0,0,1,3.145,2.276,1.042,1.042,0,0,0,1.17.722,2.913,2.913,0,0,1,.484-.04,2.762,2.762,0,1,1,0,5.522Z" transform="translate(-180.037 -143.203)"/><path class="a" d="M18.335,49.666a4.894,4.894,0,0,0-4.909-4.844,5.416,5.416,0,0,0-4.82-2.958,5.332,5.332,0,0,0-5.35,4.882,3.911,3.911,0,0,0,.725,7.765H13.4A4.894,4.894,0,0,0,18.335,49.666Zm-16.252.929a1.868,1.868,0,0,1,1.9-1.832,2,2,0,0,1,.227.016A1.042,1.042,0,0,0,5.36,47.594a3.179,3.179,0,0,1,3.246-3.647,3.288,3.288,0,0,1,3.145,2.276,1.042,1.042,0,0,0,1.168.723,2.947,2.947,0,0,1,.485-.04,2.762,2.762,0,1,1,0,5.522H3.981A1.868,1.868,0,0,1,2.084,50.595Z"/></g></svg>