<svg xmlns="http://www.w3.org/2000/svg" width="59.227" height="59.227" viewBox="0 0 59.227 59.227"><defs><style>.a{fill:#909090;}</style></defs><path class="a" d="M57.492,4.275h-7.6q.041-1.263.043-2.539A1.735,1.735,0,0,0,48.2,0H11.028A1.735,1.735,0,0,0,9.293,1.735q0,1.276.043,2.539h-7.6A1.735,1.735,0,0,0,0,6.01c0,7.775,2.032,15.11,5.722,20.655,3.647,5.482,8.5,8.626,13.753,8.932a17.817,17.817,0,0,0,3.757,3.155v7.712H20.321a6.389,6.389,0,0,0-6.382,6.382v2.911h-.123a1.735,1.735,0,1,0,0,3.47h31.6a1.735,1.735,0,1,0,0-3.47h-.123V52.845a6.389,6.389,0,0,0-6.382-6.382H36V38.751A17.805,17.805,0,0,0,39.753,35.6c5.248-.306,10.106-3.45,13.753-8.932,3.69-5.545,5.721-12.88,5.721-20.655A1.735,1.735,0,0,0,57.492,4.275ZM8.611,24.742a33.441,33.441,0,0,1-5.1-17H9.529A57.982,57.982,0,0,0,14.92,28.8q.694,1.388,1.449,2.623A16.734,16.734,0,0,1,8.611,24.742Zm33.207,28.1v2.911H17.409V52.845a2.915,2.915,0,0,1,2.911-2.911H38.906A2.915,2.915,0,0,1,41.817,52.845Zm-9.293-6.382H26.7v-6.2a11.29,11.29,0,0,0,5.823,0ZM33.6,36.131a1.688,1.688,0,0,0-.225.114,8.1,8.1,0,0,1-7.52,0,1.727,1.727,0,0,0-.227-.116A13.968,13.968,0,0,1,21.7,32.9a1.756,1.756,0,0,0-.221-.259,27.353,27.353,0,0,1-3.46-5.4c-3.189-6.377-5.031-14.762-5.24-23.773h33.66c-.21,9.01-2.052,17.4-5.24,23.773a27.373,27.373,0,0,1-3.46,5.4,1.711,1.711,0,0,0-.222.259A13.972,13.972,0,0,1,33.6,36.131ZM50.616,24.742a16.735,16.735,0,0,1-7.758,6.676q.753-1.235,1.449-2.623A57.991,57.991,0,0,0,49.7,7.745H55.72A33.442,33.442,0,0,1,50.616,24.742Zm0,0"/></svg>