<svg xmlns="http://www.w3.org/2000/svg" width="44.126" height="44.126" viewBox="0 0 44.126 44.126"><defs><style>.a{fill:#fff;}</style></defs><path class="a" d="M8.09,230.063a.735.735,0,0,0,.573-.276c.309-.382,7.516-9.426,7.516-13.7a8.09,8.09,0,1,0-16.18,0c0,4.271,7.207,13.312,7.516,13.7a.735.735,0,0,0,.573.276Zm0-20.592a6.626,6.626,0,0,1,6.619,6.619c0,2.853-4.347,9.093-6.619,12.046-2.272-2.952-6.619-9.191-6.619-12.046A6.626,6.626,0,0,1,8.09,209.471Zm0,0" transform="translate(0 -188.879)"/><path class="a" d="M61.884,258.942a2.942,2.942,0,1,0-2.942,2.942A2.942,2.942,0,0,0,61.884,258.942Zm-4.413,0a1.471,1.471,0,1,1,1.471,1.471A1.471,1.471,0,0,1,57.471,258.942Zm0,0" transform="translate(-50.852 -232.466)"/><path class="a" d="M357.884,15.444a.734.734,0,0,0,.557-.256c.546-.633,5.326-6.276,5.326-9.3a5.884,5.884,0,0,0-11.767,0c0,3.029,4.78,8.672,5.326,9.3A.734.734,0,0,0,357.884,15.444Zm0-13.973A4.417,4.417,0,0,1,362.3,5.883c0,1.864-2.808,5.7-4.413,7.677-1.605-1.973-4.413-5.81-4.413-7.677A4.417,4.417,0,0,1,357.884,1.471Zm0,0" transform="translate(-319.641 0)"/><path class="a" d="M396.413,34.206a2.206,2.206,0,1,0-2.206,2.206A2.206,2.206,0,0,0,396.413,34.206Zm-2.942,0a.735.735,0,1,1,.735.735A.736.736,0,0,1,393.471,34.206Zm0,0" transform="translate(-355.963 -29.058)"/><path class="a" d="M400.735,185.471h.735a.735.735,0,0,0,0-1.471h-.735a.735.735,0,0,0,0,1.471Zm0,0" transform="translate(-363.228 -167.085)"/><path class="a" d="M296.678,233.471h1.487a.735.735,0,0,0,0-1.471h-1.5a.731.731,0,0,0-.729.735A.74.74,0,0,0,296.678,233.471Zm0,0" transform="translate(-268.732 -210.672)"/><path class="a" d="M393.688,232.735a.735.735,0,0,0,.735.735h1.5a.735.735,0,1,0,0-1.471h-1.5A.735.735,0,0,0,393.688,232.735Zm0,0" transform="translate(-357.496 -210.672)"/><path class="a" d="M351.833,185.471h1.5a.735.735,0,1,0,0-1.471h-1.5a.735.735,0,1,0,0,1.471Zm0,0" transform="translate(-318.822 -167.085)"/><path class="a" d="M123.649,464h-1.5a.735.735,0,1,0,0,1.471h1.5a.735.735,0,1,0,0-1.471Zm0,0" transform="translate(-110.253 -421.344)"/><path class="a" d="M272.781,200.019a.722.722,0,0,0,.152-.016.735.735,0,0,0,.568-.87,1.531,1.531,0,0,1-.032-.305,1.471,1.471,0,0,1,.16-.669.735.735,0,0,0-1.311-.667,2.942,2.942,0,0,0-.257,1.942A.736.736,0,0,0,272.781,200.019Zm0,0" transform="translate(-246.994 -178.971)"/><path class="a" d="M345.536,233.471h1.5a.735.735,0,0,0,0-1.471h-1.5a.735.735,0,0,0,0,1.471Zm0,0" transform="translate(-313.103 -210.672)"/><path class="a" d="M302.926,185.471h1.5a.735.735,0,0,0,0-1.471h-1.5a.735.735,0,0,0,0,1.471Zm0,0" transform="translate(-274.411 -167.085)"/><path class="a" d="M225.628,311.489a.713.713,0,0,0,.178.022.736.736,0,0,0,.713-.558,2.6,2.6,0,0,1,.524-1.03.735.735,0,1,0-1.126-.946,4.052,4.052,0,0,0-.825,1.618.736.736,0,0,0,.535.893Zm0,0" transform="translate(-204.38 -280.323)"/><path class="a" d="M368.068,463.6a3.6,3.6,0,0,1-.477.031h-.926a.735.735,0,0,0,0,1.471h.926a5.155,5.155,0,0,0,.662-.043.736.736,0,1,0-.188-1.459Zm0,0" transform="translate(-332.29 -420.979)"/><path class="a" d="M376.332,368.22a5.146,5.146,0,0,0-1.5-.22h-.193a.735.735,0,1,0,0,1.471h.193a3.708,3.708,0,0,1,1.073.159.721.721,0,0,0,.214.032.735.735,0,0,0,.214-1.439Zm0,0" transform="translate(-339.529 -334.169)"/><path class="a" d="M361.2,297.471a.735.735,0,0,0,0-1.471h-1.5a.735.735,0,1,0,0,1.471Zm0,0" transform="translate(-325.969 -268.789)"/><path class="a" d="M412.472,435.748a.735.735,0,0,0-.972.368,3.669,3.669,0,0,1-.695,1.03.735.735,0,1,0,1.063,1.016,5.125,5.125,0,0,0,.974-1.442.736.736,0,0,0-.37-.972Zm0,0" transform="translate(-372.844 -395.631)"/><path class="a" d="M456.081,273.108a.736.736,0,0,0-.914.5,2.231,2.231,0,0,1-.574.952.736.736,0,0,0,1.03,1.052,3.7,3.7,0,0,0,.956-1.586.735.735,0,0,0-.5-.914Zm0,0" transform="translate(-412.601 -247.974)"/><path class="a" d="M444.367,236.014a.735.735,0,0,0,.548-1.227,3.7,3.7,0,0,0-1.545-1.024.736.736,0,0,0-.478,1.392,2.2,2.2,0,0,1,.926.615A.737.737,0,0,0,444.367,236.014Zm0,0" transform="translate(-401.726 -212.237)"/><path class="a" d="M327.242,368h-1.5a.735.735,0,0,0,0,1.471h1.5a.735.735,0,0,0,0-1.471Zm0,0" transform="translate(-295.13 -334.17)"/><path class="a" d="M410.1,296h-1.5a.735.735,0,1,0,0,1.471h1.5a.735.735,0,1,0,0-1.471Zm0,0" transform="translate(-370.368 -268.789)"/><path class="a" d="M172.554,464h-1.5a.735.735,0,1,0,0,1.471h1.5a.735.735,0,1,0,0-1.471Zm0,0" transform="translate(-154.663 -421.344)"/><path class="a" d="M417.061,389.389a.737.737,0,1,0-1.216.831,3.637,3.637,0,0,1,.515,1.129.735.735,0,1,0,1.423-.368A5.108,5.108,0,0,0,417.061,389.389Zm0,0" transform="translate(-377.499 -353.301)"/><path class="a" d="M233.769,355.09a2.615,2.615,0,0,1-.9-.732.736.736,0,0,0-1.162.9,4.082,4.082,0,0,0,1.406,1.148.735.735,0,0,0,.651-1.319Zm0,0" transform="translate(-210.27 -321.524)"/><path class="a" d="M221.435,464h-1.5a.735.735,0,1,0,0,1.471h1.5a.735.735,0,1,0,0-1.471Zm0,0" transform="translate(-199.049 -421.344)"/><path class="a" d="M319.265,464h-1.5a.735.735,0,1,0,0,1.471h1.5a.735.735,0,0,0,0-1.471Zm0,0" transform="translate(-287.886 -421.344)"/><path class="a" d="M263.4,297.471a.735.735,0,1,0,0-1.471h-1.5a.735.735,0,1,0,0,1.471Zm0,0" transform="translate(-237.159 -268.789)"/><path class="a" d="M312.3,297.471a.735.735,0,1,0,0-1.471h-1.5a.735.735,0,0,0,0,1.471Zm0,0" transform="translate(-281.558 -268.789)"/><path class="a" d="M278.339,368h-1.5a.735.735,0,1,0,0,1.471h1.5a.735.735,0,1,0,0-1.471Zm0,0" transform="translate(-250.723 -334.17)"/><path class="a" d="M270.364,464h-1.5a.735.735,0,1,0,0,1.471h1.5a.735.735,0,1,0,0-1.471Zm0,0" transform="translate(-243.48 -421.344)"/><path class="a" d="M81.471,464h-.735a.735.735,0,1,0,0,1.471h.735a.735.735,0,1,0,0-1.471Zm0,0" transform="translate(-72.646 -421.344)"/></svg>