<svg xmlns="http://www.w3.org/2000/svg" width="411" height="257.392" viewBox="0 0 411 257.392"><defs><style>.a{fill:#b9efcf;}.b{fill:#3f3d56;}.c{fill:#01b148;}.d{fill:#2f2e41;}.e{fill:#575a89;}.f{fill:#5d4205;}.g{fill:#fbbebe;}.h{opacity:0.1;}.i{fill:#9a7520;}.j{fill:#f1f1f1;}</style></defs><g transform="translate(0.001 0)"><path class="a" d="M733.1,199.085c-15.1-59.358-67.254-102.206-128.477-103.925-32.368-.908-66.427,9.826-91.224,47.391-44.328,67.151,2.724,113.554,35.528,135.6a205.262,205.262,0,0,1,42.427,38.133c22.158,26.294,64.784,58.967,115.551,7.773C743.7,286.954,743.157,238.623,733.1,199.085Z" transform="translate(-327.971 -95.108)"/><path class="b" d="M186.927,502.033c-.407-.6-.807-1.221-1.188-1.838l.617-.382c.377.609.771,1.22,1.173,1.814Z" transform="translate(-130.27 -353.053)"/><path class="b" d="M169.423,351.9c-.673-1.32-1.3-2.684-1.858-4.054l.671-.275c.553,1.351,1.17,2.7,1.833,4Zm-3.374-8.247c-.445-1.412-.836-2.86-1.163-4.3l.708-.16c.322,1.425.708,2.854,1.147,4.247Zm-1.965-8.691c-.206-1.464-.353-2.956-.438-4.436l.724-.042c.084,1.461.229,2.933.432,4.377Zm.211-8.877-.725-.017c.035-1.482.131-2.979.286-4.448l.721.076c-.153,1.45-.248,2.926-.282,4.389Zm.924-8.74-.713-.135c.276-1.454.617-2.915,1.012-4.341l.7.194c-.39,1.407-.726,2.848-1,4.283Zm2.349-8.468-.68-.251c.513-1.389,1.091-2.775,1.717-4.118l.657.307c-.618,1.325-1.188,2.691-1.694,4.062Zm99.327-2.242c-.567-1.344-1.2-2.683-1.875-3.978l.643-.336c.687,1.313,1.326,2.67,1.9,4.033Zm-95.608-5.727-.63-.36c.734-1.285,1.532-2.556,2.371-3.777l.6.41C172.8,298.391,172.011,299.645,171.286,300.912Zm91.536-2.061c-.781-1.234-1.623-2.45-2.5-3.616l.579-.437c.892,1.182,1.746,2.415,2.537,3.665Zm-86.56-5.187-.562-.458c.936-1.148,1.93-2.271,2.956-3.338l.523.5C178.167,291.423,177.186,292.531,176.263,293.664Zm81.264-1.828c-.973-1.09-2-2.154-3.061-3.16l.5-.526c1.072,1.02,2.116,2.1,3.1,3.2Zm-75.172-4.509-.48-.544c1.11-.98,2.274-1.925,3.46-2.811l.434.581C184.6,285.427,183.45,286.36,182.355,287.326Zm68.8-1.55c-1.138-.917-2.327-1.8-3.536-2.618l.407-.6c1.225.832,2.431,1.724,3.584,2.653ZM189.4,282.069l-.385-.615c1.256-.785,2.559-1.528,3.873-2.206l.333.645C191.923,280.563,190.638,281.295,189.4,282.069Zm54.484-1.23c-1.274-.719-2.592-1.393-3.918-2l.3-.659c1.343.618,2.679,1.3,3.971,2.03Zm-46.677-2.8-.278-.67c1.367-.568,2.774-1.085,4.181-1.537l.222.691C199.942,276.97,198.554,277.48,197.206,278.04Zm38.689-.875c-1.373-.5-2.784-.945-4.194-1.328l.19-.7c1.43.388,2.86.841,4.252,1.346Zm-30.325-1.811-.164-.706c1.44-.334,2.914-.612,4.38-.826l.1.718c-1.446.212-2.9.486-4.322.815Zm21.84-.493c-1.434-.264-2.9-.472-4.355-.618l.072-.722c1.476.148,2.961.358,4.414.626Zm-13.145-.778-.046-.724c1.475-.093,2.979-.126,4.457-.1l-.013.725c-1.459-.027-2.942.006-4.4.1Z" transform="translate(-116.141 -208.651)"/><path class="b" d="M453.419,378.5c-.194-.69-.405-1.386-.628-2.068l.689-.225c.225.691.439,1.4.636,2.1Z" transform="translate(-300.625 -274.273)"/><path class="b" d="M441.052,266.684h-.725c0-.726.013-1.462.038-2.189l.725.025C441.065,265.239,441.052,265.967,441.052,266.684Z" transform="translate(-292.676 -203.07)"/><path class="b" d="M442.011,155.562l-.721-.077c.155-1.461.366-2.933.625-4.377l.714.128C442.372,152.664,442.165,154.119,442.011,155.562Zm1.544-8.595-.7-.179c.363-1.423.783-2.851,1.247-4.242l.688.229c-.459,1.375-.874,2.785-1.233,4.192Zm115.666-7.652c-.542-1.346-1.14-2.689-1.778-3.991l.652-.319c.645,1.318,1.25,2.677,1.8,4.039Zm-112.9-.636-.67-.279c.564-1.355,1.185-2.708,1.846-4.021l.648.326c-.653,1.3-1.267,2.635-1.824,3.974Zm109.063-7.208c-.729-1.253-1.513-2.5-2.331-3.7l.6-.409c.828,1.213,1.621,2.472,2.359,3.74Zm-105.134-.6-.623-.372c.752-1.259,1.56-2.509,2.4-3.714l.595.415C451.791,128.395,450.992,129.63,450.249,130.874Zm100.214-6.619c-.9-1.138-1.855-2.258-2.834-3.327l.535-.49c.99,1.082,1.955,2.214,2.868,3.366Zm-95.21-.543-.563-.457c.925-1.141,1.9-2.263,2.906-3.333l.529.5C457.134,121.476,456.168,122.585,455.253,123.712Zm89.312-5.9c-1.054-1-2.157-1.971-3.278-2.891l.46-.561c1.135.93,2.251,1.915,3.317,2.925Zm-83.342-.476-.493-.532c1.077-1,2.2-1.968,3.349-2.886l.454.566c-1.132.907-2.246,1.867-3.31,2.853Zm76.587-5.065c-1.185-.838-2.415-1.644-3.656-2.395l.375-.62c1.256.76,2.5,1.575,3.7,2.423Zm-69.774-.4-.412-.6c1.207-.834,2.461-1.634,3.725-2.38l.368.625c-1.249.737-2.487,1.528-3.681,2.351Zm62.3-4.124c-1.293-.66-2.625-1.282-3.961-1.847l.283-.668c1.352.572,2.7,1.2,4.009,1.869Zm-54.779-.309-.323-.649c1.314-.652,2.668-1.265,4.025-1.821l.275.671c-1.341.55-2.679,1.155-3.977,1.8Zm46.734-3.094c-1.372-.467-2.78-.89-4.186-1.258l.183-.7c1.422.372,2.848.8,4.236,1.273Zm-38.66-.215-.226-.689c1.394-.457,2.823-.869,4.248-1.225l.176.7c-1.408.352-2.82.759-4.2,1.21Zm30.209-1.995c-1.426-.265-2.88-.481-4.322-.643l.081-.721c1.459.164,2.93.382,4.373.65Zm-21.737-.119-.124-.715c1.445-.252,2.918-.454,4.38-.6l.073.722c-1.444.146-2.9.346-4.328.595Zm13.058-.856c-1.452-.059-2.929-.067-4.37-.024l-.022-.725c1.459-.044,2.952-.036,4.422.024Z" transform="translate(-293.347 -98.473)"/><path class="b" d="M771.256,220.87c-.194-.69-.4-1.387-.623-2.071l.691-.221c.222.692.434,1.4.63,2.1Z" transform="translate(-503.316 -173.804)"/><ellipse class="c" cx="12.08" cy="0.906" rx="12.08" ry="0.906" transform="translate(44.153 156.169)"/><ellipse class="c" cx="12.08" cy="0.906" rx="12.08" ry="0.906" transform="translate(140.351 112.378)"/><ellipse class="c" cx="12.08" cy="0.906" rx="12.08" ry="0.906" transform="translate(259.221 66.775)"/><rect class="b" width="51.371" height="0.725" transform="translate(230.213 101.031) rotate(-45)"/><rect class="b" width="61.005" height="0.725" transform="translate(158.738 105.673)"/><rect class="b" width="48.254" height="0.725" transform="translate(113.543 144.738) rotate(-45)"/><rect class="b" width="40.771" height="0.725" transform="translate(62.51 149.464)"/><rect class="b" width="57.296" height="0.725" transform="translate(10.979 194.57) rotate(-45)"/><path class="b" d="M176.062,503.191a6.7,6.7,0,1,1,6.7-6.7,6.7,6.7,0,0,1-6.7,6.7Zm0-12.684a5.98,5.98,0,1,0,5.979,5.98,5.98,5.98,0,0,0-5.979-5.98Z" transform="translate(-119.829 -346.66)"/><path class="b" d="M323.469,503.191a6.7,6.7,0,1,1,6.7-6.7A6.7,6.7,0,0,1,323.469,503.191Zm0-12.684a5.98,5.98,0,1,0,5.979,5.98,5.98,5.98,0,0,0-5.979-5.98Z" transform="translate(-213.882 -346.66)"/><path class="b" d="M441.729,382.433a6.7,6.7,0,1,1,6.7-6.7,6.7,6.7,0,0,1-6.7,6.7Zm0-12.684a5.979,5.979,0,1,0,5.98,5.979,5.979,5.979,0,0,0-5.98-5.979Z" transform="translate(-289.299 -269.693)"/><path class="b" d="M644.935,382.433a6.7,6.7,0,1,1,6.7-6.7A6.7,6.7,0,0,1,644.935,382.433Zm0-12.684a5.979,5.979,0,1,0,5.98,5.979,5.979,5.979,0,0,0-5.98-5.979Z" transform="translate(-418.888 -269.693)"/><path class="b" d="M769.857,256.679a6.7,6.7,0,1,1,6.7-6.7,6.7,6.7,0,0,1-6.7,6.7Zm0-12.684a5.979,5.979,0,1,0,5.98,5.979,5.979,5.979,0,0,0-5.98-5.979Z" transform="translate(-498.553 -189.542)"/><path class="b" d="M39.481,639.772a6.7,6.7,0,1,1,6.7-6.7A6.7,6.7,0,0,1,39.481,639.772Zm0-12.684a5.98,5.98,0,1,0,5.979,5.979,5.98,5.98,0,0,0-5.979-5.979Z" transform="translate(-32.777 -433.712)"/><path class="c" d="M166.615,399.173a12.08,12.08,0,0,0-12.08,12.08c0,6.672,12.08,28.69,12.08,28.69s12.08-22.019,12.08-28.69A12.08,12.08,0,0,0,166.615,399.173Zm0,18.422a6.342,6.342,0,1,1,6.342-6.342,6.342,6.342,0,0,1-6.342,6.342Z" transform="translate(-110.381 -288.909)"/><path class="c" d="M432.281,274.251a12.08,12.08,0,0,0-12.08,12.08c0,6.672,12.08,28.691,12.08,28.691s12.08-22.019,12.08-28.69a12.08,12.08,0,0,0-12.081-12.08Zm0,18.422a6.342,6.342,0,1,1,6.342-6.342,6.342,6.342,0,0,1-6.342,6.342Z" transform="translate(-279.85 -209.288)"/><rect class="d" width="164.467" height="0.886" transform="translate(224.869 256.505)"/><path class="d" d="M977.293,142.111c-2.557,7.57-6.477,14.468-14.468,14.468s-14.018-6.49-14.468-14.468c-.575-10.194,6.293-14.51,14.468-14.468C972.481,127.693,980.328,133.127,977.293,142.111Z" transform="translate(-616.706 -115.845)"/><rect class="d" width="28.555" height="36.17" transform="translate(331.652 25.124)"/><path class="e" d="M1025.675,238.7h2.429a21.622,21.622,0,0,1,3.238,17.811c-2.7,10.255-.54,12.144-.54,12.144s3.513,11.105-.265,27.837,3.5,21.279,3.5,21.279l-6.747-13.493-3.778-35.622Z" transform="translate(-664.631 -186.628)"/><path class="f" d="M1025.675,241.146h2.429a21.622,21.622,0,0,1,3.238,17.811c-2.7,10.255-.54,12.144-.54,12.144s3.513,11.105-.265,27.837,3.5,21.279,3.5,21.279l-6.747-13.493-3.778-35.622Z" transform="translate(-664.631 -188.188)"/><path class="g" d="M979.943,202.528s-2.159,8.636-1.079,8.636,4.858,4.588,4.858,4.588l2.429,8.906-1.889,6.477-6.477-1.349-8.1-8.906-2.429-2.429-2.159-7.826s2.7-3.238.81-5.937S979.943,202.528,979.943,202.528Z" transform="translate(-627.398 -163.546)"/><path class="h" d="M979.943,202.528s-2.159,8.636-1.079,8.636,4.858,4.588,4.858,4.588l2.429,8.906-1.889,6.477-6.477-1.349-8.1-8.906-2.429-2.429-2.159-7.826s2.7-3.238.81-5.937S979.943,202.528,979.943,202.528Z" transform="translate(-627.398 -163.546)"/><path class="g" d="M794.281,233.887l-5.937-9.715s-6.409-14.18-11-9.052,6.948,15.529,6.948,15.529l5.937,7.826Z" transform="translate(-506.922 -170.887)"/><path class="g" d="M984.423,489.907,980.1,521.481s.54,2.429-4.858,11.334-19.97,28.336-19.97,28.336l-4.318-8.1s5.127-25.637,14.033-31.034l-1.079-38.861Z" transform="translate(-618.385 -342.44)"/><path class="h" d="M984.423,489.907,980.1,521.481s.54,2.429-4.858,11.334-19.97,28.336-19.97,28.336l-4.318-8.1s5.127-25.637,14.033-31.034l-1.079-38.861Z" transform="translate(-618.385 -342.44)"/><path class="d" d="M926.771,666.973l5.937,11.334s-4.857,13.763-2.969,15.112,4.318,13.493-.81,12.144-9.175-6.747-9.175-7.556,2.969-12.144,1.349-14.843a13.1,13.1,0,0,0-2.7-3.508l-4.048,6.747-1.349-.81,6.747-11.334s.81-2.159,4.048-3.508Z" transform="translate(-594.125 -459.596)"/><path class="h" d="M926.771,666.973l5.937,11.334s-4.857,13.763-2.969,15.112,4.318,13.493-.81,12.144-9.175-6.747-9.175-7.556,2.969-12.144,1.349-14.843a13.1,13.1,0,0,0-2.7-3.508l-4.048,6.747-1.349-.81,6.747-11.334s.81-2.159,4.048-3.508Z" transform="translate(-594.125 -459.596)"/><path class="g" d="M949.273,485.428s2.1,29.847-2.492,37.673v38.861l-6.207.81s-12.535-20.574-7.947-40.813-4.737-38.8-4.737-38.8Z" transform="translate(-603.618 -342.441)"/><circle class="g" cx="11.334" cy="11.334" r="11.334" transform="translate(332.709 22.925)"/><path class="i" d="M882.316,239.086l-11.334-14.3-6.477-4.318-2.7,3.508-7.556,2.159s-4.858,1.079-9.985,7.016-14.3,9.445-14.3,9.445l-7.556-1.349s-8.906-4.048-8.906-5.127-7.826,7.286-5.937,10.525,5.937,7.286,8.1,9.445,2.969,8.366,16.192,6.477,18.081-8.366,18.081-8.366,2.429,12.414,9.445,14.843,29.955,4.048,29.955,4.048l4.858-16.192s5.4-7.016-1.889-17.271a67.676,67.676,0,0,0-.923-9.552,6.311,6.311,0,0,0-1.236-3.132c-1.889-1.619-11.874-4.318-11.874-4.318s1.619,5.4,2.429,5.667S883.393,237.737,882.316,239.086Z" transform="translate(-526.802 -175.007)"/><path class="d" d="M906.048,402.284c13.59-.945,21.5,1.282,25.033,2.979a8.948,8.948,0,0,1,1.84,1.117c.259.219.383.389.383.491,0,.81,18.621,2.429,25.367.81s-4.588-36.432-7.556-39.4-1.368-13.833-1.368-13.833-5.918-1.279-7.537-.739-9.985-.81-12.953-2.429-6.747-.54-9.175-1.079a1.526,1.526,0,0,0-1.905.688,4.665,4.665,0,0,1-1.846,1.865c-5.729,3.3-10.328,26.12-13.79,38.736C898.761,405.252,906.048,402.284,906.048,402.284Z" transform="translate(-586.832 -257.65)"/><path class="d" d="M966.7,693.763l1.079,5.937s5.669,8.1,4.048,14.843c0,0,1.349,8.906,6.207,11.334s.81,8.1-3.778,7.826-8.905.27-9.445-1.079-3.778-14.573-3.778-14.573l-.886,15.474-2.7.27.886-17.9s-2.159-4.048.81-10.794l-.749-10.356S965.89,696.462,966.7,693.763Z" transform="translate(-622.521 -476.671)"/><path class="h" d="M983.154,472.972a8.951,8.951,0,0,1,1.841,1.117c.143-2.55.969-17.973-.022-17.725Z" transform="translate(-638.905 -325.359)"/><path class="d" d="M944.526,144.624s-.125-.7-5.035,1.142-7.852,15.426-5.4,23.4a7.31,7.31,0,0,1-1.129,7.155,11.819,11.819,0,0,0,4.19,18.357q.3.132.62.262l3.068,1.841a14.033,14.033,0,0,1-1.954-11.73,33.753,33.753,0,0,0,.609-17.28c-.225-.964-.48-1.958-.769-2.972-2.455-8.591-1.261-7.6,7.33-16.19a54.611,54.611,0,0,0,9.2,5.523c4.3,1.841,7.978,3.682,4.909,9.818s-10.432,11.659-5.523,19.637,5.523,4.909,4.909,7.977h0l-.614,3.068,3.682-3.682-2.455,4.909s7.977,0,10.432-6.137l1.227,1.227s4.909-8.591-4.3-16.569c0,0-3.068-1.841,1.227-7.977s1-19.33-4.526-21.785S944.526,144.624,944.526,144.624Z" transform="translate(-605.175 -125.973)"/><circle class="d" cx="5.711" cy="5.711" r="5.711" transform="translate(340.408 3.422)"/><path class="d" d="M967.406,101.857a5.711,5.711,0,0,1,5.139-5.682c-.187-.019-.378-.029-.571-.029a5.711,5.711,0,0,0,0,11.422c.193,0,.383-.01.571-.029a5.711,5.711,0,0,1-5.14-5.682Z" transform="translate(-628.141 -95.77)"/><path class="c" d="M760.409,154.326a12.08,12.08,0,0,0-12.08,12.08c0,6.672,12.08,28.69,12.08,28.69s12.08-22.019,12.08-28.69A12.08,12.08,0,0,0,760.409,154.326Zm0,18.422a6.342,6.342,0,1,1,6.342-6.342,6.342,6.342,0,0,1-6.342,6.342Z" transform="translate(-489.107 -132.852)"/><circle class="j" cx="6.537" cy="6.537" r="6.537" transform="translate(167.479 233.172)"/><circle class="j" cx="6.537" cy="6.537" r="6.537" transform="translate(208.108 205.523)"/><circle class="j" cx="6.537" cy="6.537" r="6.537" transform="translate(157.864 179.779)"/></g></svg>