<svg xmlns="http://www.w3.org/2000/svg" xmlns:xlink="http://www.w3.org/1999/xlink" width="521.718" height="363.349" viewBox="0 0 521.718 363.349"><defs><style>.a,.ak{fill:none;stroke-miterlimit:10;}.a{stroke:#535461;stroke-width:2px;}.b{fill:#b9efcf;}.c{fill:url(#a);}.d{fill:#272635;}.e,.g{opacity:0.1;}.f{fill:#2f2e41;}.h{fill:#ced2df;}.i{fill:#1e1b13;}.j{fill:#ec8c9c;}.k{fill:#ebf1f6;}.l{fill:#9a7520;}.m{fill:#383221;}.n{fill:url(#b);}.o{fill:url(#c);}.p{fill:#ffbdc6;}.q{fill:#7679b4;}.r{fill:#2b2932;}.s{fill:#a66477;}.t{fill:#131125;}.u{fill:#464353;}.v{fill:#f2f1f2;}.w{fill:#01796d;}.x{fill:#1f1e2c;}.y{fill:url(#d);}.z{fill:#493545;}.aa{opacity:0.05;}.ab{fill:#3e3d77;}.ac{fill:#2d3b50;}.ad{fill:#35455d;}.ae{fill:#c77485;}.af{fill:#ffaac4;}.ag,.am{fill:#404040;}.ag{opacity:0.3;}.ah{fill:#6c63ff;}.ai{fill:#01b148;}.aj{fill:#dee3f3;opacity:0.5;}.ak{stroke:#01b148;}.al{fill:#048839;}.an{opacity:0.2;}.ao{fill:#ffd037;}</style><linearGradient id="a" x1="0.5" y1="1" x2="0.5" gradientUnits="objectBoundingBox"><stop offset="0" stop-color="gray" stop-opacity="0.251"/><stop offset="0.54" stop-color="gray" stop-opacity="0.122"/><stop offset="1" stop-color="gray" stop-opacity="0.102"/></linearGradient><linearGradient id="b" x1="0.495" y1="1.014" x2="0.495" y2="0" xlink:href="#a"/><linearGradient id="c" x1="0.5" y1="1" x2="0.5" y2="0" xlink:href="#a"/><linearGradient id="d" x1="0.5" y1="1" x2="0.5" y2="0" xlink:href="#a"/></defs><g transform="translate(0.02 -0.021)"><path class="a" d="M721.166,628.967s-8-27.6,1.5-47.911a44.224,44.224,0,0,0,3.472-27.349,74.178,74.178,0,0,0-3.812-12.837" transform="translate(-392.348 -309.267)"/><path class="a" d="M426.526,629.322s-8-27.934,1.5-48.49a45.25,45.25,0,0,0,3.471-27.68,75.777,75.777,0,0,0-3.812-12.992" transform="translate(-259.549 -308.947)"/><path class="b" d="M188.937,207.5c10.722,24.218-2.955,52.1-19.055,73.1-5.388,7.042-11.337,14.424-12.084,23.257-.9,10.8,6.416,20.735,15.094,27.228a63.558,63.558,0,0,0,56.29,9.519c16.281-5.158,29.969-16.808,46.392-21.5,27.464-7.866,56.576,5.174,80.1,21.422,16.649,11.486,34.478,25.481,54.549,23.02,14.122-1.73,26.107-11.645,34.242-23.317,3.927-5.636,7.344-11.952,13.062-15.753a32.7,32.7,0,0,1,11.387-4.317c36.467-7.794,75.169,11.227,111.152,1.445,24.306-6.591,43.684-25.816,55.736-47.936s17.676-47.1,22.361-71.841c3.329-17.577,6.091-36.566-1.56-52.731-8.1-17.116-26.838-27.492-45.673-29.436s-37.725,3.422-55.076,10.991c-21.68,9.481-42.932,22.751-66.595,22.8-16.116.033-31.485-6.152-46.892-10.87-25.761-7.882-52.55-11.8-79.245-15.413-25.558-3.46-51.369-6.679-77.081-4.636-18.192,1.445-34.259,8.4-51.913,11.617-11.507,2.1-23.07.549-34.363,4.065-13.908,4.35-28.211,14.43-28.98,30.3C170.058,183.625,183.252,194.654,188.937,207.5Z" transform="translate(-139.813 -119.24)"/><path class="c" d="M599.265,287.533c-2.345-6.113-8.393-20.483-12.375-17.632-5.031,3.6,5.031,19.521,5.031,19.521.286,2.922-5.372,9-8.4,12.035v-.379a1.322,1.322,0,0,1-.132.33l-.253-.137a1.648,1.648,0,0,1-.357.654,6.431,6.431,0,0,0-.027-.654c-.582,2.466-10.744,5.592-10.744,5.592h-.747c-2.823,0-10.173-.637-13.578-6.086A30.133,30.133,0,0,0,551.016,293a5.674,5.674,0,0,0-3.158-1.2,40.638,40.638,0,0,1-18.549-6.383l-.28-.192-.06.176c-.357-.511-.7-1.055-1.027-1.615h0l-.165-.3a13.8,13.8,0,0,0,7.608-12.271v-.286a9.4,9.4,0,0,0,1.263-4.707v-1.648l2.148-1.912a8.831,8.831,0,0,0,2.5-3,3.554,3.554,0,0,0,.264-1.538,2.664,2.664,0,0,0-1.011-2.384c-1.648-1.137-4.394,0-5.586-1.582-.549-.714-.45-1.686-.72-2.527-.549-1.708-2.527-2.631-4.356-2.659a18.817,18.817,0,0,0-5.339,1.137,31.347,31.347,0,0,1-11.37,1.066,7.427,7.427,0,0,0-3.114.11,4.29,4.29,0,0,0-2.527,2.939,6.9,6.9,0,0,0-.242,1.505A9.469,9.469,0,0,0,504.91,262v4.224a9.464,9.464,0,0,0,2.279,6.146,13.732,13.732,0,0,0,5.751,10.019v.335l.071.044a22.711,22.711,0,0,1-.6,3.883v-.28s-7.69,4.092-15.929,4.191h-.906a6.135,6.135,0,0,0-4.394,1.648c-2.439,2.3-6.712,5.927-9.338,5.927-.549,0-14.413,2.708-16.709,3.158l-4.29-4.2-.132.247-.253-.247a10.434,10.434,0,0,0-1.4.2,33.248,33.248,0,0,1-7.608-16.781s9.486-10.8,6-20.873c-2.977-8.58-11.178,9.81-13.507,15.352a4.428,4.428,0,0,0-.143,3.048l7.706,24.838a11.65,11.65,0,0,0-.61,6.042h-.088l5.614,7.2a29.64,29.64,0,0,0,10.832,1.769,37.866,37.866,0,0,0,14.139-2.713h1.3l-.247.093h6.685l4.251,12.859c-.143,1.17-2.2,17.5-3.845,21.153a9.179,9.179,0,0,0-.648,3.845,29.357,29.357,0,0,0,1.225,7.443l3.724-.137-.143.291c-3.153,6.465-8.42,17.984-11.535,28.749l-5.421,10.986,4.065,49.271h.165l.313.049h0c.439.066,1.1.165,1.966.275l-.319.549-8.959,14.831s-6.388,13.078,7.745,10.612c0,0,5.224-1.516,7.355-10.436l9.294-8.717s.434-5.789-2.2-8.1c-.165-2.675-.582-10.486.06-12.364.774-2.274-3.3-28.425-3.3-28.425s14.71-30.513,23.619-31.271a4.884,4.884,0,0,1,1.928.253c7.322,2.384,16.193,20.087,18.8,25.6h0l.121.253v.049l.1.214v.06l.088.187v.05l.077.17v.038l.066.137v.055l.049.1v.044l.033.077v.093h0l.027.066,1.159,34.3h0l.115.06h.055l-.1.709-.505,3.543s6.388,13.457,6,15.16,4.257,8.53,10.837,6.635,2.664-12.579,2.664-12.579l-6.339-13.062-.28-.582a12.444,12.444,0,0,0,1.78-1.324s-1.933-14.023,0-17.055,2.516-16.868,2.516-16.868-1.357-9.475-3.68-13.644l-9.733-34.742c2.917,2.713,5.185,3.774,7.08,3.7h.313a4.729,4.729,0,0,0,2.384-.593,6.711,6.711,0,0,0,1.1-.775,1.728,1.728,0,0,0,.181-.181h0c2.708-2.274-3.1-11.183-6.388-16.478-3.169-5.108,1.2-18.989,1.527-20.021a5.238,5.238,0,0,1,.939-.549,5.794,5.794,0,0,1,2.153-.467c3.153.11,7.031,1.922,11.831,2.834a55.823,55.823,0,0,0,10.1.785h.2c1.346,0,2.565-.027,3.554-.066a6,6,0,0,0,2.582-.7h0a7.8,7.8,0,0,0,1.835-1.483l8.426-9.519-.22.1a4.735,4.735,0,0,0,0-3.351l8.9-15.38a5.85,5.85,0,0,0,.434-5.07Z" transform="translate(-268.662 -177.706)"/><path class="d" d="M524.418,617.662l-8.97,8.6c-2.054,8.789-7.1,10.277-7.1,10.277-13.639,2.428-7.476-10.436-7.476-10.436l8.651-14.638,1.066-1.807s6.168-1.868,10.277-.747a3.52,3.52,0,0,1,1.4.758C524.841,611.9,524.418,617.662,524.418,617.662Z" transform="translate(-293.85 -339.771)"/><path class="d" d="M632.242,615.95c-6.355,1.867-10.837-4.856-10.436-6.542S616,594.479,616,594.479l.483-3.493.45-3.235,10.436.747.983,2.065,6.119,12.881S638.6,614.082,632.242,615.95Z" transform="translate(-346.367 -330.397)"/><path class="e" d="M530.607,611.1c-.983,1.686-8.953.835-12.837.307l1.066-1.807s6.169-1.868,10.277-.747a3.517,3.517,0,0,1,1.4.758C530.568,610.526,530.607,611.1,530.607,611.1Z" transform="translate(-302.093 -339.749)"/><path class="e" d="M628.752,590.542c-5.344,3.559-11.035.868-11.892.423l.45-3.235,10.436.747Z" transform="translate(-346.755 -330.388)"/><path class="f" d="M580.609,499.473c-1.868,2.988,0,16.819,0,16.819-6.169,5.608-13.452,1.494-13.452,1.494l-1.1-33.819s-12.145-27.843-20.741-27.1-22.8,30.831-22.8,30.831,3.922,25.783,3.175,28.013,0,13.078,0,13.078c-1.307,2.241-14.946,0-14.946,0L506.83,480.21l5.207-10.843c2.994-10.612,8.08-21.971,11.123-28.343,1.511-3.169,2.521-5.1,2.521-5.1l9.942-2.071,32.27-6.69,11.6,42.207c2.241,4.109,3.548,13.452,3.548,13.452S582.477,496.485,580.609,499.473Z" transform="translate(-297.162 -258.016)"/><g class="g" transform="translate(209.646 169.122)"><path d="M603.255,542.153l-1.1-33.819s-12.145-27.843-20.741-27.1a4.686,4.686,0,0,0-1.126.253c8.382,2.785,18.879,26.843,18.879,26.843l1.1,33.819a13.182,13.182,0,0,0,7.432,1.357A13.223,13.223,0,0,1,603.255,542.153Z" transform="translate(-539.918 -451.505)"/><path d="M513.7,528.792l-3.922-48.584,5.229-10.859c2.994-10.612,8.08-21.971,11.123-28.343,1.51-3.169,2.521-5.1,2.521-5.1l9.942-2.071,29.458-6.124-.159-.588-32.287,6.712-9.942,2.071s-1.011,1.933-2.521,5.1a191.979,191.979,0,0,0-11.123,28.343l-5.229,10.837,3.922,48.584s7.448,1.225,11.864.956A88.263,88.263,0,0,1,513.7,528.792Z" transform="translate(-506.79 -427.12)"/></g><path class="h" d="M470.369,338.21s-10.651.549-9.156,11.771l2.988.373,4.482-4.856,2.241-4.109v-.934Z" transform="translate(-276.536 -217.925)"/><path class="e" d="M470.369,338.21s-10.651.549-9.156,11.771l2.988.373,4.482-4.856,2.241-4.109v-.934Z" transform="translate(-276.536 -217.925)"/><path class="h" d="M693.264,345.69s8.788,4.669,6.542,10.09l-2.8,1.1-3.735-2.054-.549-4.856.373-3.362Z" transform="translate(-380.946 -221.296)"/><path class="e" d="M693.264,345.69s8.788,4.669,6.542,10.09l-2.8,1.1-3.735-2.054-.549-4.856.373-3.362Z" transform="translate(-380.946 -221.296)"/><rect class="i" width="30.644" height="23.169" rx="11.584" transform="translate(236.83 76.183)"/><path class="j" d="M464.6,307.671l-6.542,10.436-.549-1.857-8.887-28.958a4.454,4.454,0,0,1,.137-3c2.247-5.46,10.167-23.619,13.04-15.133,3.362,9.887-5.8,20.554-5.8,20.554a32.913,32.913,0,0,0,7.816,17.1C464.3,307.38,464.6,307.671,464.6,307.671Z" transform="translate(-270.836 -185.799)"/><path class="j" d="M691.16,321.994s10.277-9.717,9.887-13.639c0,0-9.717-15.693-4.856-19.225,3.845-2.812,9.684,11.359,11.947,17.385a5.877,5.877,0,0,1-.39,4.944L695.466,333.2Z" transform="translate(-380.243 -195.639)"/><path class="j" d="M566.4,299.922s1.868,11.958-3.548,16.446,15.512,4.46,15.512,4.46l7.476-6.915s-8.6-8.036-5.982-14.012Z" transform="translate(-322.01 -200.658)"/><path class="e" d="M556.712,324.157s8.036,5.982,16.066-.747l13.078,27.1-.747,33.072S558.013,397.59,546.8,389s-1.867-13.078-1.867-13.078l-2.615-25.41,2.8-16.445s5.042-7.849,5.421-7.849S556.712,324.157,556.712,324.157Z" transform="translate(-312.692 -211.254)"/><path class="k" d="M556.716,323.477s8.036,5.993,16.072-.747l13.078,27.1-.747,33.072s-27.1,14.012-38.307,5.421-1.868-13.078-1.868-13.078l-2.615-25.41,2.8-16.445s5.042-7.849,5.421-7.849S556.716,323.477,556.716,323.477Z" transform="translate(-312.696 -210.948)"/><path class="e" d="M520.918,319s-7.619,4.339-15.891,4.125a5.855,5.855,0,0,0-4.224,1.615c-2.356,2.263-6.481,5.844-9.036,5.844-.549,0-16.445,3.175-16.445,3.175l-4.2-4.2s-6.262,12.238-9.25,11.678l5.421,7.1s10.277,4.482,23.729-.934h7.849l4.109,12.7s-2.054,17.193-3.735,20.928.549,11.024.549,11.024l14.759-.549s.747-7.289,1.868-8.239S512.5,350.2,512.5,350.2s-3.362-18.126,8.97-24.663Z" transform="translate(-276.898 -209.266)"/><path class="e" d="M549.018,439.38a48.784,48.784,0,0,0-1.159,6.74l-11.3.428c1.511-3.169,2.521-5.1,2.521-5.1Z" transform="translate(-310.562 -263.524)"/><path class="e" d="M472.051,340.392l-6.542,10.436-.549-1.857c2.4-2.384,5.213-7.366,6.333-9.442A11.073,11.073,0,0,0,472.051,340.392Z" transform="translate(-278.29 -218.52)"/><path class="l" d="M520.6,319s-8,4.339-16.264,4.125a5.855,5.855,0,0,0-4.224,1.615c-2.356,2.263-6.482,5.844-9.036,5.844-.549,0-16.445,3.175-16.445,3.175l-4.218-4.207s-6.262,12.238-9.25,11.678l5.421,7.1s10.277,4.482,23.729-.934h7.849l4.109,12.7s-2.054,17.192-3.735,20.928.549,11.024.549,11.024l14.759-.549s.747-7.289,1.868-8.239-3.922-33.072-3.922-33.072-3.362-18.126,8.97-24.663Z" transform="translate(-276.578 -209.266)"/><path class="e" d="M596.516,316.94a36.36,36.36,0,0,0,17.8,6.482,5.41,5.41,0,0,1,3.048,1.181,29.508,29.508,0,0,1,6.432,7.69c4.109,6.729,14.2,5.982,14.2,5.982s9.81-3.081,10.371-5.493c0,0,.28,13.183,6.448,10l-8.113,9.349a5.723,5.723,0,0,1-4.092,1.972,60.144,60.144,0,0,1-12.815-.709c-6.729-1.307-11.584-4.482-15.133-1.681,0,0-4.669,14.572-1.494,19.807s8.789,14.012,6.168,16.259-5.795,2.054-11.024-3.362-5.795-14.572-5.795-14.572l1.307-23.542s-5.042-17.753-9.887-21.3Z" transform="translate(-336.424 -208.338)"/><path class="e" d="M656.153,342.691l-8.135,9.387a5.716,5.716,0,0,1-1.961,1.461h0a5.7,5.7,0,0,1-2.12.5,59.431,59.431,0,0,1-12.815-.709c-6.295-1.225-10.953-4.081-14.435-2.153a5.1,5.1,0,0,0-.7.467s-4.669,14.572-1.494,19.807,8.789,14.012,6.169,16.259a6.041,6.041,0,0,1-1.461.95c-2.351,1.06-5.268.143-9.563-4.312-5.229-5.421-5.8-14.572-5.8-14.572l1.307-23.542s-5.042-17.753-9.887-21.3l2.137-7.663a38.791,38.791,0,0,0,17.906,6.295,5.41,5.41,0,0,1,3.049,1.181,29.529,29.529,0,0,1,6.432,7.69c4.109,6.729,14.2,5.982,14.2,5.982a54.518,54.518,0,0,0,7.069-2.812h0a10.773,10.773,0,0,0,3.3-2.2,1.648,1.648,0,0,0,.357-.659S649.99,345.866,656.153,342.691Z" transform="translate(-337.019 -208.487)"/><path class="l" d="M655.46,342.733l-8.129,9.4a5.72,5.72,0,0,1-1.582,1.274h0a5.7,5.7,0,0,1-2.494.687,59.434,59.434,0,0,1-12.815-.709c-6.07-1.181-10.623-3.883-14.056-2.34a5.08,5.08,0,0,0-1.1.654s-4.669,14.572-1.494,19.807,8.788,14.012,6.168,16.259a6.476,6.476,0,0,1-1.1.764c-2.417,1.335-5.4.549-9.937-4.125-5.229-5.421-5.795-14.572-5.795-14.572l1.307-23.542s-5.042-17.753-9.887-21.3l2.241-8.036.269.187a38.792,38.792,0,0,0,17.907,6.295,5.411,5.411,0,0,1,3.049,1.181,29.531,29.531,0,0,1,6.432,7.69c4.109,6.729,14.2,5.982,14.2,5.982a54.543,54.543,0,0,0,7.069-2.812h0c1.7-.868,3.081-1.818,3.3-2.686v.472C649.176,335.527,650,345.54,655.46,342.733Z" transform="translate(-336.699 -208.342)"/><path class="e" d="M583.582,300.45H569.85a33.611,33.611,0,0,1,.258,6.591,14.116,14.116,0,0,0,14.512,1.044C583.3,305.646,582.5,302.878,583.582,300.45Z" transform="translate(-325.566 -200.906)"/><circle class="j" cx="13.639" cy="13.639" r="13.639" transform="translate(238.978 81.138)"/><path class="e" d="M571.095,271.66c1.522-.181,3.043-.72,4.543-.417,1.362.275,2.521,1.214,3.883,1.5,2.626.549,5.064-1.384,7.047-3.186l4.284-3.9a8.747,8.747,0,0,0,2.417-2.955,2.966,2.966,0,0,0-.725-3.493c-1.565-1.1-4.263,0-5.394-1.56a8.134,8.134,0,0,1-.7-2.488,4.373,4.373,0,0,0-4.208-2.62,18.614,18.614,0,0,0-5.152,1.1,29.661,29.661,0,0,1-10.986,1.049,7.02,7.02,0,0,0-3,.1,4.2,4.2,0,0,0-2.439,2.895c-.846,2.988.6,7.805,2.049,10.48S568.2,272.017,571.095,271.66Z" transform="translate(-321.313 -179.311)"/><path class="m" d="M571.095,270.98c1.522-.181,3.043-.72,4.543-.417,1.362.275,2.521,1.214,3.883,1.5,2.626.549,5.064-1.384,7.047-3.186l4.284-3.9a8.747,8.747,0,0,0,2.417-2.955,2.966,2.966,0,0,0-.725-3.493c-1.565-1.1-4.263,0-5.394-1.56a8.134,8.134,0,0,1-.7-2.488,4.373,4.373,0,0,0-4.208-2.62,18.616,18.616,0,0,0-5.152,1.1,29.66,29.66,0,0,1-10.986,1.049,7.02,7.02,0,0,0-3,.1,4.2,4.2,0,0,0-2.439,2.895c-.846,2.988.6,7.805,2.049,10.48S568.2,271.31,571.095,270.98Z" transform="translate(-321.313 -179.005)"/><path class="e" d="M536.55,394s2.988.373,4.482,2.241a8.052,8.052,0,0,0,4.109,2.428" transform="translate(-310.557 -243.07)"/><path class="e" d="M487.473,349.09s2.439,5.443.934,5.993-.934,4.482-.934,4.482" transform="translate(-288.389 -222.829)"/><g class="g" transform="translate(199.753 109.821)"><path d="M488.95,337.119s15.88-3.175,16.429-3.175c2.56,0,6.679-3.581,9.036-5.844a5.768,5.768,0,0,1,2.56-1.423h-.2a5.855,5.855,0,0,0-4.224,1.615c-2.356,2.263-6.482,5.844-9.036,5.844-.445,0-10.607,2.016-14.732,2.834Z" transform="translate(-488.78 -322.547)"/><path d="M559.422,319.858v-.7a39.649,39.649,0,0,1-12.172,3.894,37.616,37.616,0,0,0,12.172-3.2Z" transform="translate(-515.133 -319.16)"/><path d="M526.061,415.177s-2.241-7.289-.549-11.024,3.735-20.928,3.735-20.928l-4.1-12.7h-7.871l-.478.187h6.454l4.092,12.71s-2.054,17.193-3.735,20.928.549,11.024.549,11.024l14.759-.549V414.7Z" transform="translate(-501.409 -342.309)"/></g><g class="g" transform="translate(266.617 134.402)"><path d="M627.34,426.579a6.484,6.484,0,0,1-1.1.764c-2.417,1.335-5.4.549-9.937-4.125-4.153-4.3-5.361-10.986-5.685-13.518l-.11,1.933s.549,9.156,5.795,14.572c4.532,4.691,7.52,5.46,9.937,4.125a6.477,6.477,0,0,0,1.1-.764c.785-.676.829-1.944.417-3.526A1.728,1.728,0,0,1,627.34,426.579Z" transform="translate(-610.51 -384.548)"/><path d="M667.859,364.179l-5.29,6.114a5.717,5.717,0,0,1-1.582,1.274h0a5.7,5.7,0,0,1-2.494.687,59.436,59.436,0,0,1-12.815-.709c-6.07-1.181-10.623-3.883-14.056-2.34a5.087,5.087,0,0,0-1.1.654s-3.016,9.415-2.554,15.825a61.8,61.8,0,0,1,2.554-12.837,5.082,5.082,0,0,1,1.1-.654c3.438-1.544,7.987,1.159,14.056,2.34a60.133,60.133,0,0,0,12.815.709,5.7,5.7,0,0,0,2.494-.687h0a5.717,5.717,0,0,0,1.582-1.258l8.135-9.387a3.2,3.2,0,0,1-2.845.269Z" transform="translate(-618.358 -363.91)"/></g><path class="n" d="M265.74,486.89a.423.423,0,0,0,.5.066A1.7,1.7,0,0,1,265.74,486.89Z" transform="translate(-188.498 -284.938)"/><path class="o" d="M258.319,298.585c-.989-.286-2.4-.753-4.1-1.346a21.489,21.489,0,0,0,3.8-7.646l-.143.055c.049-.17.1-.335.143-.511-3.257,1.324-6.861-.917-9.156-3.8s-3.845-6.448-6.361-9.1a29.117,29.117,0,0,0-3.373-2.906,4.663,4.663,0,0,0-2.444-1.2c-1.467-.044-2.615,1.4-4.026,1.818a5.493,5.493,0,0,1-2.807-.1c-3.642-.835-7.141-2.378-10.859-2.785a12.727,12.727,0,0,0-5.894.665c-1.868.709-2.719,2.12-4.229,3.252-1.648,1.214-4.867,1.186-6.784,1.4a48.61,48.61,0,0,1-7.009.291,16.4,16.4,0,0,0-4.032.148c-2.785.61-5.02,2.823-7.108,4.943a3.665,3.665,0,0,0-1.175,1.84,2.325,2.325,0,0,0,0,.61,3.96,3.96,0,0,0,.28,1.62,21.421,21.421,0,0,0,2.7,5.366,15.5,15.5,0,0,1,2.329,3.812,7.4,7.4,0,0,1,.357,2.2,15.98,15.98,0,0,1-.247,2.362,29.66,29.66,0,0,1-1.807,6.289,11.425,11.425,0,0,0-1.055,3.3,5.248,5.248,0,0,0,0,.7c-.137,3.625,3.521,6.234,4.229,9.838a5.877,5.877,0,0,1,.1.906,6.138,6.138,0,0,1-3.246,5.317c.165.066.335.121.505.176a4.592,4.592,0,0,1-.505.275,10.219,10.219,0,0,0,1.055.341,24.5,24.5,0,0,0-5.334,6.591c-6.355,11.831-49.4,35.006-49.4,35.006l.637.363-.516.335c-3.724,2.477-12.463,9.7-4.565,18.835,0,0,6.168-9.733,10.491-13.88.192-.187.385-.357.549-.516a1.263,1.263,0,0,1,.165,1l28.3-15.9s10.057-7.042,12.864-8.629a23.15,23.15,0,0,1,6.377-2.746l-.33.137a12.913,12.913,0,0,1,3.246-.461c5.009.077,10.436,3.746,12.221,18.275,2.395,19.456,1.285,22.965.516,23.443a1.412,1.412,0,0,1-.28-.049.483.483,0,0,0,.077.055,1.47,1.47,0,0,1-.308-.055.439.439,0,0,0,.417.1.39.39,0,0,0,.313-.038h0a3.272,3.272,0,0,0,.379,0,4.032,4.032,0,0,1-.038.549c-.038,0-.225.1,0,.115h0c-.06,1.1-.055,2.29,0,3.537-2.488.137-4.976.286-7.141.417l.192-1.027.088-.461c1.911-.154,3.724-.714,3.938-2.263.467-3.406-4.207-5.224-8.184-5.449s-27.827,1.362-27.827,1.362-3.576,4.63,7.767,6.042l1.049.549a126.074,126.074,0,0,1,13.359,9.492l.4.318-1.3,1.055c7.014,1.587,13.8,28.392,17.539,40.647s11.925,11.809,18.708,9.991c6.355-1.7,7.141-20.159,7.245-22.477v-.236l11.3,13.963.857,1.06q.494.258.978.483c8.558,4.07,18.011-3.735,15.325-12.633-2.719-8.97-6.937-22.235-9.75-27.843-2.356-4.7-5.4-12.5-7.245-17.379a5.856,5.856,0,0,0,.7-.335s-.044-.22-.115-.621l.115-.06s-2.746-14.128-2.867-24.168v-.873c2.043-.467,3.34-.648,3.34-.648l.038-.439-.236.049,1.137-13.013s4.175-8.882.978-12.579a7.767,7.767,0,0,1-1.873-3.845c-.549-3.4,0-9.074,7.443-13.787,11.458-7.267,15.929-13.183,15.929-13.183S265.333,300.65,258.319,298.585Zm-22.757,9.03V301.6c2.126-.1,4.3.143,6.432,0a16.279,16.279,0,0,0,3.1-.522l.516.357A56.574,56.574,0,0,1,235.562,307.615Zm-32.49,94.279c.84.582,1.686,1.186,2.516,1.8.516,2.966.972,5.059,1.005,5.207A41.115,41.115,0,0,0,203.072,401.894Z" transform="translate(-125.1 -187.621)"/><path class="p" d="M278.658,500.32l-.494,2.686-.379,2.054-.692,3.757-6.712,4.7s-.6-.516-1.6-1.335A117.67,117.67,0,0,0,256,502.841a14.285,14.285,0,0,0-3.51-1.62Z" transform="translate(-182.526 -290.991)"/><path class="e" d="M278.653,500.32l-.494,2.686a20.872,20.872,0,0,1-4.427-.225l-15.66.225c-.742-.044-1.434-.1-2.082-.17a14.279,14.279,0,0,0-3.51-1.62Z" transform="translate(-182.522 -290.991)"/><path class="q" d="M269.274,497.911s7.833,1.34,8.278-2.016-4.026-5.125-7.822-5.377-26.629,1.351-26.629,1.351-4.026,5.366,10.513,6.262Z" transform="translate(-178.064 -286.561)"/><path class="e" d="M278.658,500.32l-.494,2.686-.379,2.054-.692,3.757-6.712,4.7s-.6-.516-1.6-1.335A117.67,117.67,0,0,0,256,502.841a14.285,14.285,0,0,0-3.51-1.62Z" transform="translate(-182.526 -290.991)"/><path class="e" d="M278.653,500.32l-.494,2.686a20.872,20.872,0,0,1-4.427-.225l-15.66.225c-.742-.044-1.434-.1-2.082-.17a14.279,14.279,0,0,0-3.51-1.62Z" transform="translate(-182.522 -290.991)"/><path class="r" d="M269.274,497.911s7.833,1.34,8.278-2.016-4.026-5.125-7.822-5.377-26.629,1.351-26.629,1.351-4.026,5.366,10.513,6.262Z" transform="translate(-178.064 -286.561)"/><rect class="s" width="40.938" height="48.545" transform="translate(67.382 101.049)"/><rect class="t" width="40.938" height="48.545" transform="translate(67.382 101.049)"/><path class="p" d="M147.636,451.192a6.557,6.557,0,0,0-2.494,1.763c-4.136,4.087-10.035,13.672-10.035,13.672-7.558-9,.807-16.11,4.394-18.555.868-.593,1.45-.912,1.45-.912Z" transform="translate(-128.239 -267.03)"/><path class="p" d="M281.512,331.09s2.016,14.095,8.948,17.451-8.948,9.618-8.948,9.618l-21.7-8.052s12.3-4.026,9.843-15.885Z" transform="translate(-185.826 -214.716)"/><path class="p" d="M235.528,485.45l-.494,2.686-.379,2.054-.692,3.757-6.712,4.7s-.6-.516-1.6-1.335a117.639,117.639,0,0,0-12.776-9.338,14.286,14.286,0,0,0-3.51-1.62Z" transform="translate(-163.087 -284.289)"/><path class="e" d="M235.523,485.45l-.494,2.686a20.875,20.875,0,0,1-4.427-.225l-15.66.225c-.742-.044-1.434-.1-2.082-.17a14.281,14.281,0,0,0-3.51-1.62Z" transform="translate(-163.082 -284.289)"/><path class="u" d="M226.1,483.045s7.833,1.34,8.278-2.016-4.026-5.147-7.833-5.367S199.92,477,199.92,477s-4.026,5.366,10.513,6.262Z" transform="translate(-158.602 -279.868)"/><path class="e" d="M247.978,493.959l-.692,3.757-6.712,4.7s-.6-.516-1.6-1.335l8.876-7.278Z" transform="translate(-176.433 -288.052)"/><path class="u" d="M291.555,537.007q-.461-.225-.934-.478l-.818-1.044-10.81-13.732V522c-.071,2.28-.851,20.461-6.926,22.136-6.487,1.791-14.32,2.236-17.9-9.843S244.1,495.811,237.39,494.246l9.953-8.168s6.591,7.69,9.283,15.094c-.1-.472-4.652-21.735-.9-25.492h32.66s5.031,14.358,8.5,21.477c2.691,5.526,6.729,18.588,9.338,27.426A10.506,10.506,0,0,1,291.555,537.007Z" transform="translate(-175.72 -279.885)"/><path class="e" d="M304.431,457.309c-5.037,2.983-27.184,1.769-34.4,1.285l-1.961-.143c-.214,0,.033-.121.033-.121l.2-2.032,5.366-13.644L302.42,426a24.88,24.88,0,0,0-.731,7.52C301.833,443.4,304.431,457.309,304.431,457.309Z" transform="translate(-189.508 -257.493)"/><path class="v" d="M304.237,456.108c-5.037,2.983-27.184,1.769-34.4,1.285l-1.961-.143h-.324l.357-.093,1.769-.467,3.8-15.215,28.749-16.665a24.877,24.877,0,0,0-.731,7.52C301.638,442.189,304.237,456.108,304.237,456.108Z" transform="translate(-189.314 -256.957)"/><path class="e" d="M301.766,432.267c-5.844,1.346-18.709,5.306-23.652,14.831-3.3,6.361-6.042,9.091-8,10.233l-1.961-.143.033-.121,1.769-.467,3.8-15.215L302.5,424.72A24.877,24.877,0,0,0,301.766,432.267Z" transform="translate(-189.585 -256.916)"/><path class="e" d="M147.02,447.17l6.712,4.026a6.557,6.557,0,0,0-2.494,1.763c-.549-1.648-4.076-3.911-5.669-4.878C146.438,447.489,147.02,447.17,147.02,447.17Z" transform="translate(-134.335 -267.035)"/><path class="e" d="M265.612,484.29a.4.4,0,0,1-.472-.06A1.612,1.612,0,0,0,265.612,484.29Z" transform="translate(-188.228 -283.739)"/><path class="w" d="M226.786,333.168a13.308,13.308,0,0,1-10.293-3.8s-17.9,5.147-23.938,16.781S145.35,380.6,145.35,380.6s7.141,4.026,6.487,6.042l27.069-15.66s9.618-6.937,12.3-8.5,17.451-11.183,20.582,14.99,0,23.07,0,23.07,4.477,1.565,10.986-10.986S249.4,374.117,249.4,374.117l1.1-13.183s3.993-8.745.934-12.392a7.745,7.745,0,0,1-1.791-3.785c-.511-3.351,0-8.937,7.141-13.578C267.768,324.039,272,318.206,272,318.206s.225-4.251-6.487-6.262S231.5,298.97,231.5,298.97l-.9,3.8,21.477,15.215s-10.738,8.723-19.225,8.5C232.829,326.451,234.394,332.943,226.786,333.168Z" transform="translate(-134.236 -200.238)"/><path class="e" d="M290.194,337.753a43.946,43.946,0,0,1-1.236-5.493L277.1,335.413a13.073,13.073,0,0,1-.269,6.839,12.754,12.754,0,0,0,13.364-4.5Z" transform="translate(-193.497 -215.243)"/><circle class="p" cx="12.754" cy="12.754" r="12.754" transform="translate(74.094 101.269)"/><path class="e" d="M267.088,273.908c3.537.4,6.9,1.922,10.387,2.746a5.13,5.13,0,0,0,2.686.1c1.351-.417,2.45-1.835,3.845-1.791a4.042,4.042,0,0,1,2.34,1.181,28.067,28.067,0,0,1,3.224,2.862c2.4,2.609,3.894,6.125,6.086,8.959s5.647,5.042,8.761,3.741c-2.115,8.239-9.058,14.539-16.561,15.05-2.994.2-6.042-.417-8.959.461a7.841,7.841,0,0,1-2.263.549c-1.648,0-3.01-1.532-4.054-3.021-2.439-3.5-4.394-7.481-7.141-10.672a5.838,5.838,0,0,0-3.257-2.252,6.031,6.031,0,0,0-3.6,1.011,17.105,17.105,0,0,0-5.273,3.658,7.312,7.312,0,0,0-1.78,6.432c.324,1.219,1.071,2.318,1.1,3.6,0,2.032-1.769,3.521-2.126,5.493a21.207,21.207,0,0,0-.088,2.5c-.159,2.713-1.928,4.944-3.785,6.641a4.777,4.777,0,0,0-1.73,2.4c-.143.7,0,1.439-.093,2.148-.269,1.763-2.027,2.653-3.581,2.884a10.382,10.382,0,0,1-5.372-.637,6.175,6.175,0,0,0,3-6.591c-.692-3.631-4.339-6.234-4.032-9.936a11.5,11.5,0,0,1,1.011-3.268,29.906,29.906,0,0,0,1.725-6.2,10.5,10.5,0,0,0-.1-4.944,15.606,15.606,0,0,0-2.23-3.757,21.321,21.321,0,0,1-2.582-5.29,3.708,3.708,0,0,1-.247-1.747,3.62,3.62,0,0,1,1.1-1.813c2-2.093,4.142-4.273,6.8-4.878a15.245,15.245,0,0,1,3.845-.148,45.177,45.177,0,0,0,6.707-.286c1.835-.214,4.944-.187,6.492-1.384,1.445-1.1,2.263-2.5,4.048-3.2A11.848,11.848,0,0,1,267.088,273.908Z" transform="translate(-173.461 -188.892)"/><path class="e" d="M308.48,513.76s7.382,14.539,5.147,19.016" transform="translate(-207.762 -297.048)"/><path class="e" d="M323.906,570.822,313.1,557.09v.242s-.626-4.438,1.434-2.944c4.51,3.263,11.727,8.613,11.881,9.536S324.95,568.548,323.906,570.822Z" transform="translate(-209.802 -315.221)"/><g class="g" transform="translate(11.339 98.693)"><path d="M303.328,348.851s.912,3.779-2.038,5.669c4.543-.78,4.74-4.312,4.6-5.85A14.313,14.313,0,0,1,303.328,348.851Z" transform="translate(-215.86 -321.332)"/><path d="M148.226,404.948s41.163-22.817,47.205-34.451c4.334-8.349,14.776-13.353,20.323-15.517-4.048,1.357-17.67,6.558-22.79,16.413-6.042,11.634-47.205,34.451-47.205,34.451Z" transform="translate(-145.76 -324.176)"/><path d="M311.179,324.645c7-2.2,13.7-7.618,13.7-7.618L303.4,301.811l.489-2.087-2.054-.824-.9,3.8,21.477,15.215A51.827,51.827,0,0,1,311.179,324.645Z" transform="translate(-215.703 -298.9)"/><path d="M319.83,437.53a53.212,53.212,0,0,1,8.42-2.126l.038-.434A56.986,56.986,0,0,0,319.83,437.53Z" transform="translate(-224.217 -360.229)"/><path d="M257.544,448.572h-.2a.4.4,0,0,1-.472-.06,1.649,1.649,0,0,0,.472.06c.736-.428,1.84-3.768-.472-23.1-2.472-20.642-12.172-19.022-17.484-16.649,5.427-1.494,12.9-.2,15.023,17.544,2.312,19.335,1.208,22.68.472,23.1a4.943,4.943,0,0,0,2.658-.9Z" transform="translate(-187.961 -347.834)"/><path d="M267.212,483.89a1.645,1.645,0,0,1-.472-.06A.4.4,0,0,0,267.212,483.89Z" transform="translate(-200.288 -382.251)"/></g><path class="x" d="M267.088,273.118c3.537.4,6.9,1.922,10.387,2.746a5.13,5.13,0,0,0,2.686.1c1.351-.417,2.45-1.835,3.845-1.791a4.042,4.042,0,0,1,2.34,1.181,28.074,28.074,0,0,1,3.224,2.862c2.4,2.609,3.894,6.124,6.086,8.959s5.647,5.042,8.761,3.741c-2.115,8.239-9.058,14.539-16.561,15.05-2.994.2-6.042-.417-8.959.461a7.842,7.842,0,0,1-2.263.549c-1.648,0-3.01-1.532-4.054-3.021-2.439-3.5-4.394-7.481-7.141-10.673a5.837,5.837,0,0,0-3.257-2.252,6.031,6.031,0,0,0-3.6,1.011,17.106,17.106,0,0,0-5.273,3.658,7.312,7.312,0,0,0-1.78,6.432c.324,1.219,1.071,2.318,1.1,3.6,0,2.032-1.769,3.521-2.126,5.493a21.2,21.2,0,0,0-.088,2.5c-.159,2.713-1.928,4.944-3.785,6.641a4.777,4.777,0,0,0-1.73,2.4c-.143.7,0,1.439-.093,2.148-.269,1.763-2.027,2.653-3.581,2.884a10.381,10.381,0,0,1-5.372-.637,6.175,6.175,0,0,0,3-6.591c-.692-3.631-4.339-6.234-4.032-9.936a11.5,11.5,0,0,1,1.011-3.268,29.906,29.906,0,0,0,1.725-6.2,10.5,10.5,0,0,0-.1-4.944,15.606,15.606,0,0,0-2.23-3.757,21.325,21.325,0,0,1-2.582-5.29,3.708,3.708,0,0,1-.247-1.747,3.619,3.619,0,0,1,1.1-1.813c2-2.093,4.142-4.273,6.8-4.878a15.246,15.246,0,0,1,3.845-.148,45.169,45.169,0,0,0,6.707-.286c1.835-.214,4.944-.187,6.493-1.384,1.445-1.1,2.263-2.5,4.048-3.2A11.848,11.848,0,0,1,267.088,273.118Z" transform="translate(-173.461 -188.536)"/><path class="y" d="M863.072,209.331h0v-.2a.463.463,0,0,0-.033-.209h-.088v-.456c-.22-5.092-7.262-15.929-10.085-12.765-2.472,2.779,1.258,9.81,3.158,12.974l.17.286-.093-.06s-7.86,23.443-8.789,24.355-7.4,19.346-15.929,21.422c-1.686.4-3.087.764-4.262,1.1l.093-.313a33.982,33.982,0,0,0,1.5-5.493c.275-2,0-4.422-1.011-5.394-.494-.483-1.1-.549-1.505-1.318a6.079,6.079,0,0,1-.417-2.115l-.725-8.887.505-.154c3.054-.978,6.015-3.3,6.361-6.416a3.284,3.284,0,0,1-.324.1,5.57,5.57,0,0,0,.093-.549c-2.565,1.011-4.943-1.648-7.415-2.84-4.07-1.994-8.723-.115-12.925.341-4.762.522-9.283-1.456-14.149-1.1-2.648.2-5.592,2-5.449,4.608.082,1.434,1.1,2.648,1.516,4.021,1.055,3.323-1.291,6.657-3.345,9.492a14.13,14.13,0,0,0-2.878,6.317c-4.729-4.944-9.843-10.656-10.436-12.8l-13.682-23.443s-.324.346-.846.857c-.082-.253-.181-.549-.291-.846-1.747-4.894-6.69-16.753-12.958-14.578s2.6,14.331,6.454,19.175l.549.67a1.735,1.735,0,0,1-.978-.044l15.259,26.173s2.774,5.009,5.317,6.372c0,0,18.956,23.9,19.187,28.678s8.525,17.528,8.525,17.528,2.774,20.713-2.082,24.355h.8q-.346.338-.708.742c-3.6,3.988-8.2,12.535-1.911,27.069C808.49,367.4,809.88,375.8,809.88,375.8s-17.577.912-21.037,1.593c-3.065.6-14.979,1.027-17.7,1.1-.972-1.132-3.845-3.636-7.723,0-4.856,4.553-8.322,19.774-8.322,19.774s-1.851,12.293,4.394,9.1c0,0,7.4-10.244,9.475-10.7,1.033-.225,2.126-1.747,2.961-3.213l.044.027h0c.049,0,.253-.11.582-.242h0c1.538-.61,5.773-2.076,9.113-1.346,1.829.4,9.673.494,17.9.472-1.857,4.449-5.185,15.929-5.185,15.929S792.984,419,797.6,418.558c3.3-.324,8.349-8.745,10.986-13.551,1.911-1.4,7.388-6.421,11.436-6.042L847.3,388.5s6.471-3.642,3-15.7c-2.746-9.59-10.563-29.222-13.65-36.873h0l-.094-.2c-.747-1.851-1.2-2.95-1.2-2.95h0a45.153,45.153,0,0,1-2.477-10.826c-.027-.291-.049-.588-.071-.879a4.855,4.855,0,0,0,1.071-.621s-2.543-25.717,0-28.453h0l.044-.049h0v-.033h0l.044-.055h0l.1-.126h0l.121-.154h0c.137-.181.3-.406.489-.681h0c1.455-2.131,4.169-7,3.389-12.743h0q-.049-.374-.121-.753h0a15.7,15.7,0,0,0-1.582-4.46,12.33,12.33,0,0,1-.2-1.763v-1.56a5.283,5.283,0,0,1,.082-.791v-.1a.983.983,0,0,1,.049-.3V268.3a1.439,1.439,0,0,1,.066-.3v-.1c.033-.132.066-.264.11-.4v-.066q.049-.165.11-.324l.049-.126.11-.264.055-.132c.044-.1.093-.2.143-.3l.038-.082q.1-.181.209-.357l.061-.093.181-.258.088-.115.193-.231.088-.1c.1-.1.2-.209.307-.308,3-2.746,16.413-22.987,16.413-22.987s3.235-4.554,3.235-7.509C857.931,234.186,863.649,215.126,863.072,209.331Zm-35.994,170.14c-.33-3.12-.659-6.987-.961-10.986l5.229,8.151S830.852,379.119,827.078,379.471Z" transform="translate(-405.256 -153.377)"/><path class="z" d="M780.572,525.784s-3.131-4.944-7.833-.445-8.053,19.461-8.053,19.461-1.791,12.084,4.252,8.948c0,0,7.141-10.068,9.173-10.513s4.251-6.042,4.251-6.042Z" transform="translate(-413.271 -301.415)"/><path class="z" d="M845.384,548.833s-4.252-2.016-5.592-.445-5.817,17.226-5.817,17.226-1.34,10.294,3.131,9.843,12.3-16.566,12.3-16.566Z" transform="translate(-444.528 -312.386)"/><path class="aa" d="M845.384,548.833s-4.252-2.016-5.592-.445-5.817,17.226-5.817,17.226-1.34,10.294,3.131,9.843,12.3-16.566,12.3-16.566Z" transform="translate(-444.528 -312.386)"/><path class="ab" d="M867.8,471.935l9.618,14.99s-.67,3.356-6.487,2.686L851.02,502.14s-1.73,15.254,3.8,13.869c.9-.225,7.141-6.712,11.634-6.262l26.4-10.294s6.262-3.581,2.906-15.435-14.452-39.339-14.452-39.339l-17.539,9.81Z" transform="translate(-452.179 -265.913)"/><path class="ac" d="M867.8,471.935l9.618,14.99s-.67,3.356-6.487,2.686L851.02,502.14s-1.73,15.254,3.8,13.869c.9-.225,7.141-6.712,11.634-6.262l26.4-10.294s6.262-3.581,2.906-15.435-14.452-39.339-14.452-39.339l-17.539,9.81Z" transform="translate(-452.179 -265.913)"/><path class="ad" d="M845.687,480.84c1.34,8.5-6.262,9.173-6.262,9.173s-34.231.67-38.257-.225-9.4,1.565-9.4,1.565c-6.937-4.251-1.34-14.765-1.34-14.765s14.32-.445,17.676-1.1,20.356-1.582,20.356-1.582-1.34-8.278-10.294-29.3c-6.081-14.281-1.648-22.685,1.851-26.6a14.733,14.733,0,0,1,3.071-2.7l27.519,1.34a35.684,35.684,0,0,0,.154,4.158,44.278,44.278,0,0,0,3.653,13.732c-1.566,0-11.634,9.4-11.634,9.4S844.341,472.343,845.687,480.84Z" transform="translate(-424.024 -252.671)"/><path class="e" d="M792.442,477.5s14.32-.445,17.676-1.1,20.356-1.565,20.356-1.565-1.34-8.278-10.294-29.3c-6.08-14.281-1.648-22.685,1.851-26.6a14.735,14.735,0,0,1,3.07-2.7l25.5,1.241v-.8l-27.519-1.34a14.734,14.734,0,0,0-3.07,2.7c-3.483,3.922-7.932,12.32-1.851,26.6,8.975,21.01,10.3,29.288,10.3,29.288s-17.028.9-20.356,1.565-17.676,1.1-17.676,1.1-5.592,10.519,1.34,14.787c0,0,.209-.1.549-.242C787.712,486.391,792.442,477.5,792.442,477.5Z" transform="translate(-424.026 -252.684)"/><rect class="z" width="13.869" height="35.121" transform="translate(395.484 80.517)"/><rect class="e" width="13.869" height="35.121" transform="translate(395.484 80.517)"/><path class="z" d="M879.643,251.558c.478.132,1.016.148,1.34.807a4.946,4.946,0,0,1,.324,1.648l.873,10.854a6.045,6.045,0,0,0,.406,2.076c.368.736.978.824,1.456,1.3.961.956,1.241,3.351.978,5.3a34.812,34.812,0,0,1-1.45,5.383c-.747,2.527-1.241,5.366-2.29,7.5s-2.955,3.3-4.186,1.505-1.066-5.4-1.3-8.366c-.385-4.944-2.312-9.206-2.444-14.182-.11-4.026.972-7.783,1.648-11.6.483-2.62.511-5.8,1.214-8.157C876.8,248.421,877.924,251.085,879.643,251.558Z" transform="translate(-462.358 -176.193)"/><path class="e" d="M879.643,251.558c.478.132,1.016.148,1.34.807a4.946,4.946,0,0,1,.324,1.648l.873,10.854a6.045,6.045,0,0,0,.406,2.076c.368.736.978.824,1.456,1.3.961.956,1.241,3.351.978,5.3a34.812,34.812,0,0,1-1.45,5.383c-.747,2.527-1.241,5.366-2.29,7.5s-2.955,3.3-4.186,1.505-1.066-5.4-1.3-8.366c-.385-4.944-2.312-9.206-2.444-14.182-.11-4.026.972-7.783,1.648-11.6.483-2.62.511-5.8,1.214-8.157C876.8,248.421,877.924,251.085,879.643,251.558Z" transform="translate(-462.358 -176.193)"/><path class="ae" d="M765.362,214.732,760,219.209s-.637-.747-1.587-1.955c-3.729-4.762-12.3-16.709-6.245-18.846s10.848,9.514,12.54,14.325C765.131,213.952,765.362,214.732,765.362,214.732Z" transform="translate(-406.789 -154.796)"/><path class="ae" d="M945.923,213.277c-2.235,3.356-5.366,0-5.366,0s-.4-.6-.967-1.565c-1.84-3.114-5.449-10.019-3.059-12.754,2.746-3.125,9.552,7.542,9.761,12.546A2.977,2.977,0,0,1,945.923,213.277Z" transform="translate(-490.479 -154.907)"/><path class="ae" d="M854.08,288.36s4.477,14.32,3.131,18.566,9.623,9.19,9.623,9.19h12.529s4.477-9.173,3.356-11.859-10.738-4.7-10.738-4.7-5.592,0-5.367-14.99Z" transform="translate(-453.674 -193.748)"/><path class="e" d="M772.214,226.7l-5.367,4.477s-.637-.747-1.587-1.955c1.95-.346,4.976-3.191,6.3-4.521C771.983,225.919,772.214,226.7,772.214,226.7Z" transform="translate(-413.641 -166.764)"/><path class="e" d="M949.083,224.021c-2.236,3.356-5.367,0-5.367,0s-.4-.6-.967-1.565l.072-.225c1.45,1.038,5.959.154,6.63,0A2.978,2.978,0,0,1,949.083,224.021Z" transform="translate(-493.639 -165.65)"/><path class="e" d="M876.76,420.784c-6.921,3.158-29.409-2.466-30.76-2.8a14.74,14.74,0,0,1,3.071-2.7l27.519,1.34a35.65,35.65,0,0,0,.17,4.164Z" transform="translate(-450.032 -252.662)"/><path class="af" d="M816.616,272.949s-5.366,1.791-12.974-5.147c0,0-17.028-16.781-18.126-20.807l-13.183-23.07s-5.592,6.042-7.833,5.147L779.265,254.8s2.686,4.944,5.147,6.262c0,0,18.346,23.493,18.566,28.189s8.267,17.275,8.267,17.275,2.686,20.356-2.016,23.938c0,0,26.173,6.712,31.765,2.236,0,0-2.461-25.267,0-27.964,0,0,7.608-8.948,2.461-18.791,0,0-1.1-5.367,1.791-8.052s15.885-22.6,15.885-22.6,3.131-4.477,3.131-7.382c0,0,5.817-19.686,4.943-24.833,0,0-5.147,1.1-6.712,0,0,0-7.607,23.07-8.5,23.938s-7.141,19.016-15.435,21.032-9.618,2.906-9.618,2.906,16.105,10.068,8.278,14.539S816.616,272.949,816.616,272.949Z" transform="translate(-413.299 -166.033)"/><path class="e" d="M867.343,292.525a42.713,42.713,0,0,1-.324-6.355l-12.529,3.8a16.92,16.92,0,0,1,.786,2.571c1.434.632,3.367,2.126,5.031,2.126A11.409,11.409,0,0,0,867.343,292.525Z" transform="translate(-453.859 -194.469)"/><circle class="ae" cx="11.634" cy="11.634" r="11.634" transform="translate(394.589 76.266)"/><path class="e" d="M831.385,246.491c-2.56.2-5.416,1.966-5.273,4.532.077,1.412,1.043,2.6,1.466,3.955,1.016,3.268-1.247,6.548-3.235,9.338s-3.845,6.487-2.142,9.442a23.262,23.262,0,0,0,1.571,2.049c2.1,2.84,2.076,6.674,3.01,10.085a17.692,17.692,0,0,0,20.785,12.633,11.063,11.063,0,0,1-2.335-7.481c.126-1.956.758-4,0-5.806-.978-2.323-3.845-3.241-5.322-5.273s-1.379-4.85-.665-7.272,1.95-4.669,2.543-7.141a21.531,21.531,0,0,1,.549-2.137c1.033-2.933,4.12-4.636,7.141-5.366s6.2-.775,9.146-1.736,5.817-3.213,6.157-6.306c-2.483.994-4.784-1.6-7.179-2.79-3.944-1.955-8.443-.115-12.507.335C840.465,248.067,836.071,246.15,831.385,246.491Z" transform="translate(-439.005 -176.514)"/><path class="z" d="M830.975,245.681c-2.56.2-5.416,1.966-5.273,4.532.077,1.412,1.044,2.6,1.467,3.955,1.016,3.268-1.247,6.547-3.235,9.338s-3.845,6.487-2.142,9.442A23.3,23.3,0,0,0,823.362,275c2.1,2.84,2.076,6.674,3.01,10.085a17.692,17.692,0,0,0,20.785,12.633,11.063,11.063,0,0,1-2.334-7.481c.126-1.955.758-4,0-5.806-.978-2.323-3.845-3.241-5.323-5.273s-1.379-4.85-.665-7.272,1.95-4.669,2.543-7.141a21.47,21.47,0,0,1,.549-2.137c1.032-2.933,4.12-4.636,7.141-5.366s6.2-.774,9.145-1.736,5.817-3.213,6.157-6.306c-2.483.994-4.784-1.6-7.179-2.79-3.944-1.955-8.443-.115-12.507.335C840.066,247.252,835.688,245.313,830.975,245.681Z" transform="translate(-438.82 -176.149)"/><path class="e" d="M885.65,326.3s4.658,4.158,5.575,5.993" transform="translate(-467.903 -212.557)"/><path class="e" d="M889.5,371.51a50.1,50.1,0,0,0-8.5.67c-2.686.67-9.173,0-9.173,0" transform="translate(-461.67 -232.934)"/><g class="g" transform="translate(351.196 57.03)"><path d="M890.058,324.749a5.592,5.592,0,0,1-1.609.615,6.152,6.152,0,0,0,4.3-.615c7.833-4.477-8.278-14.539-8.278-14.539H881.78S897.89,320.278,890.058,324.749Z" transform="translate(-817.355 -262.335)"/><path d="M952.86,223.456a2.329,2.329,0,0,0-.055-.406,26.288,26.288,0,0,1-2.785.423A12.339,12.339,0,0,0,952.86,223.456Z" transform="translate(-848.112 -223.05)"/><path d="M811.915,335.392c4.7-3.581,2.016-23.938,2.016-23.938s-8.053-12.529-8.278-17.225-18.566-28.189-18.566-28.189c-2.461-1.34-5.147-6.262-5.147-6.262s-15.215-24.833-17.451-25.728l14.765,25.728s2.686,4.943,5.147,6.262c0,0,18.346,23.493,18.566,28.189s8.272,17.242,8.272,17.242,2.686,20.356-2.016,23.938c0,0,16.088,4.125,25.734,3.752C825.29,338.82,811.915,335.392,811.915,335.392Z" transform="translate(-764.49 -228.008)"/><path d="M859.129,314.05l-.132-.17a3.534,3.534,0,0,1-.467.1C858.739,314.012,858.936,314.034,859.129,314.05Z" transform="translate(-806.875 -263.989)"/></g><g class="g" transform="translate(427.48 57.003)"><path d="M933.624,223l-.137.027c-.236,6.871-5,23.015-5,23.015,0,2.906-3.131,7.382-3.131,7.382s-12.974,19.911-15.885,22.6-1.791,8.052-1.791,8.052l.027.055c-.088-1.807.132-4.608,1.983-6.322,2.906-2.686,15.885-22.6,15.885-22.6s3.131-4.477,3.131-7.382C928.7,247.86,934.519,228.174,933.624,223Z" transform="translate(-905.215 -223)"/><path d="M903.37,358.1c.335,1.9.11-.11.225,1.791,0,0,5.493-6.443,3.993-14.408C908.039,352.6,903.37,358.1,903.37,358.1Z" transform="translate(-903.37 -278.204)"/></g><ellipse class="ag" cx="234.911" cy="22.564" rx="234.911" ry="22.564" transform="translate(23.126 318.241)"/><path class="ah" d="M432.071,511.856c0,3.329-6.042,12.98-6.042,12.98s-6.042-9.651-6.042-12.98a6.042,6.042,0,1,1,12.051,0Z" transform="translate(-258.013 -293.266)"/><path class="ah" d="M450.172,542.8c-1.807,2.8-12.112,7.619-12.112,7.619s.187-11.376,1.994-14.172a6.042,6.042,0,1,1,10.118,6.553Z" transform="translate(-266.166 -305.778)"/><path class="ah" d="M447.6,598.569c-2.972,1.5-14.281.461-14.281.461s5.9-9.728,8.876-11.227a6.042,6.042,0,1,1,5.427,10.76Z" transform="translate(-264.03 -330.032)"/><path class="ah" d="M437.443,642.693c-2.675,1.977-14.023,2.873-14.023,2.873s4.174-10.585,6.855-12.568a6.042,6.042,0,0,1,7.141,9.689Z" transform="translate(-259.568 -350.395)"/><path class="ah" d="M413.234,557.038c2.389,2.318,13.512,4.724,13.512,4.724s-2.746-11.046-5.114-13.37a6.042,6.042,0,1,0-8.4,8.646Z" transform="translate(-254.006 -311.747)"/><path class="ah" d="M401.123,607.358c2.972,1.5,14.281.461,14.281.461s-5.883-9.728-8.854-11.2a6.042,6.042,0,0,0-5.427,10.76Z" transform="translate(-248.196 -334.186)"/><path class="ah" d="M396.769,658.21c2.675,1.977,14.023,2.873,14.023,2.873s-4.175-10.585-6.855-12.567a6.042,6.042,0,1,0-7.141,9.689Z" transform="translate(-246.259 -357.102)"/><path class="ai" d="M432.071,511.856c0,3.329-6.042,12.98-6.042,12.98s-6.042-9.651-6.042-12.98a6.042,6.042,0,1,1,12.051,0Z" transform="translate(-258.013 -293.266)"/><path class="ai" d="M450.172,542.8c-1.807,2.8-12.112,7.619-12.112,7.619s.187-11.376,1.994-14.172a6.042,6.042,0,1,1,10.118,6.553Z" transform="translate(-266.166 -305.778)"/><path class="ai" d="M447.6,598.569c-2.972,1.5-14.281.461-14.281.461s5.9-9.728,8.876-11.227a6.042,6.042,0,1,1,5.427,10.76Z" transform="translate(-264.03 -330.032)"/><path class="ai" d="M437.443,642.693c-2.675,1.977-14.023,2.873-14.023,2.873s4.174-10.585,6.855-12.568a6.042,6.042,0,0,1,7.141,9.689Z" transform="translate(-259.568 -350.395)"/><path class="ai" d="M413.234,557.038c2.389,2.318,13.512,4.724,13.512,4.724s-2.746-11.046-5.114-13.37a6.042,6.042,0,1,0-8.4,8.646Z" transform="translate(-254.006 -311.747)"/><path class="ai" d="M401.123,607.358c2.972,1.5,14.281.461,14.281.461s-5.883-9.728-8.854-11.2a6.042,6.042,0,0,0-5.427,10.76Z" transform="translate(-248.196 -334.186)"/><path class="ai" d="M396.769,658.21c2.675,1.977,14.023,2.873,14.023,2.873s-4.175-10.585-6.855-12.567a6.042,6.042,0,1,0-7.141,9.689Z" transform="translate(-246.259 -357.102)"/><path class="ah" d="M726.7,513.288c0,3.329-6.042,12.98-6.042,12.98s-6.042-9.651-6.042-12.98a6.042,6.042,0,0,1,12.051,0Z" transform="translate(-390.817 -294.313)"/><path class="ah" d="M744.822,543.5c-1.807,2.8-12.112,7.619-12.112,7.619s.187-11.376,1.994-14.171a6.042,6.042,0,1,1,10.118,6.553Z" transform="translate(-398.97 -306.093)"/><path class="ah" d="M742.281,599.26c-2.972,1.5-14.281.461-14.281.461s5.9-9.728,8.876-11.227a6.042,6.042,0,1,1,5.4,10.766Z" transform="translate(-396.847 -330.339)"/><path class="ah" d="M732.083,643.393c-2.675,1.977-14.023,2.873-14.023,2.873s4.174-10.585,6.855-12.568a6.042,6.042,0,0,1,7.141,9.689Z" transform="translate(-392.367 -350.711)"/><path class="ah" d="M707.894,557.738c2.389,2.318,13.512,4.724,13.512,4.724s-2.746-11.046-5.114-13.37a6.042,6.042,0,1,0-8.4,8.646Z" transform="translate(-386.815 -312.063)"/><path class="ah" d="M695.745,608.036c2.972,1.5,14.281.461,14.281.461s-5.9-9.728-8.876-11.227a6.042,6.042,0,0,0-5.427,10.76Z" transform="translate(-380.978 -334.479)"/><path class="ah" d="M692.129,659.434c2.675,1.977,14.023,2.873,14.023,2.873s-4.174-10.585-6.855-12.568a6.042,6.042,0,0,0-7.141,9.689Z" transform="translate(-379.773 -357.94)"/><path class="ai" d="M726.7,513.288c0,3.329-6.042,12.98-6.042,12.98s-6.042-9.651-6.042-12.98a6.042,6.042,0,0,1,12.051,0Z" transform="translate(-390.817 -294.313)"/><path class="ai" d="M744.822,543.5c-1.807,2.8-12.112,7.619-12.112,7.619s.187-11.376,1.994-14.171a6.042,6.042,0,1,1,10.118,6.553Z" transform="translate(-398.97 -306.093)"/><path class="ai" d="M742.281,599.26c-2.972,1.5-14.281.461-14.281.461s5.9-9.728,8.876-11.227a6.042,6.042,0,1,1,5.4,10.766Z" transform="translate(-396.847 -330.339)"/><path class="ai" d="M732.083,643.393c-2.675,1.977-14.023,2.873-14.023,2.873s4.174-10.585,6.855-12.568a6.042,6.042,0,0,1,7.141,9.689Z" transform="translate(-392.367 -350.711)"/><path class="ai" d="M707.894,557.738c2.389,2.318,13.512,4.724,13.512,4.724s-2.746-11.046-5.114-13.37a6.042,6.042,0,1,0-8.4,8.646Z" transform="translate(-386.815 -312.063)"/><path class="ai" d="M695.745,608.036c2.972,1.5,14.281.461,14.281.461s-5.9-9.728-8.876-11.227a6.042,6.042,0,0,0-5.427,10.76Z" transform="translate(-380.978 -334.479)"/><path class="ai" d="M692.129,659.434c2.675,1.977,14.023,2.873,14.023,2.873s-4.174-10.585-6.855-12.568a6.042,6.042,0,0,0-7.141,9.689Z" transform="translate(-379.773 -357.94)"/><path class="aj" d="M478.721,157.172H476.1a1.84,1.84,0,1,0,0-3.675H454.827a1.84,1.84,0,0,0,0,3.675h2.626a1.84,1.84,0,1,0,0,3.675h-3.675a1.84,1.84,0,1,0,0,3.675h21.268a1.84,1.84,0,1,0,0-3.675h3.675a1.84,1.84,0,0,0,0-3.675Z" transform="translate(-272.376 -134.67)"/><path class="ak" d="M174.528,634s9.612,18.868,1.78,29.189.714,38.45.714,38.45" transform="translate(-146.7 -351.243)"/><path class="ai" d="M176.619,617.851a11.118,11.118,0,0,1-2.67,6.591,9.472,9.472,0,0,1,0-13.183A11.117,11.117,0,0,1,176.619,617.851Z" transform="translate(-145.923 -340.993)"/><path class="ak" d="M180.868,634s-9.612,18.868-1.78,29.189-.714,38.45-.714,38.45" transform="translate(-148.058 -351.243)"/><path class="ah" d="M179.67,617.851a11.118,11.118,0,0,0,2.67,6.591,9.472,9.472,0,0,0,0-13.183A11.117,11.117,0,0,0,179.67,617.851Z" transform="translate(-149.705 -340.993)"/><path class="al" d="M179.67,617.851a11.118,11.118,0,0,0,2.67,6.591,9.472,9.472,0,0,0,0-13.183A11.117,11.117,0,0,0,179.67,617.851Z" transform="translate(-149.705 -340.993)"/><path class="ak" d="M190.748,634s9.612,18.868,1.78,29.189.714,38.45.714,38.45" transform="translate(-154.01 -351.243)"/><path class="ai" d="M192.789,617.851a11.118,11.118,0,0,1-2.67,6.591,9.472,9.472,0,0,1,0-13.183A11.117,11.117,0,0,1,192.789,617.851Z" transform="translate(-153.212 -340.993)"/><path class="ai" d="M189.112,645.372a11.1,11.1,0,0,1-6.492,2.895,9.457,9.457,0,0,1,9.135-9.486A11.215,11.215,0,0,1,189.112,645.372Z" transform="translate(-151.035 -353.397)"/><path class="al" d="M189.572,669.071a11.1,11.1,0,0,1-6.493,2.895,9.457,9.457,0,0,1,9.135-9.486A11.09,11.09,0,0,1,189.572,669.071Z" transform="translate(-151.242 -364.079)"/><path class="ai" d="M164.8,684.864a11.092,11.092,0,0,1,2.3,6.723,9.46,9.46,0,0,1-8.635-9.948A11.1,11.1,0,0,1,164.8,684.864Z" transform="translate(-140.149 -372.715)"/><path class="ah" d="M168.285,635.771a11.1,11.1,0,0,1,4.015,5.866,9.456,9.456,0,0,1-10.98-7.278A10.983,10.983,0,0,1,168.285,635.771Z" transform="translate(-141.434 -351.366)"/><path class="al" d="M168.285,635.771a11.1,11.1,0,0,1,4.015,5.866,9.456,9.456,0,0,1-10.98-7.278A10.983,10.983,0,0,1,168.285,635.771Z" transform="translate(-141.434 -351.366)"/><path class="ak" d="M197.068,634s-9.612,18.868-1.78,29.189-.714,38.45-.714,38.45" transform="translate(-155.359 -351.243)"/><path class="ah" d="M195.87,617.851a11.118,11.118,0,0,0,2.67,6.591,9.472,9.472,0,0,0,0-13.183A11.117,11.117,0,0,0,195.87,617.851Z" transform="translate(-157.007 -340.993)"/><path class="al" d="M195.87,617.851a11.118,11.118,0,0,0,2.67,6.591,9.472,9.472,0,0,0,0-13.183A11.117,11.117,0,0,0,195.87,617.851Z" transform="translate(-157.007 -340.993)"/><path class="ah" d="M195.016,648.978a11.249,11.249,0,0,0-2.746,6.591,11.083,11.083,0,0,0,6.525-2.818,11.248,11.248,0,0,0,2.746-6.591A11.084,11.084,0,0,0,195.016,648.978Z" transform="translate(-155.384 -356.723)"/><path class="al" d="M195.016,648.978a11.249,11.249,0,0,0-2.746,6.591,11.083,11.083,0,0,0,6.525-2.818,11.248,11.248,0,0,0,2.746-6.591A11.084,11.084,0,0,0,195.016,648.978Z" transform="translate(-155.384 -356.723)"/><path class="ai" d="M204.126,681.788a11.249,11.249,0,0,0-2.746,6.591,11.084,11.084,0,0,0,6.525-2.818,11.249,11.249,0,0,0,2.746-6.591A11.047,11.047,0,0,0,204.126,681.788Z" transform="translate(-159.49 -371.512)"/><path class="ak" d="M193,669.228s5.784-9.118,13.908-9.338" transform="translate(-155.713 -362.912)"/><path class="ak" d="M173.358,659.2s-5.784-9.118-13.908-9.338" transform="translate(-140.591 -358.391)"/><path class="ak" d="M183.4,682.9s5.784-9.118,13.908-9.338" transform="translate(-151.386 -369.073)"/><circle class="ai" cx="1.5" cy="1.5" r="1.5" transform="translate(49.415 295.429)"/><circle class="ai" cx="1.5" cy="1.5" r="1.5" transform="translate(17.502 290.046)"/><path class="ak" d="M179.738,688.338S173.954,679.22,165.83,679" transform="translate(-143.467 -371.525)"/><circle class="ai" cx="1.5" cy="1.5" r="1.5" transform="translate(21.006 306.063)"/><circle class="ai" cx="1.5" cy="1.5" r="1.5" transform="translate(44.532 303.064)"/><path class="am" d="M204.461,725.911s-13.941-2.79-17.665-6.509-20.444-10.222-22.306-5.575-25.1,20.45-9.294,23.24,37.181,3.719,41.828,1.856S204.461,725.911,204.461,725.911Z" transform="translate(-136.206 -386.495)"/><path class="an" d="M155.2,746.495c15.8,2.79,37.181,3.719,41.828,1.856,3.537-1.417,6-8.239,6.97-11.381l.467.1s-2.79,11.156-7.437,13.013S171,751.01,155.2,748.225c-4.559-.807-5.866-2.7-5.372-5.086C150.214,744.677,151.807,745.9,155.2,746.495Z" transform="translate(-136.211 -397.653)"/><path class="ai" d="M1009.539,641.78s4.6,6.042-2.126,15.105-12.276,16.759-10.03,22.427c0,0,10.151-16.879,18.412-17.116S1018.63,651.925,1009.539,641.78Z" transform="translate(-518.035 -354.749)"/><path class="e" d="M1009.753,641.78a7.45,7.45,0,0,1,.939,1.89c8.063,9.47,12.353,18.307,4.608,18.533-7.218.209-15.874,13.111-17.95,16.374a7.005,7.005,0,0,0,.247.741s10.151-16.879,18.412-17.116S1018.843,651.925,1009.753,641.78Z" transform="translate(-518.249 -354.749)"/><path class="ao" d="M1034.609,654.635c0,2.12-.236,3.845-.549,3.845s-.549-1.719-.549-3.845.3-1.1.588-1.1S1034.609,652.52,1034.609,654.635Z" transform="translate(-534.547 -359.936)"/><path class="ao" d="M1037.882,659.16c-1.862,1.016-3.482,1.648-3.62,1.368s1.253-1.291,3.115-2.3,1.126-.275,1.269,0S1039.738,658.144,1037.882,659.16Z" transform="translate(-534.881 -361.929)"/><path class="ai" d="M967.193,641.78s-4.6,6.042,2.126,15.105,12.276,16.759,10.03,22.427c0,0-10.151-16.879-18.412-17.116S958.1,651.925,967.193,641.78Z" transform="translate(-500 -354.749)"/><path class="e" d="M967.193,641.78a7.45,7.45,0,0,0-.939,1.89c-8.064,9.47-12.353,18.307-4.609,18.533,7.218.209,15.874,13.111,17.95,16.374a6.95,6.95,0,0,1-.247.741S969.2,662.438,960.937,662.2,958.1,651.925,967.193,641.78Z" transform="translate(-500 -354.749)"/><path class="ao" d="M960.09,654.635c0,2.12.236,3.845.549,3.845s.549-1.719.549-3.845-.3-1.1-.588-1.1S960.09,652.52,960.09,654.635Z" transform="translate(-501.455 -359.936)"/><path class="ao" d="M953.808,659.16c1.862,1.016,3.482,1.648,3.62,1.368s-1.252-1.291-3.114-2.3-1.126-.275-1.269,0S951.946,658.144,953.808,659.16Z" transform="translate(-498.112 -361.929)"/><path class="am" d="M962.76,702.966s12.87-.4,16.748-3.158,19.774-6.042,20.757-1.648,19.34,22.032,4.812,22.147-33.759-2.263-37.631-4.619S962.76,702.966,962.76,702.966Z" transform="translate(-502.658 -379.194)"/><path class="an" d="M1005.335,724.48c-14.528.115-33.759-2.263-37.631-4.619-2.95-1.8-4.125-8.239-4.515-11.211h-.428s.813,10.381,4.685,12.738,23.1,4.74,37.631,4.619c4.2-.033,5.641-1.527,5.564-3.735C1010.059,723.618,1008.482,724.453,1005.335,724.48Z" transform="translate(-502.658 -384.889)"/><path class="aj" d="M274.157,189.916h-3.449a2.417,2.417,0,1,0,0-4.828H242.76a2.417,2.417,0,0,0,0,4.828h3.45a2.417,2.417,0,0,0,0,4.828h-4.828a2.417,2.417,0,0,0,0,4.828h27.947a2.417,2.417,0,1,0,0-4.828h4.828a2.417,2.417,0,0,0,0-4.828Z" transform="translate(-176.482 -148.908)"/></g></svg>