<svg xmlns="http://www.w3.org/2000/svg" width="47.505" height="59.226" viewBox="0 0 47.505 59.226"><defs><style>.a{fill:#909090;}</style></defs><g transform="translate(0)"><path class="a" d="M70.94,0A23.772,23.772,0,0,0,47.2,23.74a23.367,23.367,0,0,0,.422,4.457c.012.087.062.348.161.795a23.381,23.381,0,0,0,1.589,4.681C51.931,39.7,57.555,48.945,69.9,58.854a1.681,1.681,0,0,0,2.111,0C84.337,48.945,89.975,39.7,92.532,33.673a23.118,23.118,0,0,0,1.589-4.681c.1-.447.149-.708.161-.795a24.414,24.414,0,0,0,.422-4.457A23.809,23.809,0,0,0,70.94,0ZM90.955,27.614c0,.025-.012.05-.012.074-.012.062-.05.248-.112.534v.025A19.711,19.711,0,0,1,89.453,32.3c-.012.012-.012.037-.025.05-2.322,5.5-7.413,13.894-18.488,23.045C59.865,46.239,54.774,37.845,52.452,32.345c-.012-.012-.012-.037-.025-.05a21.027,21.027,0,0,1-1.378-4.048v-.025c-.074-.286-.1-.472-.112-.534,0-.025-.012-.05-.012-.087a20.387,20.387,0,1,1,40.03.012Z" transform="translate(-47.2)"/><path class="a" d="M132.074,71.9a15.074,15.074,0,1,0,15.074,15.074A15.1,15.1,0,0,0,132.074,71.9Zm0,26.795a11.721,11.721,0,1,1,11.721-11.721A11.735,11.735,0,0,1,132.074,98.695Z" transform="translate(-108.333 -62.973)"/></g></svg>