<svg xmlns="http://www.w3.org/2000/svg" width="74.17" height="56.637" viewBox="0 0 74.17 56.637"><defs><style>.a{fill:#fff;}.b{fill:#101010;}</style></defs><g transform="translate(-0.83 -0.925)"><path class="a" d="M205.311,38.022a.709.709,0,0,1-.464.07q-11.94,0-23.88,0c-.534,0-.534,0-.339-.512q3.882-10.158,7.765-20.315,1.958-5.12,3.908-10.242a.4.4,0,0,1,.44-.315q6.191.007,12.382,0a.4.4,0,0,1,.091.013c-7.482,2.883-11.574,8.234-11.524,16.388A15.039,15.039,0,0,0,197.1,32.4,16.287,16.287,0,0,0,205.311,38.022Z" transform="translate(-164.24 -5.785)"/><path class="a" d="M702.21,14.3a14.734,14.734,0,0,1-1.109,4.756,60.978,60.978,0,0,1-3.8,7.819c-.606,1.082-1.232,2.153-1.846,3.231-.341.6-.339.6-.99.388q-2.844-.925-5.661-1.931c-.388-.139-.436-.285-.321-.652a16.73,16.73,0,0,0,.79-5.174,22.607,22.607,0,0,0-.549-3.895c-.595-3.213-.271-6.28,1.793-8.954a6.267,6.267,0,0,1,4.266-2.509,6.728,6.728,0,0,1,6.534,3.223,7.124,7.124,0,0,1,.8,2.84A5.732,5.732,0,0,1,702.21,14.3Z" transform="translate(-627.218 -6.351)"/><path class="a" d="M160.856,466.419a8.791,8.791,0,0,1-5.644-1.789,8.354,8.354,0,0,1-3.121-5.032,8.773,8.773,0,0,1,1.555-7.237,8.091,8.091,0,0,1,5.3-3.22,9.621,9.621,0,0,1,6.228.8,8.133,8.133,0,0,1,4.414,5.843,8.735,8.735,0,0,1-1.628,7.381,8.18,8.18,0,0,1-4.917,3.049A10.326,10.326,0,0,1,160.856,466.419Z" transform="translate(-138.145 -408.899)"/><path class="a" d="M384.721,455.447c0,1.828.008,3.656,0,5.484a5.126,5.126,0,0,1-4.427,5.375,8.826,8.826,0,0,1-4.6-.085,4.982,4.982,0,0,1-3.635-4.332,7.733,7.733,0,0,1-.073-1.141c0-3.612.006-7.223-.012-10.834,0-.417.127-.48.511-.5,1.418-.081,2.835-.206,4.25-.336.357-.033.48.036.478.428-.016,3.508-.009,7.016-.011,10.524a3.856,3.856,0,0,0,.083.871,1.049,1.049,0,0,0,1.112.907.978.978,0,0,0,1.035-.866,4.5,4.5,0,0,0,.071-.7c0-3.464.005-6.928-.009-10.391,0-.352.1-.419.439-.439,1.447-.088,2.893-.214,4.339-.337.315-.027.465.013.461.4C384.709,451.467,384.721,453.457,384.721,455.447Z" transform="translate(-338.763 -409.006)"/><path class="a" d="M547.074,462.979a.684.684,0,0,0-.09.49c0,1.946-.006,3.892,0,5.839,0,.257-.047.368-.336.426-.451.09-.905.05-1.357.111-.957.127-1.93.134-2.894.206-.279.021-.379-.047-.378-.349q.013-8.183,0-16.365c0-.287.075-.373.367-.372,1.961.012,3.923-.033,5.883.02a7.06,7.06,0,0,1,4.3,1.253,4.9,4.9,0,0,1,1.839,3.085,5.211,5.211,0,0,1-.22,2.939,3.581,3.581,0,0,1-1.748,2c-.318.158-.318.316-.192.605.922,2.126,1.823,4.263,2.747,6.388.139.319.139.441-.249.495-.5.069-.994.046-1.492.1-1.063.121-2.138.126-3.2.206a.421.421,0,0,1-.5-.342q-1.189-3.262-2.39-6.521C547.143,463.141,547.12,463.092,547.074,462.979Z" transform="translate(-493.767 -412.551)"/><path class="a" d="M438.181,101.781a7.32,7.32,0,1,1-7.318,6.688A7.3,7.3,0,0,1,438.181,101.781Z" transform="translate(-392.426 -92.444)"/><path class="a" d="M706.186,461.263a30.079,30.079,0,0,0,3.614.5,5.347,5.347,0,0,0,1.788-.151c.354-.086.676-.205.727-.648.054-.466-.22-.695-.583-.875-.719-.358-1.5-.558-2.235-.879a6.076,6.076,0,0,1-2.836-2.115,5.683,5.683,0,0,1,.288-5.772,5.885,5.885,0,0,1,3.673-2.106,14.325,14.325,0,0,1,4.463-.018c.479.055.951.15,1.431.191.287.025.391.15.387.449-.015,1.356-.013,2.713,0,4.068,0,.3-.045.372-.362.274a12.7,12.7,0,0,0-3.146-.512,4.429,4.429,0,0,0-1.567.158.635.635,0,0,0-.508.542.627.627,0,0,0,.378.672,13.541,13.541,0,0,0,1.689.717,10.85,10.85,0,0,1,2.8,1.514,4.269,4.269,0,0,1,1.576,2.559,5.152,5.152,0,0,1-.87,4.242,5.708,5.708,0,0,1-3.243,2.032,14.5,14.5,0,0,1-5.19.286c-.626-.06-1.236-.2-1.857-.28-.286-.038-.458-.127-.451-.493.026-1.326.01-2.653.011-3.98C706.163,461.517,706.177,461.4,706.186,461.263Z" transform="translate(-643.247 -408.966)"/><path class="a" d="M6.1,34.15Q8.2,38.677,10.3,43.2q2.129,4.585,4.272,9.163a.7.7,0,0,1,.034.656q-2.259,4.792-4.492,9.6a.712.712,0,0,1-.782.5c-.957-.032-1.916-.027-2.874,0-.358.01-.436-.109-.435-.448.012-2.933.007-5.867.007-8.8V34.154Z" transform="translate(-5.19 -30.797)"/><path class="a" d="M6.45,457.99c.351-1.6.694-3.156,1.038-4.718.042-.19.166-.241.357-.241q5.152.008,10.3,0c.27,0,.31.107.308.339-.008,1.43-.012,2.86,0,4.289,0,.286-.1.342-.356.337-.781-.015-1.562.013-2.343-.013-.338-.012-.412.093-.411.418.012,3.626,0,7.251.016,10.877,0,.336-.06.475-.422.529-.481.072-.963.046-1.446.105-1,.124-2.018.125-3.026.206-.366.03-.43-.1-.429-.434.011-3.714,0-7.428.019-11.143,0-.48-.143-.576-.585-.562C8.474,458.012,7.473,457.99,6.45,457.99Z" transform="translate(-5.582 -412.617)"/><path class="a" d="M660.01,261.854a5,5,0,0,1,.728-2.767c.412-.743.819-1.488,1.178-2.258.1-.219.193-.266.427-.176,2.038.783,4.081,1.551,6.122,2.325.152.058.285.111.218.339a17.651,17.651,0,0,1-1.9,4.81,3.8,3.8,0,0,1-5.128,1.234A3.847,3.847,0,0,1,660.01,261.854Z" transform="translate(-601.309 -233.575)"/><path class="a" d="M120.53,6.95h6.589C126.7,8.292,126.3,9.6,125.9,10.921c-.51,1.681-1.008,3.366-1.523,5.046-.046.149-.012.394-.315.381-.25-.01-.265-.181-.323-.344q-1.571-4.391-3.144-8.782A2.732,2.732,0,0,1,120.53,6.95Z" transform="translate(-109.569 -6.004)"/><path class="b" d="M218.6,508.615a3.666,3.666,0,1,1-3.374-3.815A3.628,3.628,0,0,1,218.6,508.615Z" transform="translate(-192.288 -459.799)"/><path class="b" d="M598.034,508.963c0-.56.008-1.121,0-1.681-.005-.222.053-.3.293-.311,1.162-.045,1.779.314,2.054,1.231a2.753,2.753,0,0,1,0,1.551,1.8,1.8,0,0,1-2.2,1.206c-.2-.058-.139-.2-.14-.316C598.03,510.084,598.034,509.524,598.034,508.963Z" transform="translate(-544.821 -461.782)"/></g></svg>