<svg xmlns="http://www.w3.org/2000/svg" width="49" height="49" viewBox="0 0 49 49"><defs><style>.a{fill:#334d5c;}.b{opacity:0.1;}.c{fill:#27a2db;}.d{fill:#e56353;}.e{fill:#fcd462;}.f{fill:#dc8744;}.g{fill:#f6c358;}</style></defs><g transform="translate(0 0.353)"><ellipse class="a" cx="24.5" cy="24.232" rx="24.5" ry="24.232" transform="translate(0 -0.353)"/><path class="b" d="M72.566,46.966A30.7,30.7,0,0,1,46.144,70.575L30.483,54.914l3.6-9.611-.153-.153v-.2l-1.822-1.822.179-.819-1.541-1.541.537-1.209L29.9,38.173l1.023-1.407-1.3-1.3,1.362-1.221L29.9,32.751l1.592-.914-.748-1.675,1.746-.563-.384-1.8,1.829-.185-.006-1.842,1.829.2.377-1.8,1.746.569.742-1.675,1.592.921L41.29,22.5l1.362,1.234L44.014,22.5l1.336,1.336,1.33-.767,1.445,1.445,1.042-.339,1.656,1.656.55-.058Z" transform="translate(-23.958 -21.928)"/><g transform="translate(11.592 6.708)"><g transform="translate(0.863 15.037)"><path class="c" d="M38.318,66.148,35.5,62.488l-4.532.907,6.509-17.38,7.353,2.754Z" transform="translate(-30.965 -46.014)"/><path class="d" d="M53.866,66.148l2.821-3.661,4.532.907-6.509-17.38-7.353,2.754Z" transform="translate(-36.875 -46.014)"/></g><path class="e" d="M42.651,23.732,44.013,22.5l1.077,1.488,1.589-.922.744,1.68,1.746-.571.378,1.8,1.827-.2,0,1.837L53.2,27.8l-.386,1.8,1.748.564-.751,1.677,1.593.915-1.083,1.484,1.368,1.226L54.318,36.69,55.4,38.174l-1.593.915.751,1.677-1.748.564.386,1.8-1.827.188,0,1.837-1.827-.2-.378,1.8-1.746-.571-.744,1.68-1.589-.922-1.077,1.488L42.651,47.2l-1.363,1.232-1.077-1.488-1.589.922-.744-1.68-1.746.571-.378-1.8-1.827.2,0-1.837-1.827-.188.386-1.8-1.748-.564.751-1.677L29.9,38.174l1.083-1.484-1.368-1.226,1.368-1.226L29.9,32.754l1.593-.915-.751-1.677,1.748-.564-.386-1.8,1.827-.188,0-1.837,1.827.2.378-1.8,1.746.571.744-1.68,1.589.922L41.288,22.5Z" transform="translate(-29.616 -22.5)"/><circle class="f" cx="9.604" cy="9.604" r="9.604" transform="translate(3.432 3.36)"/><circle class="g" cx="8.49" cy="8.49" r="8.49" transform="translate(4.545 4.473)"/><path class="f" d="M46.284,32.97,48.321,37.1l4.554.662-3.3,3.212.778,4.536-4.073-2.141-4.073,2.141.778-4.536-3.3-3.212,4.554-.662Z" transform="translate(-33.249 -26.275)"/></g></g></svg>