<svg xmlns="http://www.w3.org/2000/svg" width="45.276" height="43.766" viewBox="0 0 45.276 43.766"><defs><style>.a{fill:#fff;}</style></defs><g transform="translate(0 -7.982)"><g transform="translate(0 22.357)"><g transform="translate(0)"><path class="a" d="M38.47,160.017H.648a.647.647,0,0,0-.648.647H0v18.154a.647.647,0,0,0,.647.648H26.366a.648.648,0,1,0,0-1.3H1.3V161.313H37.82v1.621a.647.647,0,0,0,.647.648h0a.647.647,0,0,0,.648-.647v-2.271A.648.648,0,0,0,38.47,160.017Z" transform="translate(0 -160.017)"/></g></g><g transform="translate(1.512 12.524)"><path class="a" d="M48.555,62.842,18.3,56.035a.648.648,0,0,0-.775.492l-1.513,6.808a.649.649,0,1,0,1.266.281l1.371-6.173L48.27,64.107a.611.611,0,0,0,.143.016.648.648,0,0,0,.141-1.281Z" transform="translate(-15.995 -56.019)"/></g><g transform="translate(9.821 7.982)"><g transform="translate(0 0)"><path class="a" d="M124.452,15.6,106.3,8.032a.651.651,0,0,0-.832.309l-1.513,3.026a.65.65,0,0,0,1.144.619q.01-.019.019-.038v0l1.241-2.484,17.593,7.33a.65.65,0,1,0,.5-1.2Z" transform="translate(-103.875 -7.982)"/></g></g><g transform="translate(24.205 25.383)"><path class="a" d="M262.652,192.017h-6a.648.648,0,0,0,0,1.3h6a.648.648,0,0,0,0-1.3Z" transform="translate(-256 -192.017)"/></g><g transform="translate(12.146 25.426)"><g transform="translate(0 0)"><path class="a" d="M135.112,192.473a6.656,6.656,0,1,0,6.656,6.656A6.656,6.656,0,0,0,135.112,192.473Zm0,12.1a5.446,5.446,0,1,1,5.446-5.446A5.446,5.446,0,0,1,135.112,204.575Z" transform="translate(-128.456 -192.473)"/></g></g><g transform="translate(28.635 27.544)"><g transform="translate(0 0)"><path class="a" d="M311.176,214.873c-4.009,0-8.32.947-8.32,3.026v18.154c0,2.079,4.311,3.026,8.32,3.026s8.32-.947,8.32-3.026V217.9C319.5,215.82,315.185,214.873,311.176,214.873Zm6.808,21.168c-.114.42-2.383,1.524-6.808,1.524s-6.693-1.1-6.808-1.513v-1.189a20.076,20.076,0,0,0,13.615,0Zm0-3.026c-.114.42-2.383,1.524-6.808,1.524s-6.693-1.1-6.808-1.513v-1.189a20.076,20.076,0,0,0,13.615,0Zm0-3.026c-.114.42-2.383,1.524-6.808,1.524s-6.693-1.1-6.808-1.513v-1.189a20.076,20.076,0,0,0,13.615,0Zm0-3.026c-.114.42-2.383,1.524-6.808,1.524s-6.693-1.1-6.808-1.513v-1.189a20.076,20.076,0,0,0,13.615,0Zm0-3.026c-.114.42-2.383,1.524-6.808,1.524s-6.693-1.1-6.808-1.513v-1.189a20.076,20.076,0,0,0,13.615,0Zm0-3.026c-.114.42-2.383,1.524-6.808,1.524s-6.693-1.1-6.808-1.513v-1.189a20.076,20.076,0,0,0,13.615,0Zm-6.808-1.5c-4.418,0-6.686-1.1-6.808-1.5v0c.122-.421,2.389-1.522,6.808-1.522,4.387,0,6.656,1.085,6.808,1.513C317.833,218.327,315.564,219.411,311.176,219.411Z" transform="translate(-302.856 -214.873)"/></g></g><g transform="translate(3.025 25.383)"><path class="a" d="M41.718,204.119H36l-2.711-2.965v-4.917l2.994-2.923h5.435a.648.648,0,0,0,0-1.3h-5.7a.649.649,0,0,0-.454.184l-3.379,3.3a.813.813,0,0,0-.2.529v5.38a.649.649,0,0,0,.169.437l3.073,3.361a.648.648,0,0,0,.479.211h6a.648.648,0,1,0,0-1.3Z" transform="translate(-31.992 -192.017)"/></g><g transform="translate(16.533 28.678)"><path class="a" d="M177.5,229.52h-.756c-.235,0-.378-.132-.378-.189s.143-.189.378-.189h1.891a.756.756,0,1,0,0-1.513h-.756a.756.756,0,0,0-1.513,0v.034a1.761,1.761,0,0,0-1.513,1.664,1.806,1.806,0,0,0,1.891,1.706h.756c.235,0,.378.132.378.189s-.143.189-.378.189h-1.891a.756.756,0,1,0,0,1.513h.756a.756.756,0,1,0,1.513,0v-.034a1.761,1.761,0,0,0,1.513-1.664A1.806,1.806,0,0,0,177.5,229.52Z" transform="translate(-174.856 -226.873)"/></g></g></svg>