<svg xmlns="http://www.w3.org/2000/svg" width="49" height="49" viewBox="0 0 49 49"><defs><style>.a{fill:#e05b49;}.b{opacity:0.1;}.c{fill:#3ea69b;}.d{fill:#44c4a1;}.e{fill:#fcd462;}.f{fill:#27a2db;}.g{fill:#1c75a1;}</style></defs><g transform="translate(0.014)"><circle class="a" cx="24.5" cy="24.5" r="24.5" transform="translate(-0.014 0)"/><path class="b" d="M123.44,105.6a50.246,50.246,0,0,1,.492,8.535l-1.333.282a3.9,3.9,0,0,0-1.984,1.148l-2.917,3.168a3.944,3.944,0,0,1-1.133.846l-1.287-1.287h-6.12v14.855l10.268,10.268A24.576,24.576,0,0,0,147.379,120.7l-13.866-13.866C129.55,104.724,127.792,104.509,123.44,105.6Z" transform="translate(-98.44 -94.656)"/><path class="c" d="M261.868,106.837a60.09,60.09,0,0,0-3.595,14.179,55.464,55.464,0,0,1-6.349-.776,60.15,60.15,0,0,0-.132-14.634C256.142,104.514,257.9,104.73,261.868,106.837Z" transform="translate(-226.718 -94.518)"/><path class="d" d="M263.792,126.484c-1.518-.162-2.256-.253-3.769-.461a.972.972,0,0,0-.736-1.127,78.77,78.77,0,0,0,.147-11.57c.688-.2,1.233-.73,1.2-1.277a8,8,0,0,1,5.874.718,1.478,1.478,0,0,0,.863,1.529,78.724,78.724,0,0,0-2.6,11.27A.967.967,0,0,0,263.792,126.484Z" transform="translate(-233.46 -100.673)"/><g transform="translate(26.848 11.935)"><path class="c" d="M272.163,163.368a2.371,2.371,0,0,1,2.162,2.606,2.524,2.524,0,0,1-4.878-.6A2.359,2.359,0,0,1,272.163,163.368Z" transform="translate(-269.445 -158.998)"/><path class="c" d="M296.175,119.9a.537.537,0,0,1,.508.567.577.577,0,1,1-.508-.567Z" transform="translate(-292.933 -119.9)"/><ellipse class="c" cx="0.392" cy="0.483" rx="0.392" ry="0.483" transform="matrix(-0.993, -0.119, 0.119, -0.993, 2.072, 13.023)"/></g><path class="d" d="M278.122,172.621c-.136-.033-.2-.049-.34-.08a2.449,2.449,0,0,1-.7,1.161c-.136-.178-.2-.267-.343-.444a1.943,1.943,0,0,0,.534-.824c-.364-.07-.546-.1-.913-.149a2.379,2.379,0,0,1-.436.822.73.73,0,0,1-.631.214.815.815,0,0,1-.626-.357,1.336,1.336,0,0,1-.223-.821l-.239,0c.008-.131.012-.2.019-.327h.246a2.285,2.285,0,0,1,.439-1.068c.175.137.262.207.432.351a1.763,1.763,0,0,0-.345.73c.362.015.543.027.9.064l0-.016a2.107,2.107,0,0,1,.456-.842.756.756,0,0,1,.7-.181.893.893,0,0,1,.647.462,1.428,1.428,0,0,1,.142.9c.135.031.2.048.338.082C278.157,172.428,278.145,172.492,278.122,172.621Zm-3.073-.089a.32.32,0,0,0,.251.15.325.325,0,0,0,.259-.084,1.154,1.154,0,0,0,.219-.38c-.328-.032-.493-.043-.823-.058A.652.652,0,0,0,275.049,172.532Zm2.216-.842a.352.352,0,0,0-.257-.2.327.327,0,0,0-.284.07,1.132,1.132,0,0,0-.241.4c.343.048.514.077.855.145A.783.783,0,0,0,277.265,171.691Z" transform="translate(-246.88 -153.731)"/><path class="c" d="M263.627,120.881a56.643,56.643,0,0,0-7.477,12.238,57.811,57.811,0,0,1-5.733-3.029,59.8,59.8,0,0,0,4.111-14.016C258.926,116.6,260.515,117.439,263.627,120.881Z" transform="translate(-225.492 -104.528)"/><path class="d" d="M264.3,141.311c-1.377-.7-2.044-1.054-3.4-1.8a1.053,1.053,0,0,0-.365-1.341,77.936,77.936,0,0,0,3.486-10.99,1.338,1.338,0,0,0,1.5-.786,8.317,8.317,0,0,1,5.3,2.8,1.593,1.593,0,0,0,.367,1.77,74.5,74.5,0,0,0-5.7,9.821A.888.888,0,0,0,264.3,141.311Z" transform="translate(-234.594 -113.819)"/><g transform="translate(28.076 14.087)"><path class="c" d="M289.345,179.247a2.579,2.579,0,0,1,1.274,3.266,2.141,2.141,0,0,1-2.98.6,2.537,2.537,0,0,1-1.425-2.925A2.179,2.179,0,0,1,289.345,179.247Z" transform="translate(-285.677 -175.195)"/><path class="c" d="M329.285,141.579a.586.586,0,0,1,.313.724.491.491,0,0,1-.7.15.582.582,0,0,1-.326-.692A.5.5,0,0,1,329.285,141.579Z" transform="translate(-323.862 -141.504)"/><path class="c" d="M282.385,251.225a.481.481,0,0,1,.158.623.408.408,0,0,1-.544.251.483.483,0,0,1-.158-.622A.406.406,0,0,1,282.385,251.225Z" transform="translate(-281.792 -240.206)"/></g><path class="d" d="M294.846,186.267c-.118-.081-.177-.12-.3-.2a2.22,2.22,0,0,1-.993.856c-.076-.219-.114-.329-.193-.547a1.757,1.757,0,0,0,.739-.594c-.321-.2-.484-.293-.813-.472a2.165,2.165,0,0,1-.647.628.693.693,0,0,1-.654-.023.9.9,0,0,1-.484-.566,1.4,1.4,0,0,1,.029-.864l-.224-.088.112-.3.231.089a2.108,2.108,0,0,1,.72-.861c.125.194.186.292.3.491a1.615,1.615,0,0,0-.534.572c.336.145.5.222.829.386l.006-.014a1.916,1.916,0,0,1,.672-.639.728.728,0,0,1,.706.078.987.987,0,0,1,.473.674,1.467,1.467,0,0,1-.127.912c.118.079.177.119.293.2Zm-2.858-1.192a.352.352,0,0,0,.192.233.309.309,0,0,0,.267.013,1.046,1.046,0,0,0,.315-.284c-.3-.149-.45-.219-.755-.352A.68.68,0,0,0,291.988,185.075Zm2.323,0a.39.39,0,0,0-.185-.28.316.316,0,0,0-.287-.036,1.023,1.023,0,0,0-.342.294c.308.17.46.259.76.447A.805.805,0,0,0,294.312,185.07Z" transform="translate(-262.278 -165.052)"/><path class="e" d="M167.155,201.27h0a1.929,1.929,0,0,0-1.907-1.949h-.129a21.477,21.477,0,0,0-4.273,0h-.254v.029a9.96,9.96,0,0,0-1.419.259l-.1-2.94-1.337.283a3.835,3.835,0,0,0-1.984,1.144l-2.918,3.168a3.835,3.835,0,0,1-2.821,1.237h-.369L148.2,212.969l3.653.032c5.191,2.051,11.438,1.329,11.438,1.329h.537a1.928,1.928,0,0,0,1.907-1.949h0a1.951,1.951,0,0,0-1.107-1.768h.132a1.928,1.928,0,0,0,1.907-1.949h0a1.951,1.951,0,0,0-1.081-1.755,1.937,1.937,0,0,0,1.569-1.917h0a1.946,1.946,0,0,0-1.338-1.861A1.946,1.946,0,0,0,167.155,201.27Z" transform="translate(-133.466 -177.11)"/><rect class="f" width="6.12" height="14.854" transform="translate(10.875 23.701)"/><circle class="g" cx="1.073" cy="1.073" r="1.073" transform="translate(12.858 35.128)"/></g></svg>