<svg xmlns="http://www.w3.org/2000/svg" width="55.697" height="45.206" viewBox="0 0 55.697 45.206"><defs><style>.a{fill:#909090;}</style></defs><g transform="translate(0 0)"><path class="a" d="M0,59.983V84.558a6.8,6.8,0,0,0,6.8,6.8H48.9a6.8,6.8,0,0,0,6.8-6.8V59.983a6.471,6.471,0,0,0-6.468-6.468H40.181l-.216-.943a8.262,8.262,0,0,0-8.093-6.422H23.813a8.281,8.281,0,0,0-8.093,6.422l-.216.943H6.468A6.479,6.479,0,0,0,0,59.983ZM16.618,56.3a1.385,1.385,0,0,0,1.353-1.08l.466-2.023a5.5,5.5,0,0,1,5.376-4.263h8.059A5.5,5.5,0,0,1,37.249,53.2l.466,2.023a1.4,1.4,0,0,0,1.353,1.08H49.218A3.682,3.682,0,0,1,52.9,59.983V84.558a4.012,4.012,0,0,1-4.012,4.012H6.8a4.012,4.012,0,0,1-4.012-4.012V59.983A3.682,3.682,0,0,1,6.468,56.3Z" transform="translate(0 -46.15)"/><circle class="a" cx="1.864" cy="1.864" r="1.864" transform="translate(7.559 14.231)"/><path class="a" d="M153.8,198.543a11.7,11.7,0,1,0-11.7-11.7A11.715,11.715,0,0,0,153.8,198.543Zm0-20.608a8.912,8.912,0,1,1-8.912,8.912A8.926,8.926,0,0,1,153.8,177.935Z" transform="translate(-125.948 -160.487)"/></g></svg>