<svg xmlns="http://www.w3.org/2000/svg" width="43.737" height="43.742" viewBox="0 0 43.737 43.742"><defs><style>.a{fill:#fff;}</style></defs><g transform="translate(-0.027)"><g transform="translate(9.317)"><path class="a" d="M121.335,0a12.568,12.568,0,0,0-9.759,20.488q.02.031.044.061l9.041,11.583a.854.854,0,0,0,1.347,0l9.085-11.644.009-.012A12.568,12.568,0,0,0,121.335,0Zm8.422,19.423-.031.04-8.391,10.755-8.306-10.642a.857.857,0,0,0-.07-.1,10.86,10.86,0,1,1,16.8-.057Z" transform="translate(-108.767)"/></g><g transform="translate(14.197 5.066)"><path class="a" d="M180.946,64.8a.854.854,0,0,0-1.639.483,5.98,5.98,0,1,1-4.032-4.035.854.854,0,1,0,.485-1.638,7.688,7.688,0,1,0,5.185,5.19Z" transform="translate(-165.884 -59.293)"/></g><g transform="translate(25.863 7.068)"><path class="a" d="M303.91,83l-.015-.015a.854.854,0,0,0-1.208,1.208l.015.015A.854.854,0,0,0,303.91,83Z" transform="translate(-302.436 -82.73)"/></g><g transform="translate(0.027 24.45)"><path class="a" d="M35.019,287.822a.854.854,0,1,0-.534,1.623c4.741,1.56,7.571,3.9,7.571,6.252,0,1.991-2.054,4.006-5.635,5.528A38.332,38.332,0,0,1,21.9,303.772,38.332,38.332,0,0,1,7.37,301.225c-3.581-1.522-5.635-3.536-5.635-5.528,0-1.668,1.438-3.362,4.05-4.77a31.04,31.04,0,0,1,11-3.035.854.854,0,1,0-.184-1.7,32.751,32.751,0,0,0-11.632,3.23C1.738,291.169.027,293.338.027,295.7c0,2.75,2.371,5.271,6.675,7.1A40.057,40.057,0,0,0,21.9,305.48,40.056,40.056,0,0,0,37.089,302.8c4.3-1.829,6.675-4.351,6.675-7.1C43.764,292.521,40.577,289.651,35.019,287.822Z" transform="translate(-0.027 -286.188)"/></g><g transform="translate(30.057 25.036)"><path class="a" d="M352.584,293.071l-.03-.006a.854.854,0,0,0-.338,1.675l.03.006a.854.854,0,0,0,.338-1.675Z" transform="translate(-351.531 -293.048)"/></g><g transform="translate(13.743 28.106)"><path class="a" d="M162.271,329.668a.854.854,0,0,0-1.005-.67l-.059.014a.854.854,0,1,0,1.064.656Z" transform="translate(-160.577 -328.982)"/></g><g transform="translate(8.922 27.4)"><path class="a" d="M119.967,320.718a.854.854,0,1,0-.133,1.7c5.578.437,8.548,2.068,8.548,3.078,0,.487-.777,1.315-2.965,2.044a30.822,30.822,0,0,1-16.6,0c-2.189-.729-2.965-1.556-2.965-2.044,0-.445.6-1.007,1.615-1.5a.854.854,0,1,0-.751-1.534c-2.126,1.04-2.573,2.225-2.573,3.036,0,3.211,6.527,4.891,12.974,4.891s12.974-1.68,12.974-4.891C130.09,322.555,124.637,321.084,119.967,320.718Z" transform="translate(-104.143 -320.716)"/></g></g></svg>