<svg xmlns="http://www.w3.org/2000/svg" xmlns:xlink="http://www.w3.org/1999/xlink" width="378.594" height="382.778" viewBox="0 0 378.594 382.778"><defs><style>.a{fill:#c9ffdf;}.b{fill:url(#a);}.c{fill:#6c63ff;}.d{fill:#098b3d;}.e{fill:#01b148;}.f{fill:#535461;}.g{fill:#774e55;}.h{fill:#5c3d53;}.i{opacity:0.05;}.j{fill:#f8bdc5;}.k{fill:#2f2e41;}.l{fill:#d3a438;}.m{fill:#3f3d56;opacity:0.1;}.n{fill:none;stroke:#535461;stroke-miterlimit:10;stroke-width:2px;}</style><linearGradient id="a" x1="0.5" y1="1" x2="0.5" gradientUnits="objectBoundingBox"><stop offset="0" stop-color="gray" stop-opacity="0.251"/><stop offset="0.54" stop-color="gray" stop-opacity="0.122"/><stop offset="1" stop-color="gray" stop-opacity="0.102"/></linearGradient></defs><g transform="translate(-77.069 0.079)"><rect class="a" width="41.433" height="15.537" rx="5.17" transform="translate(184.277 39.841)"/><rect class="a" width="41.433" height="15.537" rx="5.17" transform="translate(307.54 25.857)"/><rect class="a" width="41.433" height="15.537" rx="5.17" transform="translate(284.752 183.821)"/><rect class="a" width="41.433" height="15.537" rx="5.17" transform="translate(303.397 200.912)"/><rect class="a" width="41.433" height="15.537" rx="5.17" transform="translate(414.23 193.143)"/><rect class="a" width="41.433" height="15.537" rx="5.17" transform="translate(77.069 205.573)"/><rect class="a" width="41.433" height="15.537" rx="5.17" transform="translate(271.804 218.003)"/><path class="b" d="M613.6,174.831l-18.987-55.116-6.826,1.036-6.111.782c.155-2.072.425-9.509-3.366-13.409a10.188,10.188,0,0,0-3.2-4.563c-9.084-8.328-10.975,8.706-10.975,8.706s-2.072,3.594-4.925,8.618l-1.5-.285-.425,3.708c-6.319,11.171-14.714,26.289-14.714,27.708a18.723,18.723,0,0,1-1.134,5.3s-6.433,10.6-8.706,15.9a25.424,25.424,0,0,1-5.7,8.328s-.549.419-1.45,1.036a12.947,12.947,0,0,1,.518-2.957c.829-2.709,2.755-5.029,3.268-7.815a9.126,9.126,0,0,0,.135-2.025c.119-3.268-1.471-6.484-2.134-9.752-.772-3.786-.357-7.955-2.377-11.244a11.6,11.6,0,0,0-7.173-4.8c-2.631-.658-5.221-.425-7.872-.7-2.434-.259-4.76-1.336-7.194-1.735a9.287,9.287,0,0,0-3.947,0c-4.117,1.134-5.407,6.324-8.587,9.177-1.145,1.036-2.548,1.751-3.584,2.885a8.669,8.669,0,0,0-1.953,6.215,13.244,13.244,0,0,0,.135,2.263c.394,2.709,1.44,5.272,2.072,7.929a27.449,27.449,0,0,1,.772,6c0,.456,0,.912-.041,1.362a4.781,4.781,0,0,1-.7,2.59,7.314,7.314,0,0,1-2.367,1.683,18.36,18.36,0,0,1-5.966-8.463s-.14.176-.378.518v-.518s-5.179-7.6-5.966-13.813l1.8.186,4.143-58.291-10.581-1.554c-.3-3.009-1.1-7.375-3.227-10.56,1.776-3.5,2.672-8.24-5.117-8.711-9.115-.554-8.556,6.546-7.587,10.431a26.128,26.128,0,0,0-.518,6.448l-9.322-1.357-.052.756h-2.217L432.79,156.2l5.78-.29,21.183,2.206c1.694,15.4,4.356,34.426,7.515,38.911a3.821,3.821,0,0,0,.347.43V224.7s-.378,35.218-6.816,40.879a33.664,33.664,0,0,1,12.316-1.932q-.109.35-.218.746A66.083,66.083,0,0,0,470.934,275q-.135,1.186-.243,2.476a133.549,133.549,0,0,0,.326,23.684c2.652,28.009,6.816,48.073,6.816,48.073l1.16,16.283s-1.134,27.631,1.89,36.715a13.71,13.71,0,0,0,3.874,2.512c.026.259.057.518.083.792s.067.7.1,1.062c-1.357.616-3.889,3.061-4.439,12.663,0,0,.756,7.194-1.134,10.6s-.756,13.248,4.92,14.382a30.337,30.337,0,0,0,10.975,0s2.652,0,.756-9.462l-.331-2.424c-.041-4.687.155-9.706,1.088-11.2,1.89-3.03-.756-6.054-.756-6.054s-.186.1-.492.243a44.77,44.77,0,0,1-.9-10.1,7.243,7.243,0,0,1,.078-.8,15.941,15.941,0,0,0,3.206-2.211V366.272s-.378-55.261,3.786-56.4c0,0,1.89,20.059,1.134,29.9a93.942,93.942,0,0,0,1.134,20.442l.756,40.123s.725.347,1.9.756l-.078.73c-.461,4.459-1.2,11.192-1.875,15.315a3.045,3.045,0,0,0-1.839,2.123c-1.134,3.786-.378,13.248-2.652,15.9-1.341,1.554-2.947,4.718-2.16,6.956-.492,1.963-.275,5.029,5.568,5.537,8.706.756,12.492-3.786,12.492-3.786s1.134-1.89,0-5.3.378-9.462.378-9.462.813-5.138-.518-5.811c-.114-.611-.218-1-.218-1a4.558,4.558,0,0,0-1.2-3.149c-.031-3.962.129-11.29,1.523-16.117.083-.275.166-.518.254-.8a10.225,10.225,0,0,0,3.2-1.124s-.378-8.706,2.274-14.76,1.134-30.282,1.134-30.282-1.134-6.365.466-11.524a113.08,113.08,0,0,0,4.112-17.505l2.232-15.636s5.878-19.033-1.864-38.569q-.474-1.212-1.036-2.424c-.642-1.4-1.357-2.812-2.154-4.211-.124-.218-.259-.44-.388-.658.813-.2,1.274-.321,1.274-.321s-10.219-23.824-3.786-35.959c0,0,3.625-3.625,4.143-7.608.642-5.267,1.341-10.529,2.491-15.708l.2-.912s.031-.176.083-.492c.145-.093.285-.192.425-.3,10.907-7.966,20.312-41.226,20.312-41.226l3.03-5.7,1.44-3.045-2.952,25.756,23.089,5.7,14.761-1.134-.042-3.175L600,180.543Zm-146.362-75.1-4.1-.6c-.72-3.7-1.207-6.132-1.207-6.132a22.5,22.5,0,0,0,2.274-3.4c1.984,3.035,2.745,7.178,3.035,10.115Zm-15.32-7.95c.285.974.544,1.6.544,1.6l.518,4.273-1.4-.2a28.07,28.07,0,0,1,.342-5.692ZM581.3,121.62l-5.552.715a20.815,20.815,0,0,0,1.186-9.483,4.76,4.76,0,0,0,1.523-3.962c3.3,3.941,2.988,10.9,2.843,12.715Zm-9.219-5.909a13.755,13.755,0,0,0,4.521-2.543,21.04,21.04,0,0,1-1.274,9.219l-5.179.663-1.429-.274Z" transform="translate(-227.905 -80.5)"/><path class="c" d="M689.81,133.355,676.3,139,660.6,84.257l3.682-4.371,6.748-1.046Z" transform="translate(-305.101 -38.046)"/><path class="d" d="M689.81,133.355,676.3,139,660.6,84.257l3.682-4.371,6.748-1.046Z" transform="translate(-305.101 -38.046)"/><path class="c" d="M645.881,80.86,622.43,83.869l12.021,57.923,23.446-1.823Z" transform="translate(-286.7 -39.02)"/><path class="e" d="M645.881,80.86,622.43,83.869l12.021,57.923,23.446-1.823Z" transform="translate(-286.7 -39.02)"/><path class="f" d="M712.051,149.032l-.373-.047c0-.14,1.554-13.813-7.028-15.537l.073-.368C713.672,134.877,712.082,148.892,712.051,149.032Z" transform="translate(-358.965 -105.886)"/><rect class="g" width="25.833" height="37.813" transform="translate(266.335 83.056)"/><rect width="25.833" height="37.813" transform="translate(266.335 83.056)"/><path class="c" d="M655.92,148.013l-14.6,1.124,2.248-56.9,4.863-2.994,6.738,1.124Z" transform="translate(-295.806 -43.06)"/><path class="d" d="M655.92,148.013l-14.6,1.124,2.248-56.9,4.863-2.994,6.738,1.124Z" transform="translate(-295.806 -43.06)"/><path class="e" d="M627.176,85.055l-23.208-4.5-6.738,58.778,22.835,5.614Z" transform="translate(-274.551 -38.875)"/><path class="c" d="M381.81,35.03h-3.372L371.7,93.8l14.973-.746Z" transform="translate(-165.826 -16.926)"/><path class="d" d="M381.81,35.03h-3.372L371.7,93.8l14.973-.746Z" transform="translate(-165.826 -16.926)"/><path class="e" d="M385.217,33.58,381.1,92.731l35.938,3.745,4.117-57.654Z" transform="translate(-170.358 -16.227)"/><path class="h" d="M529.2,706.809s-4.49-.373-5.241,12.73c0,0,.751,7.111-1.124,10.483s-.751,13.1,4.868,14.227a30,30,0,0,0,10.876,0s2.621,0,.751-9.359l-3.745-27.33Z" transform="translate(-270.908 -382.473)"/><path class="i" d="M529.2,706.809s-4.49-.373-5.241,12.73c0,0,.751,7.111-1.124,10.483s-.751,13.1,4.868,14.227a30,30,0,0,0,10.876,0s2.621,0,.751-9.359l-3.745-27.33Z" transform="translate(-270.908 -382.473)"/><path class="j" d="M562.584,269.813a25.054,25.054,0,0,0,.792,8.8l-9.731,2.621s-16.1,2.248-9.732-4.143c2.2-2.2,3.284-5.977,3.755-9.965a55.2,55.2,0,0,0,.275-8.2,73.1,73.1,0,0,0-.663-7.665s23.586-8.235,18.344,5.241a47.923,47.923,0,0,0-2.253,7.51A39.6,39.6,0,0,0,562.584,269.813Z" transform="translate(-280.758 -161.659)"/><path d="M570.145,256.513a47.93,47.93,0,0,0-2.253,7.51,16.128,16.128,0,0,1-15.429-5.086,73.1,73.1,0,0,0-.663-7.665S575.386,243.037,570.145,256.513Z" transform="translate(-285.278 -161.664)"/><circle class="j" cx="16.097" cy="16.097" r="16.097" transform="translate(263.155 69.766)"/><path class="j" d="M496.56,176.126v4.868l-8.235,21.338-2.248-2.248a3.769,3.769,0,0,1-.342-.425c-5.438-7.727-9.395-59.1-9.395-59.1L471.1,97.123s-5.614-13.466,6.733-12.73,2.621,12.352,2.621,12.352,8.235,41.179,7.111,42.676,0,5.992,0,5.992,3.372,8.613,2.994,14.973S496.56,176.126,496.56,176.126Z" transform="translate(-245.762 -82.401)"/><path class="j" d="M657.139,138.39,637.67,179.569l-2.994,5.6s-9.322,32.9-20.09,40.775a9.837,9.837,0,0,1-2,1.155l-2.248-17.972,2.072-5.221.155-.4a25.143,25.143,0,0,0,5.614-8.235c2.248-5.241,8.613-15.724,8.613-15.724a18.51,18.51,0,0,0,1.124-5.241c0-2.248,21.338-39.31,21.338-39.31s1.87-16.848,10.876-8.613S657.139,138.39,657.139,138.39Z" transform="translate(-313.5 -101.568)"/><path class="j" d="M544.6,713.174s-12.73,5.241-11.234.373c.912-2.952.575-8.53.171-12.43-.259-2.543-.549-4.4-.549-4.4l10.876,1.124a8.8,8.8,0,0,0-.627,2.978C542.882,705.789,544.6,713.174,544.6,713.174Z" transform="translate(-276.21 -377.61)"/><path class="j" d="M582.451,695.115C580.488,701.931,581,713.8,581,713.8s-11.606,1.5-10.482-1.5c.782-2.072,1.927-12.337,2.548-18.37.275-2.636.445-4.464.445-4.464l10.483,2.248A10.473,10.473,0,0,0,582.451,695.115Z" transform="translate(-294.265 -374.115)"/><path d="M533,696.69l10.876,1.124a8.8,8.8,0,0,0-.627,2.978,11.1,11.1,0,0,1-9.685.3C533.29,698.539,533,696.69,533,696.69Z" transform="translate(-276.215 -377.595)"/><path d="M586.443,691.713a10.472,10.472,0,0,0-1.554,3.4,20.136,20.136,0,0,1-9.379-1.181c.274-2.636.445-4.464.445-4.464Z" transform="translate(-296.709 -374.115)"/><path class="k" d="M565.092,479.037,562.885,494.5a111.826,111.826,0,0,1-4.071,17.314c-1.585,5.1-.461,11.394-.461,11.394s1.5,23.959-1.124,29.951-2.248,14.6-2.248,14.6c-5.992,3.372-14.6-.751-14.6-.751l-.751-39.682a92.9,92.9,0,0,1-1.124-20.2c.746-9.716-1.124-29.573-1.124-29.573-4.143,1.124-3.744,55.779-3.744,55.779V568.9c-8.986,7.862-16.848,0-16.848,0-2.994-8.986-1.87-36.316-1.87-36.316l-1.124-16.1a472.781,472.781,0,0,1-6.733-47.544,132.069,132.069,0,0,1-.321-23.425q.109-1.274.238-2.45a65.351,65.351,0,0,1,1.937-10.488,23.611,23.611,0,0,1,1.139-3.32l40.226,1.87,2.372.109,5.7.264c.622.937,1.207,1.89,1.751,2.843.787,1.383,1.5,2.776,2.129,4.143.362.8.7,1.6,1.036,2.4C570.918,460.2,565.092,479.037,565.092,479.037Z" transform="translate(-263.378 -248.671)"/><path d="M521.255,436.465s-1.761,17.609-14.175,12.513q.109-1.274.238-2.45c2.921.792,11.006,1.885,11.311-10.068Z" transform="translate(-263.719 -252.142)"/><path d="M604.138,442.623c-8.6,3.071-11.84-5.107-12.948-9.773l2.372.109c1.29,7.339,6.438,7.769,9.571,7.251Q603.661,441.437,604.138,442.623Z" transform="translate(-304.268 -250.402)"/><path class="h" d="M534.492,719.95c-1.911-.3-4.832-1.352-3.915-5.024,0,0-3.537-1.222-3.164,13.378,0,0-.373,7.111-1.124,8.613s0,10.483,7.862,9.732c0,0,5.614,1.87,7.111-1.124,0,0-1.124-17.221.751-20.2s-.751-5.992-.751-5.992-2.652,1.471-4.558,1.036A20.025,20.025,0,0,0,534.492,719.95Z" transform="translate(-272.87 -386.375)"/><path class="h" d="M559.716,755.985s-3.745,6.365,4.868,7.111,12.352-3.745,12.352-3.745,1.124-1.87,0-5.241.373-9.359.373-9.359,1.124-7.111-1.5-5.614S559.716,755.985,559.716,755.985Z" transform="translate(-288.704 -397.959)"/><path class="i" d="M559.716,755.985s-3.745,6.365,4.868,7.111,12.352-3.745,12.352-3.745,1.124-1.87,0-5.241.373-9.359.373-9.359,1.124-7.111-1.5-5.614S559.716,755.985,559.716,755.985Z" transform="translate(-288.704 -397.959)"/><path class="h" d="M569.422,727.335s-4.49-1.87-5.614,1.87-.373,13.1-2.621,15.724-5.241,9.732,3.745,9.359,10.876-3.372,10.876-3.372-.373-9.359.751-11.979,0-6.733,0-6.733S576.906,726.936,569.422,727.335Z" transform="translate(-288.673 -392.144)"/><circle cx="0.751" cy="0.751" r="0.751" transform="translate(223.84 21.844)"/><circle cx="0.751" cy="0.751" r="0.751" transform="translate(239.564 23.713)"/><path class="f" d="M486.28,111.182h-.373c0-.161.264-15.952-8.8-17.407a4.77,4.77,0,0,0-4.34,1.2c-3.745,3.713-2.2,14.2-2.18,14.3l-.368.057c-.067-.44-1.59-10.783,2.289-14.626a5.112,5.112,0,0,1,4.661-1.31C486.549,94.9,486.285,111.022,486.28,111.182Z" transform="translate(-245.778 -86.713)"/><path class="f" d="M704.1,152.194l-.337-.161c.057-.124,5.827-12.622-1.8-16.977l.186-.326C710.075,139.257,704.166,152.065,704.1,152.194Z" transform="translate(-357.673 -106.682)"/><path d="M563.377,295.667l-9.731,2.621s-16.1,2.248-9.732-4.143c2.2-2.2,3.284-5.977,3.755-9.965,2.543,3.988,5.6,2.854,5.6,2.854l9.281-.181h.036A24.924,24.924,0,0,0,563.377,295.667Z" transform="translate(-280.758 -178.73)"/><path d="M614.6,299.866a9.84,9.84,0,0,1-2,1.155l-2.248-17.971,2.072-5.221.518-.4C617.616,278.761,615.2,295.977,614.6,299.866Z" transform="translate(-313.505 -175.476)"/><path d="M511.364,261.54v4.868l-8.235,21.338-2.248-2.248a3.775,3.775,0,0,1-.342-.425C501.514,273.949,511.364,261.54,511.364,261.54Z" transform="translate(-260.567 -167.815)"/><path d="M562.47,434.326c-5.236,1.31-32.571,7.732-40.682,1.652a18.483,18.483,0,0,0-10.5-3.418,23.6,23.6,0,0,1,1.139-3.32l40.226,1.87,2.372.109,5.7.264Q561.657,432.9,562.47,434.326Z" transform="translate(-265.749 -248.661)"/><path class="j" d="M474.1,90.59s5.614,9.359,9.359,0" transform="translate(-247.82 -85.402)"/><path class="j" d="M696.857,127.81s-2.248,11.234,6.733,5.992" transform="translate(-355.088 -103.346)"/><g transform="translate(246.437 180.594)"><path d="M552.193,526.193c-.181-2.279-.316-3.7-.316-3.7-4.143,1.124-3.744,55.779-3.744,55.779v35.565a13.021,13.021,0,0,1-7.432,3.454c2.7.238,5.925-.518,9.322-3.454V578.269S549.732,538.664,552.193,526.193Z" transform="translate(-526.364 -474.21)"/><path d="M566.267,440.9c-.316-.8-.653-1.6-1.036-2.4-.632-1.388-1.341-2.781-2.129-4.143-.518-.953-1.129-1.9-1.75-2.843l-5.7-.264-2.372-.109-40.226-1.87-.036.083,38.393,1.787,2.372.109,5.7.264c.621.937,1.207,1.89,1.75,2.843.787,1.383,1.5,2.776,2.129,4.143.363.8.7,1.6,1.036,2.4,7.655,19.318,1.844,38.144,1.844,38.144l-2.206,15.465a111.833,111.833,0,0,1-4.071,17.314c-1.585,5.1-.461,11.394-.461,11.394s1.5,23.959-1.124,29.951-2.248,14.6-2.248,14.6a10.876,10.876,0,0,1-4.692,1.295A11.911,11.911,0,0,0,558,567.765s-.373-8.613,2.248-14.6,1.124-29.951,1.124-29.951-1.124-6.3.461-11.394a111.819,111.819,0,0,0,4.071-17.314l2.206-15.465S573.921,460.2,566.267,440.9Z" transform="translate(-513.02 -429.27)"/></g><path class="l" d="M536.413,276.729c5.179,2.439,17.3-6.93,17.3-6.93,5.241,1.5,1.5,23.213,1.5,23.213l-.2.9c-1.139,5.122-1.828,10.327-2.465,15.537-.482,3.931-4.071,7.525-4.071,7.525-6.365,11.979,3.745,35.565,3.745,35.565s-32.572,8.613-41.552,1.87-22.462-1.5-22.462-1.5c6.365-5.614,6.733-40.433,6.733-40.433V285.549c.751-11.234,10.876-23.959,10.876-23.959,4.143,11.606,15.656,12.373,15.656,12.373,2.553,4.143,5.7,2.978,5.7,2.978Z" transform="translate(-254.618 -167.839)"/><path d="M545.422,202.365a9.183,9.183,0,0,0-3.9,0c-4.071,1.124-5.35,6.256-8.494,9.074-1.129,1.036-2.522,1.73-3.548,2.854-1.823,2-2.191,4.962-1.8,7.639s1.424,5.215,2.072,7.841a27.135,27.135,0,0,1,.72,8.038,4.728,4.728,0,0,1-.694,2.543c-.751,1.036-2.134,1.362-3.107,2.191-2.973,2.558-.518,7.867-2.7,11.135-.937,1.414-2.693,2.346-3.05,4a5.479,5.479,0,0,0,.813,3.444c1.388,2.849,2.828,5.775,5.179,7.9s5.257,3.19,8.147,4.273c.875.326,1.973.611,2.641-.036.823-.808.2-2.175-.368-3.175-.9-1.554-1.605-3.429-1.077-5.179s2.222-2.911,3.361-4.371c2.937-3.781,1.973-9.208.518-13.766-.616-1.921-1.31-3.967-.787-5.92.223-.839.663-1.6.943-2.424,1.243-3.667-.844-7.691-.233-11.513a16.541,16.541,0,0,1,1.554-4.283l3.289-7.07a6.984,6.984,0,0,1,1.455-2.289,5.179,5.179,0,0,1,3.625-1.129,9.841,9.841,0,0,1,7.059,3.216c3.522,3.915,3.3,9.84,2.874,15.061l-.306,3.77c-.223,2.714-.518,5.609-2.227,7.722-1.331,1.637-3.48,2.75-4.029,4.791-.476,1.756.42,3.662-.052,5.417-.7,2.626-3.947,3.574-5.661,5.7a5.827,5.827,0,0,0-.425,6.552c.653,1.036,1.694,2.072,1.554,3.289-.119.979-1,1.771-.994,2.755a2.191,2.191,0,0,0,1.59,1.9,6.422,6.422,0,0,0,2.626.124l9.286-.839a3.268,3.268,0,0,0,1.652-.456,2.908,2.908,0,0,0,.948-2.118c.373-3.3-.518-6.914,1.134-9.8.518-.927,1.279-1.7,1.854-2.59,3.17-4.972-.026-11.715,1.7-17.355.818-2.678,2.724-4.977,3.232-7.727.673-3.667-1.238-7.251-1.978-10.876-.761-3.745-.352-7.867-2.351-11.125a11.442,11.442,0,0,0-7.09-4.744c-2.589-.653-5.179-.42-7.769-.7C550.13,203.82,547.831,202.754,545.422,202.365Z" transform="translate(-270.36 -139.187)"/><path class="g" d="M545.422,200.915a9.181,9.181,0,0,0-3.9,0c-4.071,1.124-5.35,6.256-8.494,9.074-1.129,1.036-2.522,1.73-3.548,2.854-1.823,2-2.191,4.962-1.8,7.639s1.424,5.215,2.072,7.841a27.135,27.135,0,0,1,.72,8.038,4.728,4.728,0,0,1-.694,2.543c-.751,1.036-2.134,1.362-3.107,2.191-2.973,2.559-.518,7.867-2.7,11.135-.937,1.414-2.693,2.346-3.05,4a5.479,5.479,0,0,0,.813,3.444c1.388,2.849,2.828,5.775,5.179,7.9s5.257,3.19,8.147,4.273c.875.326,1.973.611,2.641-.036.823-.808.2-2.175-.368-3.175-.9-1.554-1.605-3.429-1.077-5.179s2.222-2.911,3.361-4.371c2.937-3.781,1.973-9.208.518-13.766-.616-1.921-1.31-3.967-.787-5.92.223-.839.663-1.6.943-2.424,1.243-3.667-.844-7.691-.233-11.513a16.536,16.536,0,0,1,1.554-4.283l3.289-7.07a6.984,6.984,0,0,1,1.455-2.289,5.179,5.179,0,0,1,3.625-1.129,9.841,9.841,0,0,1,7.059,3.216c3.522,3.915,3.3,9.84,2.874,15.061l-.306,3.77c-.223,2.714-.518,5.609-2.227,7.722-1.331,1.637-3.48,2.75-4.029,4.791-.476,1.756.42,3.662-.052,5.417-.7,2.626-3.947,3.574-5.661,5.7a5.827,5.827,0,0,0-.425,6.552c.653,1.036,1.694,2.072,1.554,3.289-.119.979-1,1.771-.994,2.755a2.191,2.191,0,0,0,1.59,1.9,6.423,6.423,0,0,0,2.626.124l9.286-.839a3.268,3.268,0,0,0,1.652-.456,2.908,2.908,0,0,0,.948-2.118c.373-3.3-.518-6.914,1.134-9.8.518-.927,1.279-1.7,1.854-2.59,3.17-4.972-.026-11.715,1.7-17.355.818-2.678,2.724-4.977,3.232-7.727.673-3.667-1.238-7.251-1.978-10.876-.761-3.745-.352-7.867-2.351-11.125a11.442,11.442,0,0,0-7.09-4.744c-2.589-.653-5.179-.419-7.769-.7C550.13,202.376,547.831,201.309,545.422,200.915Z" transform="translate(-270.36 -138.488)"/><path d="M529.75,364.271s7.489,2.248,18.345-2.621H553.7s.373,5.241,14.973,2.994" transform="translate(-274.648 -216.077)"/><ellipse class="m" cx="122.723" cy="25.378" rx="122.723" ry="25.378" transform="translate(144.791 331.944)"/><rect class="a" width="41.433" height="15.537" rx="5.17" transform="translate(143.88 133.583)"/><rect class="a" width="41.433" height="15.537" rx="5.17" transform="translate(162.525 150.674)"/><rect class="a" width="41.433" height="15.537" rx="5.17" transform="translate(325.667 134.619)"/><rect class="a" width="41.433" height="15.537" rx="5.17" transform="translate(344.312 151.71)"/><rect class="a" width="41.433" height="15.537" rx="5.17" transform="translate(130.932 167.766)"/><rect class="a" width="41.433" height="15.537" rx="5.17" transform="translate(172.365 228.361)"/><rect class="a" width="41.433" height="15.537" rx="5.17" transform="translate(191.01 245.453)"/><rect class="a" width="41.433" height="15.537" rx="5.17" transform="translate(159.417 262.544)"/><rect class="a" width="41.433" height="15.537" rx="5.17" transform="translate(339.133 271.866)"/><rect class="a" width="41.433" height="15.537" rx="5.17" transform="translate(307.54 288.957)"/><g transform="translate(193.656 276.555)"><path class="n" d="M248.721,674.84s-4.024-20.4,4.262-34.384A31.51,31.51,0,0,0,257.328,621a53,53,0,0,0-1.937-9.493" transform="translate(-236.353 -598.086)"/><path class="e" d="M264.281,590.169c-.223,2.434-5.283,9.089-5.283,9.089s-3.76-7.463-3.537-9.9a4.428,4.428,0,0,1,8.8.808Z" transform="translate(-240.069 -585.592)"/><path class="e" d="M275.444,615.19c-1.512,1.922-9.374,4.76-9.374,4.76s.9-8.287,2.413-10.229a4.428,4.428,0,0,1,6.961,5.469Z" transform="translate(-245.188 -596.458)"/><path class="e" d="M269.7,658.292c-2.274.9-10.493-.621-10.493-.621s4.972-6.733,7.251-7.613a4.428,4.428,0,0,1,3.247,8.235Z" transform="translate(-241.881 -616.544)"/><path class="e" d="M258.616,691.3c-2.072,1.269-10.446,1.16-10.446,1.16s3.765-7.463,5.858-8.732a4.428,4.428,0,1,1,4.589,7.572Z" transform="translate(-236.558 -632.567)"/><path class="e" d="M247.125,623.416c1.59,1.859,9.566,4.361,9.566,4.361s-1.248-8.287-2.838-10.12a4.43,4.43,0,0,0-6.733,5.759Z" transform="translate(-235.539 -600.302)"/><path class="e" d="M233.651,661.157c2.072,1.295,10.431,1.3,10.431,1.3s-3.667-7.51-5.738-8.8a4.428,4.428,0,1,0-4.693,7.51Z" transform="translate(-228.555 -618.078)"/><path class="e" d="M227.205,700.717c1.823,1.626,10.063,3.045,10.063,3.045s-2.341-8.022-4.143-9.649a4.428,4.428,0,1,0-5.894,6.609Z" transform="translate(-225.75 -637.367)"/></g><g transform="translate(326.256 295.244)"><path class="n" d="M254.339,665.826s3.026-17.5-3.2-29.49a30.151,30.151,0,0,1-3.267-16.684,51.1,51.1,0,0,1,1.456-8.142" transform="translate(-238.443 -599.997)"/><path class="e" d="M255.452,589.518c.167,2.088,3.972,7.8,3.972,7.8s2.827-6.4,2.66-8.488a3.451,3.451,0,0,0-3.6-3.217,3.66,3.66,0,0,0-3.023,3.91Z" transform="translate(-249.065 -585.592)"/><path class="e" d="M266.721,614.185c1.137,1.648,7.048,4.082,7.048,4.082s-.678-7.107-1.815-8.773a3.054,3.054,0,0,0-4.612-.551A4.168,4.168,0,0,0,266.721,614.185Z" transform="translate(-266.07 -598.119)"/><path class="e" d="M261.226,657.083c1.709.769,7.889-.533,7.889-.533s-3.738-5.775-5.452-6.53a3.221,3.221,0,0,0-4.221,2.182,4.007,4.007,0,0,0,1.779,4.881Z" transform="translate(-258.745 -621.277)"/><path class="e" d="M249.842,690.126c1.558,1.088,7.854.995,7.854.995s-2.831-6.4-4.4-7.489a2.981,2.981,0,0,0-3.373-.143,4.074,4.074,0,0,0-.077,6.637Z" transform="translate(-241.603 -639.751)"/><path class="e" d="M253.248,622.375c-1.2,1.595-7.192,3.74-7.192,3.74s.938-7.107,2.134-8.679a3.055,3.055,0,0,1,4.7-.418,4.18,4.18,0,0,1,.366,5.357Z" transform="translate(-236.689 -602.552)"/><path class="e" d="M239.411,659.993c-1.558,1.111-7.843,1.115-7.843,1.115s2.757-6.441,4.315-7.551a3.1,3.1,0,0,1,4.587,1.208A4.122,4.122,0,0,1,239.412,660Z" transform="translate(-216 -623.046)"/><path class="e" d="M233.316,699.617c-1.371,1.395-7.566,2.612-7.566,2.612s1.76-6.88,3.115-8.275a3.05,3.05,0,0,1,4.7.306,4.181,4.181,0,0,1-.269,5.362Z" transform="translate(-207.168 -645.285)"/></g></g></svg>