<svg xmlns="http://www.w3.org/2000/svg" width="440.849" height="316.835" viewBox="0 0 440.849 316.835"><defs><style>.a{fill:#e1e4ad;}.b{fill:#01b148;}.c{fill:#6c63ff;}.d{fill:#2f2e41;}.e{opacity:0.1;}.f{fill:#a0616a;}.g{fill:#d0cde1;}.h{fill:#cfa032;}.i{fill:#f6c555;}</style></defs><g transform="translate(0 -0.035)"><circle class="a" cx="136.32" cy="136.32" r="136.32" transform="translate(45.042 40.642)"/><path class="b" d="M935.128,244.022l-14.222,16.862c-.767,7.263-1.856,15.378-3.4,23.892L940.874,260.6l.109.422a65.6,65.6,0,0,0-5.986-17.4Z" transform="translate(-570.526 -167.438)"/><path class="b" d="M926.365,238.833,940.141,222.5a34.559,34.559,0,0,0-11.365-12.985c-.237-.152-.475-.3-.714-.439C928.066,211.061,928.008,222.715,926.365,238.833Z" transform="translate(-575.852 -146.662)"/><path class="b" d="M919.625,402.027l.029.489q1.2-4.5,2.044-9l-33.885,21.878-.022-.223q-.961,2.618-1.977,5.138Z" transform="translate(-551.465 -257.583)"/><path class="b" d="M934.452,312.238l.069.464a103.128,103.128,0,0,0-1.72-24.285L908.99,313.051q-2.223,11.959-5.235,22.765Z" transform="translate(-562.254 -194.378)"/><path class="b" d="M816.326,244.779a86.123,86.123,0,0,0-9.091,14.786l39.245,44.8c1.616-6.284,2.919-12.377,3.967-18.059L816.12,245.223Z" transform="translate(-504.207 -168.134)"/><path class="b" d="M800.279,288.683l.2-.449,40.3,44.715q.65-2.3,1.245-4.568l-39.39-44.965.2-.447Q801.5,285.727,800.279,288.683Z" transform="translate(-500.024 -191.1)"/><path class="b" d="M925.292,366.7l.048.478a123.147,123.147,0,0,0,1.9-16.493l-31.112,23.9q-2.049,7.194-4.44,13.815Z" transform="translate(-554.998 -231.825)"/><path class="b" d="M836.368,482.982A100.452,100.452,0,0,1,818.5,506.164c7.319-2.952,36.806-15.957,52.088-39.41Z" transform="translate(-510.984 -301.63)"/><path class="b" d="M783.812,354.407a119.139,119.139,0,0,0-.686,15.935l.246-.477,31.608,44.341a148.12,148.12,0,0,0,7.757-15.969Z" transform="translate(-489.687 -234.064)"/><path class="b" d="M893.731,233.865c1.773-17.439,1.678-29.591,1.677-29.765l.3-.122c-7.116-4.125-14.979-3.982-22.639-.315Z" transform="translate(-543.8 -141.744)"/><path class="b" d="M872.936,436.078c-.214.52-.426,1.042-.643,1.555a147.162,147.162,0,0,1-7.01,14.4l33.9-16.075.017.48a58.344,58.344,0,0,0,6.307-13.307q.89-2.765,1.643-5.55Z" transform="translate(-539.118 -272.057)"/><path class="c" d="M864.793,263.23c1.519-8.418,2.592-16.438,3.349-23.616l-21.135-30.9.223-.422c-5.756,2.846-11.385,7.682-16.485,14.186Z" transform="translate(-518.346 -146.193)"/><path class="b" d="M814.585,440.07l-31.377-44.017c.756,31.907,11.65,65.958,12.353,68.124A97.223,97.223,0,0,0,814.585,440.07Z" transform="translate(-489.757 -259.11)"/><path class="b" d="M824.4,363.651l.033-.018a199.932,199.932,0,0,0,7.018-20.343l-40.4-44.825q-1.637,4.012-3.042,8.358a71.633,71.633,0,0,0-2.755,12.746Z" transform="translate(-490.987 -200.421)"/><path class="b" d="M982.226,572.681,960.518,576.6c-5.223,5.1-11.237,10.66-17.856,16.234l33.415-3.715-.185.395a65.606,65.606,0,0,0,6.489-17.22Z" transform="translate(-585.654 -365.1)"/><path class="b" d="M989.756,547.9l21.028-3.793a34.559,34.559,0,0,0-.471-17.25c-.085-.268-.177-.531-.27-.793C1008.779,527.595,1001.3,536.533,989.756,547.9Z" transform="translate(-613.976 -337.299)"/><path class="b" d="M883.33,694.723l-.289.4q3.788-2.7,7.317-5.63l-40.052-4.762.125-.186q-2.41,1.4-4.8,2.7Z" transform="translate(-527.298 -432.607)"/><path class="b" d="M932.188,635.911l-.243.4a103.135,103.135,0,0,0,14.165-19.8L912.059,620.3q-9.34,7.793-18.552,14.194Z" transform="translate(-556.091 -391.694)"/><path class="b" d="M915.62,489.409A86.113,86.113,0,0,0,899.188,495l1.653,59.536c5.252-3.809,10.142-7.671,14.574-11.379l-.236-53.536Z" transform="translate(-559.508 -315.255)"/><path class="b" d="M883.987,506.7l.44-.219,2.52,60.144q1.966-1.354,3.873-2.725l-1.659-59.755.441-.216Q886.813,505.2,883.987,506.7Z" transform="translate(-550.366 -323.988)"/><path class="b" d="M899.72,676.1l-.268.4a123.146,123.146,0,0,0,11.984-11.49l-39.2-1.439q-6.167,4.234-12.231,7.808Z" transform="translate(-535.941 -419.997)"/><path class="b" d="M755.43,712.955a100.459,100.459,0,0,1-28.545,6.46c7.52,2.395,38.525,11.185,65.254,2.869Z" transform="translate(-455.884 -449.696)"/><path class="b" d="M814.394,545.049A119.157,119.157,0,0,0,803.7,556.885l.493-.211-3.937,54.311a148.156,148.156,0,0,0,16.159-7.352Z" transform="translate(-500.011 -348.717)"/><path class="b" d="M988.71,524.837c12.489-12.3,20.166-21.72,20.276-21.856l.31.1c-2.85-7.716-9-12.621-17.235-14.682Z" transform="translate(-613.347 -314.646)"/><path class="b" d="M818.282,692.962c-.5.264-.992.531-1.487.788a147.168,147.168,0,0,1-14.582,6.619l36.361,9.241-.293.381a58.345,58.345,0,0,0,13.345-6.226q2.449-1.561,4.8-3.227Z" transform="translate(-501.187 -437.672)"/><path class="b" d="M941.758,540.115c6.539-5.515,12.481-11.007,17.642-16.053l3.428-37.276.441-.183c-6.248-1.479-13.668-1.345-21.745.411Z" transform="translate(-584.969 -312.956)"/><path class="b" d="M752.745,629.961l3.908-53.914c-19.768,25.057-33.1,58.231-33.937,60.347A97.219,97.219,0,0,0,752.745,629.961Z" transform="translate(-453.378 -367.359)"/><path class="b" d="M839.94,582.943l.036.007a199.9,199.9,0,0,0,18.38-11.191l-2.526-60.292q-3.82,2.045-7.674,4.5a71.62,71.62,0,0,0-10.252,8.06Z" transform="translate(-522.652 -328.52)"/><path class="b" d="M746.527,390.654l-8.314,20.432c1.515,7.144,2.989,15.2,4.153,23.772l14.75-30.212.235.368a65.606,65.606,0,0,0-11.071-14.7Z" transform="translate(-462.697 -255.659)"/><path class="b" d="M726.1,395.792,734.153,376a34.56,34.56,0,0,0-14.822-8.836c-.272-.072-.543-.135-.814-.2C719.133,368.854,722.68,379.955,726.1,395.792Z" transform="translate(-450.851 -241.618)"/><path class="b" d="M780.191,537.135l.179.456q-.253-4.645-.839-9.194l-25.463,31.28-.09-.205q-.105,2.787-.291,5.5Z" transform="translate(-472.003 -338.703)"/><path class="b" d="M773.044,450.349l.209.419A103.139,103.139,0,0,0,764.11,428.2l-15.031,30.788q1.582,12.061,2.058,23.268Z" transform="translate(-469.232 -278.446)"/><path class="b" d="M627.746,432.012a86.114,86.114,0,0,0-4.076,16.872l51.171,30.475c-.405-6.475-1.05-12.673-1.809-18.4L627.687,432.5Z" transform="translate(-393.811 -280.736)"/><path class="b" d="M621.825,481.772l.051-.489,52.15,30.068q-.091-2.385-.228-4.729l-51.36-30.588.054-.488Q622.073,478.584,621.825,481.772Z" transform="translate(-392.701 -306.918)"/><path class="b" d="M779.68,501.94l.193.44a123.164,123.164,0,0,0-3.289-16.274l-22.2,32.343q.274,7.475.048,14.51Z" transform="translate(-472.421 -313.269)"/><path class="b" d="M731.919,632.3a100.455,100.455,0,0,1-9.824,27.569c6.048-5.07,30.071-26.552,37.356-53.581Z" transform="translate(-453.004 -385.548)"/><path class="b" d="M624.847,550.225a119.16,119.16,0,0,0,4.273,15.367l.086-.529,43.766,32.4a148.125,148.125,0,0,0,2.441-17.585Z" transform="translate(-394.518 -351.83)"/><path class="b" d="M692.38,395.012c-3.7-17.133-7.55-28.661-7.606-28.826l.249-.209c-8.043-1.724-15.477.844-21.628,6.7Z" transform="translate(-417.702 -240.705)"/><path class="b" d="M749.885,581.16c-.043.56-.083,1.123-.131,1.678a147.169,147.169,0,0,1-2.216,15.86l27.27-25.766.165.452a58.347,58.347,0,0,0,1.885-14.6q-.008-2.9-.153-5.786Z" transform="translate(-468.305 -353.495)"/><path class="b" d="M679.262,431.13c-1.157-8.475-2.616-16.434-4.115-23.5l-29.65-22.85.082-.47c-4.594,4.486-8.453,10.825-11.293,18.587Z" transform="translate(-400.195 -252.051)"/><path class="b" d="M679.559,622.517l-43.446-32.162c10.581,30.11,31.467,59.128,32.8,60.97A97.234,97.234,0,0,0,679.559,622.517Z" transform="translate(-401.294 -375.964)"/><path class="b" d="M673.123,544.1l.025-.027a199.939,199.939,0,0,0,.387-21.516l-52.278-30.142q-.317,4.321-.31,8.889a71.63,71.63,0,0,0,1.32,12.974Z" transform="translate(-392.173 -317.065)"/><ellipse class="d" cx="220.425" cy="12.755" rx="220.425" ry="12.755" transform="translate(0 291.36)"/><path class="e" d="M560.831,729.152c0,24.79-34.555,17.122-76.864,17.122s-76.351,7.668-76.351-17.122,34.55-30.182,76.859-30.182S560.831,704.361,560.831,729.152Z" transform="translate(-263.876 -441.285)"/><path class="d" d="M560.831,713.839c0,24.79-34.555,17.122-76.864,17.122s-76.351,7.668-76.351-17.122,34.55-30.182,76.859-30.182S560.831,689.048,560.831,713.839Z" transform="translate(-263.876 -432.076)"/><path class="d" d="M812.974,490.079s0,41.609,2.223,50.82,10.164,42.562,10.164,42.562l10.8-2.223s-1.906-44.15-3.812-50.5,2.223-32.4,7.623-38.115-2.541-9.211-2.541-9.211Z" transform="translate(-507.658 -311.646)"/><path class="d" d="M812.974,490.079s0,41.609,2.223,50.82,10.164,42.562,10.164,42.562l10.8-2.223s-1.906-44.15-3.812-50.5,2.223-32.4,7.623-38.115-2.541-9.211-2.541-9.211Z" transform="translate(-507.658 -311.646)"/><path class="d" d="M823.835,714.5s-14.293,5.717-15.246,5.717S807,736.734,807,736.734s.953,9.846-14.611,13.023,12.387,10.164,17.469,6.67a42.241,42.241,0,0,0,7.305-6.035l1.906-3.176-.635,5.4,2.223.318,5.082-10.164s1.271-7.623-.318-9.529S823.835,714.5,823.835,714.5Z" transform="translate(-492.474 -450.625)"/><path class="f" d="M651.225,512.144l2.223,12.388,10.482-.953-1.906-8.893Z" transform="translate(-391.648 -307.983)"/><path class="d" d="M736.716,414.516l-1.906,3.176s-54.949-7.623-54.949,12.705-2.541,32.4-3.176,33.351,16.517,11.117,20.328,10.482a13.243,13.243,0,0,0,2.223-7.941c-.318-4.447,2.541-20.963,0-21.916,0,0,3.176-1.271,2.859-3.176,0,0,44.786,6.353,50.5,5.082s9.529-5.4,10.482-7.941,2.994-12.453,2.994-12.453l-.453-16.769-5.082-6.035-7.623-.953-11.752,7.305Z" transform="translate(-425.683 -262.765)"/><path class="f" d="M909.865,508.909s-4.447,10.164.635,10.164,6.988-8.894,6.988-8.894Z" transform="translate(-564.846 -326.982)"/><path class="g" d="M806.172,205.054l-1.588-1.906s-17.787-40.021-10.8-50.82,37.48-12.388,38.433-11.752,3.811,2.859,3.494,3.494-6.67,2.223-4.447,6.035c0,0-3.176.953-3.812-.318s-2.541-1.588-3.176-.318-10.8,4.129-10.8,5.082-1.588,5.717-3.176,6.353.318,10.164,3.494,12.705,5.4,9.529,5.4,9.529l-1.588,14.293Z" transform="translate(-495.14 -105.393)"/><path class="d" d="M828.909,165.925a11.453,11.453,0,0,0-4.935,4.149c-2.345,3.984-.847,9.434-2.3,13.914a33.444,33.444,0,0,1-2.679,5.3,9.976,9.976,0,0,0-1.447,5.757c.239,1.975,1.4,3.65,1.95,5.547.945,3.264,0,6.8-1.068,10.02q-.876,2.642-1.863,5.237a4.651,4.651,0,0,1-1.716,2.562l7.517.617c2.185.179,4.6.285,6.316-1.231a7.288,7.288,0,0,0,1.645-2.351c1.7-3.543,1.971-7.721,1.776-11.732s-.822-8-.788-12.012a12.208,12.208,0,0,1,.527-3.9,21.977,21.977,0,0,1,1.412-2.858c1.713-3.3,2.421-7.117,3.1-10.856.468-2.564,1.216-6.278-.124-8.687S830.716,165,828.909,165.925Z" transform="translate(-508.787 -119.712)"/><circle class="f" cx="13.023" cy="13.023" r="13.023" transform="translate(314.527 48.205)"/><path class="f" d="M856.005,228.718s2.065,8.1.794,12.229,17.311-5.558,17.311-5.558-5.717-7.623-5.717-10.164Z" transform="translate(-533.537 -156.374)"/><path class="g" d="M854.9,250.212s-4.129-3.176-4.129-4.764-2.859-5.082-2.859-5.082-13.658,6.988-14.293,6.988-.953-4.129-.953-4.129l-14.611,20.011s-4.764,11.435-3.176,20.328,4.129,18.1,2.859,26.363.318,11.117,2.223,10.164,0-4.129,4.129-3.812,18.1-4.129,19.058-6.035,4.765,4.129,5.082,7.623-.635,13.023,0,12.705,1.588-5.717,1.906-8.258,1.27-10.8,0-12.07-.318-3.176.635-3.811,16.517-40.021,16.517-40.021-1.588-8.258-6.988-11.117S854.9,250.212,854.9,250.212Z" transform="translate(-508.607 -165.479)"/><path class="g" d="M916.365,292.161l5.082,5.4v28.586s6.67,34.3,2.541,36.21-6.035,1.27-6.035,1.27.953,17.47-1.906,17.47-7.306-1.27-9.847-.635c0,0,.635-6.353,2.541-9.211s1.906-7.941,1.906-7.941-2.859,0-2.859-4.129a30.567,30.567,0,0,0-.635-7.623c-.318-.953-2.541-17.787-2.541-17.787Z" transform="translate(-562.77 -196.629)"/><path class="d" d="M854.721,161.192c2.2-1.4,5.114-.34,7.667-.855,2.776-.56,5.089-2.981,7.918-2.843,2.352.115,4.21,1.97,5.734,3.766a26.565,26.565,0,0,1,3.654,5.232,31.871,31.871,0,0,1,2.171,6.659l1.878,7.62a38.424,38.424,0,0,0,2.438,7.584,12.9,12.9,0,0,0,5.217,5.868,15.349,15.349,0,0,1-8.776.028,18,18,0,0,0,5.284,7.388c-2.118.646-4.4-.005-6.612.135a9.384,9.384,0,0,0-7.6,4.984c-1.154,2.251-1.332,4.86-2.021,7.294A18.192,18.192,0,0,1,854.9,226.917c2.117-3.052,4.34-6.594,3.52-10.216-.5-2.189-2.057-4.028-2.52-6.224-.495-2.348.323-4.743.879-7.077s.787-5.014-.66-6.928c-1.534-2.029-4.613-2.7-5.6-5.044a7.19,7.19,0,0,1-.39-2.706l-.063-4.177a8.834,8.834,0,0,1,.22-2.608,9.318,9.318,0,0,1,1.79-2.978,15.882,15.882,0,0,0,3.205-5.761c.639-2.612-.353-4.232-1.625-6.347A4.177,4.177,0,0,1,854.721,161.192Z" transform="translate(-529.951 -115.637)"/><path class="f" d="M888.5,146.335s14.611,12.705,10.8,17.152-9.847-8.258-9.847-8.258l-6.353-4.764Z" transform="translate(-549.831 -108.929)"/><path class="d" d="M682.322,574.251s-16.834,4.129-18.74,7.623c0,0-2.223,10.8-2.223,15.246s-.953,12.705-9.847,14.293-15.246,4.447-3.176,6.67,15.564,2.859,19.058-1.906,5.4-6.035,5.4-6.035l2.541,6.353h1.588l6.035-13.023s.635-6.352-.953-10.164S682.322,574.251,682.322,574.251Z" transform="translate(-404.64 -366.279)"/><path class="g" d="M887.608,144.811s-.486,5.082-7.389,6.035l-1.5-4.764,4.764-4.129Z" transform="translate(-547.195 -106.294)"/><circle class="c" cx="34.279" cy="34.279" r="34.279" transform="translate(136.522 165.279)"/><path class="c" d="M321.069,201.2h0a26.874,26.874,0,0,1-33.1-14.547L250.814,103.2A35.983,35.983,0,0,1,272.24,54.449h0A35.983,35.983,0,0,1,318.8,80.706l19.947,89.142A26.874,26.874,0,0,1,321.069,201.2Z" transform="translate(-167.703 -52.545)"/><circle class="h" cx="34.279" cy="34.279" r="34.279" transform="translate(136.522 165.279)"/><path class="h" d="M321.069,201.2h0a26.874,26.874,0,0,1-33.1-14.547L250.814,103.2A35.983,35.983,0,0,1,272.24,54.449h0A35.983,35.983,0,0,1,318.8,80.706l19.947,89.142A26.874,26.874,0,0,1,321.069,201.2Z" transform="translate(-167.703 -52.545)"/><circle class="i" cx="27.503" cy="27.503" r="27.503" transform="translate(142.03 168.277)"/><path class="i" d="M322,195.013h0a24.658,24.658,0,0,1-30.369-13.347L257.543,105.1A33.015,33.015,0,0,1,277.2,60.37h0a33.015,33.015,0,0,1,42.72,24.091l18.3,81.79A24.658,24.658,0,0,1,322,195.013Z" transform="translate(-171.904 -56.199)"/></g></svg>