<svg xmlns="http://www.w3.org/2000/svg" width="44.176" height="44.176" viewBox="0 0 44.176 44.176"><defs><style>.a{fill:#fff;}</style></defs><g transform="translate(-0.001 0)"><path class="a" d="M37.105,25.507V15.135a2.6,2.6,0,0,0,.666-.088,2.585,2.585,0,0,0,.629-4.735L21.164.362A2.588,2.588,0,0,0,18.551.347L1.29,10.313a2.586,2.586,0,0,0,1.3,4.822V32.2a2.631,2.631,0,0,0,.863,5.117H25.567a9.491,9.491,0,1,0,11.539-11.81ZM1.842,12.98a.86.86,0,0,1,.312-1.173L19.415,1.841a.861.861,0,0,1,.872.006l.01.006,17.239,9.953a.859.859,0,1,1-.862,1.486l-16.4-9.467a.863.863,0,0,0-.863,0L14.578,6.618a.863.863,0,1,0,.863,1.494l4.4-2.543L35.38,14.538V25.22q-.343-.025-.693-.025a9.508,9.508,0,0,0-9.12,6.859h-.544V20.837a.863.863,0,0,0-.863-.863H15.531a.863.863,0,0,0-.863.863V32.054H4.311V14.538L8.715,12A.863.863,0,1,0,7.852,10.5L3.016,13.293a.859.859,0,0,1-1.174-.313ZM23.3,32.054h-6.9V21.7h6.9ZM3.448,35.592a.906.906,0,0,1,0-1.812h21.79c-.028.3-.043.6-.043.906s.015.608.043.906Zm31.238,6.859a7.765,7.765,0,1,1,7.765-7.765A7.774,7.774,0,0,1,34.686,42.451Z" transform="translate(0 0)"/><path class="a" d="M193.443,128.4a3.451,3.451,0,1,0-3.451-3.451A3.455,3.455,0,0,0,193.443,128.4Zm0-5.177a1.726,1.726,0,1,1-1.726,1.726A1.728,1.728,0,0,1,193.443,123.219Z" transform="translate(-173.598 -111.01)"/><path class="a" d="M125.833,99.581a.863.863,0,1,0,0-1.726h0a.863.863,0,0,0,0,1.726Z" transform="translate(-114.186 -89.412)"/><path class="a" d="M345.517,348.349a2.588,2.588,0,0,0-3.66,0l-2.381,2.381-.4-.4a2.588,2.588,0,0,0-3.66,3.66l2.235,2.235a2.588,2.588,0,0,0,3.66,0l4.212-4.212a2.588,2.588,0,0,0,0-3.66Zm-1.22,2.44L340.085,355a.863.863,0,0,1-1.22,0l-2.235-2.235a.863.863,0,0,1,1.22-1.22l1.015,1.015a.863.863,0,0,0,1.22,0l2.992-2.992a.863.863,0,1,1,1.22,1.22Z" transform="translate(-305.777 -317.6)"/></g></svg>