<svg xmlns="http://www.w3.org/2000/svg" width="30.905" height="40.081" viewBox="0 0 30.905 40.081"><defs><style>.a{fill:#909090;}</style></defs><g transform="translate(-58.15)"><g transform="translate(58.15)"><g transform="translate(0)"><path class="a" d="M84.542,0H62.655A4.509,4.509,0,0,0,58.15,4.505V26.392A4.509,4.509,0,0,0,62.655,30.9h1.1l-2.359,8.845,1.239.339.387-1.452H84.179l.387,1.452,1.247-.331L83.453,30.9h1.1A4.509,4.509,0,0,0,89.055,26.4V4.505A4.521,4.521,0,0,0,84.542,0Zm-.71,37.343H63.365l.686-2.572H83.145ZM64.391,33.477l.686-2.572H82.12l.686,2.572Zm23.37-7.085a3.222,3.222,0,0,1-3.219,3.219H62.655a3.222,3.222,0,0,1-3.219-3.219V4.505a3.222,3.222,0,0,1,3.219-3.219H84.542a3.222,3.222,0,0,1,3.219,3.219Z" transform="translate(-58.15)"/></g></g><g transform="translate(61.361 6.438)"><path class="a" d="M121.392,81.6H100.783a1.936,1.936,0,0,0-1.933,1.933v7.724a1.936,1.936,0,0,0,1.933,1.933h20.6a1.936,1.936,0,0,0,1.933-1.933V83.533A1.929,1.929,0,0,0,121.392,81.6ZM110.448,91.9h-9.665a.632.632,0,0,1-.639-.639V83.533a.65.65,0,0,1,.647-.647h9.657Zm11.59-.639h-.008a.65.65,0,0,1-.647.647h-9.649V82.886h9.657a.65.65,0,0,1,.647.647Z" transform="translate(-98.85 -81.6)"/></g><g transform="translate(63.941 20.601)"><g transform="translate(0)"><path class="a" d="M134.769,261.1a3.219,3.219,0,1,0,3.219,3.219A3.222,3.222,0,0,0,134.769,261.1Zm0,5.152a1.933,1.933,0,1,1,1.933-1.933A1.936,1.936,0,0,1,134.769,266.252Z" transform="translate(-131.55 -261.1)"/></g></g><g transform="translate(76.818 20.601)"><g transform="translate(0)"><path class="a" d="M297.969,261.1a3.219,3.219,0,1,0,3.219,3.219A3.222,3.222,0,0,0,297.969,261.1Zm0,5.152a1.933,1.933,0,1,1,1.933-1.933A1.936,1.936,0,0,1,297.969,266.252Z" transform="translate(-294.75 -261.1)"/></g></g><g transform="translate(67.16 3.219)"><g transform="translate(0)"><rect class="a" width="12.876" height="1.286"/></g></g></g></svg>