<svg xmlns="http://www.w3.org/2000/svg" width="49" height="49" viewBox="0 0 49 49"><defs><style>.a{fill:#45b39c;}.b{opacity:0.1;}.c{fill:#f6c358;}.d{fill:#fcd462;}.e{fill:#64798a;}.f{fill:#3a556a;}.g{fill:#27a2db;}.h{fill:#e56353;}.i{fill:#ebf0f3;}.j{fill:#d15241;}.k{fill:#2f4859;}.l{fill:#d5d6db;}.m{fill:#fff;}</style></defs><g transform="translate(0 0.345)"><ellipse class="a" cx="24.5" cy="24.209" rx="24.5" ry="24.209" transform="translate(0 -0.345)"/><path class="b" d="M43.613,22.5H40.462A10.236,10.236,0,0,0,30.236,32.725a.536.536,0,0,0,.115.332l.185.185v1.78a1.214,1.214,0,0,0,.006,1.633l.026.025.836.836v.415a.352.352,0,0,0,.1.249l.051.045.714.721v.006a.2.2,0,0,0,.057.14l.013.013,5.173,5.173v.191l-.013-.006H37.5l-.025.006-.013.006-2.73.7-3.33.855a3.9,3.9,0,0,0-2.928,3.553l-.459,8.005L41.063,70.636c.324.01.648.025.975.025A30.625,30.625,0,0,0,71.944,46.6L50.9,25.561A10.2,10.2,0,0,0,43.613,22.5Z" transform="translate(-23.419 -22.005)"/><g transform="translate(10.547 6.703)"><path class="c" d="M50.9,56.435V52.2H41.855v4.233L40,56.91c.4,3.169,3.1,8.035,6.38,8.035s5.982-4.866,6.38-8.035Z" transform="translate(-32.35 -33.255)"/><path class="d" d="M51.937,37.226a10.812,10.812,0,0,0-.567-2.245c-2.4-1.784-9.42-1.579-11.958,0-.255.159-.468,1.952-.567,2.245-.869,0-1.573.732-1.573,2.077,0,1.308.667,2.715,1.5,2.791.892,3.246,3.516,5.882,6.615,5.882s5.723-2.636,6.615-5.882c.837-.076,1.5-1.483,1.5-2.791C53.51,37.959,52.806,37.227,51.937,37.226Z" transform="translate(-31.363 -26.562)"/><path class="e" d="M53.212,33.262a7.432,7.432,0,1,0-14.86,0,9.762,9.762,0,0,0,1.084,4.065s-.35-1.469.35-2.133a4.5,4.5,0,0,1,.594,1.818s.1-4.58,2.308-5.035c0,0,3.531,3.252,6.189,3.357a15.25,15.25,0,0,1-1.049-2.273s2.2,2.133,3.462,2.343a5.4,5.4,0,0,0,.8-1.014l.018,2.655a11.459,11.459,0,0,0,.82-2.435,4.841,4.841,0,0,0,.281-1.138v-.21Z" transform="translate(-31.754 -23.637)"/><g transform="translate(2.213 9.418)"><g transform="translate(18.769)"><path class="f" d="M66.6,41.1v2.453a1.227,1.227,0,0,0,0-2.453Z" transform="translate(-62.964 -38.653)"/><path class="f" d="M61.246,38.148a.345.345,0,0,0-.345.345v5.531a.345.345,0,0,0,.345.345h.639V38.148h-.639Z" transform="translate(-60.901 -37.585)"/><path class="g" d="M65.762,39.194h-.639v4.888h.639a.345.345,0,0,0,.345-.345v-4.2A.345.345,0,0,0,65.762,39.194Z" transform="translate(-62.43 -37.963)"/><path class="e" d="M64.079,37.65a2.984,2.984,0,0,0-1.646-.38.223.223,0,0,0-.219.212V44.4a.225.225,0,0,0,.233.212,3.525,3.525,0,0,0,1.624-.37.211.211,0,0,0,.119-.185V37.831A.211.211,0,0,0,64.079,37.65Z" transform="translate(-61.376 -37.265)"/><path class="h" d="M63.2,37.281V44.6c.121-.012.239-.032.356-.055v-7.21A2.983,2.983,0,0,0,63.2,37.281Z" transform="translate(-61.735 -37.271)"/></g><g transform="translate(0 0.242)"><path class="f" d="M32.7,41.477v2.453a1.227,1.227,0,0,1,0-2.453Z" transform="translate(-31.478 -39.032)"/><path class="f" d="M38.2,38.528a.345.345,0,0,1,.345.345V44.4a.345.345,0,0,1-.345.345h-.639V38.527H38.2Z" transform="translate(-33.679 -37.964)"/><path class="g" d="M33.679,39.573h.639v4.888h-.639a.345.345,0,0,1-.345-.345v-4.2A.345.345,0,0,1,33.679,39.573Z" transform="translate(-32.15 -38.342)"/><path class="e" d="M34.8,38.029a2.984,2.984,0,0,1,1.646-.38.223.223,0,0,1,.219.212v6.921a.225.225,0,0,1-.233.212,3.525,3.525,0,0,1-1.624-.37.211.211,0,0,1-.119-.185V38.21A.211.211,0,0,1,34.8,38.029Z" transform="translate(-32.641 -37.644)"/><path class="h" d="M36.594,37.66v7.317c-.121-.012-.239-.032-.356-.055v-7.21A2.984,2.984,0,0,1,36.594,37.66Z" transform="translate(-33.201 -37.65)"/></g></g><path class="f" d="M58.5,46.4a.3.3,0,0,0-.36.216c-.007.028-.774,2.7-7.031,3.005a1.536,1.536,0,0,0-1.179-.441c-.719,0-1.3.339-1.3.757s.583.757,1.3.757a1.486,1.486,0,0,0,1.208-.478c6.757-.33,7.55-3.328,7.582-3.461A.3.3,0,0,0,58.5,46.4Z" transform="translate(-35.475 -31.151)"/><g transform="translate(2.528 9.418)"><rect class="f" width="0.596" height="3.911"/><g transform="translate(22.404)"><rect class="f" width="0.596" height="3.911"/></g></g><g transform="translate(2.23)"><path class="f" d="M54.5,33.32a.6.6,0,0,1-.6-.6,9.041,9.041,0,0,0-9.031-9.031H41.727A9.041,9.041,0,0,0,32.7,32.724a.6.6,0,1,1-1.193,0A10.235,10.235,0,0,1,41.727,22.5h3.149A10.236,10.236,0,0,1,55.1,32.724.6.6,0,0,1,54.5,33.32Z" transform="translate(-31.504 -22.5)"/></g><path class="e" d="M37.5,56.928l-2.776.71L31.4,58.49a3.9,3.9,0,0,0-2.927,3.554l-.462,8.007H42.037V60.457Z" transform="translate(-28.009 -34.967)"/><path class="f" d="M63.566,62.043a3.9,3.9,0,0,0-2.927-3.554l-3.331-.852-2.776-.71L50,60.457v9.593H64.028Z" transform="translate(-35.972 -34.967)"/><path class="i" d="M48.68,62.16,46.458,65.2l2.26,4.295,2.477-4.384Z" transform="translate(-34.689 -36.861)"/><path class="j" d="M50.027,66.565H48.268l-.428,3.019,1.378,1.508h0l1.233-1.457Z" transform="translate(-35.19 -38.457)"/><path class="k" d="M54.533,56.928l2.111,3.165-2.452.684,1.226,1.676L50,67.6Z" transform="translate(-35.972 -34.967)"/><path class="f" d="M41.637,56.928l-2.111,3.165,2.452.684-1.226,1.676,5.455,5.15Z" transform="translate(-32.179 -34.967)"/><path class="h" d="M49.47,62.155h-.741l-1.017,1.881.51.943h1.755l.51-.943Z" transform="translate(-35.143 -36.86)"/><path class="l" d="M54.511,56.928l-4.57,3.337,1.96,2.81Z" transform="translate(-35.951 -34.967)"/><path class="l" d="M42.875,56.928l4.57,3.337-1.96,2.81Z" transform="translate(-33.392 -34.967)"/><rect class="m" width="5.617" height="1.256" transform="translate(19.583 32.16)"/></g></g></svg>