<svg xmlns="http://www.w3.org/2000/svg" width="49" height="49" viewBox="0 0 49 49"><defs><style>.a{fill:#344d5b;}.b{opacity:0.1;}.c{fill:#ededed;}.d{fill:#feda6f;}.e{fill:#f2c34e;}.f{fill:#d6b24e;}</style></defs><g transform="translate(0 0.348)"><ellipse class="a" cx="24.5" cy="24.217" rx="24.5" ry="24.217" transform="translate(0 -0.348)"/><path class="b" d="M62.848,63.137,52.383,49.389a.556.556,0,0,0-.132-.251l-10.8-13.5a.345.345,0,0,0-.521,0l-10.8,13.5a.615.615,0,0,0-.157.426.648.648,0,0,0,.076.316l-4.325,7.407-.34-.447a.5.5,0,0,0-.035-.046l-.018-.024v.008a.386.386,0,0,0-.278-.138.532.532,0,0,0-.448.588V60.18L41.68,82.618c9.648-.293,17.843-8.282,21.168-19.481Z" transform="translate(-15.701 -33.966)"/><path class="c" d="M0,0H.444V11.542H0Z" transform="translate(32.647 21.453) rotate(-38.257)"/><path class="c" d="M26.18,73.523l-.352-.271,7.149-9.326.352.271Z" transform="translate(-18.47 -42.999)"/><path class="d" d="M68.9,49.235V60.426H59.718L55.02,48.21l-4.7,12.216H41.138V49.235L55.02,35.993Z" transform="translate(-30.396 -26.618)"/><path class="e" d="M68.615,49.133,54.422,35.639a.55.55,0,0,0-.685,0L39.548,49.133a.55.55,0,0,0,.685.86l13.5-12.945a.55.55,0,0,1,.685,0L67.929,49.993a.55.55,0,0,0,.892-.43h0a.55.55,0,0,0-.207-.43Z" transform="translate(-29.463 -25.268)"/><path class="f" d="M70.151,61.526,78.37,71.634l-3.519,2.109Z" transform="translate(-46.438 -41.815)"/><path class="f" d="M61.191,61.526,52.973,71.634l3.517,2.109Z" transform="translate(-35.609 -41.815)"/><g transform="translate(8.898 27.534)"><path class="d" d="M113.53,79.663a.588.588,0,0,0-.588.588V83.2h1.177V80.252A.588.588,0,0,0,113.53,79.663Z" transform="translate(-82.677 -79.663)"/><path class="d" d="M25.187,79.663a.588.588,0,0,0-.588.588V83.2h1.177V80.252A.588.588,0,0,0,25.187,79.663Z" transform="translate(-24.598 -79.663)"/></g></g></svg>