<svg xmlns="http://www.w3.org/2000/svg" width="41.902" height="50.224" viewBox="0 0 41.902 50.224"><defs><style>.a{fill:#909090;}</style></defs><g transform="translate(0)"><path class="a" d="M99.129,24.193a11.705,11.705,0,0,0,8.553-3.544,11.706,11.706,0,0,0,3.544-8.553,11.706,11.706,0,0,0-3.544-8.553,12.094,12.094,0,0,0-17.106,0A11.705,11.705,0,0,0,87.032,12.1a11.705,11.705,0,0,0,3.544,8.553A11.709,11.709,0,0,0,99.129,24.193ZM92.657,5.625a9.15,9.15,0,0,1,12.943,0,8.745,8.745,0,0,1,2.682,6.472,8.745,8.745,0,0,1-2.682,6.472,9.149,9.149,0,0,1-12.943,0A8.743,8.743,0,0,1,89.975,12.1a8.744,8.744,0,0,1,2.682-6.472Zm0,0" transform="translate(-78.495 0)"/><path class="a" d="M41.8,261.676a29.88,29.88,0,0,0-.407-3.173,25,25,0,0,0-.781-3.191,15.762,15.762,0,0,0-1.312-2.976,11.217,11.217,0,0,0-1.978-2.578,8.721,8.721,0,0,0-2.841-1.785,9.819,9.819,0,0,0-3.627-.656,3.682,3.682,0,0,0-1.966.834c-.589.384-1.279.829-2.048,1.32a11.735,11.735,0,0,1-2.65,1.168,10.291,10.291,0,0,1-6.483,0,11.7,11.7,0,0,1-2.648-1.167c-.762-.487-1.452-.932-2.05-1.321a3.678,3.678,0,0,0-1.965-.834,9.807,9.807,0,0,0-3.627.657,8.713,8.713,0,0,0-2.842,1.785A11.221,11.221,0,0,0,2.6,252.336a15.792,15.792,0,0,0-1.312,2.976,25.061,25.061,0,0,0-.78,3.19A29.674,29.674,0,0,0,.1,261.677c-.067.959-.1,1.957-.1,2.966a8.34,8.34,0,0,0,2.477,6.309,8.916,8.916,0,0,0,6.383,2.328H33.042a8.917,8.917,0,0,0,6.382-2.328,8.337,8.337,0,0,0,2.477-6.31c0-1.012-.034-2.01-.1-2.967ZM37.4,268.82a6,6,0,0,1-4.353,1.517H8.859a6,6,0,0,1-4.353-1.517,5.446,5.446,0,0,1-1.563-4.177c0-.941.031-1.87.093-2.762a26.768,26.768,0,0,1,.368-2.858,22.1,22.1,0,0,1,.686-2.813,12.856,12.856,0,0,1,1.068-2.42,8.317,8.317,0,0,1,1.453-1.9A5.785,5.785,0,0,1,8.5,250.71a6.773,6.773,0,0,1,2.318-.447c.1.055.287.159.584.353.605.394,1.3.844,2.073,1.337a14.583,14.583,0,0,0,3.326,1.486,13.231,13.231,0,0,0,8.293,0,14.6,14.6,0,0,0,3.328-1.487c.789-.5,1.467-.941,2.072-1.336.3-.193.481-.3.584-.353a6.777,6.777,0,0,1,2.319.447,5.793,5.793,0,0,1,1.89,1.175,8.292,8.292,0,0,1,1.453,1.905,12.813,12.813,0,0,1,1.068,2.419,22.053,22.053,0,0,1,.687,2.813,26.989,26.989,0,0,1,.368,2.859h0c.062.889.094,1.817.094,2.761A5.445,5.445,0,0,1,37.4,268.82Zm0,0" transform="translate(0 -223.056)"/></g></svg>