<svg xmlns="http://www.w3.org/2000/svg" xmlns:xlink="http://www.w3.org/1999/xlink" width="435.566" height="303.349" viewBox="0 0 435.566 303.349"><defs><style>.a,.ak{fill:none;stroke-miterlimit:10;}.a{stroke:#535461;stroke-width:2px;}.b{fill:#b9efcf;}.c{fill:url(#a);}.d{fill:#272635;}.e,.g{opacity:0.1;}.f{fill:#2f2e41;}.h{fill:#ced2df;}.i{fill:#1e1b13;}.j{fill:#ec8c9c;}.k{fill:#ebf1f6;}.l{fill:#9a7520;}.m{fill:#383221;}.n{fill:url(#b);}.o{fill:url(#c);}.p{fill:#ffbdc6;}.q{fill:#7679b4;}.r{fill:#2b2932;}.s{fill:#a66477;}.t{fill:#131125;}.u{fill:#464353;}.v{fill:#f2f1f2;}.w{fill:#01796d;}.x{fill:#1f1e2c;}.y{fill:url(#d);}.z{fill:#493545;}.aa{opacity:0.05;}.ab{fill:#3e3d77;}.ac{fill:#2d3b50;}.ad{fill:#35455d;}.ae{fill:#c77485;}.af{fill:#ffaac4;}.ag,.am{fill:#404040;}.ag{opacity:0.3;}.ah{fill:#6c63ff;}.ai{fill:#01b148;}.aj{fill:#dee3f3;opacity:0.5;}.ak{stroke:#01b148;}.al{fill:#048839;}.an{opacity:0.2;}.ao{fill:#ffd037;}</style><linearGradient id="a" x1="0.5" y1="1" x2="0.5" gradientUnits="objectBoundingBox"><stop offset="0" stop-color="gray" stop-opacity="0.251"/><stop offset="0.54" stop-color="gray" stop-opacity="0.122"/><stop offset="1" stop-color="gray" stop-opacity="0.102"/></linearGradient><linearGradient id="b" x1="0.495" y1="1.014" x2="0.495" y2="0" xlink:href="#a"/><linearGradient id="c" x1="0.5" y1="1" x2="0.5" y2="0" xlink:href="#a"/><linearGradient id="d" x1="0.5" y1="1" x2="0.5" y2="0" xlink:href="#a"/></defs><g transform="translate(0.02 -0.021)"><path class="a" d="M720.646,614.42s-6.677-23.043,1.252-40a36.921,36.921,0,0,0,2.9-22.833,61.934,61.934,0,0,0-3.183-10.718" transform="translate(-446.13 -347.509)"/><path class="a" d="M426.006,614.6s-6.677-23.321,1.252-40.483a37.777,37.777,0,0,0,2.9-23.109,63.263,63.263,0,0,0-3.183-10.847" transform="translate(-286.605 -347.124)"/><path class="b" d="M183.783,192.931c8.951,20.219-2.467,43.5-15.908,61.032-4.5,5.879-9.465,12.042-10.089,19.416-.752,9.02,5.356,17.311,12.6,22.732a53.063,53.063,0,0,0,47,7.947c13.592-4.306,25.02-14.033,38.731-17.953,22.929-6.567,47.234,4.32,66.87,17.885,13.9,9.589,28.785,21.273,45.541,19.219,11.79-1.445,21.8-9.722,28.588-19.467,3.279-4.705,6.131-9.979,10.905-13.152a27.3,27.3,0,0,1,9.506-3.6c30.445-6.507,62.756,9.373,92.8,1.206,20.292-5.5,36.471-21.553,46.532-40.02s14.757-39.319,18.669-59.977c2.779-14.675,5.086-30.528-1.3-44.024-6.759-14.289-22.406-22.952-38.131-24.575s-31.5,2.857-45.982,9.176c-18.1,7.915-35.842,18.994-55.6,19.031-13.455.027-26.286-5.136-39.149-9.075-21.507-6.581-43.872-9.85-66.159-12.868-21.338-2.889-42.886-5.576-64.352-3.87-15.188,1.206-28.6,7.012-43.34,9.7-9.607,1.752-19.26.459-28.689,3.393-11.611,3.632-23.553,12.047-24.195,25.3C168.021,173,179.036,182.2,183.783,192.931Z" transform="translate(-142.774 -119.24)"/><path class="c" d="M573.56,281.167c-1.958-5.1-7.007-17.1-10.332-14.72-4.2,3.008,4.2,16.3,4.2,16.3.238,2.44-4.485,7.516-7.016,10.047v-.316a1.1,1.1,0,0,1-.11.275l-.211-.115a1.374,1.374,0,0,1-.3.546,5.381,5.381,0,0,0-.023-.546c-.486,2.059-8.97,4.668-8.97,4.668h-.624c-2.357,0-8.493-.532-11.336-5.081a25.157,25.157,0,0,0-5.562-6.489,4.738,4.738,0,0,0-2.637-1,33.927,33.927,0,0,1-15.486-5.329l-.234-.16-.05.147c-.3-.426-.587-.88-.858-1.348h0l-.138-.252a11.519,11.519,0,0,0,6.351-10.245v-.238a7.847,7.847,0,0,0,1.055-3.93V262l1.793-1.6a7.371,7.371,0,0,0,2.086-2.5,2.966,2.966,0,0,0,.22-1.284,2.224,2.224,0,0,0-.844-1.99c-1.376-.949-3.669,0-4.664-1.321-.459-.6-.376-1.408-.6-2.109a3.775,3.775,0,0,0-3.636-2.219,15.708,15.708,0,0,0-4.457.949,26.17,26.17,0,0,1-9.493.89,6.2,6.2,0,0,0-2.6.092,3.581,3.581,0,0,0-2.109,2.453,5.763,5.763,0,0,0-.2,1.257,7.9,7.9,0,0,0-1.99,5.232v3.526a7.9,7.9,0,0,0,1.9,5.132,11.464,11.464,0,0,0,4.8,8.365v.28l.06.037a18.954,18.954,0,0,1-.5,3.242V280.2a33.143,33.143,0,0,1-13.3,3.5h-.757a5.122,5.122,0,0,0-3.669,1.376c-2.036,1.917-5.6,4.948-7.8,4.948-.459,0-12.033,2.261-13.95,2.637l-3.581-3.508-.11.206-.211-.206a8.713,8.713,0,0,0-1.165.17,27.758,27.758,0,0,1-6.351-14.01s7.92-9.02,5.008-17.426c-2.486-7.163-9.332,8.19-11.277,12.817a3.7,3.7,0,0,0-.119,2.545l6.434,20.737a9.726,9.726,0,0,0-.509,5.044h-.073l4.687,6.012a24.746,24.746,0,0,0,9.043,1.477,31.614,31.614,0,0,0,11.8-2.265h1.087l-.206.078h5.581l3.549,10.735c-.119.977-1.834,14.61-3.21,17.66a7.663,7.663,0,0,0-.541,3.21,24.508,24.508,0,0,0,1.023,6.214l3.109-.115-.119.243a161.851,161.851,0,0,0-9.63,24l-4.526,9.172,3.393,41.134h.138l.261.041h0c.367.055.917.138,1.642.229l-.266.459L468.958,429.7s-5.333,10.919,6.466,8.86c0,0,4.361-1.266,6.14-8.713l7.759-7.278s.362-4.833-1.834-6.764c-.138-2.233-.486-8.754.05-10.323.647-1.9-2.751-23.731-2.751-23.731s12.281-25.474,19.719-26.107a4.077,4.077,0,0,1,1.61.211c6.113,1.99,13.519,16.77,15.7,21.37h0l.1.211v.041l.083.179v.05l.073.156v.041l.064.142v.032l.055.115v.046l.041.087v.037l.028.064v.078h0l.023.055.968,28.638h0l.1.051h.046l-.082.591-.422,2.958s5.333,11.235,5.008,12.657,3.554,7.122,9.048,5.54,2.224-10.5,2.224-10.5l-5.292-10.9-.234-.486a10.387,10.387,0,0,0,1.486-1.105s-1.614-11.707,0-14.239,2.1-14.083,2.1-14.083-1.133-7.911-3.073-11.391l-8.126-29.005c2.435,2.265,4.329,3.15,5.911,3.091h.261a3.948,3.948,0,0,0,1.99-.5,5.6,5.6,0,0,0,.917-.647,1.434,1.434,0,0,0,.151-.151h0c2.261-1.9-2.586-9.337-5.333-13.757-2.646-4.265,1-15.853,1.275-16.715a4.373,4.373,0,0,1,.784-.459,4.837,4.837,0,0,1,1.8-.39c2.632.092,5.87,1.605,9.878,2.366a46.6,46.6,0,0,0,8.433.656h.165c1.124,0,2.142-.023,2.967-.055a5.013,5.013,0,0,0,2.155-.582h0a6.509,6.509,0,0,0,1.531-1.238l7.035-7.947-.183.087a3.954,3.954,0,0,0,0-2.8L573.2,285.4A4.883,4.883,0,0,0,573.56,281.167Z" transform="translate(-297.553 -189.472)"/><path class="d" d="M520.3,616.157l-7.489,7.177c-1.715,7.337-5.929,8.58-5.929,8.58-11.386,2.027-6.241-8.713-6.241-8.713l7.223-12.221.89-1.509s5.15-1.559,8.58-.624a2.938,2.938,0,0,1,1.169.633C520.653,611.346,520.3,616.157,520.3,616.157Z" transform="translate(-327.809 -384.151)"/><path class="d" d="M629.56,611.293c-5.306,1.559-9.048-4.054-8.713-5.462S616,593.368,616,593.368l.4-2.917.376-2.7,8.713.624.821,1.724,5.109,10.754S634.866,609.734,629.56,611.293Z" transform="translate(-390.895 -372.891)"/><path class="e" d="M528.487,610.673c-.821,1.408-7.475.7-10.717.257l.89-1.509s5.15-1.559,8.58-.624a2.935,2.935,0,0,1,1.169.633C528.455,610.191,528.487,610.673,528.487,610.673Z" transform="translate(-337.711 -384.124)"/><path class="e" d="M626.788,590.078c-4.462,2.972-9.213.724-9.928.353l.376-2.7,8.713.624Z" transform="translate(-391.361 -372.88)"/><path class="f" d="M568.426,487.532c-1.559,2.495,0,14.042,0,14.042-5.15,4.682-11.231,1.247-11.231,1.247l-.917-28.235s-10.139-23.245-17.316-22.622-19.031,25.74-19.031,25.74,3.274,21.526,2.651,23.387,0,10.919,0,10.919c-1.091,1.871-12.478,0-12.478,0l-3.274-40.561,4.347-9.052a160.483,160.483,0,0,1,9.286-23.663c1.261-2.646,2.105-4.26,2.105-4.26l8.3-1.729,26.941-5.585,9.681,35.237c1.871,3.43,2.962,11.231,2.962,11.231S569.985,485.037,568.426,487.532Z" transform="translate(-331.788 -285.944)"/><g class="g" transform="translate(175.024 141.198)"><path d="M599.463,532.092l-.917-28.235s-10.139-23.245-17.316-22.622a3.916,3.916,0,0,0-.94.211c7,2.325,15.761,22.411,15.761,22.411l.917,28.235a11.006,11.006,0,0,0,6.2,1.133A11.041,11.041,0,0,1,599.463,532.092Z" transform="translate(-546.585 -456.413)"/><path d="M512.559,512l-3.274-40.561,4.366-9.066a160.475,160.475,0,0,1,9.286-23.663c1.261-2.646,2.1-4.26,2.1-4.26l8.3-1.729,24.594-5.113-.133-.491-26.955,5.6-8.3,1.729s-.844,1.614-2.1,4.26a160.274,160.274,0,0,0-9.286,23.663l-4.366,9.048,3.274,40.561a58.59,58.59,0,0,0,9.905.8A73.69,73.69,0,0,1,512.559,512Z" transform="translate(-506.79 -427.12)"/></g><path class="h" d="M468.833,338.21s-8.892.459-7.644,9.827l2.495.312,3.742-4.054,1.871-3.43v-.78Z" transform="translate(-307.012 -237.784)"/><path class="e" d="M468.833,338.21s-8.892.459-7.644,9.827l2.495.312,3.742-4.054,1.871-3.43v-.78Z" transform="translate(-307.012 -237.784)"/><path class="h" d="M693.174,345.69s7.337,3.9,5.462,8.424l-2.339.917-3.119-1.715-.458-4.054.312-2.806Z" transform="translate(-432.433 -241.834)"/><path class="e" d="M693.174,345.69s7.337,3.9,5.462,8.424l-2.339.917-3.119-1.715-.458-4.054.312-2.806Z" transform="translate(-432.433 -241.834)"/><rect class="i" width="25.584" height="19.343" rx="9.671" transform="translate(197.719 63.607)"/><path class="j" d="M461.926,300.944l-5.462,8.713-.459-1.55-7.42-24.176a3.718,3.718,0,0,1,.115-2.508c1.876-4.558,8.488-19.719,10.887-12.634,2.806,8.254-4.838,17.16-4.838,17.16a27.478,27.478,0,0,0,6.526,14.28C461.678,300.7,461.926,300.944,461.926,300.944Z" transform="translate(-300.164 -199.193)"/><path class="j" d="M691.16,316.507s8.58-8.112,8.254-11.386c0,0-8.112-13.1-4.054-16.05,3.21-2.348,8.085,9.483,9.974,14.514a4.907,4.907,0,0,1-.326,4.127l-10.254,18.155Z" transform="translate(-431.588 -211.014)"/><path class="j" d="M565.67,299.918s1.559,9.983-2.962,13.73,12.95,3.724,12.95,3.724L581.9,311.6s-7.177-6.709-4.994-11.7Z" transform="translate(-361.637 -217.042)"/><path class="e" d="M554.164,324.034s6.709,4.994,13.413-.624L578.5,346.032l-.624,27.611s-22.622,11.7-31.981,4.526-1.559-10.919-1.559-10.919l-2.183-21.214,2.339-13.73s4.21-6.553,4.526-6.553S554.164,324.034,554.164,324.034Z" transform="translate(-350.443 -229.771)"/><path class="k" d="M554.169,323.354s6.709,5,13.418-.624l10.919,22.622-.624,27.611s-22.622,11.7-31.981,4.526-1.559-10.919-1.559-10.919l-2.183-21.214,2.339-13.73s4.21-6.553,4.526-6.553S554.169,323.354,554.169,323.354Z" transform="translate(-350.448 -229.403)"/><path class="e" d="M511.167,319s-6.36,3.623-13.267,3.444a4.889,4.889,0,0,0-3.527,1.348c-1.967,1.889-5.411,4.879-7.544,4.879-.459,0-13.73,2.651-13.73,2.651l-3.508-3.508s-5.228,10.217-7.722,9.749l4.526,5.929s8.58,3.742,19.811-.78h6.553l3.43,10.607s-1.715,14.353-3.118,17.472.459,9.2.459,9.2l12.322-.459s.624-6.085,1.559-6.879-3.274-27.611-3.274-27.611-2.806-15.133,7.489-20.59Z" transform="translate(-307.446 -227.383)"/><path class="e" d="M546.961,439.38a40.727,40.727,0,0,0-.968,5.627l-9.433.358c1.261-2.646,2.1-4.26,2.1-4.26Z" transform="translate(-347.885 -292.56)"/><path class="e" d="M470.88,340.25l-5.462,8.713-.459-1.55c2-1.99,4.352-6.15,5.287-7.883A9.245,9.245,0,0,0,470.88,340.25Z" transform="translate(-309.119 -238.499)"/><path class="l" d="M510.783,319s-6.677,3.623-13.578,3.444a4.888,4.888,0,0,0-3.526,1.348c-1.967,1.889-5.411,4.879-7.544,4.879-.459,0-13.73,2.651-13.73,2.651l-3.522-3.513s-5.228,10.217-7.722,9.749l4.526,5.929s8.58,3.742,19.811-.78h6.553l3.43,10.6s-1.715,14.353-3.118,17.472.459,9.2.459,9.2l12.322-.459s.624-6.085,1.559-6.879-3.274-27.611-3.274-27.611-2.806-15.133,7.489-20.59Z" transform="translate(-307.061 -227.383)"/><path class="e" d="M596.091,316.94a30.356,30.356,0,0,0,14.862,5.411,4.517,4.517,0,0,1,2.545.986,24.635,24.635,0,0,1,5.37,6.42c3.43,5.618,11.854,4.994,11.854,4.994s8.19-2.573,8.658-4.586c0,0,.234,11.006,5.384,8.346l-6.773,7.805a4.778,4.778,0,0,1-3.416,1.646,50.213,50.213,0,0,1-10.7-.592c-5.618-1.091-9.671-3.742-12.634-1.4,0,0-3.9,12.166-1.247,16.536s7.337,11.7,5.15,13.574-4.838,1.715-9.2-2.807-4.838-12.166-4.838-12.166l1.091-19.655s-4.21-14.821-8.254-17.784Z" transform="translate(-378.951 -226.268)"/><path class="e" d="M646.1,338.493l-6.792,7.837a4.773,4.773,0,0,1-1.637,1.22h0a4.756,4.756,0,0,1-1.77.417,49.618,49.618,0,0,1-10.7-.592c-5.255-1.023-9.144-3.407-12.051-1.8a4.26,4.26,0,0,0-.587.39s-3.9,12.166-1.247,16.536,7.337,11.7,5.15,13.574a5.044,5.044,0,0,1-1.22.793c-1.963.885-4.4.119-7.984-3.6-4.366-4.526-4.838-12.166-4.838-12.166l1.091-19.655s-4.21-14.821-8.254-17.784l1.784-6.4a32.386,32.386,0,0,0,14.95,5.255,4.517,4.517,0,0,1,2.545.986,24.654,24.654,0,0,1,5.37,6.42c3.43,5.618,11.854,4.994,11.854,4.994a45.509,45.509,0,0,0,5.9-2.348h0a8.994,8.994,0,0,0,2.751-1.834,1.377,1.377,0,0,0,.3-.55S640.953,341.144,646.1,338.493Z" transform="translate(-379.666 -226.447)"/><path class="l" d="M645.4,338.476l-6.787,7.846a4.777,4.777,0,0,1-1.321,1.064h0a4.76,4.76,0,0,1-2.082.573,49.619,49.619,0,0,1-10.7-.592c-5.067-.986-8.869-3.242-11.735-1.954a4.244,4.244,0,0,0-.917.546s-3.9,12.166-1.247,16.536,7.337,11.7,5.15,13.574a5.411,5.411,0,0,1-.917.637c-2.018,1.114-4.513.459-8.3-3.444-4.365-4.526-4.838-12.166-4.838-12.166l1.091-19.655s-4.21-14.821-8.254-17.784l1.871-6.709.225.156a32.386,32.386,0,0,0,14.95,5.255,4.517,4.517,0,0,1,2.545.986,24.652,24.652,0,0,1,5.37,6.42c3.43,5.618,11.854,4.994,11.854,4.994a45.541,45.541,0,0,0,5.9-2.348h0c1.417-.725,2.573-1.518,2.751-2.242v.394C640.156,332.459,640.843,340.819,645.4,338.476Z" transform="translate(-379.281 -226.273)"/><path class="e" d="M581.314,300.45H569.85a28.059,28.059,0,0,1,.216,5.5,11.785,11.785,0,0,0,12.116.871C581.081,304.788,580.411,302.477,581.314,300.45Z" transform="translate(-365.908 -217.34)"/><circle class="j" cx="11.386" cy="11.386" r="11.386" transform="translate(199.512 67.743)"/><path class="e" d="M569.331,268.5a12.156,12.156,0,0,1,3.792-.349c1.137.229,2.1,1.014,3.242,1.252,2.192.459,4.228-1.156,5.884-2.66l3.577-3.256a7.3,7.3,0,0,0,2.018-2.467,2.476,2.476,0,0,0-.605-2.917c-1.307-.917-3.559,0-4.5-1.3a6.792,6.792,0,0,1-.582-2.077,3.651,3.651,0,0,0-3.513-2.187,15.541,15.541,0,0,0-4.3.917,24.763,24.763,0,0,1-9.171.876,5.861,5.861,0,0,0-2.509.087,3.508,3.508,0,0,0-2.036,2.417c-.706,2.495.5,6.516,1.711,8.75S566.914,268.8,569.331,268.5Z" transform="translate(-360.799 -191.4)"/><path class="m" d="M569.331,267.823a12.158,12.158,0,0,1,3.792-.349c1.137.229,2.1,1.013,3.242,1.252,2.192.459,4.228-1.156,5.884-2.66l3.577-3.256a7.3,7.3,0,0,0,2.018-2.467,2.476,2.476,0,0,0-.605-2.917c-1.307-.917-3.559,0-4.5-1.3a6.792,6.792,0,0,1-.582-2.077,3.651,3.651,0,0,0-3.513-2.187,15.543,15.543,0,0,0-4.3.917,24.763,24.763,0,0,1-9.171.876,5.861,5.861,0,0,0-2.509.087,3.508,3.508,0,0,0-2.036,2.417c-.706,2.495.5,6.516,1.711,8.75S566.914,268.1,569.331,267.823Z" transform="translate(-360.799 -191.032)"/><path class="e" d="M536.55,394a6.429,6.429,0,0,1,3.742,1.871,6.722,6.722,0,0,0,3.43,2.027" transform="translate(-347.879 -267.99)"/><path class="e" d="M487.455,349.09s2.036,4.544.78,5-.78,3.742-.78,3.742" transform="translate(-321.25 -243.675)"/><g class="g" transform="translate(166.765 91.69)"><path d="M488.922,335.395s13.258-2.651,13.716-2.651c2.137,0,5.576-2.99,7.544-4.879a4.816,4.816,0,0,1,2.137-1.188h-.17a4.888,4.888,0,0,0-3.526,1.348c-1.967,1.889-5.411,4.879-7.544,4.879-.371,0-8.855,1.683-12.3,2.366Z" transform="translate(-488.78 -323.229)"/><path d="M557.412,319.742v-.582a33.1,33.1,0,0,1-10.162,3.251,31.4,31.4,0,0,0,10.162-2.669Z" transform="translate(-520.437 -319.16)"/><path d="M524.532,407.8s-1.871-6.085-.459-9.2,3.118-17.472,3.118-17.472L523.77,370.52H517.2l-.4.156h5.388l3.416,10.612s-1.715,14.353-3.118,17.472.459,9.2.459,9.2l12.322-.459v-.1Z" transform="translate(-503.951 -346.967)"/></g><g class="g" transform="translate(222.587 112.211)"><path d="M624.561,423.792a5.415,5.415,0,0,1-.917.638c-2.018,1.114-4.512.459-8.3-3.444-3.467-3.591-4.476-9.172-4.746-11.286l-.092,1.614s.459,7.644,4.838,12.166c3.783,3.916,6.278,4.558,8.3,3.444a5.408,5.408,0,0,0,.917-.637c.656-.564.692-1.623.348-2.944A1.441,1.441,0,0,1,624.561,423.792Z" transform="translate(-610.51 -388.702)"/><path d="M661.265,364.135l-4.416,5.1a4.772,4.772,0,0,1-1.321,1.064h0a4.758,4.758,0,0,1-2.082.573,49.624,49.624,0,0,1-10.7-.592c-5.067-.986-8.869-3.242-11.735-1.954a4.249,4.249,0,0,0-.917.546s-2.518,7.86-2.132,13.212a51.591,51.591,0,0,1,2.132-10.717,4.244,4.244,0,0,1,.917-.546c2.871-1.289,6.668.968,11.735,1.953a50.2,50.2,0,0,0,10.7.592,4.758,4.758,0,0,0,2.082-.573h0a4.776,4.776,0,0,0,1.321-1.05l6.791-7.837a2.674,2.674,0,0,1-2.375.225Z" transform="translate(-619.938 -363.91)"/></g><path class="n" d="M265.74,486.89a.353.353,0,0,0,.417.055A1.425,1.425,0,0,1,265.74,486.89Z" transform="translate(-201.257 -318.283)"/><path class="o" d="M236.317,294.026c-.825-.238-2-.628-3.421-1.123a17.941,17.941,0,0,0,3.169-6.384l-.119.046c.041-.142.083-.28.119-.426-2.719,1.105-5.728-.766-7.644-3.169s-3.21-5.384-5.31-7.594a24.311,24.311,0,0,0-2.816-2.426,3.894,3.894,0,0,0-2.041-1c-1.224-.037-2.183,1.165-3.361,1.518a4.586,4.586,0,0,1-2.343-.087c-3.04-.7-5.961-1.986-9.066-2.325a10.625,10.625,0,0,0-4.921.555c-1.559.592-2.27,1.77-3.531,2.715-1.376,1.013-4.063.991-5.663,1.169a40.58,40.58,0,0,1-5.851.243,13.7,13.7,0,0,0-3.366.124c-2.325.509-4.191,2.357-5.934,4.127a3.06,3.06,0,0,0-.981,1.536,1.942,1.942,0,0,0,0,.509,3.306,3.306,0,0,0,.234,1.353,17.884,17.884,0,0,0,2.252,4.48,12.939,12.939,0,0,1,1.944,3.183,6.177,6.177,0,0,1,.3,1.834,13.344,13.344,0,0,1-.206,1.972,24.763,24.763,0,0,1-1.509,5.251,9.538,9.538,0,0,0-.88,2.751,4.378,4.378,0,0,0,0,.587c-.115,3.027,2.939,5.2,3.531,8.213a4.908,4.908,0,0,1,.087.757,5.124,5.124,0,0,1-2.71,4.439c.138.055.28.1.422.147a3.834,3.834,0,0,1-.422.229,8.519,8.519,0,0,0,.88.284,20.452,20.452,0,0,0-4.453,5.5c-5.306,9.878-41.24,29.225-41.24,29.225l.532.3-.431.28c-3.109,2.068-10.405,8.1-3.811,15.725,0,0,5.15-8.126,8.759-11.588.161-.156.321-.3.459-.431a1.055,1.055,0,0,1,.138.835l23.626-13.276s8.4-5.879,10.74-7.2a19.327,19.327,0,0,1,5.324-2.293l-.275.115a10.782,10.782,0,0,1,2.71-.385c4.182.064,8.713,3.127,10.2,15.257,2,16.243,1.073,19.173.431,19.572a1.178,1.178,0,0,1-.234-.041.4.4,0,0,0,.064.046,1.227,1.227,0,0,1-.257-.046.367.367,0,0,0,.349.083.325.325,0,0,0,.261-.032h0a2.723,2.723,0,0,0,.316,0,3.37,3.37,0,0,1-.032.459c-.032,0-.188.087,0,.1h0c-.05.917-.046,1.912,0,2.953-2.077.115-4.155.238-5.962.349l.161-.858.073-.385c1.6-.128,3.109-.6,3.288-1.889.39-2.843-3.513-4.361-6.833-4.549s-23.232,1.137-23.232,1.137-2.985,3.866,6.484,5.044l.876.459a105.255,105.255,0,0,1,11.153,7.924l.335.266-1.082.88c5.856,1.325,11.52,23.7,14.642,33.935s9.956,9.859,15.619,8.341c5.306-1.422,5.962-16.83,6.049-18.765v-.2l9.438,11.657.715.885q.413.215.816.4c7.145,3.4,15.037-3.118,12.794-10.547-2.27-7.489-5.792-18.563-8.14-23.245-1.967-3.921-4.508-10.433-6.049-14.509a4.893,4.893,0,0,0,.582-.28s-.037-.184-.1-.518l.1-.051s-2.293-11.795-2.394-20.177v-.729c1.706-.39,2.788-.541,2.788-.541l.032-.367-.2.041.949-10.864s3.485-7.415.816-10.5a6.484,6.484,0,0,1-1.564-3.21c-.459-2.839,0-7.576,6.214-11.51,9.566-6.067,13.3-11.006,13.3-11.006S242.173,295.75,236.317,294.026Zm-19,7.539v-5.021c1.775-.087,3.586.119,5.37,0a13.592,13.592,0,0,0,2.591-.436l.431.3A47.231,47.231,0,0,1,217.318,301.565Zm-27.125,78.71c.7.486,1.408.99,2.1,1.5.431,2.476.812,4.224.839,4.347A34.326,34.326,0,0,0,190.193,380.275Z" transform="translate(-125.1 -201.382)"/><path class="p" d="M274.337,500.32l-.413,2.242-.316,1.715-.578,3.137-5.6,3.921s-.5-.431-1.339-1.114a98.248,98.248,0,0,0-10.667-7.8,11.927,11.927,0,0,0-2.93-1.353Z" transform="translate(-194.083 -325.554)"/><path class="e" d="M274.331,500.32l-.413,2.242a17.423,17.423,0,0,1-3.7-.188l-13.074.188c-.619-.037-1.2-.087-1.738-.142a11.918,11.918,0,0,0-2.93-1.353Z" transform="translate(-194.077 -325.554)"/><path class="q" d="M264.867,496.686s6.539,1.119,6.911-1.683-3.361-4.278-6.53-4.489-22.232,1.128-22.232,1.128-3.361,4.48,8.777,5.228Z" transform="translate(-188.722 -320.232)"/><path class="e" d="M274.337,500.32l-.413,2.242-.316,1.715-.578,3.137-5.6,3.921s-.5-.431-1.339-1.114a98.248,98.248,0,0,0-10.667-7.8,11.927,11.927,0,0,0-2.93-1.353Z" transform="translate(-194.083 -325.554)"/><path class="e" d="M274.331,500.32l-.413,2.242a17.423,17.423,0,0,1-3.7-.188l-13.074.188c-.619-.037-1.2-.087-1.738-.142a11.918,11.918,0,0,0-2.93-1.353Z" transform="translate(-194.077 -325.554)"/><path class="r" d="M264.867,496.686s6.539,1.119,6.911-1.683-3.361-4.278-6.53-4.489-22.232,1.128-22.232,1.128-3.361,4.48,8.777,5.228Z" transform="translate(-188.722 -320.232)"/><rect class="s" width="34.178" height="40.529" transform="translate(56.252 84.366)"/><rect class="t" width="34.178" height="40.529" transform="translate(56.252 84.366)"/><path class="p" d="M145.061,450.526A5.475,5.475,0,0,0,142.979,452c-3.453,3.412-8.378,11.414-8.378,11.414-6.31-7.511.674-13.45,3.669-15.491.725-.5,1.211-.761,1.211-.761Z" transform="translate(-128.87 -296.772)"/><path class="p" d="M277.928,331.09s1.683,11.767,7.47,14.569-7.47,8.03-7.47,8.03l-18.118-6.723s10.272-3.361,8.218-13.262Z" transform="translate(-198.046 -233.929)"/><path class="p" d="M231.207,485.45l-.413,2.242-.316,1.715-.578,3.137-5.6,3.921s-.5-.431-1.339-1.114a98.224,98.224,0,0,0-10.667-7.8,11.926,11.926,0,0,0-2.93-1.353Z" transform="translate(-170.731 -317.503)"/><path class="e" d="M231.2,485.45l-.413,2.242a17.427,17.427,0,0,1-3.7-.188l-13.074.188c-.619-.037-1.2-.087-1.738-.142a11.919,11.919,0,0,0-2.93-1.353Z" transform="translate(-170.726 -317.503)"/><path class="u" d="M221.692,481.822s6.539,1.119,6.911-1.683-3.361-4.3-6.539-4.48-22.227,1.119-22.227,1.119-3.361,4.48,8.777,5.228Z" transform="translate(-165.343 -312.192)"/><path class="e" d="M246.491,493.933l-.578,3.137-5.6,3.921s-.5-.431-1.339-1.114l7.411-6.076Z" transform="translate(-186.763 -322.024)"/><path class="u" d="M282.61,526.88q-.385-.188-.78-.4l-.683-.871-9.025-11.464v.2c-.06,1.9-.711,17.082-5.783,18.481-5.416,1.5-11.955,1.866-14.94-8.218s-8.406-32.123-14.01-33.43l8.309-6.819s5.5,6.42,7.75,12.6c-.083-.394-3.884-18.146-.747-21.283h27.267s4.2,11.987,7.1,17.93c2.247,4.613,5.618,15.518,7.8,22.9A8.771,8.771,0,0,1,282.61,526.88Z" transform="translate(-185.907 -312.213)"/><path class="e" d="M298.412,452.139c-4.205,2.49-22.695,1.477-28.721,1.073l-1.637-.119c-.179,0,.027-.1.027-.1l.17-1.7,4.48-11.391,24-13.9a20.771,20.771,0,0,0-.61,6.278C296.243,440.523,298.412,452.139,298.412,452.139Z" transform="translate(-202.47 -285.315)"/><path class="v" d="M298.178,450.94c-4.205,2.49-22.7,1.477-28.721,1.073l-1.637-.119h-.271l.3-.078,1.477-.39,3.173-12.7,24-13.913a20.77,20.77,0,0,0-.61,6.278C296.009,439.319,298.178,450.94,298.178,450.94Z" transform="translate(-202.237 -284.671)"/><path class="e" d="M296.215,431.021c-4.879,1.124-15.619,4.43-19.746,12.382-2.751,5.31-5.044,7.59-6.681,8.543l-1.637-.119.027-.1,1.477-.39,3.173-12.7,24-13.913A20.77,20.77,0,0,0,296.215,431.021Z" transform="translate(-202.562 -284.622)"/><path class="e" d="M146.781,447.17l5.6,3.361A5.474,5.474,0,0,0,150.3,452c-.459-1.376-3.4-3.265-4.733-4.072C146.295,447.436,146.781,447.17,146.781,447.17Z" transform="translate(-136.194 -296.777)"/><path class="e" d="M265.534,484.28a.335.335,0,0,1-.394-.05A1.347,1.347,0,0,0,265.534,484.28Z" transform="translate(-200.932 -316.843)"/><path class="w" d="M213.339,327.521a11.11,11.11,0,0,1-8.594-3.173s-14.94,4.3-19.985,14.01-39.41,28.762-39.41,28.762,5.962,3.361,5.416,5.044l22.6-13.074s8.03-5.792,10.272-7.1,14.569-9.337,17.183,12.515,0,19.26,0,19.26,3.737,1.307,9.172-9.172,22.227-12.886,22.227-12.886l.917-11.006s3.334-7.3.78-10.346a6.466,6.466,0,0,1-1.495-3.16c-.426-2.8,0-7.461,5.962-11.336,9.172-5.962,12.7-10.832,12.7-10.832s.188-3.549-5.416-5.228-28.391-10.832-28.391-10.832l-.747,3.173,17.93,12.7s-8.965,7.282-16.05,7.1C218.383,321.913,219.69,327.333,213.339,327.521Z" transform="translate(-136.075 -216.539)"/><path class="e" d="M287.987,336.846a36.693,36.693,0,0,1-1.032-4.586l-9.9,2.632a10.914,10.914,0,0,1-.225,5.709,10.648,10.648,0,0,0,11.157-3.76Z" transform="translate(-207.261 -234.563)"/><circle class="p" cx="10.648" cy="10.648" r="10.648" transform="translate(61.856 84.55)"/><path class="e" d="M261.356,273.889c2.953.335,5.764,1.6,8.672,2.293a4.283,4.283,0,0,0,2.242.087c1.128-.349,2.045-1.532,3.21-1.5a3.374,3.374,0,0,1,1.953.986,23.43,23.43,0,0,1,2.692,2.389c2,2.178,3.251,5.113,5.081,7.479s4.714,4.21,7.314,3.123c-1.766,6.879-7.562,12.139-13.826,12.565-2.5.17-5.044-.349-7.479.385a6.546,6.546,0,0,1-1.889.459c-1.376,0-2.513-1.279-3.384-2.522-2.036-2.926-3.669-6.246-5.961-8.91a4.874,4.874,0,0,0-2.719-1.88,5.035,5.035,0,0,0-3.008.844,14.28,14.28,0,0,0-4.4,3.054,6.1,6.1,0,0,0-1.486,5.37,13.114,13.114,0,0,1,.917,3c0,1.7-1.477,2.939-1.775,4.586a17.7,17.7,0,0,0-.073,2.091c-.133,2.265-1.61,4.127-3.16,5.544a3.988,3.988,0,0,0-1.445,2c-.119.582,0,1.2-.078,1.793-.225,1.472-1.692,2.215-2.99,2.408a8.667,8.667,0,0,1-4.485-.532,5.155,5.155,0,0,0,2.508-5.5c-.578-3.031-3.623-5.2-3.366-8.3a9.6,9.6,0,0,1,.844-2.729,24.968,24.968,0,0,0,1.44-5.173,8.763,8.763,0,0,0-.087-4.127,13.028,13.028,0,0,0-1.862-3.137,17.8,17.8,0,0,1-2.155-4.416,3.1,3.1,0,0,1-.206-1.458,3.022,3.022,0,0,1,.917-1.513c1.669-1.747,3.458-3.568,5.677-4.072a12.728,12.728,0,0,1,3.21-.124,37.713,37.713,0,0,0,5.6-.238c1.532-.179,4.127-.156,5.42-1.156,1.206-.917,1.889-2.087,3.38-2.674A9.892,9.892,0,0,1,261.356,273.889Z" transform="translate(-183.193 -202.909)"/><path class="e" d="M308.48,513.76s6.163,12.138,4.3,15.876" transform="translate(-224.397 -332.831)"/><path class="e" d="M322.107,568.058l-9.025-11.464v.2s-.523-3.705,1.2-2.458c3.765,2.724,9.791,7.191,9.919,7.961S322.978,566.159,322.107,568.058Z" transform="translate(-226.848 -354.661)"/><g class="g" transform="translate(9.463 82.399)"><path d="M302.991,348.821s.761,3.155-1.7,4.733a4.23,4.23,0,0,0,3.843-4.884A11.952,11.952,0,0,1,302.991,348.821Z" transform="translate(-229.967 -325.847)"/><path d="M147.819,396.7s34.366-19.049,39.41-28.762c3.618-6.97,12.336-11.148,16.967-12.955-3.38,1.133-14.752,5.475-19.026,13.7-5.044,9.713-39.41,28.762-39.41,28.762Z" transform="translate(-145.76 -329.263)"/><path d="M309.488,320.394c5.847-1.834,11.437-6.36,11.437-6.36l-17.93-12.7.408-1.743-1.715-.688-.748,3.173,17.93,12.7A43.267,43.267,0,0,1,309.488,320.394Z" transform="translate(-229.778 -298.9)"/><path d="M319.83,437.107a44.423,44.423,0,0,1,7.03-1.775l.032-.362A47.575,47.575,0,0,0,319.83,437.107Z" transform="translate(-240.005 -372.571)"/><path d="M254.546,441.785h-.165a.335.335,0,0,1-.394-.05,1.377,1.377,0,0,0,.394.05c.614-.358,1.536-3.146-.394-19.288-2.064-17.233-10.162-15.88-14.6-13.9,4.531-1.247,10.767-.17,12.542,14.647,1.931,16.142,1.009,18.935.394,19.288a4.128,4.128,0,0,0,2.22-.747Z" transform="translate(-196.453 -357.682)"/><path d="M267.134,483.881a1.375,1.375,0,0,1-.394-.05A.335.335,0,0,0,267.134,483.881Z" transform="translate(-211.261 -399.025)"/></g><path class="x" d="M261.356,273.1c2.953.335,5.764,1.605,8.672,2.293a4.284,4.284,0,0,0,2.242.087c1.128-.349,2.045-1.532,3.21-1.495a3.375,3.375,0,0,1,1.954.986,23.437,23.437,0,0,1,2.692,2.389c2,2.178,3.251,5.113,5.081,7.479s4.714,4.21,7.314,3.123c-1.766,6.879-7.562,12.139-13.826,12.565-2.5.17-5.044-.349-7.479.385a6.547,6.547,0,0,1-1.889.459c-1.376,0-2.513-1.279-3.384-2.522-2.036-2.926-3.669-6.246-5.962-8.91a4.873,4.873,0,0,0-2.719-1.88,5.035,5.035,0,0,0-3.008.844,14.281,14.281,0,0,0-4.4,3.054,6.1,6.1,0,0,0-1.486,5.37,13.117,13.117,0,0,1,.917,3c0,1.7-1.477,2.94-1.775,4.586a17.7,17.7,0,0,0-.073,2.091c-.133,2.265-1.61,4.127-3.16,5.544a3.988,3.988,0,0,0-1.445,2c-.119.582,0,1.2-.078,1.793-.225,1.472-1.692,2.215-2.99,2.408a8.667,8.667,0,0,1-4.485-.532,5.155,5.155,0,0,0,2.508-5.5c-.578-3.031-3.623-5.2-3.366-8.3a9.6,9.6,0,0,1,.844-2.729,24.966,24.966,0,0,0,1.44-5.173,8.764,8.764,0,0,0-.087-4.127,13.028,13.028,0,0,0-1.862-3.137,17.8,17.8,0,0,1-2.155-4.416,3.1,3.1,0,0,1-.206-1.458,3.022,3.022,0,0,1,.917-1.513c1.669-1.747,3.458-3.568,5.677-4.072a12.728,12.728,0,0,1,3.21-.124,37.709,37.709,0,0,0,5.6-.238c1.532-.179,4.127-.156,5.42-1.156,1.206-.917,1.889-2.087,3.38-2.674A9.892,9.892,0,0,1,261.356,273.1Z" transform="translate(-183.193 -202.481)"/><path class="y" d="M843.848,206.964h0v-.17a.387.387,0,0,0-.028-.174h-.073v-.381c-.184-4.251-6.062-13.3-8.419-10.657-2.064,2.32,1.05,8.19,2.637,10.832l.142.238-.078-.05s-6.562,19.572-7.337,20.333-6.177,16.151-13.3,17.885c-1.408.335-2.577.637-3.559.917l.078-.261a28.37,28.37,0,0,0,1.252-4.586c.229-1.669,0-3.692-.844-4.5-.413-.4-.917-.459-1.256-1.1a5.077,5.077,0,0,1-.349-1.766l-.605-7.42.422-.128c2.55-.816,5.022-2.751,5.31-5.356a2.732,2.732,0,0,1-.271.087,4.624,4.624,0,0,0,.078-.459c-2.142.844-4.127-1.376-6.191-2.371-3.4-1.665-7.282-.1-10.79.284-3.976.436-7.75-1.215-11.813-.917-2.21.17-4.668,1.669-4.549,3.847.069,1.2.917,2.21,1.266,3.357.88,2.774-1.078,5.558-2.793,7.924a11.8,11.8,0,0,0-2.4,5.274c-3.948-4.127-8.218-8.9-8.713-10.689L760.24,207.382s-.271.289-.706.715c-.069-.211-.151-.459-.243-.706-1.458-4.086-5.585-13.987-10.818-12.171s2.169,11.964,5.388,16.009l.458.559a1.449,1.449,0,0,1-.816-.037L766.243,233.6s2.316,4.182,4.439,5.32c0,0,15.826,19.953,16.018,23.942s7.117,14.633,7.117,14.633,2.316,17.293-1.738,20.333h.669q-.289.282-.591.619c-3,3.329-6.842,10.465-1.6,22.6,7.718,17.885,8.878,24.892,8.878,24.892s-14.674.761-17.564,1.33c-2.559.5-12.505.858-14.78.917-.812-.945-3.21-3.036-6.448,0-4.054,3.8-6.948,16.509-6.948,16.509s-1.545,10.263,3.669,7.6c0,0,6.177-8.552,7.911-8.933.862-.188,1.775-1.458,2.472-2.683l.037.023h0c.041,0,.211-.092.486-.2h0c1.284-.509,4.82-1.733,7.608-1.124,1.527.335,8.076.413,14.94.394-1.55,3.714-4.329,13.3-4.329,13.3s-1.16,8.938,2.692,8.571c2.751-.271,6.97-7.3,9.172-11.313,1.6-1.169,6.168-5.361,9.548-5.044l22.773-8.74s5.4-3.04,2.508-13.111c-2.293-8.007-8.818-24.4-11.4-30.784h0l-.078-.165c-.623-1.545-1-2.463-1-2.463h0a37.7,37.7,0,0,1-2.068-9.039c-.023-.243-.041-.491-.06-.734a4.054,4.054,0,0,0,.894-.518s-2.123-21.471,0-23.754h0l.037-.041h0v-.027h0l.037-.046h0l.083-.105h0l.1-.128h0c.115-.151.252-.339.408-.569h0a15.743,15.743,0,0,0,2.829-10.639h0q-.041-.312-.1-.628h0a13.106,13.106,0,0,0-1.32-3.724,10.292,10.292,0,0,1-.17-1.472v-1.3a4.418,4.418,0,0,1,.069-.66v-.083a.821.821,0,0,1,.041-.252v-.105a1.208,1.208,0,0,1,.055-.248v-.087c.028-.11.055-.22.092-.33v-.055q.041-.138.092-.271l.041-.105.092-.22.046-.11c.037-.083.078-.165.119-.248l.032-.069q.082-.151.174-.3l.051-.078.151-.216.073-.1.161-.193.073-.083c.082-.087.165-.174.257-.257,2.509-2.293,13.7-19.192,13.7-19.192s2.7-3.8,2.7-6.269C839.556,227.715,844.33,211.8,843.848,206.964ZM813.8,349.009c-.275-2.6-.55-5.833-.8-9.172l4.365,6.805S816.948,348.715,813.8,349.009Z" transform="translate(-461.634 -160.247)"/><path class="z" d="M777.908,525.4s-2.614-4.127-6.539-.371-6.723,16.247-6.723,16.247-1.495,10.089,3.549,7.47c0,0,5.961-8.406,7.658-8.777s3.549-5.044,3.549-5.044Z" transform="translate(-471.263 -338.076)"/><path class="z" d="M843.469,548.661s-3.549-1.683-4.668-.371-4.856,14.381-4.856,14.381-1.119,8.594,2.614,8.218,10.272-13.831,10.272-13.831Z" transform="translate(-508.81 -351.255)"/><path class="aa" d="M843.469,548.661s-3.549-1.683-4.668-.371-4.856,14.381-4.856,14.381-1.119,8.594,2.614,8.218,10.272-13.831,10.272-13.831Z" transform="translate(-508.81 -351.255)"/><path class="ab" d="M864.987,467.435l8.03,12.515s-.559,2.8-5.416,2.242l-16.623,10.46s-1.445,12.735,3.173,11.579c.747-.188,5.962-5.6,9.713-5.228l22.044-8.594s5.228-2.99,2.426-12.886-12.065-32.843-12.065-32.843l-14.642,8.19Z" transform="translate(-518.001 -295.429)"/><path class="ac" d="M864.987,467.435l8.03,12.515s-.559,2.8-5.416,2.242l-16.623,10.46s-1.445,12.735,3.173,11.579c.747-.188,5.962-5.6,9.713-5.228l22.044-8.594s5.228-2.99,2.426-12.886-12.065-32.843-12.065-32.843l-14.642,8.19Z" transform="translate(-518.001 -295.429)"/><path class="ad" d="M836.21,470.017c1.119,7.1-5.228,7.658-5.228,7.658s-28.579.559-31.94-.188-7.846,1.307-7.846,1.307c-5.792-3.549-1.119-12.327-1.119-12.327s11.955-.371,14.757-.917,16.995-1.321,16.995-1.321-1.119-6.911-8.594-24.465c-5.077-11.923-1.376-18.939,1.545-22.209a12.3,12.3,0,0,1,2.564-2.256l22.975,1.119a29.81,29.81,0,0,0,.128,3.471,36.968,36.968,0,0,0,3.05,11.465c-1.307,0-9.713,7.846-9.713,7.846S835.086,462.923,836.21,470.017Z" transform="translate(-484.18 -279.522)"/><path class="e" d="M791.758,467.232s11.955-.371,14.757-.917,16.995-1.307,16.995-1.307-1.119-6.911-8.594-24.465c-5.076-11.923-1.376-18.939,1.546-22.209a12.3,12.3,0,0,1,2.563-2.256l21.287,1.036v-.665l-22.975-1.119a12.3,12.3,0,0,0-2.563,2.256c-2.908,3.274-6.622,10.286-1.545,22.209,7.493,17.541,8.6,24.451,8.6,24.451s-14.216.747-16.995,1.307-14.757.917-14.757.917-4.668,8.782,1.119,12.345c0,0,.174-.082.459-.2C787.809,474.656,791.758,467.232,791.758,467.232Z" transform="translate(-484.182 -279.539)"/><rect class="z" width="11.579" height="29.321" transform="translate(330.174 67.225)"/><rect class="e" width="11.579" height="29.321" transform="translate(330.174 67.225)"/><path class="z" d="M878.6,250.577c.4.11.848.124,1.119.674a4.132,4.132,0,0,1,.271,1.376l.729,9.062a5.044,5.044,0,0,0,.339,1.733c.307.614.816.688,1.215,1.082.8.8,1.036,2.8.816,4.425a29.078,29.078,0,0,1-1.211,4.494,42.305,42.305,0,0,1-1.912,6.26c-.876,1.779-2.467,2.751-3.495,1.256s-.89-4.512-1.082-6.984c-.321-4.127-1.93-7.686-2.041-11.84-.092-3.361.812-6.5,1.376-9.685.4-2.187.427-4.843,1.014-6.81C876.232,247.959,877.168,250.183,878.6,250.577Z" transform="translate(-530.228 -187.654)"/><path class="e" d="M878.6,250.577c.4.11.848.124,1.119.674a4.132,4.132,0,0,1,.271,1.376l.729,9.062a5.044,5.044,0,0,0,.339,1.733c.307.614.816.688,1.215,1.082.8.8,1.036,2.8.816,4.425a29.078,29.078,0,0,1-1.211,4.494,42.305,42.305,0,0,1-1.912,6.26c-.876,1.779-2.467,2.751-3.495,1.256s-.89-4.512-1.082-6.984c-.321-4.127-1.93-7.686-2.041-11.84-.092-3.361.812-6.5,1.376-9.685.4-2.187.427-4.843,1.014-6.81C876.232,247.959,877.168,250.183,878.6,250.577Z" transform="translate(-530.228 -187.654)"/><path class="ae" d="M762.835,211.994l-4.48,3.737s-.532-.624-1.325-1.633c-3.114-3.976-10.272-13.95-5.214-15.734s9.057,7.943,10.469,11.96C762.642,211.343,762.835,211.994,762.835,211.994Z" transform="translate(-463.477 -161.952)"/><path class="ae" d="M944.241,210.82c-1.866,2.8-4.48,0-4.48,0s-.335-.5-.807-1.307c-1.536-2.6-4.549-8.364-2.554-10.648,2.293-2.609,7.975,6.3,8.149,10.474A2.487,2.487,0,0,1,944.241,210.82Z" transform="translate(-564.009 -162.085)"/><path class="ae" d="M854.08,287.734s3.737,11.955,2.614,15.5,8.034,7.672,8.034,7.672h10.46s3.738-7.658,2.8-9.9-8.965-3.921-8.965-3.921-4.668,0-4.48-12.515Z" transform="translate(-519.797 -208.742)"/><path class="e" d="M771.066,226.369l-4.48,3.737s-.532-.624-1.325-1.633c1.628-.289,4.155-2.664,5.26-3.774C770.873,225.718,771.066,226.369,771.066,226.369Z" transform="translate(-471.708 -176.327)"/><path class="e" d="M948.037,223.725c-1.866,2.8-4.48,0-4.48,0s-.335-.5-.807-1.307l.06-.188c1.21.867,4.975.128,5.535,0A2.487,2.487,0,0,1,948.037,223.725Z" transform="translate(-567.805 -174.99)"/><path class="e" d="M871.681,419.875c-5.778,2.637-24.552-2.059-25.681-2.339a12.305,12.305,0,0,1,2.564-2.256l22.975,1.119a29.759,29.759,0,0,0,.142,3.476Z" transform="translate(-515.422 -279.511)"/><path class="af" d="M808.01,264.714s-4.48,1.495-10.832-4.3c0,0-14.216-14.01-15.133-17.371l-11.006-19.26s-4.668,5.044-6.539,4.3l12.327,21.48s2.243,4.127,4.3,5.228c0,0,15.317,19.613,15.5,23.534s6.9,14.422,6.9,14.422,2.242,16.995-1.683,19.985c0,0,21.851,5.6,26.52,1.866,0,0-2.054-21.095,0-23.346,0,0,6.351-7.47,2.054-15.688,0,0-.917-4.48,1.495-6.723s13.262-18.866,13.262-18.866,2.614-3.737,2.614-6.163c0,0,4.856-16.435,4.127-20.732,0,0-4.3.917-5.6,0,0,0-6.351,19.26-7.1,19.985s-5.961,15.876-12.886,17.559-8.03,2.426-8.03,2.426,13.446,8.406,6.911,12.139S808.01,264.714,808.01,264.714Z" transform="translate(-471.296 -175.45)"/><path class="e" d="M865.221,291.476a35.659,35.659,0,0,1-.271-5.306l-10.46,3.173a14.12,14.12,0,0,1,.656,2.146c1.2.527,2.811,1.775,4.2,1.775A9.525,9.525,0,0,0,865.221,291.476Z" transform="translate(-520.019 -209.609)"/><circle class="ae" cx="9.713" cy="9.713" r="9.713" transform="translate(329.427 63.675)"/><path class="e" d="M829.758,246.465c-2.137.165-4.522,1.642-4.4,3.783.064,1.179.871,2.174,1.224,3.3.848,2.729-1.041,5.466-2.7,7.8s-3.21,5.416-1.789,7.883a19.443,19.443,0,0,0,1.312,1.711c1.756,2.371,1.733,5.572,2.513,8.419a14.771,14.771,0,0,0,17.353,10.547,9.236,9.236,0,0,1-1.949-6.246c.106-1.633.633-3.339,0-4.847-.816-1.94-3.21-2.706-4.444-4.4s-1.151-4.049-.555-6.072,1.628-3.9,2.123-5.962a17.965,17.965,0,0,1,.458-1.784c.862-2.449,3.439-3.87,5.962-4.48s5.173-.647,7.635-1.449,4.857-2.683,5.141-5.264c-2.073.83-3.994-1.334-5.994-2.33-3.293-1.633-7.048-.1-10.442.28C837.339,247.781,833.67,246.181,829.758,246.465Z" transform="translate(-502.175 -188.04)"/><path class="z" d="M829.348,245.655c-2.137.165-4.521,1.642-4.4,3.783.064,1.179.871,2.174,1.224,3.3.848,2.729-1.041,5.466-2.7,7.8s-3.21,5.416-1.788,7.883a19.44,19.44,0,0,0,1.312,1.71c1.756,2.371,1.733,5.572,2.513,8.42A14.771,14.771,0,0,0,842.858,289.1a9.236,9.236,0,0,1-1.949-6.246c.105-1.632.633-3.338,0-4.847-.816-1.94-3.21-2.706-4.444-4.4s-1.151-4.049-.555-6.072,1.628-3.9,2.123-5.962a17.954,17.954,0,0,1,.459-1.784c.862-2.449,3.439-3.87,5.961-4.48s5.173-.647,7.635-1.449,4.856-2.683,5.141-5.264c-2.073.83-3.994-1.334-5.994-2.33-3.293-1.633-7.048-.1-10.442.28C836.938,246.967,833.283,245.348,829.348,245.655Z" transform="translate(-501.953 -187.602)"/><path class="e" d="M885.65,326.3s3.889,3.471,4.655,5" transform="translate(-536.889 -231.336)"/><path class="e" d="M886.577,371.51a41.822,41.822,0,0,0-7.1.559c-2.243.559-7.658,0-7.658,0" transform="translate(-529.402 -255.813)"/><g class="g" transform="translate(293.199 47.616)"><path d="M888.691,322.349a4.669,4.669,0,0,1-1.344.514,5.136,5.136,0,0,0,3.586-.514c6.539-3.737-6.911-12.139-6.911-12.139H881.78S895.23,318.616,888.691,322.349Z" transform="translate(-827.993 -270.24)"/><path d="M952.391,223.389a1.946,1.946,0,0,0-.046-.339,21.942,21.942,0,0,1-2.325.353A10.3,10.3,0,0,0,952.391,223.389Z" transform="translate(-864.94 -223.05)"/><path d="M804.084,318.658c3.921-2.99,1.683-19.985,1.683-19.985s-6.723-10.46-6.911-14.381-15.5-23.534-15.5-23.534c-2.054-1.119-4.3-5.228-4.3-5.228s-12.7-20.732-14.569-21.48l12.327,21.48s2.242,4.127,4.3,5.228c0,0,15.316,19.613,15.5,23.534s6.906,14.395,6.906,14.395,2.242,16.995-1.683,19.985c0,0,13.432,3.444,21.484,3.132C815.25,321.519,804.084,318.658,804.084,318.658Z" transform="translate(-764.49 -229.006)"/><path d="M859.03,314.022l-.11-.142a2.95,2.95,0,0,1-.39.087C858.7,313.99,858.869,314.008,859.03,314.022Z" transform="translate(-815.405 -272.227)"/></g><g class="g" transform="translate(356.887 47.593)"><path d="M929.3,223l-.115.023c-.2,5.737-4.178,19.214-4.178,19.214,0,2.426-2.614,6.163-2.614,6.163s-10.832,16.623-13.262,18.866-1.495,6.723-1.495,6.723l.023.046c-.073-1.509.11-3.847,1.656-5.278,2.426-2.242,13.262-18.866,13.262-18.866s2.614-3.737,2.614-6.163C925.2,243.755,930.052,227.32,929.3,223Z" transform="translate(-905.587 -223)"/><path d="M903.37,356.014c.28,1.587.092-.092.188,1.495,0,0,4.586-5.379,3.334-12.028A16.352,16.352,0,0,1,903.37,356.014Z" transform="translate(-903.37 -289.313)"/></g><ellipse class="ag" cx="196.12" cy="18.838" rx="196.12" ry="18.838" transform="translate(19.304 265.693)"/><path class="ah" d="M430.072,510.785c0,2.779-5.044,10.836-5.044,10.836s-5.044-8.057-5.044-10.836a5.044,5.044,0,1,1,10.061,0Z" transform="translate(-284.76 -328.287)"/><path class="ah" d="M448.172,541.2c-1.509,2.334-10.112,6.36-10.112,6.36s.156-9.5,1.665-11.831a5.044,5.044,0,1,1,8.447,5.471Z" transform="translate(-294.554 -343.317)"/><path class="ah" d="M445.243,596.648c-2.481,1.252-11.923.385-11.923.385s4.93-8.122,7.411-9.373a5.044,5.044,0,1,1,4.531,8.984Z" transform="translate(-291.988 -372.452)"/><path class="ah" d="M435.128,640.947c-2.233,1.651-11.708,2.4-11.708,2.4s3.485-8.837,5.723-10.492a5.044,5.044,0,0,1,5.962,8.089Z" transform="translate(-286.628 -396.913)"/><path class="ah" d="M412.879,555.277c1.995,1.935,11.281,3.944,11.281,3.944s-2.293-9.222-4.269-11.162a5.044,5.044,0,1,0-7.012,7.218Z" transform="translate(-279.948 -350.488)"/><path class="ah" d="M400.639,605.509c2.481,1.252,11.923.385,11.923.385s-4.911-8.121-7.392-9.351a5.044,5.044,0,0,0-4.531,8.984Z" transform="translate(-272.968 -377.442)"/><path class="ah" d="M396.294,656.359c2.233,1.651,11.708,2.4,11.708,2.4s-3.485-8.837-5.723-10.492a5.044,5.044,0,1,0-5.961,8.089Z" transform="translate(-270.641 -404.969)"/><path class="ai" d="M430.072,510.785c0,2.779-5.044,10.836-5.044,10.836s-5.044-8.057-5.044-10.836a5.044,5.044,0,1,1,10.061,0Z" transform="translate(-284.76 -328.287)"/><path class="ai" d="M448.172,541.2c-1.509,2.334-10.112,6.36-10.112,6.36s.156-9.5,1.665-11.831a5.044,5.044,0,1,1,8.447,5.471Z" transform="translate(-294.554 -343.317)"/><path class="ai" d="M445.243,596.648c-2.481,1.252-11.923.385-11.923.385s4.93-8.122,7.411-9.373a5.044,5.044,0,1,1,4.531,8.984Z" transform="translate(-291.988 -372.452)"/><path class="ai" d="M435.128,640.947c-2.233,1.651-11.708,2.4-11.708,2.4s3.485-8.837,5.723-10.492a5.044,5.044,0,0,1,5.962,8.089Z" transform="translate(-286.628 -396.913)"/><path class="ai" d="M412.879,555.277c1.995,1.935,11.281,3.944,11.281,3.944s-2.293-9.222-4.269-11.162a5.044,5.044,0,1,0-7.012,7.218Z" transform="translate(-279.948 -350.488)"/><path class="ai" d="M400.639,605.509c2.481,1.252,11.923.385,11.923.385s-4.911-8.121-7.392-9.351a5.044,5.044,0,0,0-4.531,8.984Z" transform="translate(-272.968 -377.442)"/><path class="ai" d="M396.294,656.359c2.233,1.651,11.708,2.4,11.708,2.4s-3.485-8.837-5.723-10.492a5.044,5.044,0,1,0-5.961,8.089Z" transform="translate(-270.641 -404.969)"/><path class="ah" d="M724.709,512.364c0,2.779-5.044,10.836-5.044,10.836s-5.044-8.057-5.044-10.836a5.044,5.044,0,0,1,10.061,0Z" transform="translate(-444.29 -329.545)"/><path class="ah" d="M742.822,541.9c-1.509,2.334-10.112,6.361-10.112,6.361s.156-9.5,1.665-11.831a5.044,5.044,0,1,1,8.447,5.471Z" transform="translate(-454.084 -343.696)"/><path class="ah" d="M739.923,597.338c-2.481,1.252-11.923.385-11.923.385s4.93-8.121,7.411-9.373a5.044,5.044,0,1,1,4.512,8.988Z" transform="translate(-451.534 -372.82)"/><path class="ah" d="M729.768,641.647c-2.233,1.651-11.707,2.4-11.707,2.4s3.485-8.837,5.723-10.492a5.044,5.044,0,0,1,5.961,8.089Z" transform="translate(-446.153 -397.292)"/><path class="ah" d="M707.538,555.977c1.995,1.935,11.281,3.944,11.281,3.944s-2.293-9.222-4.269-11.162a5.044,5.044,0,1,0-7.012,7.218Z" transform="translate(-439.483 -350.867)"/><path class="ah" d="M695.257,606.182c2.481,1.252,11.923.385,11.923.385s-4.93-8.121-7.411-9.373a5.044,5.044,0,0,0-4.531,8.984Z" transform="translate(-432.471 -377.794)"/><path class="ah" d="M691.8,657.688c2.233,1.651,11.708,2.4,11.708,2.4s-3.485-8.837-5.723-10.492a5.044,5.044,0,0,0-5.961,8.089Z" transform="translate(-431.024 -405.977)"/><path class="ai" d="M724.709,512.364c0,2.779-5.044,10.836-5.044,10.836s-5.044-8.057-5.044-10.836a5.044,5.044,0,0,1,10.061,0Z" transform="translate(-444.29 -329.545)"/><path class="ai" d="M742.822,541.9c-1.509,2.334-10.112,6.361-10.112,6.361s.156-9.5,1.665-11.831a5.044,5.044,0,1,1,8.447,5.471Z" transform="translate(-454.084 -343.696)"/><path class="ai" d="M739.923,597.338c-2.481,1.252-11.923.385-11.923.385s4.93-8.121,7.411-9.373a5.044,5.044,0,1,1,4.512,8.988Z" transform="translate(-451.534 -372.82)"/><path class="ai" d="M729.768,641.647c-2.233,1.651-11.707,2.4-11.707,2.4s3.485-8.837,5.723-10.492a5.044,5.044,0,0,1,5.961,8.089Z" transform="translate(-446.153 -397.292)"/><path class="ai" d="M707.538,555.977c1.995,1.935,11.281,3.944,11.281,3.944s-2.293-9.222-4.269-11.162a5.044,5.044,0,1,0-7.012,7.218Z" transform="translate(-439.483 -350.867)"/><path class="ai" d="M695.257,606.182c2.481,1.252,11.923.385,11.923.385s-4.93-8.121-7.411-9.373a5.044,5.044,0,0,0-4.531,8.984Z" transform="translate(-432.471 -377.794)"/><path class="ai" d="M691.8,657.688c2.233,1.651,11.708,2.4,11.708,2.4s-3.485-8.837-5.723-10.492a5.044,5.044,0,0,0-5.961,8.089Z" transform="translate(-431.024 -405.977)"/><path class="aj" d="M474.281,156.565h-2.192a1.536,1.536,0,1,0,0-3.068H454.333a1.536,1.536,0,0,0,0,3.068h2.192a1.536,1.536,0,1,0,0,3.068h-3.068a1.536,1.536,0,1,0,0,3.068h17.756a1.536,1.536,0,1,0,0-3.068h3.068a1.536,1.536,0,0,0,0-3.068Z" transform="translate(-302.014 -137.775)"/><path class="ak" d="M174.276,634s8.025,15.752,1.486,24.369.6,32.1.6,32.1" transform="translate(-151.047 -397.931)"/><path class="ai" d="M175.737,616.763a9.282,9.282,0,0,1-2.229,5.5,7.908,7.908,0,0,1,0-11.006A9.281,9.281,0,0,1,175.737,616.763Z" transform="translate(-150.114 -385.619)"/><path class="ak" d="M180.067,634s-8.025,15.752-1.486,24.369-.6,32.1-.6,32.1" transform="translate(-152.678 -397.931)"/><path class="ah" d="M179.67,616.763a9.282,9.282,0,0,0,2.229,5.5,7.908,7.908,0,0,0,0-11.006A9.281,9.281,0,0,0,179.67,616.763Z" transform="translate(-154.656 -385.619)"/><path class="al" d="M179.67,616.763a9.282,9.282,0,0,0,2.229,5.5,7.908,7.908,0,0,0,0-11.006A9.281,9.281,0,0,0,179.67,616.763Z" transform="translate(-154.656 -385.619)"/><path class="ak" d="M190.5,634s8.025,15.752,1.486,24.369.6,32.1.6,32.1" transform="translate(-159.828 -397.931)"/><path class="ai" d="M191.907,616.763a9.282,9.282,0,0,1-2.229,5.5,7.908,7.908,0,0,1,0-11.006A9.281,9.281,0,0,1,191.907,616.763Z" transform="translate(-158.869 -385.619)"/><path class="ai" d="M188.04,644.283a9.266,9.266,0,0,1-5.42,2.417,7.9,7.9,0,0,1,7.626-7.92A9.363,9.363,0,0,1,188.04,644.283Z" transform="translate(-156.254 -400.519)"/><path class="al" d="M188.5,667.983a9.265,9.265,0,0,1-5.42,2.417,7.9,7.9,0,0,1,7.626-7.92A9.259,9.259,0,0,1,188.5,667.983Z" transform="translate(-156.503 -413.351)"/><path class="ai" d="M163.757,684.332a9.261,9.261,0,0,1,1.921,5.613,7.9,7.9,0,0,1-7.209-8.3A9.262,9.262,0,0,1,163.757,684.332Z" transform="translate(-143.178 -423.725)"/><path class="ah" d="M167.135,635.523a9.264,9.264,0,0,1,3.352,4.9,7.894,7.894,0,0,1-9.167-6.076A9.169,9.169,0,0,1,167.135,635.523Z" transform="translate(-144.721 -398.079)"/><path class="al" d="M167.135,635.523a9.264,9.264,0,0,1,3.352,4.9,7.894,7.894,0,0,1-9.167-6.076A9.169,9.169,0,0,1,167.135,635.523Z" transform="translate(-144.721 -398.079)"/><path class="ak" d="M196.267,634s-8.025,15.752-1.486,24.369-.6,32.1-.6,32.1" transform="translate(-161.449 -397.931)"/><path class="ah" d="M195.87,616.763a9.282,9.282,0,0,0,2.229,5.5,7.908,7.908,0,0,0,0-11.006A9.281,9.281,0,0,0,195.87,616.763Z" transform="translate(-163.427 -385.619)"/><path class="al" d="M195.87,616.763a9.282,9.282,0,0,0,2.229,5.5,7.908,7.908,0,0,0,0-11.006A9.281,9.281,0,0,0,195.87,616.763Z" transform="translate(-163.427 -385.619)"/><path class="ah" d="M194.563,648.512a9.391,9.391,0,0,0-2.293,5.5,9.253,9.253,0,0,0,5.448-2.353,9.391,9.391,0,0,0,2.293-5.5A9.254,9.254,0,0,0,194.563,648.512Z" transform="translate(-161.478 -404.515)"/><path class="al" d="M194.563,648.512a9.391,9.391,0,0,0-2.293,5.5,9.253,9.253,0,0,0,5.448-2.353,9.391,9.391,0,0,0,2.293-5.5A9.254,9.254,0,0,0,194.563,648.512Z" transform="translate(-161.478 -404.515)"/><path class="ai" d="M203.673,681.322a9.391,9.391,0,0,0-2.293,5.5,9.254,9.254,0,0,0,5.448-2.353,9.391,9.391,0,0,0,2.293-5.5A9.223,9.223,0,0,0,203.673,681.322Z" transform="translate(-166.411 -422.279)"/><path class="ak" d="M193,667.686s4.829-7.612,11.611-7.8" transform="translate(-161.874 -411.949)"/><path class="ak" d="M171.061,657.656s-4.829-7.612-11.611-7.8" transform="translate(-143.709 -406.518)"/><path class="ak" d="M183.4,681.356s4.829-7.612,11.611-7.8" transform="translate(-156.676 -419.35)"/><circle class="ai" cx="1.252" cy="1.252" r="1.252" transform="translate(41.252 246.648)"/><circle class="ai" cx="1.252" cy="1.252" r="1.252" transform="translate(14.608 242.154)"/><path class="ak" d="M177.441,686.8s-4.829-7.612-11.611-7.8" transform="translate(-147.163 -422.295)"/><circle class="ai" cx="1.252" cy="1.252" r="1.252" transform="translate(17.534 255.526)"/><circle class="ai" cx="1.252" cy="1.252" r="1.252" transform="translate(37.175 253.022)"/><path class="am" d="M195.422,723.649s-11.639-2.33-14.748-5.434-17.068-8.534-18.623-4.654-20.952,17.073-7.759,19.4,31.041,3.1,34.921,1.55S195.422,723.649,195.422,723.649Z" transform="translate(-138.441 -440.278)"/><path class="an" d="M154.3,744.922c13.193,2.329,31.041,3.1,34.921,1.55,2.953-1.183,5.008-6.879,5.819-9.5l.39.083s-2.33,9.314-6.209,10.864-21.727.775-34.921-1.55c-3.806-.674-4.9-2.251-4.485-4.246C150.134,743.4,151.464,744.422,154.3,744.922Z" transform="translate(-138.447 -453.681)"/><path class="ai" d="M1007.448,641.78s3.843,5.044-1.775,12.611-10.249,13.991-8.374,18.724c0,0,8.475-14.092,15.372-14.289S1015.037,650.25,1007.448,641.78Z" transform="translate(-597.109 -402.144)"/><path class="e" d="M1007.7,641.78a6.213,6.213,0,0,1,.784,1.578c6.732,7.906,10.313,15.284,3.847,15.472-6.026.174-13.253,10.946-14.986,13.67a5.873,5.873,0,0,0,.206.619s8.475-14.092,15.372-14.289S1015.294,650.25,1007.7,641.78Z" transform="translate(-597.366 -402.144)"/><path class="ao" d="M1034.427,654.413c0,1.77-.2,3.21-.458,3.21s-.459-1.435-.459-3.21.248-.917.491-.917S1034.427,652.647,1034.427,654.413Z" transform="translate(-616.944 -408.374)"/><path class="ao" d="M1037.283,658.92c-1.555.848-2.907,1.376-3.022,1.142s1.046-1.078,2.6-1.922.94-.229,1.059,0S1038.833,658.072,1037.283,658.92Z" transform="translate(-617.346 -410.768)"/><path class="ai" d="M965.487,641.78s-3.843,5.044,1.775,12.611,10.249,13.991,8.374,18.724c0,0-8.474-14.092-15.372-14.289S957.9,650.25,965.487,641.78Z" transform="translate(-575.445 -402.144)"/><path class="e" d="M965.487,641.78a6.218,6.218,0,0,0-.784,1.578c-6.732,7.906-10.313,15.284-3.847,15.472,6.026.174,13.253,10.946,14.986,13.67a5.817,5.817,0,0,1-.206.619s-8.474-14.092-15.372-14.289S957.9,650.25,965.487,641.78Z" transform="translate(-575.445 -402.144)"/><path class="ao" d="M960.09,654.413c0,1.77.2,3.21.459,3.21s.459-1.435.459-3.21-.248-.917-.491-.917S960.09,652.647,960.09,654.413Z" transform="translate(-577.193 -408.374)"/><path class="ao" d="M953.621,658.92c1.555.848,2.907,1.376,3.022,1.142s-1.046-1.078-2.6-1.922-.94-.229-1.059,0S952.066,658.072,953.621,658.92Z" transform="translate(-573.177 -410.768)"/><path class="am" d="M962.76,701.818s10.745-.33,13.982-2.637,16.509-5.044,17.33-1.376,16.146,18.393,4.017,18.49-28.184-1.889-31.417-3.857S962.76,701.818,962.76,701.818Z" transform="translate(-578.638 -431.507)"/><path class="an" d="M998.3,721.866c-12.129.1-28.184-1.889-31.417-3.857-2.463-1.5-3.444-6.879-3.77-9.359h-.358s.679,8.667,3.912,10.634,19.288,3.958,31.417,3.857c3.5-.027,4.71-1.275,4.645-3.118C1002.248,721.146,1000.932,721.843,998.3,721.866Z" transform="translate(-578.638 -438.348)"/><path class="aj" d="M268.365,189.118h-2.88a2.018,2.018,0,1,0,0-4.031H242.152a2.018,2.018,0,0,0,0,4.031h2.88a2.018,2.018,0,0,0,0,4.031H241a2.018,2.018,0,0,0,0,4.031h23.332a2.018,2.018,0,1,0,0-4.031h4.031a2.018,2.018,0,0,0,0-4.031Z" transform="translate(-186.822 -154.879)"/></g></svg>