<svg xmlns="http://www.w3.org/2000/svg" width="26.674" height="19.694" viewBox="0 0 26.674 19.694"><defs><style>.a{fill:#fff;}</style></defs><path class="a" d="M0,34.931H6.265c-.107,4.715-1.4,5.25-3.029,5.4l-.627.08V45.6l.723-.04c2.124-.123,4.472-.519,6.039-2.516,1.373-1.751,1.979-4.611,1.979-9V25.905H0Z" transform="translate(0 -25.905)"/><path class="a" d="M111,25.905v9.026h6.181c-.107,4.715-1.36,5.25-2.987,5.4l-.585.08V45.6l.681-.04c2.124-.123,4.493-.519,6.06-2.516,1.373-1.751,2-4.611,2-9V25.905Z" transform="translate(-95.676 -25.905)"/></svg>